<svg width="241" height="132" viewBox="0 0 241 132" fill="none" xmlns="http://www.w3.org/2000/svg">
<rect width="240.399" height="132" fill="white"/>
<path d="M54.2303 37.0039C55.0267 38.2942 54.0717 39.9147 52.4798 39.9722C46.6672 40.1851 40.7405 41.5432 35.1528 44.2169L33.3051 45.2144C33.3051 45.2222 33.2796 45.1736 37.7776 52.4919C38.1904 53.1615 37.9454 54.0168 37.2304 54.4037L35.7731 55.1906C35.0581 55.5767 34.143 55.3476 33.7303 54.6779L29.2436 47.4082L28.5154 47.8021C27.0846 48.5742 25.2552 48.1159 24.429 46.7774L21.0642 41.3255C20.2388 39.987 20.7287 38.2756 22.1595 37.5026L28.7969 33.9175C33.8694 30.8478 38.1678 26.7834 41.3899 22.0022C42.2394 20.7414 44.2166 20.7779 45.0129 22.0682L47.8919 26.734C49.546 25.8406 51.6619 26.3712 52.6169 27.9187C53.5718 29.4661 53.0047 31.4448 51.3505 32.3381L54.2303 37.0039Z" fill="#D1E7FF"/>
<path d="M52.6168 27.9189C53.5718 29.4664 53.0046 31.445 51.3505 32.3384L47.8918 26.7342C49.546 25.8408 51.6619 26.3714 52.6168 27.9189Z" fill="#D1E7FF"/>
<path d="M45.0129 22.0682C45.4102 22.7125 45.3847 23.5118 44.9451 24.1316C41.3983 29.1311 36.6444 33.6487 30.8305 37.1677L23.0539 41.3681C22.5199 41.6571 22.0972 42.0572 21.8016 42.5194L21.0642 41.3254C20.2388 39.9869 20.7287 38.2755 22.1595 37.5026L28.7969 33.9174C33.8694 30.8478 38.1678 26.7833 41.3899 22.0022C42.2394 20.7413 44.2165 20.7779 45.0129 22.0682Z" fill="#E8F3FF"/>
<path d="M28.7969 33.9177L35.1528 44.2171C33.8791 44.9047 29.7872 47.1145 28.5154 47.8023C27.0846 48.5745 25.2552 48.1161 24.429 46.7776L21.0642 41.3257C20.2388 39.9872 20.7287 38.2758 22.1595 37.5029L28.7969 33.9177Z" fill="#B9DCFF"/>
<path d="M30.8097 37.1794C22.3641 41.7406 22.9238 41.4233 22.6513 41.6216C22.1382 41.9951 21.3894 41.852 21.0641 41.3254C20.2387 39.9869 20.7286 38.2756 22.1594 37.5026L28.7968 33.9175L30.8097 37.1794Z" fill="#D1E7FF"/>
<path d="M34.515 47.183C32.152 48.463 33.8906 47.521 30.4577 49.3744L29.2437 47.4083L33.3051 45.2153L34.515 47.183Z" fill="#B9DCFF"/>
<path d="M52.41 31.4495C52.136 31.8014 51.7798 32.1067 51.3504 32.3382L47.8918 26.7341C48.3212 26.5018 48.782 26.3667 49.2446 26.3201C49.4186 26.6022 52.2582 31.2035 52.41 31.4495Z" fill="#B9DCFF"/>
<path d="M52.231 32.5215C54.8236 30.5404 53.928 26.6226 50.6884 25.8107C49.8419 25.5985 48.9656 25.6426 48.1623 25.9289L45.5882 21.7579C44.5407 20.0606 41.9428 20.0156 40.8274 21.6705C37.6614 26.3684 33.4435 30.3641 28.4358 33.3962C28.1507 33.5685 28.045 33.9246 28.2137 34.2144C28.2408 34.2608 32.5045 41.1688 32.5328 41.2145C32.7161 41.5116 33.1222 41.6137 33.4402 41.442C33.7579 41.2704 33.8668 40.8903 33.6834 40.593L29.685 34.1141C34.4599 31.1279 38.6887 27.1745 41.9514 22.3334C42.5349 21.4675 43.8913 21.4943 44.4375 22.3794L53.6546 37.3144C54.2015 38.2006 53.5458 39.3118 52.4541 39.3516C46.3293 39.5748 40.3328 41.0403 34.8502 43.6636C34.8269 43.6747 28.6109 47.0326 28.1828 47.2638C27.0716 47.864 25.6459 47.5066 25.0045 46.4671L21.6396 41.0146C20.9981 39.9752 21.3802 38.6414 22.4913 38.0412L26.541 35.8539C26.8587 35.6823 26.9676 35.3022 26.7842 35.0049C26.6007 34.7076 26.1943 34.6059 25.8767 34.7775L21.8269 36.9648C20.0814 37.9076 19.4812 40.0031 20.489 41.6361L23.8539 47.0885C24.8618 48.7216 27.1018 49.2829 28.8473 48.3401L29.0005 48.2574L33.1549 54.989C33.7516 55.9559 35.0711 56.2871 36.1053 55.7286L37.5624 54.9416C38.5962 54.3832 38.9498 53.1487 38.3529 52.1815L35.4086 47.4106C35.2252 47.1134 34.8188 47.0116 34.5011 47.1832C34.1834 47.3548 34.0746 47.7349 34.258 48.0321L37.2023 52.803C37.432 53.1751 37.296 53.6503 36.8981 53.8651L35.441 54.6522C35.0431 54.867 34.5353 54.7397 34.3056 54.3675L30.1512 47.6359L35.4703 44.7629C40.6753 42.275 46.4658 40.8136 52.5059 40.5935C54.5992 40.5171 55.8512 38.3873 54.8052 36.6928L52.231 32.5215ZM52.0412 28.2291C52.6971 29.2919 52.4615 30.6106 51.5536 31.4239L48.8395 27.026C50.0293 26.6994 51.3748 27.1492 52.0412 28.2291ZM58.5387 25.4661L56.8199 26.3945C56.5019 26.5662 56.0958 26.4642 55.9124 26.1671C55.7289 25.8699 55.8379 25.4897 56.1556 25.3181L57.8744 24.3897C58.1924 24.218 58.5985 24.32 58.7819 24.6172C58.9653 24.9144 58.8565 25.2945 58.5387 25.4661ZM51.1467 21.924L51.5659 20.4608C51.6609 20.1292 52.0249 19.9326 52.3796 20.0213C52.734 20.1102 52.9443 20.451 52.8493 20.7824L52.4301 22.2457C52.3353 22.5764 51.972 22.774 51.6164 22.6852C51.2621 22.5963 51.0518 22.2556 51.1467 21.924ZM59.8353 32.1022C59.7557 32.3798 59.4873 32.5629 59.1939 32.5629C59.0737 32.5629 59.1578 32.5757 57.4574 32.1495C57.103 32.0606 56.8927 31.7199 56.9876 31.3883C57.0826 31.0568 57.4469 30.8602 57.8013 30.9489L59.3655 31.3409C59.7198 31.4298 59.9302 31.7706 59.8353 32.1022Z" fill="#007FFC"/>
<path d="M54.2303 93.0039C55.0267 94.2942 54.0717 95.9147 52.4798 95.9722C46.6672 96.1851 40.7405 97.5432 35.1528 100.217L33.3051 101.214C33.3051 101.222 33.2796 101.174 37.7776 108.492C38.1904 109.162 37.9454 110.017 37.2304 110.404L35.7731 111.191C35.0581 111.577 34.143 111.348 33.7303 110.678L29.2436 103.408L28.5154 103.802C27.0846 104.574 25.2552 104.116 24.429 102.777L21.0642 97.3255C20.2388 95.987 20.7287 94.2756 22.1595 93.5026L28.7969 89.9175C33.8694 86.8478 38.1678 82.7834 41.3899 78.0022C42.2394 76.7414 44.2166 76.7779 45.0129 78.0682L47.8919 82.734C49.546 81.8406 51.6619 82.3712 52.6169 83.9187C53.5718 85.4661 53.0047 87.4448 51.3505 88.3381L54.2303 93.0039Z" fill="#E1F4F5"/>
<path d="M52.6168 83.9189C53.5718 85.4664 53.0046 87.445 51.3505 88.3384L47.8918 82.7342C49.546 81.8408 51.6619 82.3714 52.6168 83.9189Z" fill="#E1F4F5"/>
<path d="M45.0129 78.0682C45.4102 78.7125 45.3847 79.5118 44.9451 80.1316C41.3983 85.1311 36.6444 89.6487 30.8305 93.1677L23.0539 97.3681C22.5199 97.6571 22.0972 98.0572 21.8016 98.5194L21.0642 97.3254C20.2388 95.9869 20.7287 94.2755 22.1595 93.5026L28.7969 89.9174C33.8694 86.8478 38.1678 82.7833 41.3899 78.0022C42.2394 76.7413 44.2165 76.7779 45.0129 78.0682Z" fill="#F4FEFF"/>
<path d="M28.7969 89.9177L35.1528 100.217C33.8791 100.905 29.7872 103.114 28.5154 103.802C27.0846 104.574 25.2552 104.116 24.429 102.778L21.0642 97.3257C20.2388 95.9872 20.7287 94.2758 22.1595 93.5029L28.7969 89.9177Z" fill="#CAEFF2"/>
<path d="M30.8097 93.1794C22.3641 97.7406 22.9238 97.4233 22.6513 97.6216C22.1382 97.9951 21.3894 97.852 21.0641 97.3254C20.2387 95.9869 20.7286 94.2756 22.1594 93.5026L28.7968 89.9175L30.8097 93.1794Z" fill="#E1F4F5"/>
<path d="M34.515 103.183C32.152 104.463 33.8906 103.521 30.4577 105.374L29.2437 103.408L33.3051 101.215L34.515 103.183Z" fill="#CAEFF2"/>
<path d="M52.41 87.4495C52.136 87.8014 51.7798 88.1067 51.3504 88.3382L47.8918 82.7341C48.3212 82.5018 48.782 82.3667 49.2446 82.3201C49.4186 82.6022 52.2582 87.2035 52.41 87.4495Z" fill="#CAEFF2"/>
<path d="M52.231 88.5215C54.8236 86.5404 53.928 82.6226 50.6884 81.8107C49.8419 81.5985 48.9656 81.6426 48.1623 81.9289L45.5882 77.7579C44.5407 76.0606 41.9428 76.0156 40.8274 77.6705C37.6614 82.3684 33.4435 86.3641 28.4358 89.3962C28.1507 89.5685 28.045 89.9246 28.2137 90.2144C28.2408 90.2608 32.5045 97.1688 32.5328 97.2145C32.7161 97.5116 33.1222 97.6137 33.4402 97.442C33.7579 97.2704 33.8668 96.8903 33.6834 96.593L29.685 90.1141C34.4599 87.1279 38.6887 83.1745 41.9514 78.3334C42.5349 77.4675 43.8913 77.4943 44.4375 78.3794L53.6546 93.3144C54.2015 94.2006 53.5458 95.3118 52.4541 95.3516C46.3293 95.5748 40.3328 97.0403 34.8502 99.6636C34.8269 99.6747 28.6109 103.033 28.1828 103.264C27.0716 103.864 25.6459 103.507 25.0045 102.467L21.6396 97.0146C20.9981 95.9752 21.3802 94.6414 22.4913 94.0412L26.541 91.8539C26.8587 91.6823 26.9676 91.3022 26.7842 91.0049C26.6007 90.7076 26.1943 90.6059 25.8767 90.7775L21.8269 92.9648C20.0814 93.9076 19.4812 96.0031 20.489 97.6361L23.8539 103.088C24.8618 104.722 27.1018 105.283 28.8473 104.34L29.0005 104.257L33.1549 110.989C33.7516 111.956 35.0711 112.287 36.1053 111.729L37.5624 110.942C38.5962 110.383 38.9498 109.149 38.3529 108.181L35.4086 103.411C35.2252 103.113 34.8188 103.012 34.5011 103.183C34.1834 103.355 34.0746 103.735 34.258 104.032L37.2023 108.803C37.432 109.175 37.296 109.65 36.8981 109.865L35.441 110.652C35.0431 110.867 34.5353 110.74 34.3056 110.368L30.1512 103.636L35.4703 100.763C40.6753 98.275 46.4658 96.8136 52.5059 96.5935C54.5992 96.5171 55.8512 94.3873 54.8052 92.6928L52.231 88.5215ZM52.0412 84.2291C52.6971 85.2919 52.4615 86.6106 51.5536 87.4239L48.8395 83.026C50.0293 82.6994 51.3748 83.1492 52.0412 84.2291ZM58.5387 81.4661L56.8199 82.3945C56.5019 82.5662 56.0958 82.4642 55.9124 82.1671C55.7289 81.8699 55.8379 81.4897 56.1556 81.3181L57.8744 80.3897C58.1924 80.218 58.5985 80.32 58.7819 80.6172C58.9653 80.9144 58.8565 81.2945 58.5387 81.4661ZM51.1467 77.924L51.5659 76.4608C51.6609 76.1292 52.0249 75.9326 52.3796 76.0213C52.734 76.1102 52.9443 76.451 52.8493 76.7824L52.4301 78.2457C52.3353 78.5764 51.972 78.774 51.6164 78.6852C51.2621 78.5963 51.0518 78.2556 51.1467 77.924ZM59.8353 88.1022C59.7557 88.3798 59.4873 88.5629 59.1939 88.5629C59.0737 88.5629 59.1578 88.5757 57.4574 88.1495C57.103 88.0606 56.8927 87.7199 56.9876 87.3883C57.0826 87.0568 57.4469 86.8602 57.8013 86.9489L59.3655 87.3409C59.7198 87.4298 59.9302 87.7706 59.8353 88.1022Z" fill="#52C29D"/>
<path d="M144.777 33.3215V52.9997C144.777 54.325 143.628 55.3997 142.211 55.3997H113.992C112.575 55.3997 111.426 54.325 111.426 52.9997C111.426 34.3965 111.425 37.8814 111.432 33.3215H144.777Z" fill="#D1E7FF"/>
<path d="M144.777 33.3215V37.8664C144.777 38.8499 143.934 39.6647 142.883 39.6687C142.871 39.6687 113.341 39.6687 113.319 39.6687C112.268 39.6644 111.426 38.8496 111.426 37.8664C111.426 36.5546 111.425 37.4602 111.432 33.3215H144.777Z" fill="#B9DCFF"/>
<path d="M134.595 44.6749V55.3998H121.608V44.6749C121.608 43.3496 122.757 42.2749 124.173 42.2749H132.03C133.446 42.2749 134.595 43.3496 134.595 44.6749Z" fill="#E8F3FF"/>
<path d="M146.701 33.3215C146.701 35.7228 144.619 37.6715 142.051 37.6715C139.483 37.6715 137.401 35.7237 137.401 33.3215C137.401 35.7237 135.319 37.6715 132.751 37.6715C130.183 37.6715 128.101 35.7237 128.101 33.3215C128.101 35.7237 126.019 37.6715 123.452 37.6715C120.884 37.6715 118.802 35.7237 118.802 33.3215C118.798 35.708 116.698 37.6715 114.152 37.6715C111.609 37.6715 109.506 35.7105 109.502 33.3215C109.502 29.5409 109.491 29.7736 109.53 29.6C109.569 29.4297 109.302 30.0328 113.336 21.3231C113.54 20.8843 114.002 20.6001 114.513 20.6001H141.69C142.201 20.6001 142.663 20.8843 142.867 21.3231C146.904 30.0392 146.634 29.4296 146.673 29.6C146.712 29.7732 146.701 29.5368 146.701 33.3215Z" fill="#B9DCFF"/>
<path d="M146.701 33.3215C146.701 35.7227 144.619 37.6714 142.051 37.6714C139.483 37.6714 137.401 35.7237 137.401 33.3215C137.401 35.7237 135.319 37.6714 132.751 37.6714C130.183 37.6714 128.101 35.7237 128.101 33.3215C128.101 35.7237 126.019 37.6714 123.452 37.6714C120.884 37.6714 118.802 35.7237 118.802 33.3215C118.798 35.7079 116.698 37.6714 114.152 37.6714C111.609 37.6714 109.506 35.7104 109.502 33.3215C109.496 29.5203 109.497 29.7484 109.53 29.6001H146.673C146.712 29.7733 146.701 29.5369 146.701 33.3215Z" fill="#B9DCFF"/>
<path d="M141.344 23.8062C133.2 22.7577 124.982 24.1025 118.334 28.7884C117.586 29.3159 116.674 29.6001 115.737 29.6001H109.53C109.569 29.4298 109.302 30.0329 113.336 21.3231C113.54 20.8843 114.002 20.6001 114.513 20.6001H141.69C142.201 20.6001 142.664 20.884 142.867 21.3228L143.046 21.7084C143.546 22.7894 142.591 23.9669 141.344 23.8062Z" fill="white"/>
<path d="M145.418 40.325V53C145.418 54.6542 143.979 56 142.211 56H113.992C112.223 56 110.785 54.6542 110.785 53V40.325C110.785 39.9937 111.072 39.725 111.426 39.725C111.78 39.725 112.068 39.9937 112.068 40.325V53C112.068 53.9925 112.931 54.8 113.992 54.8H120.966V44.675C120.966 43.0208 122.405 41.675 124.173 41.675H132.03C133.798 41.675 135.237 43.0208 135.237 44.675V52.4C135.237 52.7313 134.949 53 134.595 53C134.241 53 133.954 52.7313 133.954 52.4V44.675C133.954 43.6825 133.091 42.875 132.03 42.875H124.173C123.112 42.875 122.249 43.6825 122.249 44.675V54.8H127.46V45.35C127.46 45.0187 127.747 44.75 128.101 44.75C128.456 44.75 128.743 45.0187 128.743 45.35V54.8H142.211C143.272 54.8 144.135 53.9925 144.135 53V40.325C144.135 39.9937 144.422 39.725 144.777 39.725C145.131 39.725 145.418 39.9936 145.418 40.325ZM113.03 29.6C113.03 29.9314 113.317 30.2 113.671 30.2C148.566 30.2 146.836 30.2584 147.091 30.0754C147.224 29.9795 147.311 29.8411 147.335 29.683C147.371 29.4419 147.601 30.0349 143.12 20.3614C143.019 20.142 142.788 20 142.532 20H113.671C113.415 20 113.184 20.142 113.082 20.3614L108.914 29.3614C108.84 29.5206 108.861 29.268 108.861 33.3224C108.865 36.0513 111.239 38.2714 114.152 38.2714C116.154 38.2714 117.902 37.2222 118.8 35.6797C120.807 39.129 126.091 39.1328 128.101 35.682C130.11 39.13 135.392 39.1308 137.401 35.682C138.299 37.2232 140.046 38.2714 142.051 38.2714C144.968 38.2714 147.342 36.0509 147.342 33.3214C147.342 32.9901 147.055 32.7214 146.701 32.7214C146.346 32.7214 146.059 32.9901 146.059 33.3214C146.059 35.3892 144.261 37.0714 142.051 37.0714C139.841 37.0714 138.042 35.3892 138.042 33.3214C138.042 32.9901 137.755 32.7214 137.401 32.7214C137.047 32.7214 136.76 32.9901 136.76 33.3214C136.76 35.3892 134.961 37.0714 132.751 37.0714C130.541 37.0714 128.743 35.3892 128.743 33.3214C128.743 32.9901 128.456 32.7214 128.101 32.7214C127.747 32.7214 127.46 32.9901 127.46 33.3214C127.46 35.3892 125.662 37.0714 123.452 37.0714C121.29 37.0714 119.443 35.4466 119.443 33.2914C119.443 32.9601 119.156 32.6914 118.802 32.6914C118.448 32.6914 118.16 32.9601 118.16 33.2914C118.16 35.4284 116.325 37.0714 114.152 37.0714C111.945 37.0714 110.147 35.3887 110.143 33.3214V29.7244L114.092 21.2H142.111L145.724 29H113.671C113.317 29 113.03 29.2686 113.03 29.6Z" fill="#007FFC"/>
<path d="M144.777 89.3215V109C144.777 110.325 143.628 111.4 142.211 111.4H113.992C112.575 111.4 111.426 110.325 111.426 109C111.426 90.3965 111.425 93.8814 111.432 89.3215H144.777Z" fill="#E1F4F5"/>
<path d="M144.777 89.3215V93.8664C144.777 94.8499 143.934 95.6647 142.883 95.6687C142.871 95.6687 113.341 95.6687 113.319 95.6687C112.268 95.6644 111.426 94.8496 111.426 93.8664C111.426 92.5546 111.425 93.4602 111.432 89.3215H144.777Z" fill="#CAEFF2"/>
<path d="M134.595 100.675V111.4H121.608V100.675C121.608 99.3496 122.757 98.2749 124.173 98.2749H132.03C133.446 98.2749 134.595 99.3496 134.595 100.675Z" fill="#F4FEFF"/>
<path d="M146.701 89.3215C146.701 91.7228 144.619 93.6715 142.051 93.6715C139.483 93.6715 137.401 91.7237 137.401 89.3215C137.401 91.7237 135.319 93.6715 132.751 93.6715C130.183 93.6715 128.101 91.7237 128.101 89.3215C128.101 91.7237 126.019 93.6715 123.452 93.6715C120.884 93.6715 118.802 91.7237 118.802 89.3215C118.798 91.708 116.698 93.6715 114.152 93.6715C111.609 93.6715 109.506 91.7105 109.502 89.3215C109.502 85.5409 109.491 85.7736 109.53 85.6C109.569 85.4297 109.302 86.0328 113.336 77.3231C113.54 76.8843 114.002 76.6001 114.513 76.6001H141.69C142.201 76.6001 142.663 76.8843 142.867 77.3231C146.904 86.0392 146.634 85.4296 146.673 85.6C146.712 85.7732 146.701 85.5368 146.701 89.3215Z" fill="#CAEFF2"/>
<path d="M146.701 89.3215C146.701 91.7227 144.619 93.6714 142.051 93.6714C139.483 93.6714 137.401 91.7237 137.401 89.3215C137.401 91.7237 135.319 93.6714 132.751 93.6714C130.183 93.6714 128.101 91.7237 128.101 89.3215C128.101 91.7237 126.019 93.6714 123.452 93.6714C120.884 93.6714 118.802 91.7237 118.802 89.3215C118.798 91.7079 116.698 93.6714 114.152 93.6714C111.609 93.6714 109.506 91.7104 109.502 89.3215C109.496 85.5203 109.497 85.7484 109.53 85.6001H146.673C146.712 85.7733 146.701 85.5369 146.701 89.3215Z" fill="#CAEFF2"/>
<path d="M141.344 79.8062C133.2 78.7577 124.982 80.1025 118.334 84.7884C117.586 85.3159 116.674 85.6001 115.737 85.6001H109.53C109.569 85.4298 109.302 86.0329 113.336 77.3231C113.54 76.8843 114.002 76.6001 114.513 76.6001H141.69C142.201 76.6001 142.664 76.884 142.867 77.3228L143.046 77.7084C143.546 78.7894 142.591 79.9669 141.344 79.8062Z" fill="white"/>
<path d="M145.418 96.325V109C145.418 110.654 143.979 112 142.211 112H113.992C112.223 112 110.785 110.654 110.785 109V96.325C110.785 95.9937 111.072 95.725 111.426 95.725C111.78 95.725 112.068 95.9937 112.068 96.325V109C112.068 109.993 112.931 110.8 113.992 110.8H120.966V100.675C120.966 99.0208 122.405 97.675 124.173 97.675H132.03C133.798 97.675 135.237 99.0208 135.237 100.675V108.4C135.237 108.731 134.949 109 134.595 109C134.241 109 133.954 108.731 133.954 108.4V100.675C133.954 99.6825 133.091 98.875 132.03 98.875H124.173C123.112 98.875 122.249 99.6825 122.249 100.675V110.8H127.46V101.35C127.46 101.019 127.747 100.75 128.101 100.75C128.456 100.75 128.743 101.019 128.743 101.35V110.8H142.211C143.272 110.8 144.135 109.993 144.135 109V96.325C144.135 95.9937 144.422 95.725 144.777 95.725C145.131 95.725 145.418 95.9936 145.418 96.325ZM113.03 85.6C113.03 85.9314 113.317 86.2 113.671 86.2C148.566 86.2 146.836 86.2584 147.091 86.0754C147.224 85.9795 147.311 85.8411 147.335 85.683C147.371 85.4419 147.601 86.0349 143.12 76.3614C143.019 76.142 142.788 76 142.532 76H113.671C113.415 76 113.184 76.142 113.082 76.3614L108.914 85.3614C108.84 85.5206 108.861 85.268 108.861 89.3224C108.865 92.0513 111.239 94.2714 114.152 94.2714C116.154 94.2714 117.902 93.2222 118.8 91.6797C120.807 95.129 126.091 95.1328 128.101 91.682C130.11 95.13 135.392 95.1308 137.401 91.682C138.299 93.2232 140.046 94.2714 142.051 94.2714C144.968 94.2714 147.342 92.0509 147.342 89.3214C147.342 88.9901 147.055 88.7214 146.701 88.7214C146.346 88.7214 146.059 88.9901 146.059 89.3214C146.059 91.3892 144.261 93.0714 142.051 93.0714C139.841 93.0714 138.042 91.3892 138.042 89.3214C138.042 88.9901 137.755 88.7214 137.401 88.7214C137.047 88.7214 136.76 88.9901 136.76 89.3214C136.76 91.3892 134.961 93.0714 132.751 93.0714C130.541 93.0714 128.743 91.3892 128.743 89.3214C128.743 88.9901 128.456 88.7214 128.101 88.7214C127.747 88.7214 127.46 88.9901 127.46 89.3214C127.46 91.3892 125.662 93.0714 123.452 93.0714C121.29 93.0714 119.443 91.4466 119.443 89.2914C119.443 88.9601 119.156 88.6914 118.802 88.6914C118.448 88.6914 118.16 88.9601 118.16 89.2914C118.16 91.4284 116.325 93.0714 114.152 93.0714C111.945 93.0714 110.147 91.3887 110.143 89.3214V85.7244L114.092 77.2H142.111L145.724 85H113.671C113.317 85 113.03 85.2686 113.03 85.6Z" fill="#52C29D"/>
<path d="M217.192 20.6001C218.609 20.6001 219.758 21.6748 219.758 23.0001V53.0001C219.758 54.3254 218.609 55.4001 217.192 55.4001H199.555C198.139 55.4001 196.99 54.3254 196.99 53.0001V23.0001C196.99 21.6748 198.139 20.6001 199.555 20.6001H217.192Z" fill="#D1E7FF"/>
<path d="M212.408 33.479C213.022 33.479 213.537 33.9118 213.603 34.4825L214.461 41.8535C214.539 42.5188 213.982 43.1 213.266 43.1H203.482C202.766 43.1 202.209 42.5188 202.286 41.8535L203.144 34.4825C203.211 33.9118 203.725 33.479 204.34 33.479H212.408Z" fill="#B9DCFF"/>
<path d="M217.314 20.6027C219.377 20.6925 219.267 23.6001 217.202 23.6001H208.855C204.073 23.6001 200.196 27.2266 200.196 31.7001V55.4001H199.555C198.138 55.4001 196.99 54.3256 196.99 53.0001V23.0001C196.99 21.6746 198.138 20.6001 199.555 20.6001C199.671 20.6001 217.22 20.5986 217.314 20.6027Z" fill="#E8F3FF"/>
<path d="M219.758 50.1501V53.0001C219.758 54.3254 218.609 55.4001 217.192 55.4001H199.555C198.139 55.4001 196.99 54.3254 196.99 53.0001V50.1501H219.758Z" fill="#B9DCFF"/>
<path d="M200.196 50.1501V53.009C200.196 54.9636 196.99 55.0635 196.99 53.0001V50.1501H200.196Z" fill="#D1E7FF"/>
<path d="M212.408 35.729C208.523 35.729 205.348 38.4649 204.938 41.9895C204.864 42.6214 204.294 43.1 203.614 43.1H203.482C202.766 43.1 202.209 42.5188 202.286 41.8535L203.144 34.4825C203.211 33.9118 203.725 33.479 204.34 33.479H212.408C213.022 33.479 213.537 33.9113 213.603 34.4821C213.681 35.149 213.123 35.729 212.408 35.729Z" fill="#D1E7FF"/>
<path d="M217.192 20H199.555C197.787 20 196.348 21.3458 196.348 23V53C196.348 54.6542 197.787 56 199.555 56H217.192C218.961 56 220.399 54.6542 220.399 53V23C220.399 21.3458 218.961 20 217.192 20ZM217.192 54.8H199.555C198.494 54.8 197.631 53.9925 197.631 53V23C197.631 22.0075 198.494 21.2 199.555 21.2H217.192C218.253 21.2 219.116 22.0075 219.116 23V49.55H200.758C200.403 49.55 200.116 49.8187 200.116 50.15C200.116 50.4814 200.403 50.75 200.758 50.75H219.116V53C219.116 53.9925 218.253 54.8 217.192 54.8ZM209.817 52.625C209.817 52.9564 209.53 53.225 209.175 53.225H207.572C207.218 53.225 206.931 52.9564 206.931 52.625C206.931 52.2937 207.218 52.025 207.572 52.025H209.175C209.53 52.025 209.817 52.2937 209.817 52.625ZM203.482 43.7H213.266C214.363 43.7 215.217 42.8079 215.099 41.7883L214.241 34.4176C214.139 33.5407 213.351 32.8794 212.408 32.8794H211.814V31.7686C211.814 29.9938 210.271 28.55 208.374 28.55C206.477 28.55 204.933 29.9938 204.933 31.7686V32.8793H204.34C203.397 32.8793 202.609 33.5406 202.507 34.4176L201.649 41.7883C201.53 42.8084 202.386 43.7 203.482 43.7ZM202.924 41.9182L203.782 34.5475C203.813 34.2806 204.053 34.0793 204.34 34.0793H204.933V35.0155C204.933 35.3469 205.22 35.6155 205.575 35.6155C205.929 35.6155 206.216 35.3469 206.216 35.0155V31.7686C206.216 30.6556 207.184 29.75 208.374 29.75C209.563 29.75 210.531 30.6555 210.531 31.7686V32.8794H207.757C207.403 32.8794 207.116 33.148 207.116 33.4794C207.116 33.8107 207.403 34.0794 207.757 34.0794H210.531V35.0155C210.531 35.3469 210.819 35.6155 211.173 35.6155C211.527 35.6155 211.814 35.3469 211.814 35.0155V34.0794H212.408C212.695 34.0794 212.935 34.2807 212.966 34.5475L213.823 41.9182C213.86 42.2284 213.601 42.5 213.266 42.5H203.482C203.148 42.5 202.888 42.2296 202.924 41.9182Z" fill="#007FFC"/>
<path d="M217.192 76.6001C218.609 76.6001 219.758 77.6748 219.758 79.0001V109C219.758 110.325 218.609 111.4 217.192 111.4H199.555C198.139 111.4 196.99 110.325 196.99 109V79.0001C196.99 77.6748 198.139 76.6001 199.555 76.6001H217.192Z" fill="#E1F4F5"/>
<path d="M212.408 89.479C213.022 89.479 213.537 89.9118 213.603 90.4825L214.461 97.8535C214.539 98.5188 213.982 99.1 213.266 99.1H203.482C202.766 99.1 202.209 98.5188 202.286 97.8535L203.144 90.4825C203.211 89.9118 203.725 89.479 204.34 89.479H212.408Z" fill="#CAEFF2"/>
<path d="M217.314 76.6027C219.377 76.6925 219.267 79.6001 217.202 79.6001H208.855C204.073 79.6001 200.196 83.2266 200.196 87.7001V111.4H199.555C198.138 111.4 196.99 110.326 196.99 109V79.0001C196.99 77.6746 198.138 76.6001 199.555 76.6001C199.671 76.6001 217.22 76.5986 217.314 76.6027Z" fill="#F4FEFF"/>
<path d="M219.758 106.15V109C219.758 110.325 218.609 111.4 217.192 111.4H199.555C198.139 111.4 196.99 110.325 196.99 109V106.15H219.758Z" fill="#CAEFF2"/>
<path d="M200.196 106.15V109.009C200.196 110.964 196.99 111.063 196.99 109V106.15H200.196Z" fill="#E1F4F5"/>
<path d="M212.408 91.729C208.523 91.729 205.348 94.4649 204.938 97.9895C204.864 98.6214 204.294 99.1 203.614 99.1H203.482C202.766 99.1 202.209 98.5188 202.286 97.8535L203.144 90.4825C203.211 89.9118 203.725 89.479 204.34 89.479H212.408C213.022 89.479 213.537 89.9113 213.603 90.4821C213.681 91.149 213.123 91.729 212.408 91.729Z" fill="#E1F4F5"/>
<path d="M217.192 76H199.555C197.787 76 196.348 77.3458 196.348 79V109C196.348 110.654 197.787 112 199.555 112H217.192C218.961 112 220.399 110.654 220.399 109V79C220.399 77.3458 218.961 76 217.192 76ZM217.192 110.8H199.555C198.494 110.8 197.631 109.993 197.631 109V79C197.631 78.0075 198.494 77.2 199.555 77.2H217.192C218.253 77.2 219.116 78.0075 219.116 79V105.55H200.758C200.403 105.55 200.116 105.819 200.116 106.15C200.116 106.481 200.403 106.75 200.758 106.75H219.116V109C219.116 109.993 218.253 110.8 217.192 110.8ZM209.817 108.625C209.817 108.956 209.53 109.225 209.175 109.225H207.572C207.218 109.225 206.931 108.956 206.931 108.625C206.931 108.294 207.218 108.025 207.572 108.025H209.175C209.53 108.025 209.817 108.294 209.817 108.625ZM203.482 99.7H213.266C214.363 99.7 215.217 98.8079 215.099 97.7883L214.241 90.4176C214.139 89.5407 213.351 88.8794 212.408 88.8794H211.814V87.7686C211.814 85.9938 210.271 84.55 208.374 84.55C206.477 84.55 204.933 85.9938 204.933 87.7686V88.8793H204.34C203.397 88.8793 202.609 89.5406 202.507 90.4176L201.649 97.7883C201.53 98.8084 202.386 99.7 203.482 99.7ZM202.924 97.9182L203.782 90.5475C203.813 90.2806 204.053 90.0793 204.34 90.0793H204.933V91.0155C204.933 91.3469 205.22 91.6155 205.575 91.6155C205.929 91.6155 206.216 91.3469 206.216 91.0155V87.7686C206.216 86.6556 207.184 85.75 208.374 85.75C209.563 85.75 210.531 86.6555 210.531 87.7686V88.8794H207.757C207.403 88.8794 207.116 89.148 207.116 89.4794C207.116 89.8107 207.403 90.0794 207.757 90.0794H210.531V91.0155C210.531 91.3469 210.819 91.6155 211.173 91.6155C211.527 91.6155 211.814 91.3469 211.814 91.0155V90.0794H212.408C212.695 90.0794 212.935 90.2807 212.966 90.5475L213.823 97.9182C213.86 98.2284 213.601 98.5 213.266 98.5H203.482C203.148 98.5 202.888 98.2296 202.924 97.9182Z" fill="#52C29D"/>
</svg>
