<?xml version="1.0" standalone="no"?>
<!DOCTYPE svg PUBLIC "-//W3C//DTD SVG 1.1//EN" "http://www.w3.org/Graphics/SVG/1.1/DTD/svg11.dtd" >
<svg xmlns="http://www.w3.org/2000/svg" xmlns:xlink="http://www.w3.org/1999/xlink" version="1.1">
<metadata></metadata>
<defs>
<font id="delius_unicaseregular" horiz-adv-x="1687" >
<font-face units-per-em="2048" ascent="1638" descent="-410" />
<missing-glyph horiz-adv-x="641" />
<glyph horiz-adv-x="0" />
<glyph unicode="&#xd;" horiz-adv-x="681" />
<glyph unicode=" "  horiz-adv-x="641" />
<glyph unicode="&#x09;" horiz-adv-x="641" />
<glyph unicode="&#xa0;" horiz-adv-x="641" />
<glyph unicode="!" horiz-adv-x="591" d="M184 96q0 51 34 92t85 41t78 -34.5t27 -87t-35 -95.5t-84 -43t-77 38t-28 89zM190 1423q0 61 28 97t77 36t76.5 -35.5t27.5 -97.5l-14 -467l2 -411q0 -53 -24.5 -84t-67.5 -31t-67.5 31t-24.5 84l4 411z" />
<glyph unicode="&#x22;" horiz-adv-x="845" d="M143 1442q0 53 27 83.5t72 30.5t71.5 -30.5t26.5 -83.5l-25 -221q-4 -88 -19 -125t-54 -37t-54.5 37t-19.5 125zM506 1442q0 53 26.5 83.5t71.5 30.5t71.5 -30.5t26.5 -83.5l-24 -221q-4 -88 -19.5 -125t-54.5 -37t-54 37t-20 125z" />
<glyph unicode="#" horiz-adv-x="1757" d="M129 487q0 82 121 82l260 -8q12 49 35.5 170t29.5 148l-233 -5q-121 0 -121 80q0 84 121 84l264 -6q18 88 64 336q16 92 92 92q37 0 58.5 -23.5t21.5 -54t-72 -352.5h342q12 61 64 338q16 92 92 92q35 0 57.5 -23.5t22.5 -48t-13.5 -88t-32 -147.5t-24.5 -123l229 8 q121 0 121 -84q0 -80 -121 -80q-45 0 -260 7q-57 -266 -65 -318l233 6q121 0 121 -82q0 -86 -121 -86l-260 7q-16 -88 -63 -336q-16 -92 -93 -92q-37 0 -58 23.5t-21 53t71 353.5h-342q-12 -61 -63 -338q-16 -92 -92 -92q-37 0 -58.5 23.5t-21.5 48t13 89t30.5 146.5 t23.5 123l-231 -9q-121 0 -121 86zM674 561h346q12 49 35.5 171t29.5 151h-346q-59 -283 -65 -322z" />
<glyph unicode="$" horiz-adv-x="1277" d="M137 236q0 37 24.5 61.5t60.5 24.5t73 -23t65.5 -50.5t84 -54t120.5 -34.5q6 387 6 547q-164 90 -242.5 155.5t-108.5 125t-30 128.5q0 127 103.5 225.5t265.5 122.5q0 178 94.5 178t94.5 -178q131 -16 222 -71.5t91 -118.5q0 -39 -24.5 -61.5t-67.5 -22.5t-108.5 43 t-119.5 57q-6 -356 -6 -471q94 -51 150.5 -86t124.5 -90q133 -109 133 -256t-108.5 -255.5t-284.5 -139.5q0 -166 -94.5 -166t-94.5 160q-162 14 -293 95t-131 155zM387 1118.5q0 -59.5 46 -106.5t138 -105q-8 369 -8 383q-76 -18 -126 -65t-50 -106.5zM735 616q0 -4 8 -446 q90 25 146.5 80t56.5 135q0 113 -211 231z" />
<glyph unicode="%" horiz-adv-x="1789" d="M129 1096.5q0 154.5 88 259t225 104.5q63 0 122 -28.5t95 -63.5q102 -90 196.5 -90t148.5 29q53 199 98 233q23 16 63.5 16t72.5 -34.5t32 -87.5q0 -102 -119 -228q-2 -6 -102.5 -293.5t-198.5 -572.5t-107 -303q-27 -68 -94 -68q-33 0 -57.5 22.5t-24.5 59.5t51 162 q213 526 343 924q-37 -6 -87.5 -6.5t-128.5 24.5q4 -33 5 -55q0 -152 -86 -255.5t-225.5 -103.5t-224.5 100.5t-85 255zM293 1102q0 -92 39 -152.5t108.5 -60.5t107.5 58.5t38 151.5t-37 153.5t-106.5 60.5t-109.5 -59.5t-40 -151.5zM1036 325.5q0 155.5 88 259t228.5 103.5 t225.5 -100.5t85 -255t-88 -259t-228.5 -104.5t-225.5 100.5t-85 256zM1200 331q0 -91 40 -152.5t109.5 -61.5t109.5 59.5t40 151.5t-39 152.5t-109.5 60.5t-110.5 -59.5t-40 -150.5z" />
<glyph unicode="&#x26;" horiz-adv-x="1710" d="M127 489q0 129 63.5 251t169.5 202q-131 123 -131 267.5t103.5 251t292.5 106.5q117 0 216 -57.5t99 -123.5q0 -41 -24.5 -63.5t-57.5 -22.5t-95.5 44.5t-146.5 44.5t-140 -48.5t-56 -126.5q0 -117 106 -188q90 8 97 8q61 0 100 -28.5t39 -78.5t-43 -80t-105.5 -30 t-103.5 21q-86 -51 -137 -139.5t-51 -192.5q0 -160 100 -259.5t256 -99.5t253 81t97 186q0 160 -65 159q-37 0 -79 -20.5t-80 -20.5t-62.5 28t-24.5 67q0 61 60.5 96t154.5 35l170 -4q344 0 344 186q0 63 -38 104t-83 58q-121 41 -121 112q0 37 24.5 60.5t67.5 23.5 q117 0 227.5 -109.5t110.5 -244.5q0 -182 -130 -267t-322 -89q37 -86 37 -172q0 -184 -150.5 -315.5t-387.5 -131.5t-395.5 148.5t-158.5 371.5z" />
<glyph unicode="'" horiz-adv-x="483" d="M143 1442q0 53 27 83.5t72 30.5t71.5 -30.5t26.5 -83.5l-25 -221q-4 -88 -19 -125t-54 -37t-54.5 37t-19.5 125z" />
<glyph unicode="(" horiz-adv-x="710" d="M127 788.5q0 174.5 42 343t104.5 292.5t133 205t123 81t81 -28.5t28.5 -64.5t-34 -88t-81 -120t-94 -156t-81 -224t-34 -307t45.5 -333t99.5 -252t99 -160.5t45 -92t-14.5 -39t-44.5 -17.5q-51 0 -122 79t-137.5 207t-112.5 314t-46 360.5z" />
<glyph unicode=")" horiz-adv-x="710" d="M72 1617q0 36 28.5 64.5t80.5 28.5t123 -81t133.5 -205t104.5 -292.5t42 -343t-46 -360.5t-113 -314t-137.5 -207t-121.5 -79q-31 0 -45.5 17.5t-14.5 39t45.5 92t99.5 160.5t99 252t45 333t-33.5 307t-81 224t-94.5 156t-80.5 120t-33.5 88z" />
<glyph unicode="*" horiz-adv-x="974" d="M160 1065q0 39 33.5 64.5t97 46t74.5 26.5q-10 6 -74 26.5t-97.5 46t-33.5 63.5t24.5 60.5t53 22.5t57.5 -16t69 -48t54 -42l-21 151q0 45 24.5 73t65.5 28t66 -28t25 -62.5t-10.5 -85t-10.5 -76.5q14 10 53 41q82 66 119 65.5t61.5 -23t24.5 -60.5t-33.5 -63.5t-97 -46 t-74.5 -26.5q10 -6 74 -26.5t97.5 -46t33.5 -64.5t-24.5 -60.5t-54 -21.5t-58.5 16.5t-69 48t-54 42.5l23 -148q0 -45 -25 -73.5t-66 -28.5t-65.5 28.5t-24.5 62.5t11.5 84t11.5 75q-14 -10 -55 -41q-80 -66 -118 -66t-62.5 21.5t-24.5 60.5z" />
<glyph unicode="+" horiz-adv-x="1230" d="M129 770q0 37 28.5 61.5t73.5 24.5l308 -6q0 143 -4.5 219t-4.5 80q0 47 24 73.5t62.5 26.5t63.5 -27.5t25 -74.5q0 -4 -3 -41q-6 -111 -6 -256l308 4q45 0 73.5 -24.5t28.5 -61.5t-28.5 -61.5t-73.5 -24.5l-308 6l9 -326q0 -47 -24 -75.5t-63.5 -28.5t-63.5 29.5 t-24 77.5l9 325l-308 -6q-45 0 -73.5 24.5t-28.5 61.5z" />
<glyph unicode="," horiz-adv-x="514" d="M88 -250q0 29 32 81t32 92t-8.5 77t-8.5 83t33 88t85 42t80.5 -38t28.5 -101q0 -111 -73.5 -244t-137 -133t-63.5 53z" />
<glyph unicode="-" horiz-adv-x="1019" d="M166 768q0 37 27.5 61.5t72.5 24.5l244 -6l244 6q45 0 72.5 -24.5t27.5 -61.5t-27.5 -61.5t-72.5 -24.5l-244 6l-244 -6q-45 0 -72.5 24.5t-27.5 61.5z" />
<glyph unicode="." horiz-adv-x="520" d="M145 106.5q0 53.5 34 95.5t86 42t80 -35t28 -89t-35 -97t-85 -43t-79 36.5t-29 90z" />
<glyph unicode="/" horiz-adv-x="886" d="M145 -81q0 34 25 132.5t82 321.5q135 526 295 1239q8 45 35.5 71.5t68.5 26.5t64.5 -30.5t23.5 -63.5t-28.5 -146.5t-83.5 -326.5q-147 -582 -279 -1184q-14 -63 -37.5 -97t-68.5 -34t-71 28.5t-26 62.5z" />
<glyph unicode="0" horiz-adv-x="1490" d="M158 768q0 209 68.5 389t206.5 295t317 115q270 0 426.5 -235.5t156.5 -564.5t-156.5 -563.5t-425 -234.5t-431 236.5t-162.5 562.5zM354 768q0 -252 110.5 -436.5t287 -184.5t281 182.5t104.5 438.5t-104.5 438.5t-281 182.5t-287 -184.5t-110.5 -436.5z" />
<glyph unicode="1" horiz-adv-x="956" d="M78 961.5q0 35.5 29.5 83t81 112t56.5 71.5t13 17t30.5 39t64.5 87.5t61.5 85t46.5 54.5q45 45 99 45t86 -36.5t32 -89.5l-8 -652q0 -315 7 -476t7 -177q0 -145 -104 -145q-45 0 -70 28.5t-30 60t-5 65.5t6 247t6 395l-2 504l-147 -221q-10 -14 -24.5 -37t-22.5 -33 t-19.5 -27.5t-18.5 -25.5t-17.5 -20.5t-17.5 -17.5t-17 -11q-14 -10 -45 -10t-54.5 24.5t-23.5 60z" />
<glyph unicode="2" horiz-adv-x="1265" d="M125 105.5q0 60.5 73.5 166t179 222t212.5 235.5q252 281 252 422q0 113 -71 175.5t-173 62.5q-57 0 -104.5 -26t-70 -51.5t-46 -62.5t-35.5 -51q-35 -41 -76 -41t-66.5 26.5t-25.5 61.5q0 98 123 210t317.5 112t309 -117t114.5 -287q0 -102 -84 -246.5t-187 -262 t-228 -260t-174 -216.5q113 -10 237.5 -10t255.5 7t168 7t70.5 -25.5t33.5 -70.5t-33.5 -70.5t-88.5 -25.5l-371 10l-379 -10q-59 0 -96 27.5t-37 88z" />
<glyph unicode="3" horiz-adv-x="1286" d="M147 264q0 29 20.5 52.5t50.5 23.5t69 -29.5t76.5 -66.5t105.5 -67t145 -30q147 0 242.5 95.5t95.5 238t-100 232.5t-236 102q-68 -68 -112.5 -92.5t-97 -24.5t-81 30t-28.5 82t55.5 102.5t165.5 74.5q139 154 322 375q-59 6 -175 6t-226.5 -7t-144.5 -7t-67.5 25.5 t-33.5 70.5t33.5 70.5t88.5 25.5l310 -10l340 10q55 0 90 -28.5t35 -73.5q0 -86 -140.5 -228.5t-224.5 -244.5q195 -51 309.5 -184.5t114.5 -301.5q0 -205 -142.5 -360.5t-388.5 -155.5q-186 0 -328.5 103.5t-142.5 191.5z" />
<glyph unicode="4" horiz-adv-x="1327" d="M82 597q0 44 38 102.5t161 213.5l417 537q84 106 172 106q53 0 91 -33.5t38 -109.5q0 -18 -4 -115q-8 -292 -8 -624l105 6q57 0 91 -25.5t34 -66.5t-34 -66.5t-91 -25.5l-105 2l12 -396q0 -55 -26.5 -87.5t-74.5 -32.5t-74.5 32.5t-26.5 87.5l8 396h-141l-467 -2 q-53 0 -84 28.5t-31 72.5zM322 670h485q0 94 -3 338.5t-3 279.5q-229 -272 -479 -618z" />
<glyph unicode="5" horiz-adv-x="1320" d="M162 307q0 37 25.5 64.5t55 27.5t48 -10t28 -21.5t25.5 -35.5q123 -184 313 -185q141 0 235.5 111t94.5 256t-83 240.5t-224 95.5q-133 0 -295 -115q-53 -39 -86 -39q-102 0 -102 103q0 27 14 145.5t14 201.5t-12 167t-12 119q0 113 135 112l330 -8l311 10q55 0 89 -25.5 t34 -70.5t-34 -70.5t-67.5 -25.5t-145.5 8t-175.5 8t-154.5 -4t-128 -4q10 -76 11 -215l-11 -217q139 90 295 90q233 0 362.5 -144.5t129.5 -364.5t-145.5 -381t-393.5 -161q-207 0 -344 116t-137 222z" />
<glyph unicode="6" horiz-adv-x="1325" d="M158 584q0 401 227 686.5t569 285.5q76 0 116 -24.5t40 -63.5q0 -98 -133 -98q-223 0 -390 -150.5t-214 -367.5q141 145 350 145t336 -149.5t127 -355t-133 -363.5t-375 -158t-381 173t-139 440zM375 485.5q0 -139.5 83 -237.5t218 -98t224 96t89 237.5t-85 238.5 t-218 97t-222 -97t-89 -236.5z" />
<glyph unicode="7" horiz-adv-x="1146" d="M94 1450q0 45 34 70.5t89 25.5l342 -10l340 8q166 0 166 -121q0 -45 -44 -133t-132 -252q-233 -434 -389 -975q-25 -82 -101 -81q-41 0 -67.5 28.5t-26.5 86t46 184.5t136.5 336.5t166 368.5t118.5 245t57 127q-106 10 -230 10t-246 -7t-156.5 -7t-68.5 25.5t-34 70.5z " />
<glyph unicode="8" horiz-adv-x="1323" d="M152 418q0 272 333 440q-252 147 -252 350q0 147 122 254t305.5 107t306.5 -106.5t123 -254.5q0 -197 -238 -350q319 -170 319 -440q0 -186 -143 -317.5t-366.5 -131.5t-366.5 131t-143 318zM348 418q0 -121 90 -196t223.5 -75t223.5 75t90 196q0 205 -313 342 q-313 -137 -314 -342zM424 1209.5q0 -74.5 63.5 -134t178.5 -125.5q111 61 172 122t61 136.5t-72.5 129t-164 53.5t-165 -53.5t-73.5 -128z" />
<glyph unicode="9" horiz-adv-x="1320" d="M135 1058q0 204 139.5 356.5t375 152.5t374.5 -172t139 -441q0 -416 -226 -699.5t-570 -283.5q-74 0 -114 27t-40 66.5t33 69.5t102 30q223 0 388 150.5t214 375.5q-147 -147 -354 -147t-334 155.5t-127 359.5zM332 1054.5q0 -141.5 81 -237.5t220 -96t229 105.5 t90 240.5t-89 228.5t-222 93.5t-221 -96.5t-88 -238z" />
<glyph unicode=":" horiz-adv-x="559" d="M166 106.5q0 53.5 33.5 95.5t86 42t80 -35t27.5 -89t-34.5 -97t-85 -43t-79 36.5t-28.5 90zM166 895q0 53 33.5 95t86 42t80 -34.5t27.5 -88t-34.5 -97.5t-85 -44t-79 37t-28.5 90z" />
<glyph unicode=";" horiz-adv-x="579" d="M127 -250q0 29 31.5 81t31.5 92t-8 77t-8 83t33 88t85 42t80.5 -38t28.5 -101q0 -111 -73.5 -244t-137 -133t-63.5 53zM176 895q0 53 34 95t86 42t79.5 -34.5t27.5 -88t-34.5 -97.5t-85 -44t-79 37t-28.5 90z" />
<glyph unicode="&#x3c;" horiz-adv-x="1269" d="M174 770q0 37 17.5 65.5t64.5 56.5t84 44t126 50t143.5 56.5t132 55t117.5 50t87 36.5q86 31 124 30.5t62.5 -22t24.5 -53.5q0 -55 -70 -86q-76 -31 -194.5 -75t-167.5 -65q-311 -123 -311 -143q0 -16 233 -111l76 -32q49 -20 168 -64.5t194 -75.5q70 -31 70 -86 q0 -33 -24.5 -54t-52 -21t-57.5 7t-77 24.5t-88 35.5q-223 96 -352 145.5t-165 66t-83 44t-64.5 56t-17.5 65.5z" />
<glyph unicode="=" horiz-adv-x="1355" d="M190 608q0 37 28 61.5t73 24.5l377 -6l397 6q45 0 72.5 -24.5t27.5 -61.5t-27.5 -61.5t-72.5 -24.5l-397 6l-377 -6q-45 0 -73 24.5t-28 61.5zM190 924q0 37 28 61.5t73 24.5l377 -6l397 6q45 0 72.5 -24.5t27.5 -61.5t-27.5 -61.5t-72.5 -24.5l-397 6l-377 -6 q-45 0 -73 24.5t-28 61.5z" />
<glyph unicode="&#x3e;" horiz-adv-x="1269" d="M113 1139q0 33 24.5 54t52 21t57 -7t77 -24.5t86.5 -35.5q225 -96 354 -145.5t166 -65.5t84 -44t64.5 -56.5t17.5 -65.5t-17.5 -65.5t-64.5 -56t-83 -44t-125 -50.5t-143.5 -56.5t-132 -55t-117.5 -50t-87 -36.5q-86 -31 -124 -30.5t-62.5 22t-24.5 53.5q0 55 69 86 q76 31 195 75t168 65q309 123 309 143q0 16 -233 111l-78 32q-49 20 -168 64.5t-195 75.5q-70 31 -69 86z" />
<glyph unicode="?" horiz-adv-x="1067" d="M131 1327q0 78 118 160t261 82q188 0 306 -109.5t118 -271.5q0 -78 -34 -151.5t-65.5 -111.5t-97.5 -106q-61 -51 -93 -80.5t-61.5 -79t-29.5 -98.5q0 -135 -92 -135q-41 0 -67.5 36t-26.5 95t16 108.5t55 96.5q53 63 152 151q49 55 73.5 86t49 84.5t24.5 104.5 q0 88 -66.5 144.5t-150.5 56.5q-125 0 -215 -91q-49 -57 -89 -57t-62.5 25.5t-22.5 60.5zM344 96q0 51 34 92t85 41t77.5 -34.5t26.5 -87t-34.5 -95.5t-84 -43t-77 38t-27.5 89z" />
<glyph unicode="@" horiz-adv-x="1921" d="M131 693.5q0 357.5 237.5 615.5t589 258t581.5 -219t230 -592q0 -211 -103 -353.5t-249 -142.5q-182 0 -239 170q-117 -170 -299 -170q-90 0 -162 43t-111 111q-80 133 -80 286q0 195 120 337.5t306 142.5q100 0 203 -74q29 74 94 74q111 0 111 -164q0 -20 -20.5 -153.5 t-20.5 -221.5q0 -213 96 -213q66 0 118 79t52 253q0 307 -181 468t-445.5 161t-448.5 -199t-184 -497t157.5 -469t378.5 -171q109 0 225.5 46t124.5 46q33 0 53.5 -19.5t20.5 -49.5q0 -55 -126 -122t-306 -67q-305 0 -514 224.5t-209 582zM721 713.5q0 -117.5 41 -197.5 t124 -80t149.5 72t113.5 176v244q-100 74 -195.5 73.5t-164 -85.5t-68.5 -202.5z" />
<glyph unicode="A" horiz-adv-x="1417" d="M111 58.5q0 29.5 3 48t14 55.5t24 69q59 176 86 258q-59 0 -93 26t-34 69q0 96 151 96h37q197 549 226.5 627.5t33.5 91t13.5 36t16.5 35t17 27.5t19.5 25.5t21.5 17.5q27 16 56.5 16t48 -6t35 -22.5t27.5 -34.5t26.5 -57t27.5 -72q98 -301 246 -684l74 2q53 0 87 -28.5 t34 -71.5q0 -90 -135 -97q20 -66 55 -166q80 -217 80 -250.5t-23.5 -61t-64.5 -27.5q-74 0 -107 79q-35 101 -139 435l-264 6q-197 0 -287 -4q-23 -68 -65 -212.5t-68.5 -224t-93.5 -79.5q-39 0 -62.5 24.5t-23.5 54zM475 672q131 -4 253 -4t196 4q-215 618 -219 618 q-12 0 -177 -463z" />
<glyph unicode="B" horiz-adv-x="1484" d="M152 141.5q0 75.5 102 75.5q6 211 6 559t-8 496q-88 27 -88 94q0 51 61.5 92t149.5 64q176 45 317.5 45t253 -38t172.5 -99q127 -121 127 -254q0 -217 -198 -338q135 -49 222 -161t87 -243q0 -211 -183.5 -338t-478.5 -127q-238 0 -390 48.5t-152 124zM446 715 q0 -375 7 -541q85 -27 235 -27q215 0 342 77t127 222q0 115 -111.5 192t-238.5 97q-123 -29 -210 -29h-3q-88 0 -148 9zM446 899q84 19 170 19q2 0 5 -1q83 0 157 -16q82 4 181.5 78t99.5 195q0 84 -91.5 150.5t-279.5 66.5q-127 0 -235 -41q-6 -104 -7 -451z" />
<glyph unicode="C" horiz-adv-x="1449" d="M147 770q0 334 196 565.5t491 231.5q180 0 322 -67.5t142 -151.5q0 -41 -24.5 -66t-66.5 -25t-111 48q-131 84 -262 84q-213 0 -351.5 -183.5t-138.5 -434.5t138.5 -437.5t339 -186.5t366.5 101q68 37 91.5 37t42.5 -19.5t19 -48.5q0 -74 -152.5 -161t-359.5 -87 q-293 0 -487.5 233.5t-194.5 567.5z" />
<glyph unicode="D" horiz-adv-x="1554" d="M154 152q0 75 99 75h3l6 543l-10 533q-90 8 -90 84.5t161.5 127t334.5 50.5t322.5 -67.5t240.5 -182.5q186 -233 186 -553q0 -311 -178 -541q-88 -115 -233.5 -183.5t-346 -68.5t-348 51.5t-147.5 131.5zM449 800q0 -427 10 -626q74 -27 207 -27t240.5 53.5t170.5 143.5 q133 184 133 433t-146 430.5t-423 181.5q-117 0 -186 -35q-6 -127 -6 -554z" />
<glyph unicode="E" horiz-adv-x="1308" d="M125 817q0 47 39 70.5t98 23.5q-4 383 -14 461q-25 39 -25 82q0 92 127 92l377 -10l326 12q55 0 89 -25.5t34 -70.5t-34 -70.5t-89 -25.5l-326 12q-158 0 -281 -10v-455q39 -2 136 -2l366 10q55 0 88 -25.5t33 -68.5q0 -90 -121 -90l-366 8q-88 0 -136 -2v-162 q0 -299 9 -393q123 -10 278 -10l326 12q55 0 89 -25.5t34 -70.5t-34 -70.5t-89 -25.5l-326 12l-371 -10q-110 0 -110 92q0 72 5 236q5 162 5 409q-137 0 -137 90z" />
<glyph unicode="F" horiz-adv-x="1261" d="M123 817q0 47 39 70.5t98 23.5q-4 383 -14 461q-25 39 -25 82q0 92 127 92l379 -10l328 12q55 0 89 -25.5t34 -70.5t-34 -70.5t-89 -25.5l-328 12q-160 0 -283 -10v-455q40 -2 138 -2l348 10q55 0 88 -25.5t33 -68.5q0 -90 -121 -90l-348 8q-90 0 -138 -2 q0 -268 6.5 -430t6.5 -178q0 -145 -104.5 -145t-104.5 145q0 16 2 96q10 240 10 506q-137 0 -137 90z" />
<glyph unicode="G" horiz-adv-x="1581" d="M147 770q0 334 201 565.5t508 231.5q190 0 347 -76t157 -164q0 -39 -23.5 -61.5t-69.5 -22.5t-124 55q-125 90 -287 91q-221 0 -366.5 -182.5t-145.5 -433.5t139.5 -438.5t350.5 -187.5q174 0 290.5 129.5t124.5 366.5q-68 6 -172 6l-276 -10q-55 0 -86 24.5t-31 66.5 t30.5 68.5t86.5 26.5l276 -10l258 12q55 0 89 -26.5t34 -77.5q0 -348 -175 -551t-460.5 -203t-480.5 233.5t-195 567.5z" />
<glyph unicode="H" horiz-adv-x="1572" d="M121 811q0 43 33.5 68.5t97.5 25.5q0 162 -6 329t-6 177q0 145 104.5 145t104.5 -145q0 -10 -6.5 -180t-6.5 -332q201 -4 399.5 -4t297.5 4q0 162 -5.5 332t-5.5 180q0 145 104.5 145t104.5 -145q0 -10 -6 -176t-6 -328q61 0 97 -26.5t36 -69.5t-36 -68.5t-97 -25.5 q0 -162 6 -372t6 -220q0 -145 -104.5 -145t-104.5 145l11 598l-353 4q-238 0 -344 -2q0 -162 6.5 -376t6.5 -224q0 -145 -104.5 -145t-104.5 145q0 10 6 221t6 373q-131 0 -131 92z" />
<glyph unicode="I" horiz-adv-x="995" d="M106 83q0 44 34 69.5t89 25.5l166 -10q11 250 11 622v39q0 344 -9 533l-168 -8q-55 0 -89 26.5t-34 71.5t34 70.5t89 25.5l269 -12l268 12q55 0 89 -25.5t34 -70.5t-34 -71.5t-89 -26.5l-168 8q-8 -199 -8 -570.5t10 -621.5l166 8q55 0 89 -25.5t34 -69.5t-34 -69.5 t-89 -25.5l-268 12l-269 -12q-55 0 -89 25.5t-34 69.5z" />
<glyph unicode="J" horiz-adv-x="1214" d="M94 178q0 39 22.5 62.5t59.5 23.5t74 -28.5t94 -58.5t141 -30q119 0 204 101.5t85 320.5l-6 797q-129 0 -233.5 -6t-143.5 -6t-72.5 25.5t-33.5 70.5t33.5 70.5t89.5 25.5l264 -10l305 12q55 0 89 -25.5t34 -69.5t-39 -70.5t-100 -26.5q-2 -127 -3 -830q0 -150 -42 -262 t-111 -174q-137 -121 -312.5 -121t-287 71t-111.5 138z" />
<glyph unicode="K" horiz-adv-x="1409" d="M231 96l9 666l-9 676q0 49 30 82.5t72 33.5t72.5 -33.5t30.5 -82.5l-6 -185q-4 -184 -4 -364q55 16 141 16l115 -12q96 72 195.5 247t132.5 322q23 94 98 94q35 0 60.5 -26.5t25.5 -65.5q0 -127 -113.5 -333.5t-244.5 -339.5q209 -377 342 -547q72 -90 135 -90l22 2 q15 0 15 -46q0 -44 -37 -87t-94.5 -43t-112.5 49q-113 96 -442 669l-132 -14q-73 0 -106 6l10 -594q0 -49 -30.5 -82.5t-72.5 -33.5t-72 33.5t-30 82.5z" />
<glyph unicode="L" horiz-adv-x="1216" d="M231 1411q0 145 104.5 145t104.5 -145q0 -16 -2 -104q-10 -260 -10 -476.5t2 -338t6 -206.5t4 -108q98 -10 213 -10t223.5 7t142.5 7t67.5 -25.5t33.5 -70.5t-33.5 -70.5t-89.5 -25.5l-305 10l-332 -10q-61 0 -92.5 25.5t-31.5 95.5l8 667q0 268 -6.5 442.5t-6.5 190.5z " />
<glyph unicode="M" horiz-adv-x="1785" d="M231 80q0 35 2 133q9 229 9 495v43q0 240 -6 446q-6 224 -5 230q0 59 30 94t73 35q66 0 102 -79l457 -981q188 397 416 905q45 100 69.5 127.5t70.5 27.5t75.5 -33.5t29.5 -95.5q-10 -53 -10 -464.5t6 -635t6 -229.5q0 -53 -28.5 -85.5t-74.5 -32.5t-74.5 32.5 t-28.5 68.5t2 132q12 358 12 549v313l-371 -780q-35 -72 -94 -72t-96 76l-377 776v-313q0 -211 6 -434.5t6 -229.5q0 -53 -28.5 -85.5t-74.5 -32.5t-75 32.5t-29 67.5z" />
<glyph unicode="N" horiz-adv-x="1521" d="M231 1411q0 145 105 145q76 0 113 -63q596 -1024 649 -1106q0 580 -6.5 799t-6.5 225q0 145 104.5 145t104.5 -145q0 -16 -4 -108q-8 -273 -8 -541l6 -635q0 -147 -108 -147q-68 0 -103 63l-649 1118q0 -477 5 -761.5t5 -318.5t-30.5 -67.5t-72.5 -33.5t-72 33.5 t-30 84.5l9 664q0 211 -5.5 428t-5.5 221z" />
<glyph unicode="O" d="M147 770q0 334 201 565.5t499 231.5t495.5 -231.5t197.5 -565.5t-199.5 -567.5t-497.5 -233.5t-497 233.5t-199 567.5zM344 773q0 -247 143.5 -436.5t357.5 -189.5t356 188.5t142 436.5t-141 433.5t-357 185.5t-358.5 -185.5t-142.5 -432.5z" />
<glyph unicode="P" horiz-adv-x="1333" d="M147 1383q0 40 59.5 79t145.5 62q172 43 299 43q307 0 467 -145.5t160 -356.5t-160 -357.5t-413 -146.5q-190 0 -273 23l10 -492q0 -53 -28.5 -86t-74.5 -33t-76 33t-30 86l17 690q0 506 -12 506q-45 6 -68 30.5t-23 64.5zM432 1050.5q0 -194.5 4 -284.5 q125 -31 275.5 -31t260 92.5t109.5 236.5t-110 235.5t-307 91.5q-135 0 -226 -48q-6 -98 -6 -292.5z" />
<glyph unicode="Q" d="M147 770q0 334 201 565.5t499 231.5t495.5 -231.5t197.5 -565.5q0 -215 -89 -395t-239 -287q14 -25 45 -72q62 -93 62 -128q0 -34 -23 -57q-22 -24 -63 -24t-74 56l-80 143q-121 -37 -237 -37q-297 0 -496 233.5t-199 567.5zM344 773q0 -247 143.5 -436.5t356.5 -189.5 q80 0 147 19q-33 51 -69 104q-58 83 -58 125q0 39 22 61q23 23 63 23t75 -55q2 -4 78 -186q113 86 177 229t64 303q0 250 -141 435.5t-357 185.5t-358.5 -185.5t-142.5 -432.5z" />
<glyph unicode="R" horiz-adv-x="1404" d="M147 1376q0 88 170 139.5t304 51.5q299 0 453.5 -134.5t154.5 -328.5q0 -125 -84 -245t-219 -183q94 -217 171 -340t115.5 -151.5t75.5 -28.5l33 4q18 0 18 -49.5t-43 -90t-96 -40.5q-92 0 -176 118q-109 147 -276 518q-92 -12 -209 -12l-107 8q0 -143 6 -289.5t6 -207.5 q0 -145 -104 -145l-1 -1q-103 0 -103 146q0 82 7 288.5t7 404.5t-12 476q-90 18 -91 92zM428 1003q0 -167 2 -194q98 18 184 18t195 -18q74 20 148.5 103.5t74.5 179.5q0 135 -102.5 217t-296.5 82q-96 0 -199 -37q-6 -184 -6 -351z" />
<glyph unicode="S" horiz-adv-x="1241" d="M117 223q0 37 24.5 61.5t62.5 24.5t76.5 -25.5t71.5 -55t99.5 -55.5t150.5 -26q139 0 230.5 72t91.5 199q0 84 -78 159.5t-188.5 137t-221 126t-188.5 158t-78 201.5q0 150 131 258.5t309 108.5t303 -60.5t125 -138.5q0 -39 -24.5 -61.5t-65.5 -22.5t-80 26.5t-96 53.5 t-153.5 27t-174 -53.5t-77.5 -131.5t77.5 -144.5t188 -128t221.5 -129t188.5 -167.5t77.5 -219q0 -190 -144.5 -319.5t-373.5 -129.5q-178 0 -331.5 86t-153.5 168z" />
<glyph unicode="T" horiz-adv-x="1214" d="M86 1452q0 45 34 70.5t89 25.5l407 -12l396 12q55 0 89 -25.5t34 -70.5t-34 -70.5t-89 -25.5l-295 12q-8 -199 -8 -606l12 -664q0 -53 -28.5 -85.5t-75 -32.5t-76 32.5t-29.5 85.5l12 664q0 356 -10 606l-305 -12q-55 0 -89 25.5t-34 70.5z" />
<glyph unicode="U" horiz-adv-x="1521" d="M197 1411q0 145 104.5 145t104.5 -145q0 -16 -5 -129q-8 -342 -8 -533.5t15.5 -277.5t54.5 -164q76 -160 297 -160q313 0 358 363q10 72 10 193.5t-3 292.5t-6 285t-3 130q0 145 104.5 145t104.5 -145q0 -16 -2 -104q-10 -260 -10 -475.5t-2 -321.5q-4 -227 -145.5 -384 t-404.5 -157t-404.5 158t-145.5 383q-2 106 -2 264t-3 302.5t-6 231.5t-3 103z" />
<glyph unicode="V" horiz-adv-x="1378" d="M82 1466.5q0 28.5 25.5 59t70.5 30.5q78 0 109 -92q389 -1192 403 -1192q23 0 412 1192q31 92 98 92q45 0 70.5 -30.5t25.5 -59t-24 -94.5q-117 -317 -138.5 -383.5t-320.5 -906.5q-35 -102 -124 -102t-124 102q-299 840 -318.5 900t-67.5 191.5t-72.5 198t-24.5 95z" />
<glyph unicode="W" horiz-adv-x="1964" d="M86 1456q0 45 26.5 72.5t63.5 27.5q82 0 111 -92q127 -403 241.5 -811.5t116.5 -408.5q8 0 101.5 321.5t121.5 448.5q10 45 42 78.5t77 33.5q92 0 121 -104q227 -778 244 -778l71 262q72 262 156 573.5t104 384.5q25 92 93 92q47 0 71.5 -29.5t24.5 -74.5t-96.5 -360.5 t-157.5 -518.5q-119 -382 -156 -495q-35 -98 -124 -98t-124 92q-27 74 -128 414.5t-105 340.5t-48 -149.5t-99.5 -342t-75.5 -257.5q-31 -98 -122 -98t-124 92q-10 27 -47 146.5t-89 285.5t-77 242.5t-59.5 182t-57 174t-47.5 148.5q-49 160 -49 205z" />
<glyph unicode="X" horiz-adv-x="1425" d="M98 1423q0 63 38 101.5t89 38.5t91 -27t96 -106q20 -33 276 -478q51 82 146.5 241t116 192.5t29.5 50t24.5 40t25.5 35t23 23.5q24 23 60 23l1 -1q36 0 60 -25.5t24 -60t-41 -105.5t-174 -274.5t-192 -295.5q283 -451 359.5 -543t131.5 -92q31 0 38 -11.5t7 -31.5 q0 -63 -38 -103.5t-91 -40.5q-84 0 -184 136q-55 73 -342 528q-43 -68 -139.5 -224.5t-119 -190.5t-44 -68.5t-31.5 -51.5l-27 -39q-18 -29 -43 -51q-34 -33 -69 -33l-1 1q-36 0 -60.5 24.5t-24.5 53t13 58t51 88t81 124.5q190 274 311 465q-184 328 -303 510 q-48 73 -112 73h-2q-37 0 -45.5 12.5t-8.5 34.5z" />
<glyph unicode="Y" horiz-adv-x="1243" d="M61 1468.5q0 34.5 25 61t71 26.5t78.5 -44t152.5 -277.5t239 -413.5q49 74 173 303.5t143.5 263t27.5 49t23.5 40t24.5 36t21 23.5q20 20 57.5 20t61 -24.5t23.5 -59t-30 -91t-129 -226.5t-128 -218t-81 -139t-103 -177q0 -164 6 -330l4 -166q0 -145 -104.5 -145 t-104.5 145l4 170q6 170 6 328q-408 700 -434.5 755.5t-26.5 90z" />
<glyph unicode="Z" horiz-adv-x="1265" d="M100 78q0 49 50.5 134t178.5 275.5t230 358.5l311 514q-92 8 -223 8t-258 -7t-163 -7t-69.5 25.5t-33.5 70.5t33.5 70.5t89.5 25.5l358 -10l416 10q117 0 117 -84q0 -51 -42 -124.5t-162 -251t-214 -332.5l-350 -576q117 -10 261 -10t271 7t163 7t69.5 -25.5t33.5 -70.5 t-33.5 -70.5t-89.5 -25.5l-358 10l-469 -10q-117 0 -117 88z" />
<glyph unicode="[" horiz-adv-x="897" d="M186 1618q0 41 31 70.5t82 29.5l199 -8l192 6q53 0 88 -25.5t35 -66.5t-35 -66.5t-88 -25.5q-10 0 -47 2q-74 4 -248 4q0 -6 -6 -271.5t-6 -495.5t6 -492.5t6 -278.5l295 6q55 0 89 -24.5t34 -66.5t-34 -66.5t-89 -24.5l-192 6l-199 -8q-49 0 -80 25.5t-31 58.5t6.5 308 t6.5 554t-7.5 544t-7.5 306z" />
<glyph unicode="\" horiz-adv-x="886" d="M145 1615q0 34 24 64.5t64.5 30.5t68.5 -26.5t36 -71.5q160 -713 256 -1088q145 -565 145 -602t-25.5 -65.5t-70.5 -28.5t-68.5 34t-37.5 97q-131 602 -234 999q-158 623 -158 657z" />
<glyph unicode="]" horiz-adv-x="897" d="M84 -84q0 41 35 66.5t88 25.5l295 -6q0 6 6 271.5t6 495.5t-6 492.5t-6 278.5l-295 -6q-55 0 -89 24.5t-34 66.5t34 66.5t89 24.5l192 -6l199 8q49 0 80 -25.5t31 -58t-6.5 -308t-6.5 -554t7.5 -544t7.5 -306.5t-31 -70.5t-82 -29.5l-199 8l-192 -6q-53 0 -88 25.5 t-35 66.5z" />
<glyph unicode="^" horiz-adv-x="1210" d="M117 827.5q0 32.5 45 110.5t170 279.5t167 270t108.5 68.5t109.5 -71q338 -545 359.5 -590t21.5 -72.5t-24.5 -52.5t-70 -25t-73.5 56q-76 139 -195 345t-128 206t-127 -204t-195 -347q-12 -25 -36 -40.5t-53.5 -15.5t-54 25t-24.5 57.5z" />
<glyph unicode="_" horiz-adv-x="1282" d="M133 -96q0 37 27.5 61.5t72.5 24.5l408 -6l408 6q45 0 72.5 -24.5t27.5 -61.5t-27.5 -61.5t-72.5 -24.5l-408 6l-408 -6q-45 0 -72.5 24.5t-27.5 61.5z" />
<glyph unicode="`" horiz-adv-x="675" d="M174 1425q0 35 23.5 63t59.5 28t61.5 -19.5t37 -39t29.5 -60.5t67.5 -101.5t49.5 -85t-17.5 -41t-50.5 -16.5q-66 0 -163 91t-97 181z" />
<glyph unicode="a" horiz-adv-x="1658" d="M147 743q0 336 174.5 580t450.5 244q106 0 207.5 -40t169.5 -102q0 141 104 142q129 0 129 -207q0 -153 -55 -608q0 -229 29.5 -388t73.5 -180q16 -8 38.5 -11t32.5 -9t10 -23q0 -74 -40.5 -121t-108.5 -47q-90 0 -135 102.5t-45 262.5q-109 -172 -228.5 -270.5 t-268 -98.5t-251 71t-164.5 185q-123 236 -123 518zM344 760q0 -262 89 -437.5t241.5 -175.5t307 195t183.5 385l-12 502q-174 160 -381 160q-170 0 -299 -183.5t-129 -445.5z" />
<glyph unicode="b" horiz-adv-x="1484" d="M152 141.5q0 75.5 102 75.5q6 211 6 559t-8 496q-88 27 -88 94q0 51 61.5 92t149.5 64q176 45 317.5 45t253 -38t172.5 -99q127 -121 127 -254q0 -217 -198 -338q135 -49 222 -161t87 -243q0 -211 -183.5 -338t-478.5 -127q-238 0 -390 48.5t-152 124zM446 715 q0 -375 7 -541q85 -27 235 -27q215 0 342 77t127 222q0 115 -111.5 192t-238.5 97q-123 -29 -210 -29h-3q-88 0 -148 9zM446 899q84 19 170 19q2 0 5 -1q83 0 157 -16q82 4 181.5 78t99.5 195q0 84 -91.5 150.5t-279.5 66.5q-127 0 -235 -41q-6 -104 -7 -451z" />
<glyph unicode="c" horiz-adv-x="1449" d="M147 770q0 334 196 565.5t491 231.5q180 0 322 -67.5t142 -151.5q0 -41 -24.5 -66t-66.5 -25t-111 48q-131 84 -262 84q-213 0 -351.5 -183.5t-138.5 -434.5t138.5 -437.5t339 -186.5t366.5 101q68 37 91.5 37t42.5 -19.5t19 -48.5q0 -74 -152.5 -161t-359.5 -87 q-293 0 -487.5 233.5t-194.5 567.5z" />
<glyph unicode="d" horiz-adv-x="1554" d="M154 152q0 75 99 75h3l6 543l-10 533q-90 8 -90 84.5t161.5 127t334.5 50.5t322.5 -67.5t240.5 -182.5q186 -233 186 -553q0 -311 -178 -541q-88 -115 -233.5 -183.5t-346 -68.5t-348 51.5t-147.5 131.5zM449 800q0 -427 10 -626q74 -27 207 -27t240.5 53.5t170.5 143.5 q133 184 133 433t-146 430.5t-423 181.5q-117 0 -186 -35q-6 -127 -6 -554z" />
<glyph unicode="e" horiz-adv-x="1525" d="M86 866q0 41 23.5 64.5t54.5 23.5t86 -24q63 274 238.5 455.5t429.5 181.5q207 0 353 -125t146 -301t-90 -289q-170 -207 -528 -207q-147 0 -367 41q18 -221 146.5 -380t305.5 -159t330 101q68 37 91.5 37t43 -19.5t19.5 -48.5q0 -72 -145.5 -160t-313.5 -88t-292.5 63.5 t-204.5 170.5q-166 221 -179 518q-147 45 -147 145zM436 862q156 -43 351.5 -43t314.5 82t119 232q0 96 -79 176t-216.5 80t-241.5 -82q-193 -150 -248 -445z" />
<glyph unicode="f" horiz-adv-x="1261" d="M123 817q0 47 39 70.5t98 23.5q-4 383 -14 461q-25 39 -25 82q0 92 127 92l379 -10l328 12q55 0 89 -25.5t34 -70.5t-34 -70.5t-89 -25.5l-328 12q-160 0 -283 -10v-455q40 -2 138 -2l348 10q55 0 88 -25.5t33 -68.5q0 -90 -121 -90l-348 8q-90 0 -138 -2 q0 -268 6.5 -430t6.5 -178q0 -145 -104.5 -145t-104.5 145q0 16 2 96q10 240 10 506q-137 0 -137 90z" />
<glyph unicode="g" horiz-adv-x="1581" d="M147 770q0 334 201 565.5t508 231.5q190 0 347 -76t157 -164q0 -39 -23.5 -61.5t-69.5 -22.5t-124 55q-125 90 -287 91q-221 0 -366.5 -182.5t-145.5 -433.5t139.5 -438.5t350.5 -187.5q174 0 290.5 129.5t124.5 366.5q-68 6 -172 6l-276 -10q-55 0 -86 24.5t-31 66.5 t30.5 68.5t86.5 26.5l276 -10l258 12q55 0 89 -26.5t34 -77.5q0 -348 -175 -551t-460.5 -203t-480.5 233.5t-195 567.5z" />
<glyph unicode="h" horiz-adv-x="1572" d="M121 811q0 43 33.5 68.5t97.5 25.5q0 162 -6 329t-6 177q0 145 104.5 145t104.5 -145q0 -10 -6.5 -180t-6.5 -332q201 -4 399.5 -4t297.5 4q0 162 -5.5 332t-5.5 180q0 145 104.5 145t104.5 -145q0 -10 -6 -176t-6 -328q61 0 97 -26.5t36 -69.5t-36 -68.5t-97 -25.5 q0 -162 6 -372t6 -220q0 -145 -104.5 -145t-104.5 145l11 598l-353 4q-238 0 -344 -2q0 -162 6.5 -376t6.5 -224q0 -145 -104.5 -145t-104.5 145q0 10 6 221t6 373q-131 0 -131 92z" />
<glyph unicode="i" horiz-adv-x="995" d="M106 83q0 44 34 69.5t89 25.5l166 -10q11 250 11 622v39q0 344 -9 533l-168 -8q-55 0 -89 26.5t-34 71.5t34 70.5t89 25.5l269 -12l268 12q55 0 89 -25.5t34 -70.5t-34 -71.5t-89 -26.5l-168 8q-8 -199 -8 -570.5t10 -621.5l166 8q55 0 89 -25.5t34 -69.5t-34 -69.5 t-89 -25.5l-268 12l-269 -12q-55 0 -89 25.5t-34 69.5z" />
<glyph unicode="j" horiz-adv-x="1214" d="M94 178q0 39 22.5 62.5t59.5 23.5t74 -28.5t94 -58.5t141 -30q119 0 204 101.5t85 320.5l-6 797q-129 0 -233.5 -6t-143.5 -6t-72.5 25.5t-33.5 70.5t33.5 70.5t89.5 25.5l264 -10l305 12q55 0 89 -25.5t34 -69.5t-39 -70.5t-100 -26.5q-2 -127 -3 -830q0 -150 -42 -262 t-111 -174q-137 -121 -312.5 -121t-287 71t-111.5 138z" />
<glyph unicode="k" horiz-adv-x="1409" d="M231 96l9 666l-9 676q0 49 30 82.5t72 33.5t72.5 -33.5t30.5 -82.5l-6 -185q-4 -184 -4 -364q55 16 141 16l115 -12q96 72 195.5 247t132.5 322q23 94 98 94q35 0 60.5 -26.5t25.5 -65.5q0 -127 -113.5 -333.5t-244.5 -339.5q209 -377 342 -547q72 -90 135 -90l22 2 q15 0 15 -46q0 -44 -37 -87t-94.5 -43t-112.5 49q-113 96 -442 669l-132 -14q-73 0 -106 6l10 -594q0 -49 -30.5 -82.5t-72.5 -33.5t-72 33.5t-30 82.5z" />
<glyph unicode="l" horiz-adv-x="1216" d="M231 1411q0 145 104.5 145t104.5 -145q0 -16 -2 -104q-10 -260 -10 -476.5t2 -338t6 -206.5t4 -108q98 -10 213 -10t223.5 7t142.5 7t67.5 -25.5t33.5 -70.5t-33.5 -70.5t-89.5 -25.5l-305 10l-332 -10q-61 0 -92.5 25.5t-31.5 95.5l8 667q0 268 -6.5 442.5t-6.5 190.5z " />
<glyph unicode="m" horiz-adv-x="2494" d="M170 186.5q0 204.5 55 597.5q0 135 -23.5 363.5t-23.5 281t29 90t79 37.5t78.5 -37.5t28.5 -85t-1 -114t-1 -113.5q188 350 479 350q168 0 273.5 -95t146.5 -255q195 350 482 350q213 0 329.5 -179t116.5 -435l-14 -496q0 -78 2 -116.5t16 -81.5t43 -55q16 -8 39 -11.5 t33 -9.5t10 -22q0 -72 -45 -120t-107 -48q-104 0 -144 81.5t-40 243.5l10 572q0 223 -75.5 359t-211 136t-263.5 -180t-179 -410l8 -661q0 -70 -22.5 -105.5t-81.5 -35.5q-127 0 -127 204.5t55 597.5q0 590 -293 590q-131 0 -259 -180t-179 -410l8 -661q0 -141 -104 -141 q-127 0 -127 204.5z" />
<glyph unicode="n" horiz-adv-x="1648" d="M168 189q0 214 55 599q0 133 -23.5 361.5t-23.5 280t28.5 89t79 37.5t79 -37.5t28.5 -85t-1 -114t-1 -113.5q201 350 508 350q227 0 351 -156.5t124 -381.5l-14 -578q0 -78 2 -116.5t16.5 -81.5t42.5 -56q16 -8 39 -11t33 -9t10 -23q0 -72 -45 -120t-106 -48 q-106 0 -146.5 82t-40.5 244l13 582q0 223 -78 357t-226.5 134t-288 -179t-192.5 -407l8 -671q0 -141 -104 -142q-127 0 -127 214z" />
<glyph unicode="o" d="M147 770q0 334 201 565.5t499 231.5t495.5 -231.5t197.5 -565.5t-199.5 -567.5t-497.5 -233.5t-497 233.5t-199 567.5zM344 773q0 -247 143.5 -436.5t357.5 -189.5t356 188.5t142 436.5t-141 433.5t-357 185.5t-358.5 -185.5t-142.5 -432.5z" />
<glyph unicode="p" horiz-adv-x="1333" d="M147 1383q0 40 59.5 79t145.5 62q172 43 299 43q307 0 467 -145.5t160 -356.5t-160 -357.5t-413 -146.5q-190 0 -273 23l10 -486q0 -53 -28.5 -85.5t-74.5 -32.5t-76 32.5t-30 85.5l17 684q0 506 -12 506q-45 6 -68 30.5t-23 64.5zM432 1050.5q0 -194.5 4 -284.5 q125 -31 275.5 -31t260 92.5t109.5 236.5t-110 235.5t-307 91.5q-135 0 -226 -48q-6 -98 -6 -292.5z" />
<glyph unicode="q" d="M147 770q0 334 201 565.5t499 231.5t495.5 -231.5t197.5 -565.5q0 -215 -89 -395t-239 -287q14 -25 45 -72q62 -93 62 -128q0 -34 -23 -57q-22 -24 -63 -24t-74 56l-80 143q-121 -37 -237 -37q-297 0 -496 233.5t-199 567.5zM344 773q0 -247 143.5 -436.5t356.5 -189.5 q80 0 147 19q-33 51 -69 104q-58 83 -58 125q0 39 22 61q23 23 63 23t75 -55q2 -4 78 -186q113 86 177 229t64 303q0 250 -141 435.5t-357 185.5t-358.5 -185.5t-142.5 -432.5z" />
<glyph unicode="r" horiz-adv-x="1153" d="M168 189q0 214 55 599q0 133 -23.5 361.5t-23.5 280t28.5 89t79 37.5t79 -37.5t28.5 -85t-1 -114t-1 -111.5q59 141 182 249t251 108t195.5 -50.5t67.5 -108.5t-31.5 -92t-78.5 -34t-103.5 51t-91.5 51q-94 0 -223 -218t-164 -437l6 -610q0 -141 -104 -142 q-127 0 -127 214z" />
<glyph unicode="s" horiz-adv-x="1241" d="M117 223q0 37 24.5 61.5t62.5 24.5t76.5 -25.5t71.5 -55t99.5 -55.5t150.5 -26q139 0 230.5 72t91.5 199q0 84 -78 159.5t-188.5 137t-221 126t-188.5 158t-78 201.5q0 150 131 258.5t309 108.5t303 -60.5t125 -138.5q0 -39 -24.5 -61.5t-65.5 -22.5t-80 26.5t-96 53.5 t-153.5 27t-174 -53.5t-77.5 -131.5t77.5 -144.5t188 -128t221.5 -129t188.5 -167.5t77.5 -219q0 -190 -144.5 -319.5t-373.5 -129.5q-178 0 -331.5 86t-153.5 168z" />
<glyph unicode="t" horiz-adv-x="1214" d="M86 1452q0 45 34 70.5t89 25.5l407 -12l396 12q55 0 89 -25.5t34 -70.5t-34 -70.5t-89 -25.5l-295 12q-8 -199 -8 -606l12 -664q0 -53 -28.5 -85.5t-75 -32.5t-76 32.5t-29.5 85.5l12 664q0 356 -10 606l-305 -12q-55 0 -89 25.5t-34 70.5z" />
<glyph unicode="u" horiz-adv-x="1677" d="M168 1439q0 42 32.5 76.5t86.5 34.5q127 0 127 -227l-23 -680q0 -223 77 -359.5t233.5 -136.5t302 183.5t172.5 406.5l-9 672q0 141 105 141q127 0 127 -208.5t-56 -604.5q0 -225 30 -381.5t73 -175.5q16 -8 39.5 -11t34 -9t10.5 -23q0 -76 -45 -122t-115 -46 q-174 0 -174 355q-205 -354 -516 -355q-166 0 -279 92q-205 172 -204 547l16 490q0 111 -22.5 205t-22.5 136z" />
<glyph unicode="v" horiz-adv-x="1378" d="M82 1466.5q0 28.5 25.5 59t70.5 30.5q78 0 109 -92q389 -1192 403 -1192q23 0 412 1192q31 92 98 92q45 0 70.5 -30.5t25.5 -59t-24 -94.5q-117 -317 -138.5 -383.5t-320.5 -906.5q-35 -102 -124 -102t-124 102q-299 840 -318.5 900t-67.5 191.5t-72.5 198t-24.5 95z" />
<glyph unicode="w" horiz-adv-x="1964" d="M86 1456q0 45 26.5 72.5t63.5 27.5q82 0 111 -92q127 -403 241.5 -811.5t116.5 -408.5q8 0 101.5 321.5t121.5 448.5q10 45 42 78.5t77 33.5q92 0 121 -104q227 -778 244 -778l71 262q72 262 156 573.5t104 384.5q25 92 93 92q47 0 71.5 -29.5t24.5 -74.5t-96.5 -360.5 t-157.5 -518.5q-119 -382 -156 -495q-35 -98 -124 -98t-124 92q-27 74 -128 414.5t-105 340.5t-48 -149.5t-99.5 -342t-75.5 -257.5q-31 -98 -122 -98t-124 92q-10 27 -47 146.5t-89 285.5t-77 242.5t-59.5 182t-57 174t-47.5 148.5q-49 160 -49 205z" />
<glyph unicode="x" horiz-adv-x="1425" d="M98 1423q0 63 38 101.5t89 38.5t91 -27t96 -106q20 -33 276 -478q51 82 146.5 241t116 192.5t29.5 50t24.5 40t25.5 35t23 23.5q24 23 60 23l1 -1q36 0 60 -25.5t24 -60t-41 -105.5t-174 -274.5t-192 -295.5q283 -451 359.5 -543t131.5 -92q31 0 38 -11.5t7 -31.5 q0 -63 -38 -103.5t-91 -40.5q-84 0 -184 136q-55 73 -342 528q-43 -68 -139.5 -224.5t-119 -190.5t-44 -68.5t-31.5 -51.5l-27 -39q-18 -29 -43 -51q-34 -33 -69 -33l-1 1q-36 0 -60.5 24.5t-24.5 53t13 58t51 88t81 124.5q190 274 311 465q-184 328 -303 510 q-48 73 -112 73h-2q-37 0 -45.5 12.5t-8.5 34.5z" />
<glyph unicode="y" horiz-adv-x="1243" d="M61 1468.5q0 34.5 25 61t71 26.5t78.5 -44t152.5 -277.5t239 -413.5q49 74 173 303.5t143.5 263t27.5 49t23.5 40t24.5 36t21 23.5q20 20 57.5 20t61 -24.5t23.5 -59t-30 -91t-129 -226.5t-128 -218t-81 -139t-103 -177q0 -164 6 -330l4 -166q0 -145 -104.5 -145 t-104.5 145l4 170q6 170 6 328q-408 700 -434.5 755.5t-26.5 90z" />
<glyph unicode="z" horiz-adv-x="1265" d="M100 78q0 49 50.5 134t178.5 275.5t230 358.5l311 514q-92 8 -223 8t-258 -7t-163 -7t-69.5 25.5t-33.5 70.5t33.5 70.5t89.5 25.5l358 -10l416 10q117 0 117 -84q0 -51 -42 -124.5t-162 -251t-214 -332.5l-350 -576q117 -10 261 -10t271 7t163 7t69.5 -25.5t33.5 -70.5 t-33.5 -70.5t-89.5 -25.5l-358 10l-469 -10q-117 0 -117 88z" />
<glyph unicode="{" horiz-adv-x="755" d="M59 766q0 61 38 91t82 30t79 -15q45 39 45 230q0 63 -15.5 183t-15.5 175q0 119 89.5 184.5t207.5 65.5q43 0 68 -25.5t25 -66.5t-30 -62.5t-65 -25.5t-64.5 -25.5t-29.5 -59.5t14.5 -147.5t14.5 -205t-15.5 -164t-30 -93t-48.5 -65.5q33 -39 47 -65q45 -80 45 -275 q0 -86 -14.5 -191.5t-14.5 -143.5t29.5 -59.5t64.5 -25.5t64.5 -25.5t29.5 -62.5t-24.5 -66.5t-67.5 -25.5q-119 0 -208 65.5t-89 184.5q0 55 15.5 171t15.5 179q0 190 -45 229q-35 -14 -79 -14t-81 30t-37 91z" />
<glyph unicode="|" horiz-adv-x="548" d="M184 -57l11 721l-9 778q0 115 88 114.5t88 -114.5l-8 -778l11 -721q0 -115 -90.5 -115t-90.5 115z" />
<glyph unicode="}" horiz-adv-x="755" d="M115 1618q0 41 24.5 66.5t67.5 25.5q111 0 193.5 -65.5t82.5 -184.5q0 -55 -15 -175t-15 -183q0 -190 45 -230q35 14 79 14.5t81.5 -29.5t37.5 -91t-36.5 -91t-79.5 -30t-80 14q-45 -39 -45 -229q0 -63 15 -179t15 -171q0 -119 -83 -184.5t-193 -65.5q-43 0 -67.5 25.5 t-24.5 66.5t29.5 62.5t64.5 25.5t64.5 25.5t29.5 59.5t-14.5 143.5t-14.5 201t14.5 166t30 98t48.5 66.5q-35 41 -49.5 65.5t-30 93t-15.5 164t14.5 205t14.5 147.5t-29.5 59.5t-64.5 25.5t-64.5 25.5t-29.5 62.5z" />
<glyph unicode="~" horiz-adv-x="1273" d="M152 715q0 68 98 131t210.5 63t229.5 -58t169 -58t106.5 50t88 50t52 -19.5t18.5 -46.5q0 -59 -86 -123.5t-175 -64.5t-203.5 57.5t-168 57.5t-123 -60.5t-118.5 -60.5t-73.5 22.5t-24.5 59.5z" />
<glyph unicode="&#xa1;" horiz-adv-x="546" d="M162 1275q0 52 34.5 95t84 43t77 -38t27.5 -89t-34 -92t-85 -41t-77.5 35t-26.5 87zM170 -41l14 467l-2 412q0 53 24.5 83.5t67.5 30.5t68 -30.5t25 -83.5l-5 -412l17 -467q0 -61 -27.5 -97t-77 -36t-77 36t-27.5 97z" />
<glyph unicode="&#xa2;" horiz-adv-x="1490" d="M147 722q0 282 168 486.5t441 251.5q0 152 94 152t94 -146q166 -10 279.5 -70.5t113.5 -135.5q0 -37 -24.5 -59.5t-66.5 -22.5t-131 54t-175 68q-8 -262 -8 -576t8 -577q143 18 272 119q43 31 74 31q76 0 76 -68q0 -61 -124 -146t-292 -106q0 -145 -94 -145t-94 154 q-270 39 -440.5 246.5t-170.5 489.5zM342 726q0 -204 118 -370.5t302 -203.5q6 393 6 506.5t-8 637.5q-184 -37 -301 -201.5t-117 -368.5z" />
<glyph unicode="&#xa3;" horiz-adv-x="1193" d="M153.5 718q0.5 83 108.5 83q8 0 22.5 -1t20.5 -1q-6 33 -22 96q-33 139 -33 219q0 147 107.5 246.5t295.5 99.5q121 0 236 -61.5t115 -126.5q0 -35 -20.5 -62.5t-61.5 -27.5t-119 50t-165 50t-139.5 -47t-52.5 -121t48 -319l315 6q45 0 74.5 -22.5t29.5 -59.5 t-29.5 -60.5t-74.5 -23.5l-293 6q12 -180 -20.5 -273.5t-85.5 -191.5q72 -8 178 -8t219 7t147.5 7t68.5 -25.5t34 -70.5t-34 -70.5t-89 -25.5l-318 10l-315 -10q-57 0 -91 30.5t-34 88t38 121t77 143.5t40 154.5t-1 109.5q-16 -2 -64 -2q-113 0 -112.5 83z" />
<glyph unicode="&#xa4;" horiz-adv-x="1435" d="M158 332q0 35 24.5 64.5t136.5 127.5q-57 109 -57 236t60 239q-113 98 -137.5 128t-24.5 65t28.5 61.5t54 26.5t36 -2t21.5 -7t18.5 -10.5t22.5 -20.5t24.5 -25.5t33 -35t39.5 -42.5q111 84 279 84t278 -84q109 115 131.5 129t56.5 14t62.5 -26.5t28.5 -61.5t-24.5 -64.5 t-137.5 -128.5q59 -113 59 -242.5t-57 -232.5q113 -98 137.5 -127.5t24.5 -64.5t-27.5 -61.5t-50 -26.5t-31 1t-17.5 4t-15.5 6t-16.5 11t-16 14.5t-20.5 19.5t-23.5 22.5t-28 30t-33 34.5q-113 -86 -280.5 -86t-280.5 86q-16 -18 -39.5 -43t-33 -35t-24.5 -25.5 t-22.5 -20.5t-17.5 -9q-20 -10 -52 -10t-60.5 26.5t-28.5 61.5zM438 762q0 -123 82 -211t196.5 -88t196.5 88t82 211t-83 211t-195.5 88t-195.5 -88t-83 -211z" />
<glyph unicode="&#xa5;" horiz-adv-x="1323" d="M139 1374q0 29 30 57.5t75 28.5q25 0 38 -9t21 -15t18.5 -20.5t16.5 -24t18.5 -30t19.5 -32.5t21.5 -39.5t113.5 -207t165 -275.5q43 66 130 226.5t104.5 190t31.5 55.5t21.5 40t19.5 34.5t20.5 32t18.5 25.5t18.5 21.5t18.5 13.5q18 14 52 14t60.5 -26.5t26.5 -58.5 t-27 -81q-25 -49 -317 -534l205 2q45 0 72.5 -22.5t27.5 -59.5t-27.5 -59.5t-72.5 -22.5l-299 4v-139l299 6q45 0 72.5 -22.5t27.5 -59.5t-27.5 -59.5t-72.5 -22.5q-123 0 -295 4l4 -211q0 -53 -28.5 -85.5t-75 -32.5t-76 32.5t-29.5 72.5t8 224q-164 -4 -282 -4 q-45 0 -73 22.5t-28 59.5t28 59.5t73 22.5l286 -6v139l-286 -4q-45 0 -73 22.5t-28 59.5t28 59.5t70 22.5t106.5 -1t90.5 -1q-121 205 -158.5 266t-65.5 107.5t-44 73t-30.5 52t-21.5 39t-12 27.5q-8 20 -8 49z" />
<glyph unicode="&#xa6;" horiz-adv-x="571" d="M197 88l8 213l-6 213q0 109 84 109q43 0 66.5 -30t23.5 -79l-8 -213l10 -213q0 -49 -24.5 -78.5t-67.5 -29.5q-86 0 -86 108zM197 1022l8 213l-6 213q0 109 84 108q43 0 66.5 -29.5t23.5 -78.5l-8 -213l10 -213q0 -49 -24.5 -79t-67.5 -30q-86 0 -86 109z" />
<glyph unicode="&#xa7;" horiz-adv-x="1200" d="M141 53q0 35 22.5 55.5t57.5 20.5t78 -31q127 -94 246 -94t186.5 47t67.5 114.5t-65.5 120t-159 97.5t-186.5 95t-158.5 123t-65.5 163t69.5 159.5t184.5 98.5q-182 127 -182 249t113.5 209t268 87t261 -55.5t106.5 -129.5q0 -31 -21.5 -51t-53 -20t-107.5 39t-164 39 t-148.5 -33t-60.5 -88.5t65.5 -109.5t159 -100t186.5 -97.5t158.5 -126t65.5 -160.5t-53.5 -161t-139.5 -122q121 -86 121 -221t-120.5 -239.5t-315.5 -104.5q-143 0 -279.5 75.5t-136.5 151.5zM350 767q0 -50 73 -104.5t273 -164.5q84 20 133.5 67t49.5 109.5t-108.5 133.5 t-203 71t-156 -31t-61.5 -81z" />
<glyph unicode="&#xa8;" horiz-adv-x="974" d="M174 1310.5q0 53.5 34 95.5t86 42t79.5 -35t27.5 -89t-34.5 -97t-85 -43t-79 36.5t-28.5 90zM573 1310.5q0 53.5 34 95.5t86 42t80 -35t28 -89t-35 -97t-85 -43t-79 36.5t-29 90z" />
<glyph unicode="&#xa9;" horiz-adv-x="1611" d="M162 919.5q0 268.5 188.5 458t454.5 189.5t454.5 -189.5t188.5 -458t-188.5 -458t-454.5 -189.5t-454.5 189.5t-188.5 458zM322 920.5q0 -209.5 141 -356t341 -146.5t342 146.5t142 356t-142 355t-342 145.5t-341 -145.5t-141 -355zM440 920.5q0 164.5 105.5 281.5 t269.5 117q92 0 168 -38t76 -87q0 -72 -74 -72q-29 0 -63 25q-53 31 -97 31q-106 0 -164.5 -78t-58.5 -183.5t64.5 -181.5t158.5 -76q61 0 111.5 26t75.5 26q63 0 63 -64q0 -35 -75.5 -82t-184.5 -47q-158 0 -266.5 119t-108.5 283.5z" />
<glyph unicode="&#xaa;" horiz-adv-x="921" d="M127 1222q0 130 86 233.5t215 103.5q78 0 137 -46q25 45 78 46q86 0 86 -129q1 -36 -24 -216q0 -152 38 -178q6 -4 19 -6q31 -4 31 -26q0 -49 -31 -79t-74 -30q-86 0 -110 113q-74 -113 -197 -113t-188.5 98.5t-65.5 228.5zM283 1218.5q0 -81.5 26.5 -134t75.5 -52.5 t101 59.5t75 137.5l-4 135q-59 53 -122.5 53t-107.5 -58.5t-44 -140z" />
<glyph unicode="&#xab;" horiz-adv-x="1239" d="M121 770q0 35 32.5 72t109.5 99.5t106.5 90t46.5 41.5q41 33 83 33t66.5 -23.5t24.5 -55.5t-21.5 -54.5t-79 -59t-65.5 -43.5q-117 -84 -117 -100t117 -100q16 -12 53 -36t55 -38q57 -41 57.5 -78t-24 -60.5t-60.5 -23.5t-63.5 16.5t-64.5 51.5t-114 97.5t-109.5 99 t-32.5 71.5zM612 770q0 35 33 72t109.5 99.5t106.5 90t46 41.5q41 33 83 33t66.5 -23.5t24.5 -55.5t-21.5 -54.5t-78.5 -59t-66 -43.5q-116 -84 -116 -100t116 -100q16 -12 53.5 -36t55.5 -38q57 -41 57 -78t-24.5 -60.5t-60 -23.5t-63.5 16.5t-65 51.5t-113.5 97.5 t-109.5 99t-33 71.5z" />
<glyph unicode="&#xac;" horiz-adv-x="1441" d="M190 768q0 37 29 61.5t74 24.5l422 -6l432 6q37 0 70.5 -23.5t33.5 -82.5l-4 -123l4 -140q0 -45 -24.5 -71.5t-64.5 -26.5t-64.5 26.5t-24.5 71.5l6 199q-180 4 -364 4l-422 -6q-45 0 -74 24.5t-29 61.5z" />
<glyph unicode="&#xad;" horiz-adv-x="897" d="M143 534.5q0 36.5 28 61.5t73 25l202 -7l203 7q45 0 73 -25t28 -61.5t-28 -61t-73 -24.5l-203 6l-202 -6q-45 0 -73 24.5t-28 61z" />
<glyph unicode="&#xae;" horiz-adv-x="1609" d="M162 919.5q0 268.5 188.5 458t454.5 189.5t454.5 -189.5t188.5 -458t-188.5 -458t-454.5 -189.5t-454.5 189.5t-188.5 458zM322 920.5q0 -209.5 141 -356t341 -146.5t342 146.5t142 356t-142 355t-342 145.5t-341 -145.5t-141 -355zM524 1217q0 109 264 108 q154 0 233 -75.5t79 -172.5q0 -147 -156 -225q14 -25 33.5 -57.5l30 -50t24.5 -35.5q23 -33 60.5 -33t37.5 -29q0 -43 -30.5 -74.5t-66.5 -31.5t-58.5 11t-44.5 40q-35 45 -76 124t-53 99q-49 -6 -78 -6t-39 2l4 -180q0 -39 -22.5 -65.5t-59.5 -26.5q-80 0 -80 92l9 313z M678 977q33 8 73 8t107 -22q31 4 58.5 36.5t27.5 76.5t-36 77t-105.5 33t-118.5 -15q0 -29 -3 -92t-3 -102z" />
<glyph unicode="&#xaf;" horiz-adv-x="1015" d="M133 1370q0 37 27.5 61.5t72.5 24.5l275 -6l274 6q43 0 72 -24.5t29 -61.5t-28 -61.5t-73 -24.5l-274 6l-275 -6q-43 0 -71.5 24.5t-28.5 61.5z" />
<glyph unicode="&#xb0;" horiz-adv-x="823" d="M131 1255q0 129 78 218.5t203 89.5t202.5 -89.5t77.5 -217.5t-77.5 -217t-202.5 -89t-203 88t-78 217zM289 1256.5q0 -70.5 32.5 -117.5t90 -47t89 46t31.5 117.5t-31.5 118.5t-89 47t-90 -47t-32.5 -117.5z" />
<glyph unicode="&#xb1;" horiz-adv-x="1320" d="M168 266q0 37 27.5 61.5t72.5 24.5l389 -6l390 6q45 0 72.5 -24.5t27.5 -61.5t-27.5 -61.5t-72.5 -24.5l-390 6l-389 -6q-45 0 -72.5 24.5t-27.5 61.5zM168 942q0 37 28.5 61.5t73.5 24.5l312 -6q0 119 -4.5 178.5t-4.5 63.5q0 47 24 73.5t62.5 26.5t63.5 -27.5t25 -74.5 q0 -4 -3 -33q-6 -90 -6 -209l312 6q45 0 73.5 -24.5t28.5 -61.5t-28.5 -61.5t-73.5 -24.5l-312 6l9 -268q0 -47 -24 -76t-63.5 -29t-63.5 30t-24 77l9 268l-312 -6q-45 0 -73.5 24.5t-28.5 61.5z" />
<glyph unicode="&#xb2;" horiz-adv-x="890" d="M131 764q0 39 32 81t102.5 116.5t96 106.5t52 62.5t44 53t40.5 53.5q45 61 45 97t-30 60.5t-74 24.5t-104.5 -45t-99 -45t-58 20.5t-19.5 61.5t80.5 98.5t203.5 57.5t196 -65.5t73 -149.5q0 -76 -60 -164q-41 -61 -69.5 -97t-54 -71t-160.5 -191q137 0 208.5 4.5 t83.5 4.5q102 0 102.5 -79t-102.5 -79l-223 8l-205 -8q-39 0 -69.5 22.5t-30.5 61.5z" />
<glyph unicode="&#xb3;" horiz-adv-x="882" d="M129 834q0 72 68 71q37 0 99 -50t136 -50t118 40t44 105.5t-47 109.5t-119 52q-76 -66 -139 -65q-92 0 -92 83q0 31 34.5 62t102.5 45q125 115 162 154q-25 2 -93 2l-159 -7q-43 0 -71 19.5t-28 55.5t27 58.5t72 22.5l180 -6l166 6q63 0 95 -26.5t32 -60.5t-19.5 -56.5 t-73 -70.5t-98.5 -103q111 -29 171.5 -103.5t60.5 -181t-91.5 -197t-242.5 -90.5q-113 0 -204 64.5t-91 116.5z" />
<glyph unicode="&#xb4;" horiz-adv-x="675" d="M174 1210.5q0 24.5 49 85t67.5 101.5t30 60.5t37 39t61.5 19.5t59.5 -28t23.5 -63q0 -90 -97.5 -181t-162.5 -91q-33 0 -50.5 16.5t-17.5 41z" />
<glyph unicode="&#xb5;" horiz-adv-x="1783" d="M250 1415q0 145 104.5 145.5t104.5 -145.5q0 -12 -4 -108q-8 -285 -9 -678q0 -197 110 -339.5t240 -142.5t250 178.5t173 411.5l-9 672q0 141 105 141q127 0 127 -208.5t-56 -604.5q0 -225 30 -381.5t73 -175.5q16 -8 39.5 -11t34 -9t10.5 -23q0 -76 -45 -122t-115 -46 q-90 0 -133 102.5t-43 264.5q-41 -76 -67.5 -117t-86.5 -110q-119 -139 -305 -140q-72 0 -168 38t-153 97q4 -123 4 -129q0 -145 -104.5 -145t-104.5 145q0 20 2 131q8 258 8 544t-3 430.5t-6 231.5t-3 103z" />
<glyph unicode="&#xb6;" horiz-adv-x="1355" d="M121 1077q0 217 135 339t373 126l200 -6l172 6q53 0 84 -31.5t31 -68.5t-2 -168q-8 -305 -8 -610.5t6 -509t6 -209.5q-4 -119 -99 -119t-95 119q0 16 2 106q10 270 10 494l-10 839h-195l-10 -839q0 -186 6 -390t6 -210q0 -117 -97 -117t-97 117q0 14 2 108q10 283 10 600 q-193 10 -311.5 130t-118.5 294z" />
<glyph unicode="&#xb7;" horiz-adv-x="550" d="M162 772q0 53 33.5 95t86 42t80 -34.5t27.5 -88t-35 -97.5t-85 -44t-78.5 37t-28.5 90z" />
<glyph unicode="&#xb8;" horiz-adv-x="698" d="M80 -317q0 18 15.5 34.5t39 16.5t75.5 -24.5t91 -24.5t63.5 14t24.5 33.5t-29.5 41t-65.5 42t-65.5 56.5t-29.5 79v88h166v-57q0 -31 32.5 -62t72.5 -52.5t72.5 -58t32.5 -81.5q0 -86 -76.5 -142.5t-183 -56.5t-171 50t-64.5 104z" />
<glyph unicode="&#xb9;" horiz-adv-x="716" d="M80 1176.5q0 23.5 4 37t18.5 31t28.5 32.5t49 51t100.5 106.5t97.5 96t79 25.5q90 0 90 -116l-6 -326l6 -342q0 -43 -22.5 -68.5t-61.5 -25.5t-61.5 25.5t-22.5 68.5l6 342v189q-23 -23 -52.5 -50.5t-45 -43t-36 -34t-31.5 -26.5t-23 -19q-23 -14 -49.5 -14t-47 18.5 t-20.5 42z" />
<glyph unicode="&#xba;" horiz-adv-x="870" d="M129 1226.5q0 145.5 85 243t220 97.5t221 -96.5t86 -243t-85 -239.5t-222 -93t-221 93t-84 238.5zM287 1228q0 -87 39 -139.5t109.5 -52.5t109.5 52.5t39 139.5t-40 142t-108.5 55t-108.5 -55t-40 -142z" />
<glyph unicode="&#xbb;" horiz-adv-x="1236" d="M158 513q0 32 21.5 54.5t78.5 59.5t66 43q117 84 116.5 100t-116.5 100q-16 12 -53.5 36t-57.5 38q-55 41 -55 78t24.5 60.5t60.5 23.5t63.5 -16.5t64.5 -51t113.5 -97t109.5 -99.5t33 -72t-33 -71.5t-109.5 -99t-106.5 -90.5t-46 -42q-41 -33 -83 -33t-66.5 23.5 t-24.5 55.5zM649 513q0 32 21.5 54.5t79 59.5t65.5 43q117 84 117 100t-117 100q-16 12 -53 36t-57 38q-55 41 -55.5 78t24 60.5t60.5 23.5t63.5 -16.5t64.5 -51t114 -97t109.5 -99.5t32.5 -72t-32.5 -71.5t-109.5 -99t-106.5 -90.5t-46.5 -42q-41 -33 -83 -33t-66.5 23.5 t-24.5 55.5z" />
<glyph unicode="&#xbc;" horiz-adv-x="1898" d="M115 1180.5q0 27.5 10 45t27 31.5q82 78 137 142.5t68.5 79t32 34t28.5 27.5q29 16 61 16q92 0 92 -116l-6 -326l6 -342q0 -43 -23.5 -68.5t-61 -25.5t-61.5 25.5t-24 68.5l7 342v189q-35 -35 -73 -78t-56 -64q-47 -51 -82 -51t-58.5 21.5t-23.5 49zM569 62.5 q0 37.5 30 119.5t100.5 261.5t124 325.5t134 391t97.5 294q33 102 110 102q29 0 55.5 -22.5t26.5 -60t-29.5 -120.5t-101.5 -265.5t-122 -320.5t-228 -671q-23 -66 -48.5 -91t-60 -25t-61.5 22.5t-27 60zM1073 335q0 30 34 80t116 154.5t96 123t38.5 50t47.5 60.5 q66 86 135 86q47 0 80 -38t33 -91q0 -2 -3 -121t-3 -244q8 2 28 2q98 0 99 -69q0 -74 -107 -74l-20 2l6 -174q0 -102 -81 -102t-81 102l6 180l-338 -4q-45 0 -65.5 23.5t-20.5 53.5zM1274 393h221q2 70 2 287q-86 -103 -223 -287z" />
<glyph unicode="&#xbd;" horiz-adv-x="1904" d="M115 1180.5q0 27.5 10 45t27 31.5q82 78 137 142.5t68.5 79t32 34t28.5 27.5q29 16 61 16q92 0 92 -116l-6 -326l6 -342q0 -43 -23.5 -68.5t-61 -25.5t-61.5 25.5t-24 68.5l7 342v189q-35 -35 -73 -78t-56 -64q-47 -51 -82 -51t-58.5 21.5t-23.5 49zM569 62.5 q0 37.5 30 119.5t100.5 261.5t124 325.5t134 391t97.5 294q33 102 110 102q29 0 55.5 -22.5t26.5 -60t-29.5 -120.5t-101.5 -265.5t-122 -320.5t-228 -671q-23 -66 -48.5 -91t-60 -25t-61.5 22.5t-27 60zM1169 80q0 39 19.5 69.5t89.5 111.5t95.5 115t54 68.5t43 54 t36.5 50.5q41 63 41 99t-26.5 60.5t-77.5 24.5t-97.5 -45t-79 -45t-53 20.5t-20.5 61.5t76 98.5t192.5 57.5t186 -65.5t69.5 -142.5t-55 -166t-151.5 -205t-127.5 -159l281 11q104 0 104 -80t-104 -80l-211 8l-186 -8q-39 0 -69 23.5t-30 62.5z" />
<glyph unicode="&#xbe;" horiz-adv-x="2002" d="M141 834q0 72 68 71q29 0 55.5 -24.5t63.5 -50t100.5 -25.5t109.5 40t46 105.5t-44 109.5t-110 52q-43 -66 -121 -65q-39 0 -64.5 21.5t-25.5 57t32 66.5t95 45q109 106 152 154l-244 -2q-96 0 -96 71q0 37 25.5 58.5t70.5 21.5l172 -4l154 4q129 0 129 -88 q0 -53 -117 -162q-51 -49 -66 -65q106 -29 165 -103.5t59 -181t-94.5 -197t-249.5 -90.5q-100 0 -182.5 64.5t-82.5 116.5zM678 62.5q0 37.5 29.5 119.5t100.5 261.5t124 325.5t134 391t97 294q33 102 111 102q29 0 55.5 -22.5t26.5 -60t-30 -120.5t-101.5 -265.5 t-121.5 -320.5t-229 -671q-23 -66 -48 -91t-60 -25t-61.5 22.5t-26.5 60zM1182 335q0 30 33.5 80t115.5 154.5t96.5 123t39 50t46.5 60.5q66 86 136 86q47 0 79.5 -38t32.5 -91q0 -2 -3 -121t-3 -244q8 2 29 2q98 0 98 -69q0 -74 -106 -74l-21 2l6 -174q0 -102 -81 -102 t-81 102l7 180l-338 -4q-45 0 -65.5 23.5t-20.5 53.5zM1382 393h222q2 70 2 287q-87 -103 -224 -287z" />
<glyph unicode="&#xbf;" horiz-adv-x="1050" d="M127 207q0 78 34 151.5t65.5 111.5t97.5 105q61 51 93 81t61.5 79t29.5 99q0 135 92 135q41 0 67.5 -36t26.5 -95.5t-16 -108.5t-55 -98q-53 -61 -152 -150q-49 -55 -73.5 -85.5t-49 -84t-24.5 -104.5q0 -88 66.5 -144.5t150.5 -56.5q125 0 215 90q49 57 89 57.5 t62.5 -25.5t22.5 -60q0 -78 -118 -160t-261 -82q-188 0 -306 109.5t-118 271.5zM494 1287q0 52 34.5 95t84 43t77 -37.5t27.5 -89t-34 -92.5t-85 -41t-77.5 35t-26.5 87z" />
<glyph unicode="&#xc0;" horiz-adv-x="1417" d="M111 58.5q0 29.5 3 48t14 55.5t24 69q59 176 86 258q-59 0 -93 26t-34 69q0 96 151 96h37q197 549 226.5 627.5t33.5 91t13.5 36t16.5 35t17 27.5t19.5 25.5t21.5 17.5q27 16 56.5 16t48 -6t35 -22.5t27.5 -34.5t26.5 -57t27.5 -72q98 -301 246 -684l74 2q53 0 87 -28.5 t34 -71.5q0 -90 -135 -97q20 -66 55 -166q80 -217 80 -250.5t-23.5 -61t-64.5 -27.5q-74 0 -107 79q-35 101 -139 435l-264 6q-197 0 -287 -4q-23 -68 -65 -212.5t-68.5 -224t-93.5 -79.5q-39 0 -62.5 24.5t-23.5 54zM475 672q131 -4 253 -4t196 4q-215 618 -219 618 q-12 0 -177 -463zM483 1937q0 35 23.5 63t59.5 28t61.5 -19.5t37 -39t29.5 -60.5t67.5 -101.5t49.5 -85t-17.5 -41t-50.5 -16.5q-66 0 -163 91t-97 181z" />
<glyph unicode="&#xc1;" horiz-adv-x="1417" d="M111 58.5q0 29.5 3 48t14 55.5t24 69q59 176 86 258q-59 0 -93 26t-34 69q0 96 151 96h37q197 549 226.5 627.5t33.5 91t13.5 36t16.5 35t17 27.5t19.5 25.5t21.5 17.5q27 16 56.5 16t48 -6t35 -22.5t27.5 -34.5t26.5 -57t27.5 -72q98 -301 246 -684l74 2q53 0 87 -28.5 t34 -71.5q0 -90 -135 -97q20 -66 55 -166q80 -217 80 -250.5t-23.5 -61t-64.5 -27.5q-74 0 -107 79q-35 101 -139 435l-264 6q-197 0 -287 -4q-23 -68 -65 -212.5t-68.5 -224t-93.5 -79.5q-39 0 -62.5 24.5t-23.5 54zM475 672q131 -4 253 -4t196 4q-215 618 -219 618 q-12 0 -177 -463zM627 1722.5q0 24.5 49 85t67.5 101.5t29.5 60.5t37 39t61.5 19.5t59 -28t23.5 -63q0 -90 -97 -181t-163 -91q-33 0 -50 16.5t-17 41z" />
<glyph unicode="&#xc2;" horiz-adv-x="1417" d="M111 58.5q0 29.5 3 48t14 55.5t24 69q59 176 86 258q-59 0 -93 26t-34 69q0 96 151 96h37q197 549 226.5 627.5t33.5 91t13.5 36t16.5 35t17 27.5t19.5 25.5t21.5 17.5q27 16 56.5 16t48 -6t35 -22.5t27.5 -34.5t26.5 -57t27.5 -72q98 -301 246 -684l74 2q53 0 87 -28.5 t34 -71.5q0 -90 -135 -97q20 -66 55 -166q80 -217 80 -250.5t-23.5 -61t-64.5 -27.5q-74 0 -107 79q-35 101 -139 435l-264 6q-197 0 -287 -4q-23 -68 -65 -212.5t-68.5 -224t-93.5 -79.5q-39 0 -62.5 24.5t-23.5 54zM371 1754q0 38 53 82t107.5 105.5t93 94t83 32.5 t84 -32.5t93 -94t107.5 -106.5t54 -82t-22.5 -58.5t-49 -21.5t-44.5 10q-26 14 -51 41q-141 166 -170 166q-33 0 -164 -157q-10 -12 -17 -17l-14 -16q-27 -27 -62.5 -27t-58 21.5t-22.5 59.5zM475 672q131 -4 253 -4t196 4q-215 618 -219 618q-12 0 -177 -463z" />
<glyph unicode="&#xc3;" horiz-adv-x="1417" d="M111 58.5q0 29.5 3 48t14 55.5t24 69q59 176 86 258q-59 0 -93 26t-34 69q0 96 151 96h37q197 549 226.5 627.5t33.5 91t13.5 36t16.5 35t17 27.5t19.5 25.5t21.5 17.5q27 16 56.5 16t48 -6t35 -22.5t27.5 -34.5t26.5 -57t27.5 -72q98 -301 246 -684l74 2q53 0 87 -28.5 t34 -71.5q0 -90 -135 -97q20 -66 55 -166q80 -217 80 -250.5t-23.5 -61t-64.5 -27.5q-74 0 -107 79q-35 101 -139 435l-264 6q-197 0 -287 -4q-23 -68 -65 -212.5t-68.5 -224t-93.5 -79.5q-39 0 -62.5 24.5t-23.5 54zM301 1765q0 74 76 132.5t176 58.5t208.5 -56.5 t144.5 -56.5t78 51.5t69.5 51.5t44 -21.5t16.5 -50.5q0 -74 -63.5 -129t-143.5 -55t-190 63q-90 45 -135 45t-95.5 -60.5t-92.5 -60.5t-67.5 26t-25.5 62zM475 672q131 -4 253 -4t196 4q-215 618 -219 618q-12 0 -177 -463z" />
<glyph unicode="&#xc4;" horiz-adv-x="1417" d="M111 58.5q0 29.5 3 48t14 55.5t24 69q59 176 86 258q-59 0 -93 26t-34 69q0 96 151 96h37q197 549 226.5 627.5t33.5 91t13.5 36t16.5 35t17 27.5t19.5 25.5t21.5 17.5q27 16 56.5 16t48 -6t35 -22.5t27.5 -34.5t26.5 -57t27.5 -72q98 -301 246 -684l74 2q53 0 87 -28.5 t34 -71.5q0 -90 -135 -97q20 -66 55 -166q80 -217 80 -250.5t-23.5 -61t-64.5 -27.5q-74 0 -107 79q-35 101 -139 435l-264 6q-197 0 -287 -4q-23 -68 -65 -212.5t-68.5 -224t-93.5 -79.5q-39 0 -62.5 24.5t-23.5 54zM395 1822.5q0 53.5 34 95.5t86 42t79.5 -35t27.5 -89 t-34.5 -97t-85 -43t-79 36.5t-28.5 90zM475 672q131 -4 253 -4t196 4q-215 618 -219 618q-12 0 -177 -463zM794 1822.5q0 53.5 34 95.5t86 42t80 -35t28 -89t-35 -97t-85 -43t-79 36.5t-29 90z" />
<glyph unicode="&#xc5;" horiz-adv-x="1417" d="M111 58.5q0 29.5 3 48t14 55.5t24 69q59 176 86 258q-59 0 -93 26t-34 69q0 96 151 96h37q197 549 226.5 627.5t33.5 91t13.5 36t16.5 35t17 27.5t19.5 25.5t21.5 17.5q27 16 56.5 16t48 -6t35 -22.5t27.5 -34.5t26.5 -57t27.5 -72q98 -301 246 -684l74 2q53 0 87 -28.5 t34 -71.5q0 -90 -135 -97q20 -66 55 -166q80 -217 80 -250.5t-23.5 -61t-64.5 -27.5q-74 0 -107 79q-35 101 -139 435l-264 6q-197 0 -287 -4q-23 -68 -65 -212.5t-68.5 -224t-93.5 -79.5q-39 0 -62.5 24.5t-23.5 54zM475 672q131 -4 253 -4t196 4q-215 618 -219 618 q-12 0 -177 -463zM498 1872q0 88 60 148.5t150.5 60.5t151 -61.5t60.5 -148.5t-58.5 -144.5t-153 -57.5t-152.5 57.5t-58 145.5zM631 1873q0 -32 22.5 -56.5t54 -24.5t55 24.5t23.5 55.5t-24.5 57.5t-54 26.5t-53 -25.5t-23.5 -57.5z" />
<glyph unicode="&#xc6;" horiz-adv-x="1824" d="M111 58.5q0 29.5 3 48t14 55.5t24 69q59 176 86 258q-59 0 -93 26t-34 69q0 96 151 96h37q117 328 175 485.5t68.5 187t17.5 49t22.5 49.5t31.5 48q39 47 84 47l424 -10l264 12q55 0 89 -25.5t34 -70.5t-33.5 -70.5t-89.5 -25.5l-264 12q-147 0 -264 -10q2 -2 82 -445 q70 -4 152 -4l305 11q55 0 88 -26t33 -69q0 -90 -121 -90l-305 8q-78 0 -119 -2q88 -487 106 -559q162 -14 305 -14l265 12q55 0 89 -25.5t34 -70.5t-34 -70.5t-89 -25.5l-265 12l-354 -10q-119 0 -137 100q-33 178 -68 406q-53 2 -204.5 2t-196.5 -2q-23 -68 -65 -212.5 t-68.5 -224t-93.5 -79.5q-39 0 -62.5 24.5t-23.5 54zM475 672q98 -6 159.5 -6t103.5 1t65 1q-80 485 -111 608q-12 0 -166 -453z" />
<glyph unicode="&#xc7;" horiz-adv-x="1449" d="M147 770q0 334 196 565.5t491 231.5q180 0 322 -67.5t142 -151.5q0 -41 -24.5 -66t-64.5 -25t-113 48q-119 84 -262 84q-213 0 -351.5 -183.5t-138.5 -434.5t138.5 -437.5t339 -186.5t366.5 101q68 37 91.5 37t42.5 -19.5t19 -48.5q0 -72 -147 -158t-350 -90 q6 -35 59 -69.5t102.5 -75.5t49.5 -96q0 -86 -77 -142.5t-183.5 -56.5t-171 50t-64.5 104q0 18 15.5 34.5t39 16.5t75.5 -24.5t91 -24.5t63.5 14t24.5 32.5t-29.5 40t-64.5 43t-65.5 67.5t-30.5 106q-238 57 -384.5 275t-146.5 507z" />
<glyph unicode="&#xc8;" horiz-adv-x="1308" d="M125 817q0 47 39 70.5t98 23.5q-4 383 -14 461q-25 39 -25 82q0 92 127 92l377 -10l326 12q55 0 89 -25.5t34 -70.5t-34 -70.5t-89 -25.5l-326 12q-158 0 -281 -10v-455q39 -2 136 -2l366 10q55 0 88 -25.5t33 -68.5q0 -90 -121 -90l-366 8q-88 0 -136 -2v-162 q0 -299 9 -393q123 -10 278 -10l326 12q55 0 89 -25.5t34 -70.5t-34 -70.5t-89 -25.5l-326 12l-371 -10q-111 0 -110 94q0 72 5 234.5t5 408.5q-137 0 -137 90zM469 1937q0 35 23.5 63t59.5 28t61.5 -19.5t37 -39t29.5 -60.5t67.5 -101.5t49.5 -85t-17.5 -41t-50.5 -16.5 q-66 0 -163 91t-97 181z" />
<glyph unicode="&#xc9;" horiz-adv-x="1308" d="M125 817q0 47 39 70.5t98 23.5q-4 383 -14 461q-25 39 -25 82q0 92 127 92l377 -10l326 12q55 0 89 -25.5t34 -70.5t-34 -70.5t-89 -25.5l-326 12q-158 0 -281 -10v-455q39 -2 136 -2l366 10q55 0 88 -25.5t33 -68.5q0 -90 -121 -90l-366 8q-88 0 -136 -2v-162 q0 -299 9 -393q123 -10 278 -10l326 12q55 0 89 -25.5t34 -70.5t-34 -70.5t-89 -25.5l-326 12l-371 -10q-111 0 -110 94q0 72 5 234.5t5 408.5q-137 0 -137 90zM571 1722.5q0 24.5 49 85t67.5 101.5t30 60.5t37 39t61.5 19.5t59.5 -28t23.5 -63q0 -90 -97.5 -181t-162.5 -91 q-33 0 -50.5 16.5t-17.5 41z" />
<glyph unicode="&#xca;" horiz-adv-x="1308" d="M125 817q0 -90 137 -90q0 -246 -5 -408.5t-5 -234.5q0 -94 110 -94l371 10l326 -12q55 0 89 25.5t34 70.5t-34 70.5t-89 25.5l-326 -12q-156 0 -278 10q-8 94 -9 393v162q47 2 136 2l366 -8q121 0 121 90q0 43 -33 68.5t-88 25.5l-366 -10q-96 0 -136 2v455 q123 10 281 10l326 -12q55 0 89 25.5t34 70.5t-34 70.5t-89 25.5l-326 -12l-377 10q-127 0 -127 -92q0 -43 25 -82q10 -78 14 -461q-59 0 -98 -23.5t-39 -70.5zM342 1754q0 38 53.5 82t107.5 105.5t93 94t83 32.5t84 -32.5t93 -94t107.5 -106.5t54.5 -82t-22.5 -58.5 t-49 -21.5t-45.5 10q-26 14 -51 41q-141 166 -170 166q-33 0 -164 -157q-10 -12 -16 -17l-15 -16q-27 -27 -62.5 -27t-58 21.5t-22.5 59.5z" />
<glyph unicode="&#xcb;" horiz-adv-x="1308" d="M125 817q0 47 39 70.5t98 23.5q-4 383 -14 461q-25 39 -25 82q0 92 127 92l377 -10l326 12q55 0 89 -25.5t34 -70.5t-34 -70.5t-89 -25.5l-326 12q-158 0 -281 -10v-455q39 -2 136 -2l366 10q55 0 88 -25.5t33 -68.5q0 -90 -121 -90l-366 8q-88 0 -136 -2v-162 q0 -299 9 -393q123 -10 278 -10l326 12q55 0 89 -25.5t34 -70.5t-34 -70.5t-89 -25.5l-326 12l-371 -10q-111 0 -110 94q0 72 5 234.5t5 408.5q-137 0 -137 90zM375 1842.5q0 53.5 34 95.5t86 42t79.5 -35t27.5 -89t-34.5 -97t-85 -43t-79 36.5t-28.5 90zM774 1842.5 q0 53.5 34 95.5t86 42t80 -35t28 -89t-35 -97t-85 -43t-79 36.5t-29 90z" />
<glyph unicode="&#xcc;" horiz-adv-x="995" d="M106 83q0 44 34 69.5t89 25.5l166 -10q10 250 10.5 622.5t-8.5 571.5l-168 -8q-55 0 -89 26.5t-34 71.5t34 70.5t89 25.5l269 -12l268 12q55 0 89 -25.5t34 -70.5t-34 -71.5t-89 -26.5l-168 8q-8 -199 -8 -570.5t10 -621.5l166 8q55 0 89 -25.5t34 -69.5t-34 -69.5 t-89 -25.5l-268 12l-269 -12q-55 0 -89 25.5t-34 69.5zM272 1937q0 35 23.5 63t59.5 28t61.5 -19.5t37 -39t29.5 -60.5t67.5 -101.5t49.5 -85t-17.5 -41t-50.5 -16.5q-66 0 -163 91t-97 181z" />
<glyph unicode="&#xcd;" horiz-adv-x="1028" d="M106 82q0 45 34 70.5t89 25.5l183 -10q10 250 10 622.5t-8 571.5l-185 -8q-55 0 -89 25.5t-34 70.5t34 70.5t89 25.5l285 -10l285 12q55 0 89 -25.5t34 -70.5t-34 -71.5t-89 -26.5l-185 8q-8 -199 -8 -570.5t10 -621.5l183 10q55 0 89 -25.5t34 -70.5t-34 -70.5 t-89 -25.5l-285 12l-285 -14q-55 0 -89 25.5t-34 70.5zM410 1722.5q0 24.5 49 85t67.5 101.5t29.5 60.5t36.5 39t61.5 19.5t59.5 -28t23.5 -63q0 -90 -97 -181t-163 -91q-33 0 -50 16.5t-17 41z" />
<glyph unicode="&#xce;" horiz-adv-x="995" d="M106 83q0 44 34 69.5t89 25.5l166 -10q10 250 10.5 622.5t-8.5 571.5l-168 -8q-55 0 -89 26.5t-34 71.5t34 70.5t89 25.5l269 -12l268 12q55 0 89 -25.5t34 -70.5t-34 -71.5t-89 -26.5l-168 8q-8 -199 -8 -570.5t10 -621.5l166 8q55 0 89 -25.5t34 -69.5t-34 -69.5 t-89 -25.5l-268 12l-269 -12q-55 0 -89 25.5t-34 69.5zM166 1754q0 38 53 82t107.5 105.5t93.5 94t83 32.5t84 -32.5t93 -94t107.5 -106.5t54.5 -82t-22.5 -58.5t-49.5 -21.5t-45 10q-26 14 -51 41q-141 166 -170 166q-33 0 -164 -157q-10 -12 -16 -17l-15 -16 q-27 -27 -62.5 -27t-58 21.5t-22.5 59.5z" />
<glyph unicode="&#xcf;" horiz-adv-x="995" d="M106 83q0 44 34 69.5t89 25.5l166 -10q10 250 10.5 622.5t-8.5 571.5l-168 -8q-55 0 -89 26.5t-34 71.5t34 70.5t89 25.5l269 -12l268 12q55 0 89 -25.5t34 -70.5t-34 -71.5t-89 -26.5l-168 8q-8 -199 -8 -570.5t10 -621.5l166 8q55 0 89 -25.5t34 -69.5t-34 -69.5 t-89 -25.5l-268 12l-269 -12q-55 0 -89 25.5t-34 69.5zM184 1842.5q0 53.5 34 95.5t86 42t79.5 -35t27.5 -89t-34.5 -97t-85 -43t-79 36.5t-28.5 90zM583 1842.5q0 53.5 34 95.5t86 42t80 -35t28 -89t-35 -97t-85 -43t-79 36.5t-29 90z" />
<glyph unicode="&#xd0;" horiz-adv-x="1576" d="M41 764q0 37 27.5 59.5t80 22.5t134.5 -4l-11 461q-90 8 -90 84.5t162 127t335 50.5t322.5 -67.5t239.5 -182.5q186 -233 186 -553q0 -311 -178 -541q-88 -115 -233.5 -183.5t-346 -68.5t-348 51.5t-147.5 131.5q0 76 102 75l7 457q-41 -2 -114 -2t-100.5 22.5 t-27.5 59.5zM469 686q0 -338 10 -512q74 -27 207 -27t240.5 53.5t171.5 143.5q133 184 133 433t-146.5 430.5t-422.5 181.5q-117 0 -187 -35q-6 -113 -6 -512q90 4 147.5 4t85 -22.5t27.5 -59.5t-27.5 -59.5t-85 -22.5t-147.5 4z" />
<glyph unicode="&#xd1;" horiz-adv-x="1521" d="M231 1411q0 145 105 145q76 0 113 -63q596 -1024 649 -1106q0 580 -6.5 799t-6.5 225q0 145 104.5 145t104.5 -145q0 -16 -4 -108q-8 -273 -8 -541l6 -635q0 -147 -108 -147q-68 0 -103 63l-649 1118q0 -477 5 -761.5t5 -318.5t-30.5 -67.5t-72.5 -33.5t-72 33.5 t-30 84.5l9 664q0 211 -5.5 428t-5.5 221zM369 1785q0 74 76 132.5t176 58.5t208.5 -56.5t144.5 -56.5t78 51.5t69.5 51.5t44 -21.5t16.5 -50.5q0 -74 -63.5 -129t-143.5 -55t-190 63q-90 45 -135 45t-95.5 -60.5t-92.5 -60.5t-67.5 26t-25.5 62z" />
<glyph unicode="&#xd2;" d="M147 770q0 334 201 565.5t499 231.5t495.5 -231.5t197.5 -565.5t-199.5 -567.5t-497.5 -233.5t-497 233.5t-199 567.5zM344 773q0 -247 143.5 -436.5t357.5 -189.5t356 188.5t142 436.5t-141 433.5t-357 185.5t-358.5 -185.5t-142.5 -432.5zM618 1937q0 35 23.5 63 t59.5 28t61.5 -19.5t37 -39t29.5 -60.5t67.5 -101.5t49.5 -85t-17.5 -41t-50.5 -16.5q-66 0 -163 91t-97 181z" />
<glyph unicode="&#xd3;" d="M147 770q0 334 201 565.5t499 231.5t495.5 -231.5t197.5 -565.5t-199.5 -567.5t-497.5 -233.5t-497 233.5t-199 567.5zM344 773q0 -247 143.5 -436.5t357.5 -189.5t356 188.5t142 436.5t-141 433.5t-357 185.5t-358.5 -185.5t-142.5 -432.5zM741 1722.5q0 24.5 49 85 t67.5 101.5t30 60.5t37 39t61.5 19.5t59.5 -28t23.5 -63q0 -90 -97.5 -181t-162.5 -91q-33 0 -50.5 16.5t-17.5 41z" />
<glyph unicode="&#xd4;" d="M147 770q0 334 201 565.5t499 231.5t495.5 -231.5t197.5 -565.5t-199.5 -567.5t-497.5 -233.5t-497 233.5t-199 567.5zM344 773q0 -247 143.5 -436.5t357.5 -189.5t356 188.5t142 436.5t-141 433.5t-357 185.5t-358.5 -185.5t-142.5 -432.5zM512 1754q0 38 53 82 t107.5 105.5t93.5 94t83 32.5t84 -32.5t93 -94t107.5 -106.5t54.5 -82t-22.5 -58.5t-49 -21.5t-43.5 10q-28 14 -53 41q-141 166 -172 166t-162 -157q-10 -12 -14 -17l-17 -16q-27 -27 -62.5 -27t-58 21.5t-22.5 59.5z" />
<glyph unicode="&#xd5;" d="M147 770q0 334 201 565.5t499 231.5t495.5 -231.5t197.5 -565.5t-199.5 -567.5t-497.5 -233.5t-497 233.5t-199 567.5zM344 773q0 -247 143.5 -436.5t357.5 -189.5t356 188.5t142 436.5t-141 433.5t-357 185.5t-358.5 -185.5t-142.5 -432.5zM436 1790q0 74 76 132.5 t176 58.5t208.5 -56.5t144.5 -56.5t78 51.5t69.5 51.5t44 -21.5t16.5 -50.5q0 -74 -63.5 -129t-143.5 -55t-190 63q-90 45 -135 45t-95.5 -60.5t-92.5 -60.5t-67.5 26t-25.5 62z" />
<glyph unicode="&#xd6;" d="M147 770q0 334 201 565.5t499 231.5t495.5 -231.5t197.5 -565.5t-199.5 -567.5t-497.5 -233.5t-497 233.5t-199 567.5zM344 773q0 -247 143.5 -436.5t357.5 -189.5t356 188.5t142 436.5t-141 433.5t-357 185.5t-358.5 -185.5t-142.5 -432.5zM530 1843q0 53 34 95t86 42 t80 -34.5t28 -88t-35 -97.5t-85 -44t-79 37t-29 90zM930 1843q0 53 33.5 95t86 42t80 -34.5t27.5 -88t-35 -97.5t-85 -44t-78.5 37t-28.5 90z" />
<glyph unicode="&#xd7;" horiz-adv-x="1173" d="M174 466q0 34 42 75t133 117.5t128 111.5q-37 35 -125 106.5t-131 113.5t-43 79t25.5 60.5t60.5 23.5t78 -37t124 -116.5t120 -114.5q31 27 113.5 109.5t126.5 121.5t79 39t60.5 -23.5t25.5 -60.5t-43 -78t-129 -112.5t-125 -108.5q35 -33 126 -109.5t147 -127.5 q33 -33 32.5 -67t-25 -58.5t-61 -24.5t-69.5 33q-108 108 -258 241q-6 -6 -87 -80.5t-169 -162.5q-33 -33 -70 -33t-61.5 24.5t-24.5 58.5z" />
<glyph unicode="&#xd8;" d="M147 770q0 334 201 565.5t498 231.5q25 0 69 -4q20 82 47 114.5t70 32.5t66.5 -28.5t23.5 -69.5t-20 -99q199 -86 318.5 -288.5t119.5 -454.5q0 -334 -199.5 -567.5t-498.5 -233.5q-37 0 -111 8q-37 -150 -121 -149q-39 0 -62.5 28.5t-23.5 74.5t23 110 q-182 94 -291 290.5t-109 438.5zM344 770q0 -162 67.5 -309.5t184.5 -231.5q74 230 283 1160l-35 2q-215 0 -357.5 -185.5t-142.5 -435.5zM770 154q33 -6 74 -7q215 0 357 188.5t142 434.5q0 180 -77.5 333.5t-208.5 229.5q-174 -659 -287 -1179z" />
<glyph unicode="&#xd9;" horiz-adv-x="1521" d="M197 1411q0 145 104.5 145t104.5 -145q0 -16 -5 -129q-8 -342 -8 -533.5t15.5 -277.5t54.5 -164q76 -160 297 -160q313 0 358 363q10 72 10 193.5t-3 292.5t-6 285t-3 130q0 145 104.5 145t104.5 -145q0 -16 -2 -104q-10 -260 -10 -475.5t-2 -321.5q-4 -227 -145.5 -384 t-404.5 -157t-404.5 158t-145.5 383q-2 106 -2 264t-3 302.5t-6 231.5t-3 103zM543 1937q0 35 23.5 63t59.5 28t61.5 -19.5t37 -39t29.5 -60.5t67.5 -101.5t49.5 -85t-17.5 -41t-50.5 -16.5q-66 0 -163 91t-97 181z" />
<glyph unicode="&#xda;" horiz-adv-x="1521" d="M197 1411q0 145 104.5 145t104.5 -145q0 -16 -5 -129q-8 -342 -8 -533.5t15.5 -277.5t54.5 -164q76 -160 297 -160q313 0 358 363q10 72 10 193.5t-3 292.5t-6 285t-3 130q0 145 104.5 145t104.5 -145q0 -16 -2 -104q-10 -260 -10 -475.5t-2 -321.5q-4 -227 -145.5 -384 t-404.5 -157t-404.5 158t-145.5 383q-2 106 -2 264t-3 302.5t-6 231.5t-3 103zM653 1722.5q0 24.5 49.5 85t67.5 101.5t29.5 60.5t37 39t61.5 19.5t59.5 -28t23.5 -63q0 -90 -97.5 -181t-162.5 -91q-33 0 -50.5 16.5t-17.5 41z" />
<glyph unicode="&#xdb;" horiz-adv-x="1521" d="M197 1411q0 145 104.5 145t104.5 -145q0 -16 -5 -129q-8 -342 -8 -533.5t15.5 -277.5t54.5 -164q76 -160 297 -160q313 0 358 363q10 72 10 193.5t-3 292.5t-6 285t-3 130q0 145 104.5 145t104.5 -145q0 -16 -2 -104q-10 -260 -10 -475.5t-2 -321.5q-4 -227 -145.5 -384 t-404.5 -157t-404.5 158t-145.5 383q-2 106 -2 264t-3 302.5t-6 231.5t-3 103zM428 1754q0 38 53.5 82t107.5 105.5t93 94t83 32.5t84 -32.5t93 -94t107.5 -106.5t54.5 -82t-22.5 -58.5t-49 -21.5t-45.5 10q-26 14 -51 41q-141 166 -170 166q-33 0 -164 -157 q-10 -12 -16 -17l-15 -16q-27 -27 -62.5 -27t-58 21.5t-22.5 59.5z" />
<glyph unicode="&#xdc;" horiz-adv-x="1521" d="M197 1411q0 145 104.5 145t104.5 -145q0 -16 -5 -129q-8 -342 -8 -533.5t15.5 -277.5t54.5 -164q76 -160 297 -160q313 0 358 363q10 72 10 193.5t-3 292.5t-6 285t-3 130q0 145 104.5 145t104.5 -145q0 -16 -2 -104q-10 -260 -10 -475.5t-2 -321.5q-4 -227 -145.5 -384 t-404.5 -157t-404.5 158t-145.5 383q-2 106 -2 264t-3 302.5t-6 231.5t-3 103zM444 1842.5q0 53.5 34 95.5t86 42t79.5 -35t27.5 -89t-34.5 -97t-85 -43t-79 36.5t-28.5 90zM843 1842.5q0 53.5 34 95.5t86 42t80 -35t28 -89t-35 -97t-85 -43t-79 36.5t-29 90z" />
<glyph unicode="&#xdd;" horiz-adv-x="1243" d="M61 1468.5q0 34.5 25 61t71 26.5t78.5 -44t152.5 -277.5t239 -413.5q49 74 173 303.5t143.5 263t27.5 49t23.5 40t24.5 36t21 23.5q20 20 57.5 20t61 -24.5t23.5 -59t-30 -91t-129 -226.5t-128 -218t-81 -139t-103 -177q0 -164 6 -330l4 -166q0 -145 -104.5 -145 t-104.5 145l4 170q6 170 6 328q-408 700 -434.5 755.5t-26.5 90zM518 1722.5q0 24.5 49 85t67.5 101.5t30 60.5t37 39t61.5 19.5t59.5 -28t23.5 -63q0 -90 -97.5 -181t-162.5 -91q-33 0 -50.5 16.5t-17.5 41z" />
<glyph unicode="&#xde;" horiz-adv-x="1263" d="M231 125l13 643l-13 643q0 145 104.5 145t104.5 -145q0 -31 -5 -79t-5 -79q98 27 242 27q225 0 364.5 -126t139.5 -313.5t-138.5 -312.5t-363.5 -125q-139 0 -244 25q10 -231 10 -303q0 -145 -104.5 -145t-104.5 145zM426 879.5q0 -117.5 4 -269.5q106 -29 243.5 -28.5 t222.5 72t85 188t-86 188.5t-223.5 72t-243.5 -29q-2 -76 -2 -193.5z" />
<glyph unicode="&#xdf;" horiz-adv-x="1257" d="M72 950q0 39 27.5 58.5t57 19.5t91.5 -4v154q0 195 106.5 286.5t273.5 91.5t263 -93t96 -226q0 -90 -61.5 -178t-122 -155.5t-60.5 -114t67 -103.5t145.5 -103t145 -128t66.5 -179q0 -133 -93 -220t-249 -87q-111 0 -207 51.5t-96 110.5q0 84 86 84q27 0 97.5 -42 t125 -42t98.5 39t44 101.5t-44 109.5t-105.5 84t-124 77t-106.5 104.5t-44 136t38 135t83 108.5t83 102.5t38 116t-47.5 101.5t-125 43t-129 -53.5t-51.5 -176.5l2 -1061q0 -53 -28.5 -85.5t-74.5 -32.5t-72.5 31.5t-26.5 80.5l12 780l-82 -2q-41 0 -68.5 20.5t-27.5 59.5z " />
<glyph unicode="&#xe0;" horiz-adv-x="1658" d="M147 743q0 336 174.5 580t450.5 244q106 0 207.5 -40t169.5 -102q0 141 104 142q129 0 129 -207q0 -153 -55 -608q0 -229 29.5 -388t73.5 -180q16 -8 38.5 -11t32.5 -9t10 -23q0 -74 -40.5 -121t-108.5 -47q-90 0 -135 102.5t-45 262.5q-109 -172 -228.5 -270.5 t-268 -98.5t-251 71t-164.5 185q-123 236 -123 518zM344 760q0 -262 89 -437.5t241.5 -175.5t307 195t183.5 385l-12 502q-174 160 -381 160q-170 0 -299 -183.5t-129 -445.5zM545 1937q0 35 23.5 63t59.5 28t61.5 -19.5t37 -39t29.5 -60.5t67.5 -101.5t49.5 -85t-17.5 -41 t-50.5 -16.5q-66 0 -163 91t-97 181z" />
<glyph unicode="&#xe1;" horiz-adv-x="1658" d="M147 743q0 336 174.5 580t450.5 244q106 0 207.5 -40t169.5 -102q0 141 104 142q129 0 129 -207q0 -153 -55 -608q0 -229 29.5 -388t73.5 -180q16 -8 38.5 -11t32.5 -9t10 -23q0 -74 -40.5 -121t-108.5 -47q-90 0 -135 102.5t-45 262.5q-109 -172 -228.5 -270.5 t-268 -98.5t-251 71t-164.5 185q-123 236 -123 518zM344 760q0 -262 89 -437.5t241.5 -175.5t307 195t183.5 385l-12 502q-174 160 -381 160q-170 0 -299 -183.5t-129 -445.5zM711 1722.5q0 24.5 49 85t67.5 101.5t29.5 60.5t37 39t61.5 19.5t59 -28t23.5 -63 q0 -90 -97 -181t-163 -91q-33 0 -50 16.5t-17 41z" />
<glyph unicode="&#xe2;" horiz-adv-x="1658" d="M147 743q0 336 174.5 580t450.5 244q106 0 207.5 -40t169.5 -102q0 141 104 142q129 0 129 -207q0 -153 -55 -608q0 -229 29.5 -388t73.5 -180q16 -8 38.5 -11t32.5 -9t10 -23q0 -74 -40.5 -121t-108.5 -47q-90 0 -135 102.5t-45 262.5q-109 -172 -228.5 -270.5 t-268 -98.5t-251 71t-164.5 185q-123 236 -123 518zM344 760q0 -262 89 -437.5t241.5 -175.5t307 195t183.5 385l-12 502q-174 160 -381 160q-170 0 -299 -183.5t-129 -445.5zM500 1754q0 38 53 82t107.5 105.5t93 94t83 32.5t84 -32.5t93 -94t107.5 -106.5t54 -82 t-22.5 -58.5t-49 -21.5t-44.5 10q-26 14 -51 41q-141 166 -170 166q-33 0 -164 -157q-10 -12 -17 -17l-14 -16q-27 -27 -62.5 -27t-58 21.5t-22.5 59.5z" />
<glyph unicode="&#xe3;" horiz-adv-x="1658" d="M147 743q0 336 174.5 580t450.5 244q106 0 207.5 -40t169.5 -102q0 141 104 142q129 0 129 -207q0 -153 -55 -608q0 -229 29.5 -388t73.5 -180q16 -8 38.5 -11t32.5 -9t10 -23q0 -74 -40.5 -121t-108.5 -47q-90 0 -135 102.5t-45 262.5q-109 -172 -228.5 -270.5 t-268 -98.5t-251 71t-164.5 185q-123 236 -123 518zM344 760q0 -262 89 -437.5t241.5 -175.5t307 195t183.5 385l-12 502q-174 160 -381 160q-170 0 -299 -183.5t-129 -445.5zM412 1786q0 74 75.5 132t176 58t209 -56t144.5 -56t78 51t69.5 51t44 -21.5t16.5 -50.5 q0 -74 -63.5 -129t-143.5 -55t-191 64q-90 45 -135 45t-95 -60.5t-92 -60.5t-67.5 25.5t-25.5 62.5z" />
<glyph unicode="&#xe4;" horiz-adv-x="1658" d="M147 743q0 336 174.5 580t450.5 244q106 0 207.5 -40t169.5 -102q0 141 104 142q129 0 129 -207q0 -153 -55 -608q0 -229 29.5 -388t73.5 -180q16 -8 38.5 -11t32.5 -9t10 -23q0 -74 -40.5 -121t-108.5 -47q-90 0 -135 102.5t-45 262.5q-109 -172 -228.5 -270.5 t-268 -98.5t-251 71t-164.5 185q-123 236 -123 518zM344 760q0 -262 89 -437.5t241.5 -175.5t307 195t183.5 385l-12 502q-174 160 -381 160q-170 0 -299 -183.5t-129 -445.5zM463 1842.5q0 53.5 34 95.5t86 42t79.5 -35t27.5 -89t-34.5 -97t-85 -43t-79 36.5t-28.5 90z M862 1842.5q0 53.5 34 95.5t86 42t80 -35t28 -89t-35 -97t-85 -43t-79 36.5t-29 90z" />
<glyph unicode="&#xe5;" horiz-adv-x="1658" d="M147 743q0 336 174.5 580t450.5 244q106 0 207.5 -40t169.5 -102q0 141 104 142q129 0 129 -207q0 -153 -55 -608q0 -229 29.5 -388t73.5 -180q16 -8 38.5 -11t32.5 -9t10 -23q0 -74 -40.5 -121t-108.5 -47q-90 0 -135 102.5t-45 262.5q-109 -172 -228.5 -270.5 t-268 -98.5t-251 71t-164.5 185q-123 236 -123 518zM344 760q0 -262 89 -437.5t241.5 -175.5t307 195t183.5 385l-12 502q-174 160 -381 160q-170 0 -299 -183.5t-129 -445.5zM631 1872q0 88 60.5 148.5t150.5 60.5t150.5 -61.5t60.5 -148.5t-58.5 -144.5t-152.5 -57.5 t-152.5 57.5t-58.5 145.5zM764 1873q0 -32 22.5 -56.5t54 -24.5t55.5 24.5t24 55.5t-25 57.5t-54.5 26.5t-53 -25.5t-23.5 -57.5z" />
<glyph unicode="&#xe6;" horiz-adv-x="2394" d="M111 496q0 186 154.5 319t369.5 133q125 0 210 -15t222 -54q0 274 -107.5 392t-273.5 118q-80 0 -147.5 -27t-104.5 -57q-96 -84 -141 -84q-94 0 -94 87t146.5 173t335.5 86t323.5 -84t203.5 -223q203 307 557 307q197 0 337.5 -125t140.5 -303t-89 -291 q-162 -203 -509 -203q-217 0 -371 29q18 -211 153.5 -367.5t300 -156.5t336.5 102q66 37 90.5 37t44 -19.5t19.5 -48.5q0 -72 -146.5 -161t-337 -89t-335 91.5t-228.5 244.5q-88 -170 -231 -253t-317 -83q-217 0 -364.5 146.5t-147.5 378.5zM307 489q0 -145 98.5 -241 t225.5 -96q172 0 301 145t129 405q-195 66 -378 66t-279.5 -84t-96.5 -195zM1276 854q141 -35 383 -35q164 0 275.5 80t111.5 234q0 96 -72.5 176t-208.5 80q-190 0 -320 -161t-169 -374z" />
<glyph unicode="&#xe7;" horiz-adv-x="1449" d="M147 770q0 334 196 565.5t491 231.5q180 0 322 -67.5t142 -151.5q0 -41 -24.5 -66t-64.5 -25t-113 48q-119 84 -262 84q-213 0 -351.5 -183.5t-138.5 -434.5t138.5 -437.5t339 -186.5t366.5 101q68 37 91.5 37t42.5 -19.5t19 -48.5q0 -72 -147 -158t-350 -90 q6 -35 59 -69.5t102.5 -75.5t49.5 -96q0 -86 -77 -142.5t-183.5 -56.5t-171 50t-64.5 104q0 18 15.5 34.5t39 16.5t75.5 -24.5t91 -24.5t63.5 14t24.5 32.5t-29.5 40t-64.5 43t-65.5 67.5t-30.5 106q-238 57 -384.5 275t-146.5 507z" />
<glyph unicode="&#xe8;" horiz-adv-x="1525" d="M86 866q0 41 23.5 64.5t54.5 23.5t86 -24q63 274 238.5 455.5t429.5 181.5q207 0 353 -125t146 -301t-90 -289q-170 -207 -528 -207q-147 0 -367 41q18 -221 146.5 -380t305.5 -159t330 101q68 37 91.5 37t43 -19.5t19.5 -48.5q0 -72 -145.5 -160t-313.5 -88t-292.5 63.5 t-204.5 170.5q-166 221 -179 518q-147 45 -147 145zM436 862q156 -43 351.5 -43t314.5 82t119 232q0 96 -79 176t-216.5 80t-241.5 -82q-193 -150 -248 -445zM666 1937q0 35 23.5 63t59.5 28t61.5 -19.5t37 -39t29.5 -60.5t67.5 -101.5t49.5 -85t-17.5 -41t-50.5 -16.5 q-66 0 -163 91t-97 181z" />
<glyph unicode="&#xe9;" horiz-adv-x="1525" d="M86 866q0 41 23.5 64.5t54.5 23.5t86 -24q63 274 238.5 455.5t429.5 181.5q207 0 353 -125t146 -301t-90 -289q-170 -207 -528 -207q-147 0 -367 41q18 -221 146.5 -380t305.5 -159t330 101q68 37 91.5 37t43 -19.5t19.5 -48.5q0 -72 -145.5 -160t-313.5 -88t-292.5 63.5 t-204.5 170.5q-166 221 -179 518q-147 45 -147 145zM436 862q156 -43 351.5 -43t314.5 82t119 232q0 96 -79 176t-216.5 80t-241.5 -82q-193 -150 -248 -445zM791 1722.5q0 24.5 49 85t67.5 101.5t29.5 60.5t36.5 39t61.5 19.5t59.5 -28t23.5 -63q0 -90 -97 -181t-163 -91 q-33 0 -50 16.5t-17 41z" />
<glyph unicode="&#xea;" horiz-adv-x="1525" d="M86 866q0 41 23.5 64.5t54.5 23.5t86 -24q63 274 238.5 455.5t429.5 181.5q207 0 353 -125t146 -301t-90 -289q-170 -207 -528 -207q-147 0 -367 41q18 -221 146.5 -380t305.5 -159t330 101q68 37 91.5 37t43 -19.5t19.5 -48.5q0 -72 -145.5 -160t-313.5 -88t-292.5 63.5 t-204.5 170.5q-166 221 -179 518q-147 45 -147 145zM436 862q156 -43 351.5 -43t314.5 82t119 232q0 96 -79 176t-216.5 80t-241.5 -82q-193 -150 -248 -445zM562 1754q0 38 53 82t107.5 105.5t93 94t83 32.5t84 -32.5t93 -94t107.5 -106.5t54 -82t-22.5 -58.5t-49 -21.5 t-44.5 10q-26 14 -51 41q-141 166 -170 166q-33 0 -164 -157q-10 -12 -17 -17l-14 -16q-27 -27 -62.5 -27t-58 21.5t-22.5 59.5z" />
<glyph unicode="&#xeb;" horiz-adv-x="1525" d="M86 866q0 41 23.5 64.5t54.5 23.5t86 -24q63 274 238.5 455.5t429.5 181.5q207 0 353 -125t146 -301t-90 -289q-170 -207 -528 -207q-147 0 -367 41q18 -221 146.5 -380t305.5 -159t330 101q68 37 91.5 37t43 -19.5t19.5 -48.5q0 -72 -145.5 -160t-313.5 -88t-292.5 63.5 t-204.5 170.5q-166 221 -179 518q-147 45 -147 145zM436 862q156 -43 351.5 -43t314.5 82t119 232q0 96 -79 176t-216.5 80t-241.5 -82q-193 -150 -248 -445zM598 1843q0 53 34 95t86 42t79.5 -34.5t27.5 -88t-34.5 -97.5t-85 -44t-79 37t-28.5 90zM997 1843q0 53 34 95 t86 42t80 -34.5t28 -88t-35 -97.5t-85 -44t-79 37t-29 90z" />
<glyph unicode="&#xec;" horiz-adv-x="995" d="M106 83q0 44 34 69.5t89 25.5l166 -10q10 250 10.5 622.5t-8.5 571.5l-168 -8q-55 0 -89 26.5t-34 71.5t34 70.5t89 25.5l269 -12l268 12q55 0 89 -25.5t34 -70.5t-34 -71.5t-89 -26.5l-168 8q-8 -199 -8 -570.5t10 -621.5l166 8q55 0 89 -25.5t34 -69.5t-34 -69.5 t-89 -25.5l-268 12l-269 -12q-55 0 -89 25.5t-34 69.5zM272 1937q0 35 23.5 63t59.5 28t61.5 -19.5t37 -39t29.5 -60.5t67.5 -101.5t49.5 -85t-17.5 -41t-50.5 -16.5q-66 0 -163 91t-97 181z" />
<glyph unicode="&#xed;" horiz-adv-x="1028" d="M106 82q0 45 34 70.5t89 25.5l183 -10q10 250 10 622.5t-8 571.5l-185 -8q-55 0 -89 25.5t-34 70.5t34 70.5t89 25.5l285 -10l285 12q55 0 89 -25.5t34 -70.5t-34 -71.5t-89 -26.5l-185 8q-8 -199 -8 -570.5t10 -621.5l183 10q55 0 89 -25.5t34 -70.5t-34 -70.5 t-89 -25.5l-285 12l-285 -14q-55 0 -89 25.5t-34 70.5zM410 1722.5q0 24.5 49 85t67.5 101.5t30 60.5t37 39t61.5 19.5t59.5 -28t23.5 -63q0 -90 -97.5 -181t-162.5 -91q-33 0 -50.5 16.5t-17.5 41z" />
<glyph unicode="&#xee;" horiz-adv-x="995" d="M106 83q0 44 34 69.5t89 25.5l166 -10q10 250 10.5 622.5t-8.5 571.5l-168 -8q-55 0 -89 26.5t-34 71.5t34 70.5t89 25.5l269 -12l268 12q55 0 89 -25.5t34 -70.5t-34 -71.5t-89 -26.5l-168 8q-8 -199 -8 -570.5t10 -621.5l166 8q55 0 89 -25.5t34 -69.5t-34 -69.5 t-89 -25.5l-268 12l-269 -12q-55 0 -89 25.5t-34 69.5zM166 1754q0 38 53 82t107.5 105.5t93 94t83 32.5t84 -32.5t93 -94t107.5 -106.5t54 -82t-22.5 -58.5t-49 -21.5t-44.5 10q-26 14 -51 41q-141 166 -170 166q-33 0 -164 -157q-10 -12 -17 -17l-14 -16 q-27 -27 -62.5 -27t-58 21.5t-22.5 59.5z" />
<glyph unicode="&#xef;" horiz-adv-x="995" d="M106 83q0 44 34 69.5t89 25.5l166 -10q10 250 10.5 622.5t-8.5 571.5l-168 -8q-55 0 -89 26.5t-34 71.5t34 70.5t89 25.5l269 -12l268 12q55 0 89 -25.5t34 -70.5t-34 -71.5t-89 -26.5l-168 8q-8 -199 -8 -570.5t10 -621.5l166 8q55 0 89 -25.5t34 -69.5t-34 -69.5 t-89 -25.5l-268 12l-269 -12q-55 0 -89 25.5t-34 69.5zM184 1843q0 53 34 95t86 42t80 -34.5t28 -88t-35 -97.5t-85 -44t-79 37t-29 90zM584 1843q0 53 33.5 95t86 42t80 -34.5t27.5 -88t-35 -97.5t-85 -44t-78.5 37t-28.5 90z" />
<glyph unicode="&#xf0;" horiz-adv-x="1271" d="M129 472q0 204 131 366.5t340 162.5q166 0 301 -116q-61 207 -209 334q-4 -4 -45 -52.5t-71.5 -69t-65.5 -20.5t-58.5 21.5t-23.5 47t17.5 49.5t35 39t51 39.5t39.5 31.5q-47 27 -122.5 36t-104.5 19q-61 16 -61 76q0 33 29.5 57.5t84.5 24.5q150 0 301 -93 q88 88 118 109.5t63.5 21.5t57.5 -20t24 -50t-16.5 -54.5t-31 -38t-48.5 -37t-40 -29.5q141 -125 215 -315.5t74 -397.5q0 -279 -128 -462t-376 -183q-217 0 -349 149.5t-132 353.5zM326 474q0 -144 80.5 -235.5t205.5 -91.5t209 98.5t84 239t-74.5 239.5t-203.5 99 t-215 -102.5t-86 -246.5z" />
<glyph unicode="&#xf1;" horiz-adv-x="1648" d="M168 189q0 214 55 599q0 133 -23.5 361.5t-23.5 280t28.5 89t79 37.5t79 -37.5t28.5 -85t-1 -114t-1 -113.5q201 350 508 350q227 0 351 -156.5t124 -381.5l-14 -578q0 -78 2 -116.5t16.5 -81.5t42.5 -56q16 -8 39 -11t33 -9t10 -23q0 -72 -45 -120t-106 -48 q-106 0 -146.5 82t-40.5 244l13 582q0 223 -78 357t-226.5 134t-288 -179t-192.5 -407l8 -671q0 -141 -104 -142q-127 0 -127 214zM408 1790q0 74 75.5 132t176 58t209 -56t144.5 -56t78 51t69.5 51t44 -21.5t16.5 -50.5q0 -74 -63.5 -129t-143.5 -55t-191 64 q-90 45 -135 45t-95 -60.5t-92 -60.5t-67.5 25.5t-25.5 62.5z" />
<glyph unicode="&#xf2;" d="M147 770q0 334 201 565.5t499 231.5t495.5 -231.5t197.5 -565.5t-199.5 -567.5t-497.5 -233.5t-497 233.5t-199 567.5zM344 773q0 -247 143.5 -436.5t357.5 -189.5t356 188.5t142 436.5t-141 433.5t-357 185.5t-358.5 -185.5t-142.5 -432.5zM618 1937q0 35 23.5 63 t59.5 28t61.5 -19.5t37 -39t29.5 -60.5t67.5 -101.5t49.5 -85t-17.5 -41t-50.5 -16.5q-66 0 -163 91t-97 181z" />
<glyph unicode="&#xf3;" d="M147 770q0 334 201 565.5t499 231.5t495.5 -231.5t197.5 -565.5t-199.5 -567.5t-497.5 -233.5t-497 233.5t-199 567.5zM344 773q0 -247 143.5 -436.5t357.5 -189.5t356 188.5t142 436.5t-141 433.5t-357 185.5t-358.5 -185.5t-142.5 -432.5zM741 1722.5q0 24.5 49.5 85 t68 101.5t29.5 60.5t36.5 39t61.5 19.5t59.5 -28t23.5 -63q0 -90 -97.5 -181t-162.5 -91q-33 0 -50.5 16.5t-17.5 41z" />
<glyph unicode="&#xf4;" d="M147 770q0 334 201 565.5t499 231.5t495.5 -231.5t197.5 -565.5t-199.5 -567.5t-497.5 -233.5t-497 233.5t-199 567.5zM344 773q0 -247 143.5 -436.5t357.5 -189.5t356 188.5t142 436.5t-141 433.5t-357 185.5t-358.5 -185.5t-142.5 -432.5zM512 1754q0 38 53 82 t107.5 105.5t93 94t83 32.5t84 -32.5t93 -94t107.5 -106.5t54 -82t-22.5 -58.5t-49 -21.5t-44.5 10q-26 14 -51 41q-141 166 -170 166q-33 0 -164 -157q-10 -12 -17 -17l-14 -16q-27 -27 -62.5 -27t-58 21.5t-22.5 59.5z" />
<glyph unicode="&#xf5;" d="M147 770q0 334 201 565.5t499 231.5t495.5 -231.5t197.5 -565.5t-199.5 -567.5t-497.5 -233.5t-497 233.5t-199 567.5zM344 773q0 -247 143.5 -436.5t357.5 -189.5t356 188.5t142 436.5t-141 433.5t-357 185.5t-358.5 -185.5t-142.5 -432.5zM436 1790q0 74 76 132t176 58 t209 -56t144.5 -56t77.5 51t70 51t44 -21.5t16 -50.5q0 -74 -63.5 -129t-143 -55t-190.5 64q-90 45 -135 45t-95.5 -60.5t-92.5 -60.5t-67.5 25.5t-25.5 62.5z" />
<glyph unicode="&#xf6;" d="M147 770q0 334 201 565.5t499 231.5t495.5 -231.5t197.5 -565.5t-199.5 -567.5t-497.5 -233.5t-497 233.5t-199 567.5zM344 773q0 -247 143.5 -436.5t357.5 -189.5t356 188.5t142 436.5t-141 433.5t-357 185.5t-358.5 -185.5t-142.5 -432.5zM530 1842.5q0 53.5 34 95.5 t86 42t79.5 -35t27.5 -89t-34.5 -97t-85 -43t-79 36.5t-28.5 90zM929 1842.5q0 53.5 34 95.5t86 42t80 -35t28 -89t-35 -97t-85 -43t-79 36.5t-29 90z" />
<glyph unicode="&#xf7;" horiz-adv-x="1286" d="M156 766q0 31 23.5 51.5t60.5 20.5q0 -1 403 -7l404 7q37 0 60 -20.5t23 -51.5t-23.5 -51.5t-59.5 -20.5l-404 6l-403 -6q-37 0 -60.5 20.5t-23.5 51.5zM528 1122.5q0 53.5 34 95.5t86 42t80 -35t28 -89.5t-35 -97.5t-85 -43t-79 37t-29 90.5zM532 399.5q0 53.5 34 95.5 t86.5 42t80 -35t27.5 -88.5t-35 -97.5t-85 -44t-79 37t-29 90.5z" />
<glyph unicode="&#xf8;" d="M147 770q0 334 201 565.5t498 231.5q25 0 69 -4q20 82 47 114.5t70 32.5t66.5 -28.5t23.5 -69.5t-20 -99q199 -86 318.5 -288.5t119.5 -454.5q0 -334 -199.5 -567.5t-498.5 -233.5q-37 0 -111 8q-37 -150 -121 -149q-39 0 -62.5 28.5t-23.5 74.5t23 110 q-182 94 -291 290.5t-109 438.5zM344 770q0 -162 67.5 -309.5t184.5 -231.5q74 230 283 1160l-35 2q-215 0 -357.5 -185.5t-142.5 -435.5zM770 154q33 -6 74 -7q215 0 357 188.5t142 434.5q0 180 -77.5 333.5t-208.5 229.5q-174 -659 -287 -1179z" />
<glyph unicode="&#xf9;" horiz-adv-x="1677" d="M168 1439q0 42 32.5 76.5t86.5 34.5q127 0 127 -227l-23 -680q0 -223 77 -359.5t233.5 -136.5t302 183.5t172.5 406.5l-9 672q0 141 105 141q127 0 127 -208.5t-56 -604.5q0 -225 30 -381.5t73 -175.5q16 -8 39.5 -11t34 -9t10.5 -23q0 -76 -45 -122t-115 -46 q-174 0 -174 355q-205 -354 -516 -355q-166 0 -279 92q-205 172 -204 547l16 490q0 111 -22.5 205t-22.5 136zM541 1937q0 35 23.5 63t59.5 28t61.5 -19.5t37 -39t29.5 -60.5t67.5 -101.5t49.5 -85t-17.5 -41t-50.5 -16.5q-66 0 -163 91t-97 181z" />
<glyph unicode="&#xfa;" horiz-adv-x="1677" d="M168 1439q0 42 32.5 76.5t86.5 34.5q127 0 127 -227l-23 -680q0 -223 77 -359.5t233.5 -136.5t302 183.5t172.5 406.5l-9 672q0 141 105 141q127 0 127 -208.5t-56 -604.5q0 -225 30 -381.5t73 -175.5q16 -8 39.5 -11t34 -9t10.5 -23q0 -76 -45 -122t-115 -46 q-174 0 -174 355q-205 -354 -516 -355q-166 0 -279 92q-205 172 -204 547l16 490q0 111 -22.5 205t-22.5 136zM684 1722.5q0 24.5 49 85t67.5 101.5t30 60.5t37 39t61.5 19.5t59.5 -28t23.5 -63q0 -90 -97.5 -181t-162.5 -91q-33 0 -50.5 16.5t-17.5 41z" />
<glyph unicode="&#xfb;" horiz-adv-x="1677" d="M168 1439q0 42 32.5 76.5t86.5 34.5q127 0 127 -227l-23 -680q0 -223 77 -359.5t233.5 -136.5t302 183.5t172.5 406.5l-9 672q0 141 105 141q127 0 127 -208.5t-56 -604.5q0 -225 30 -381.5t73 -175.5q16 -8 39.5 -11t34 -9t10.5 -23q0 -76 -45 -122t-115 -46 q-174 0 -174 355q-205 -354 -516 -355q-166 0 -279 92q-205 172 -204 547l16 490q0 111 -22.5 205t-22.5 136zM449 1754q0 38 53 82t107.5 105.5t93 94t83 32.5t84 -32.5t93 -94t107.5 -106.5t54 -82t-22.5 -58.5t-49 -21.5t-44.5 10q-26 14 -51 41q-141 166 -170 166 q-33 0 -164 -157q-10 -12 -17 -17l-14 -16q-27 -27 -62.5 -27t-58 21.5t-22.5 59.5z" />
<glyph unicode="&#xfc;" horiz-adv-x="1677" d="M168 1439q0 42 32.5 76.5t86.5 34.5q127 0 127 -227l-23 -680q0 -223 77 -359.5t233.5 -136.5t302 183.5t172.5 406.5l-9 672q0 141 105 141q127 0 127 -208.5t-56 -604.5q0 -225 30 -381.5t73 -175.5q16 -8 39.5 -11t34 -9t10.5 -23q0 -76 -45 -122t-115 -46 q-174 0 -174 355q-205 -354 -516 -355q-166 0 -279 92q-205 172 -204 547l16 490q0 111 -22.5 205t-22.5 136zM473 1843q0 53 34 95t86 42t79.5 -34.5t27.5 -88t-34.5 -97.5t-85 -44t-79 37t-28.5 90zM872 1843q0 53 34 95t86 42t80 -34.5t28 -88t-35 -97.5t-85 -44t-79 37 t-29 90z" />
<glyph unicode="&#xfd;" horiz-adv-x="1243" d="M61 1468.5q0 34.5 25 61t71 26.5t78.5 -44t152.5 -277.5t239 -413.5q49 74 173 303.5t143.5 263t27.5 49t23.5 40t24.5 36t21 23.5q20 20 57.5 20t61 -24.5t23.5 -59t-30 -91t-129 -226.5t-128 -218t-81 -139t-103 -177q0 -164 6 -330l4 -166q0 -145 -104.5 -145 t-104.5 145l4 170q6 170 6 328q-408 700 -434.5 755.5t-26.5 90zM518 1722.5q0 24.5 49 85t67.5 101.5t30 60.5t37 39t61.5 19.5t59.5 -28t23.5 -63q0 -90 -97.5 -181t-162.5 -91q-33 0 -50.5 16.5t-17.5 41z" />
<glyph unicode="&#xfe;" horiz-adv-x="1263" d="M231 125l13 643l-13 643q0 145 104.5 145t104.5 -145q0 -31 -5 -79t-5 -79q98 27 242 27q225 0 364.5 -126t139.5 -313.5t-138.5 -312.5t-363.5 -125q-139 0 -244 25q10 -231 10 -303q0 -145 -104.5 -145t-104.5 145zM426 879.5q0 -117.5 4 -269.5q106 -29 243.5 -28.5 t222.5 72t85 188t-86 188.5t-223.5 72t-243.5 -29q-2 -76 -2 -193.5z" />
<glyph unicode="&#xff;" horiz-adv-x="1243" d="M61 1468.5q0 34.5 25 61t71 26.5t78.5 -44t152.5 -277.5t239 -413.5q49 74 173 303.5t143.5 263t27.5 49t23.5 40t24.5 36t21 23.5q20 20 57.5 20t61 -24.5t23.5 -59t-30 -91t-129 -226.5t-128 -218t-81 -139t-103 -177q0 -164 6 -330l4 -166q0 -145 -104.5 -145 t-104.5 145l4 170q6 170 6 328q-408 700 -434.5 755.5t-26.5 90zM307 1842.5q0 53.5 34 95.5t86 42t79.5 -35t27.5 -89t-34.5 -97t-85 -43t-79 36.5t-28.5 90zM706 1842.5q0 53.5 34 95.5t86 42t80 -35t28 -89t-35 -97t-85 -43t-79 36.5t-29 90z" />
<glyph unicode="&#x152;" horiz-adv-x="2041" d="M147 770q0 332 186.5 564.5t463.5 232.5q115 0 204 -39q27 18 91 18l393 -10l313 10q55 0 88 -24.5t33 -67.5t-33 -67.5t-88 -24.5l-491 10q-51 0 -84 -4q162 -184 196 -465q201 4 269 4q121 0 120.5 -90t-120.5 -90q-57 0 -258 4q-8 -330 -209 -563q131 -4 241 -4 l336 10q121 0 121 -92q0 -43 -33 -67.5t-88 -24.5l-336 10l-358 -10q-53 0 -84 26q-96 -47 -227 -47q-274 0 -460 234.5t-186 566.5zM344 773q0 -247 130 -436.5t317.5 -189.5t314.5 189.5t127 436.5t-126 431.5t-314.5 184.5t-318.5 -184.5t-130 -431.5z" />
<glyph unicode="&#x153;" horiz-adv-x="2584" d="M125 764q0 334 190.5 568.5t477.5 234.5q193 0 344 -93.5t237 -254.5q92 160 239.5 254t348.5 94t346.5 -127t145.5 -303t-91 -287q-168 -203 -526 -203q-154 0 -373 41q19 -217 154 -377.5t304 -160.5t335 98q66 37 90.5 37t43.5 -19.5t19 -48.5q0 -72 -146 -160 t-337.5 -88t-335 92.5t-229.5 247.5q-88 -156 -237.5 -248t-329.5 -92q-293 0 -481.5 230.5t-188.5 564.5zM322 764q0 -254 135 -434t332.5 -180t338 184t140.5 440t-134.5 435.5t-334 179.5t-338.5 -185.5t-139 -439.5zM1468 864q154 -43 353.5 -43t317.5 78.5t118 228.5 q0 96 -78 178.5t-223 82.5q-190 0 -320.5 -158t-167.5 -367z" />
<glyph unicode="&#x2c6;" horiz-adv-x="983" d="M154 1242q0 38 53 82t107.5 105.5t93 94t83 32.5t84 -32.5t93 -94t107.5 -106.5t54 -82t-22.5 -58.5t-49 -21.5t-44.5 10q-26 14 -51 41q-141 166 -170 166q-33 0 -164 -157q-10 -12 -17 -17l-14 -16q-27 -27 -62.5 -27t-58 21.5t-22.5 59.5z" />
<glyph unicode="&#x2dc;" horiz-adv-x="1161" d="M174 1253q0 74 76 132.5t176 58.5t208.5 -56.5t144.5 -56.5t78 51.5t69.5 51.5t44 -21.5t16.5 -50.5q0 -74 -63.5 -129t-143.5 -55t-190 63q-90 45 -135 45t-95.5 -60.5t-92.5 -60.5t-67.5 26t-25.5 62z" />
<glyph unicode="&#x2000;" horiz-adv-x="1040" />
<glyph unicode="&#x2001;" horiz-adv-x="2081" />
<glyph unicode="&#x2002;" horiz-adv-x="1040" />
<glyph unicode="&#x2003;" horiz-adv-x="2081" />
<glyph unicode="&#x2004;" horiz-adv-x="693" />
<glyph unicode="&#x2005;" horiz-adv-x="520" />
<glyph unicode="&#x2006;" horiz-adv-x="346" />
<glyph unicode="&#x2007;" horiz-adv-x="346" />
<glyph unicode="&#x2008;" horiz-adv-x="260" />
<glyph unicode="&#x2009;" horiz-adv-x="416" />
<glyph unicode="&#x200a;" horiz-adv-x="115" />
<glyph unicode="&#x2010;" horiz-adv-x="1019" d="M166 768q0 37 27.5 61.5t72.5 24.5l244 -6l244 6q45 0 72.5 -24.5t27.5 -61.5t-27.5 -61.5t-72.5 -24.5l-244 6l-244 -6q-45 0 -72.5 24.5t-27.5 61.5z" />
<glyph unicode="&#x2011;" horiz-adv-x="1019" d="M166 768q0 37 27.5 61.5t72.5 24.5l244 -6l244 6q45 0 72.5 -24.5t27.5 -61.5t-27.5 -61.5t-72.5 -24.5l-244 6l-244 -6q-45 0 -72.5 24.5t-27.5 61.5z" />
<glyph unicode="&#x2012;" horiz-adv-x="1019" d="M166 768q0 37 27.5 61.5t72.5 24.5l244 -6l244 6q45 0 72.5 -24.5t27.5 -61.5t-27.5 -61.5t-72.5 -24.5l-244 6l-244 -6q-45 0 -72.5 24.5t-27.5 61.5z" />
<glyph unicode="&#x2013;" horiz-adv-x="1269" d="M166 768q0 37 27.5 61.5t72.5 24.5l369 -6l369 6q45 0 72.5 -24.5t27.5 -61.5t-27.5 -61.5t-72.5 -24.5l-369 6l-369 -6q-45 0 -72.5 24.5t-27.5 61.5z" />
<glyph unicode="&#x2014;" horiz-adv-x="1802" d="M145 768q0 37 28 61.5t73 24.5l655 -6l655 6q45 0 73 -24.5t28 -61.5t-27.5 -61.5t-73.5 -24.5l-655 6l-655 -6q-45 0 -73 24.5t-28 61.5z" />
<glyph unicode="&#x2018;" horiz-adv-x="540" d="M133 1143q0 141 77 276t152 135q25 0 42.5 -14t17.5 -36.5t-37 -85t-37 -115.5l12 -146q0 -49 -31.5 -91t-87 -42t-82 35t-26.5 84z" />
<glyph unicode="&#x2019;" horiz-adv-x="542" d="M129 1079.5q0 22.5 37 85t37 115.5l-13 145q0 49 32 91.5t87.5 42.5t82 -35t26.5 -84q0 -141 -77 -276.5t-153 -135.5q-25 0 -42 14.5t-17 37z" />
<glyph unicode="&#x201a;" horiz-adv-x="524" d="M147 74q0 55 34 97t86 42t79 -35t27 -86q0 -129 -51.5 -255t-106.5 -126q-27 0 -43 15.5t-16 42.5l6 159z" />
<glyph unicode="&#x201c;" horiz-adv-x="948" d="M133 1145q0 141 77 276t152 135q25 0 42.5 -14t17.5 -36.5t-37 -85t-37 -115.5l12 -146q0 -49 -31.5 -91t-87 -42t-82 35t-26.5 84zM541 1145q0 141 76.5 276t152.5 135q25 0 42 -14t17 -36.5t-36.5 -85t-36.5 -115.5l12 -146q0 -49 -31.5 -91t-87 -42t-82 35t-26.5 84z " />
<glyph unicode="&#x201d;" horiz-adv-x="950" d="M129 1077.5q0 22.5 37 85t37 115.5l-13 145q0 49 32 91t87.5 42t82 -34.5t26.5 -83.5q0 -141 -77 -276.5t-153 -135.5q-25 0 -42 14.5t-17 37zM537 1077.5q0 22.5 36.5 85t36.5 115.5l-12 145q0 49 32 91t87 42t81.5 -34.5t26.5 -83.5q0 -141 -76.5 -276.5t-152.5 -135.5 q-25 0 -42 14.5t-17 37z" />
<glyph unicode="&#x201e;" horiz-adv-x="946" d="M147 80q0 55 34 97t86 42t79 -34.5t27 -86.5q0 -129 -51.5 -255t-106.5 -126q-27 0 -43 15.5t-16 42.5l6 159zM569 80q0 55 34 97t86 42t79 -34.5t27 -86.5q0 -129 -51.5 -255t-106.5 -126q-27 0 -43 15.5t-16 42.5l6 159z" />
<glyph unicode="&#x2022;" horiz-adv-x="681" d="M135 785.5q0 99.5 63.5 179t159 79.5t143.5 -65.5t48 -165.5t-63.5 -182t-155.5 -82t-143.5 68.5t-51.5 168z" />
<glyph unicode="&#x2026;" horiz-adv-x="1343" d="M145 106.5q0 53.5 34 95.5t86 42t80 -35t28 -89t-35 -97t-85 -43t-79 36.5t-29 90zM567 106.5q0 53.5 34 95.5t86 42t80 -35t28 -89t-35 -97t-85 -43t-79 36.5t-29 90zM969 106.5q0 53.5 33.5 95.5t86 42t80 -35t27.5 -89t-35 -97t-85 -43t-78.5 36.5t-28.5 90z" />
<glyph unicode="&#x202f;" horiz-adv-x="416" />
<glyph unicode="&#x2039;" horiz-adv-x="747" d="M121 770q0 35 32.5 72t109.5 99.5t106.5 90t46.5 41.5q41 33 83 33t66.5 -23.5t24.5 -55.5t-21.5 -54.5t-79 -59t-65.5 -43.5q-117 -84 -117 -100t117 -100q16 -12 53 -36t55 -38q57 -41 57.5 -78t-24 -60.5t-60.5 -23.5t-63.5 16.5t-64.5 51.5t-114 97.5t-109.5 99 t-32.5 71.5z" />
<glyph unicode="&#x203a;" horiz-adv-x="747" d="M158 513q0 32 21.5 54.5t78.5 59.5t66 43q117 84 116.5 100t-116.5 100q-16 12 -53.5 36t-57.5 38q-55 41 -55 78t24.5 60.5t60.5 23.5t63.5 -16.5t64.5 -51t113.5 -97t109.5 -99.5t33 -72t-33 -71.5t-109.5 -99t-106.5 -90.5t-46 -42q-41 -33 -83 -33t-66.5 23.5 t-24.5 55.5z" />
<glyph unicode="&#x205f;" horiz-adv-x="520" />
<glyph unicode="&#x20ac;" horiz-adv-x="1425" d="M135 846q0 37 27.5 59.5t73.5 22.5l73 -2q45 236 190.5 384t360.5 148q158 0 269.5 -66.5t111.5 -142.5q0 -29 -20.5 -52t-56.5 -23t-62.5 17t-48 36.5t-72.5 37t-121 17.5q-150 0 -246 -97t-129 -263l453 6q45 0 72.5 -22.5t27.5 -59.5t-27.5 -59.5t-72.5 -22.5l-350 6 l-352 -6q-45 0 -73 22.5t-28 59.5zM137 581.5q0 36.5 28 59.5t73 23l352 -7l350 7q45 0 72.5 -23t27.5 -59.5t-27.5 -59t-78.5 -22.5t-191.5 3t-255.5 3q33 -166 129.5 -263.5t245.5 -97.5q133 0 232 82q31 27 69.5 27t59 -23.5t20.5 -52.5q0 -76 -111.5 -142.5 t-269.5 -66.5q-215 0 -360.5 148.5t-190.5 384.5l-73 -2q-45 0 -73 22.5t-28 59z" />
<glyph unicode="&#x2122;" horiz-adv-x="1910" d="M168 1467.5q0 -74.5 100 -74.5l140 6q2 -49 2 -285l-4 -346q0 -90 77.5 -90t77.5 90l-4 346q0 236 2 285l139 -6q100 0 100.5 74.5t-100.5 74.5q-104 -6 -215 -6l-184 4l-31 2q-100 0 -100 -74.5zM907 768l4 287l-2 397q0 37 22.5 64.5t54.5 27.5t54.5 -11t44 -37 t40 -53.5t42 -75.5t41.5 -89q70 -156 105 -227q27 53 90 206.5t107 220t88 66.5t69 -27.5t25 -64.5l-2 -342l4 -291v-53q0 -88 -78 -88q-82 0 -82 90q0 23 3 185.5t3 271.5l-170 -371q-20 -43 -62 -43t-65 49q-59 131 -184 375q0 -297 3 -378t3 -89q0 -90 -82 -90 q-76 0 -76 90z" />
<glyph unicode="&#x25fc;" horiz-adv-x="1566" d="M0 0v1567h1567v-1567h-1567z" />
</font>
</defs>
</svg>
