<svg width="180" height="50" viewBox="0 0 180 50" fill="none" xmlns="http://www.w3.org/2000/svg">
<rect width="180" height="50" rx="4" fill="#FF9900"/>
<path d="M44.7044 31.112C43.8831 31.112 43.1471 30.9787 42.4964 30.712C41.8458 30.4453 41.3231 30.0507 40.9284 29.528C40.5444 29.0053 40.3418 28.376 40.3204 27.64H43.2324C43.2751 28.056 43.4191 28.376 43.6644 28.6C43.9098 28.8133 44.2298 28.92 44.6244 28.92C45.0298 28.92 45.3498 28.8293 45.5844 28.648C45.8191 28.456 45.9364 28.1947 45.9364 27.864C45.9364 27.5867 45.8404 27.3573 45.6484 27.176C45.4671 26.9947 45.2378 26.8453 44.9604 26.728C44.6938 26.6107 44.3098 26.4773 43.8084 26.328C43.0831 26.104 42.4911 25.88 42.0324 25.656C41.5738 25.432 41.1791 25.1013 40.8484 24.664C40.5178 24.2267 40.3524 23.656 40.3524 22.952C40.3524 21.9067 40.7311 21.0907 41.4884 20.504C42.2458 19.9067 43.2324 19.608 44.4484 19.608C45.6858 19.608 46.6831 19.9067 47.4404 20.504C48.1978 21.0907 48.6031 21.912 48.6564 22.968H45.6964C45.6751 22.6053 45.5418 22.3227 45.2964 22.12C45.0511 21.9067 44.7364 21.8 44.3524 21.8C44.0218 21.8 43.7551 21.8907 43.5524 22.072C43.3498 22.2427 43.2484 22.4933 43.2484 22.824C43.2484 23.1867 43.4191 23.4693 43.7604 23.672C44.1018 23.8747 44.6351 24.0933 45.3604 24.328C46.0858 24.5733 46.6724 24.808 47.1204 25.032C47.5791 25.256 47.9738 25.5813 48.3044 26.008C48.6351 26.4347 48.8004 26.984 48.8004 27.656C48.8004 28.296 48.6351 28.8773 48.3044 29.4C47.9844 29.9227 47.5151 30.3387 46.8964 30.648C46.2778 30.9573 45.5471 31.112 44.7044 31.112ZM51.8602 21.144C51.3802 21.144 50.9855 21.0053 50.6762 20.728C50.3775 20.44 50.2282 20.088 50.2282 19.672C50.2282 19.2453 50.3775 18.8933 50.6762 18.616C50.9855 18.328 51.3802 18.184 51.8602 18.184C52.3295 18.184 52.7135 18.328 53.0122 18.616C53.3215 18.8933 53.4762 19.2453 53.4762 19.672C53.4762 20.088 53.3215 20.44 53.0122 20.728C52.7135 21.0053 52.3295 21.144 51.8602 21.144ZM53.2202 22.072V31H50.4842V22.072H53.2202ZM58.5949 21.944C59.2243 21.944 59.7736 22.072 60.2429 22.328C60.7229 22.584 61.0909 22.92 61.3469 23.336V22.072H64.0829V30.984C64.0829 31.8053 63.9176 32.5467 63.5869 33.208C63.2669 33.88 62.7709 34.4133 62.0989 34.808C61.4376 35.2027 60.6109 35.4 59.6189 35.4C58.2963 35.4 57.2243 35.0853 56.4029 34.456C55.5816 33.8373 55.1123 32.9947 54.9949 31.928H57.6989C57.7843 32.2693 57.9869 32.536 58.3069 32.728C58.6269 32.9307 59.0216 33.032 59.4909 33.032C60.0563 33.032 60.5043 32.8667 60.8349 32.536C61.1763 32.216 61.3469 31.6987 61.3469 30.984V29.72C61.0803 30.136 60.7123 30.4773 60.2429 30.744C59.7736 31 59.2243 31.128 58.5949 31.128C57.8589 31.128 57.1923 30.9413 56.5949 30.568C55.9976 30.184 55.5229 29.6453 55.1709 28.952C54.8296 28.248 54.6589 27.4373 54.6589 26.52C54.6589 25.6027 54.8296 24.7973 55.1709 24.104C55.5229 23.4107 55.9976 22.8773 56.5949 22.504C57.1923 22.1307 57.8589 21.944 58.5949 21.944ZM61.3469 26.536C61.3469 25.8533 61.1549 25.3147 60.7709 24.92C60.3976 24.5253 59.9389 24.328 59.3949 24.328C58.8509 24.328 58.3869 24.5253 58.0029 24.92C57.6296 25.304 57.4429 25.8373 57.4429 26.52C57.4429 27.2027 57.6296 27.7467 58.0029 28.152C58.3869 28.5467 58.8509 28.744 59.3949 28.744C59.9389 28.744 60.3976 28.5467 60.7709 28.152C61.1549 27.7573 61.3469 27.2187 61.3469 26.536ZM71.5023 21.976C72.5476 21.976 73.3796 22.3173 73.9983 23C74.6276 23.672 74.9423 24.6 74.9423 25.784V31H72.2223V26.152C72.2223 25.5547 72.0676 25.0907 71.7583 24.76C71.449 24.4293 71.033 24.264 70.5103 24.264C69.9876 24.264 69.5716 24.4293 69.2623 24.76C68.953 25.0907 68.7983 25.5547 68.7983 26.152V31H66.0623V22.072H68.7983V23.256C69.0756 22.8613 69.449 22.552 69.9183 22.328C70.3876 22.0933 70.9156 21.976 71.5023 21.976ZM89.0502 22.072V31H86.3142V29.784C86.0369 30.1787 85.6582 30.4987 85.1782 30.744C84.7089 30.9787 84.1862 31.096 83.6102 31.096C82.9275 31.096 82.3249 30.9467 81.8022 30.648C81.2795 30.3387 80.8742 29.896 80.5862 29.32C80.2982 28.744 80.1542 28.0667 80.1542 27.288V22.072H82.8742V26.92C82.8742 27.5173 83.0289 27.9813 83.3382 28.312C83.6475 28.6427 84.0635 28.808 84.5862 28.808C85.1195 28.808 85.5409 28.6427 85.8502 28.312C86.1595 27.9813 86.3142 27.5173 86.3142 26.92V22.072H89.0502ZM93.7514 23.336C94.0181 22.92 94.3861 22.584 94.8554 22.328C95.3248 22.072 95.8741 21.944 96.5034 21.944C97.2394 21.944 97.9061 22.1307 98.5034 22.504C99.1008 22.8773 99.5701 23.4107 99.9114 24.104C100.263 24.7973 100.439 25.6027 100.439 26.52C100.439 27.4373 100.263 28.248 99.9114 28.952C99.5701 29.6453 99.1008 30.184 98.5034 30.568C97.9061 30.9413 97.2394 31.128 96.5034 31.128C95.8848 31.128 95.3354 31 94.8554 30.744C94.3861 30.488 94.0181 30.1573 93.7514 29.752V35.256H91.0154V22.072H93.7514V23.336ZM97.6554 26.52C97.6554 25.8373 97.4634 25.304 97.0794 24.92C96.7061 24.5253 96.2421 24.328 95.6874 24.328C95.1434 24.328 94.6794 24.5253 94.2954 24.92C93.9221 25.3147 93.7354 25.8533 93.7354 26.536C93.7354 27.2187 93.9221 27.7573 94.2954 28.152C94.6794 28.5467 95.1434 28.744 95.6874 28.744C96.2314 28.744 96.6954 28.5467 97.0794 28.152C97.4634 27.7467 97.6554 27.2027 97.6554 26.52ZM115.313 31H112.577L108.001 24.072V31H105.265V19.768H108.001L112.577 26.728V19.768H115.313V31ZM121.361 31.128C120.486 31.128 119.697 30.9413 118.993 30.568C118.299 30.1947 117.75 29.6613 117.345 28.968C116.95 28.2747 116.753 27.464 116.753 26.536C116.753 25.6187 116.955 24.8133 117.361 24.12C117.766 23.416 118.321 22.8773 119.025 22.504C119.729 22.1307 120.518 21.944 121.393 21.944C122.267 21.944 123.057 22.1307 123.761 22.504C124.465 22.8773 125.019 23.416 125.425 24.12C125.83 24.8133 126.033 25.6187 126.033 26.536C126.033 27.4533 125.825 28.264 125.409 28.968C125.003 29.6613 124.443 30.1947 123.729 30.568C123.025 30.9413 122.235 31.128 121.361 31.128ZM121.361 28.76C121.883 28.76 122.326 28.568 122.689 28.184C123.062 27.8 123.249 27.2507 123.249 26.536C123.249 25.8213 123.067 25.272 122.705 24.888C122.353 24.504 121.915 24.312 121.393 24.312C120.859 24.312 120.417 24.504 120.065 24.888C119.713 25.2613 119.537 25.8107 119.537 26.536C119.537 27.2507 119.707 27.8 120.049 28.184C120.401 28.568 120.838 28.76 121.361 28.76ZM140.3 22.072L137.884 31H134.86L133.452 25.208L131.996 31H128.988L126.556 22.072H129.292L130.556 28.456L132.06 22.072H134.956L136.476 28.424L137.724 22.072H140.3Z" fill="white"/>
</svg>
