<svg width="26" height="36" viewBox="0 0 26 36" fill="none" xmlns="http://www.w3.org/2000/svg">
<path d="M21.8187 0H4.18134C2.41312 0 0.974548 1.3458 0.974548 3V33C0.974548 34.6542 2.41312 36 4.18134 36H21.8187C23.5869 36 25.0255 34.6542 25.0255 33V3C25.0255 1.3458 23.5869 0 21.8187 0ZM21.8187 34.8H4.18134C3.12045 34.8 2.25726 33.9925 2.25726 33V3C2.25726 2.00745 3.12045 1.2 4.18134 1.2H21.8187C22.8796 1.2 23.7428 2.00745 23.7428 3V29.55H5.38389C5.0297 29.55 4.74253 29.8187 4.74253 30.15C4.74253 30.4814 5.0297 30.75 5.38389 30.75H23.7428V33C23.7428 33.9925 22.8796 34.8 21.8187 34.8ZM14.4431 32.625C14.4431 32.9564 14.1559 33.225 13.8017 33.225H12.1983C11.8441 33.225 11.557 32.9564 11.557 32.625C11.557 32.2937 11.8441 32.025 12.1983 32.025H13.8017C14.1559 32.025 14.4431 32.2937 14.4431 32.625ZM8.10806 23.7H17.892C18.9889 23.7 19.8437 22.8079 19.7251 21.7883L18.8673 14.4176C18.7653 13.5407 17.9771 12.8794 17.0342 12.8794H16.4405V11.7686C16.4404 9.99383 14.8971 8.55 13 8.55C11.103 8.55 9.55961 9.99383 9.55961 11.7686V12.8793H8.96587C8.02292 12.8793 7.23493 13.5406 7.13279 14.4176L6.27505 21.7883C6.15632 22.8084 7.01181 23.7 8.10806 23.7ZM7.55015 21.9182L8.40789 14.5475C8.439 14.2806 8.67878 14.0793 8.96579 14.0793H9.55953V15.0155C9.55953 15.3469 9.8467 15.6155 10.2009 15.6155C10.5551 15.6155 10.8422 15.3469 10.8422 15.0155V11.7686C10.8422 10.6556 11.8101 9.75 12.9999 9.75C14.1897 9.75 15.1576 10.6555 15.1576 11.7686V12.8794H12.3834C12.0292 12.8794 11.7421 13.148 11.7421 13.4794C11.7421 13.8107 12.0292 14.0794 12.3834 14.0794H15.1576V15.0155C15.1576 15.3469 15.4448 15.6155 15.799 15.6155C16.1532 15.6155 16.4403 15.3469 16.4403 15.0155V14.0794H17.0341C17.3211 14.0794 17.5609 14.2807 17.592 14.5475L18.4497 21.9182C18.4858 22.2284 18.2275 22.5 17.8918 22.5H8.10806C7.77391 22.5 7.514 22.2296 7.55015 21.9182Z" fill="#007FFC"/>
</svg>
