<svg width="33" height="32" viewBox="0 0 33 32" fill="none" xmlns="http://www.w3.org/2000/svg">
<path d="M24.1011 16C24.1011 15.5945 24.3801 15.2398 24.7776 15.1478C27.7445 14.4559 29.8158 11.8427 29.8158 8.78711C29.8158 5.18162 26.89 2.25 23.2975 2.25C20.2319 2.25 17.5476 4.43303 16.9194 7.43851L24.1011 16ZM24.1011 16C24.1011 16.4052 24.3798 16.7598 24.7769 16.8521L24.1011 16ZM16.9194 24.5615C17.5476 27.567 20.2319 29.75 23.2975 29.75C26.89 29.75 29.8158 26.8184 29.8158 23.2129C29.8158 20.1573 27.7445 17.5441 24.7776 16.8522L16.9194 24.5615ZM16.9194 24.5615C16.8351 24.1567 16.4785 23.8654 16.0639 23.8654C15.6494 23.8654 15.2928 24.1567 15.2085 24.5615C14.5801 27.567 11.8957 29.75 8.83015 29.75C5.23764 29.75 2.31186 26.8184 2.31186 23.2129C2.31186 20.1573 4.38316 17.5441 7.35008 16.8522C7.74759 16.7602 8.0266 16.4055 8.0266 16C8.0266 15.5948 7.74793 15.2402 7.35082 15.1479L16.9194 24.5615ZM15.2085 7.43851C14.5801 4.43301 11.8957 2.25 8.83015 2.25C5.23764 2.25 2.31186 5.18162 2.31186 8.78711C2.31186 11.8427 4.38316 14.4559 7.35008 15.1478L15.2085 7.43851ZM15.2085 7.43851C15.2928 7.84326 15.6494 8.13464 16.0639 8.13464C16.4783 8.13464 16.8349 7.84341 16.9193 7.43882L15.2085 7.43851ZM8.83015 31.5C11.8854 31.5 14.636 29.7954 16.0639 27.2195C17.4916 29.7954 20.2421 31.5 23.2975 31.5C27.8572 31.5 31.5638 27.7816 31.5638 23.2129C31.5638 20.1523 29.9198 17.4359 27.3694 16C29.9198 14.5641 31.5638 11.8477 31.5638 8.78711C31.5638 4.2184 27.8572 0.5 23.2975 0.5C20.2421 0.5 17.4916 2.20458 16.0639 4.7805C14.636 2.20458 11.8854 0.5 8.83015 0.5C4.27048 0.5 0.563843 4.2184 0.563843 8.78711C0.563843 11.8477 2.20788 14.5641 4.75833 16C2.20788 17.4359 0.563843 20.1523 0.563843 23.2129C0.563843 27.7816 4.27048 31.5 8.83015 31.5Z" fill="#3DB370" stroke="#3DB370"/>
</svg>
