<svg width="81" height="80" viewBox="0 0 81 80" fill="none" xmlns="http://www.w3.org/2000/svg">
<path d="M80.5 0H0.5V80H80.5V0Z" fill="#87BCF6"/>
<path d="M73.7955 6.7041H7.20468V73.2953H73.7955V6.7041Z" fill="#252653"/>
<path fill-rule="evenodd" clip-rule="evenodd" d="M59.8125 31.4519C53.8885 28.4456 43.6895 29.9019 43.6895 37.7454C43.6895 43.5863 47.706 45.8853 52.6168 47.8149C59.5954 50.556 52.8133 55.7364 44.2943 50.3791C44.2943 50.3791 43.9893 50.2283 43.8394 50.3791C43.6895 50.53 43.6895 50.6808 43.6895 50.8368C43.6895 50.9877 43.6895 56.4646 43.6895 56.4646C46.667 57.9989 48.8898 58.7791 52.3274 58.7427C63.4155 58.6283 65.0128 47.945 59.1146 43.836C58.0446 43.087 55.1808 41.5943 54.2762 41.2458C49.5876 39.4462 49.9857 36.8872 51.4744 35.5973C53.1183 34.1669 57.6776 36.3306 59.5954 37.5373C60.7585 38.2603 60.9497 37.3605 60.9446 36.5699L60.9291 32.8302C60.9291 31.9408 60.6241 31.868 59.8125 31.4519ZM25.5711 40.7933V27.0933C25.5711 27.0256 25.8089 26.7916 25.8709 26.7916C31.6398 26.4951 34.9223 27.629 35.217 33.8288C35.553 40.9441 29.6238 41.095 25.5711 41.095V40.7933ZM18.6132 21.7672V58.5971H25.5711V46.7279C34.1211 47.3416 41.8337 44.2573 41.8337 34.3126C41.8337 30.3024 40.5931 26.2663 37.6517 23.8269C33.5421 20.4149 23.9376 21.1743 18.6132 21.7672Z" fill="#87BCF6"/>
</svg>
