<svg width="24" height="24" viewBox="0 0 24 24" fill="none" xmlns="http://www.w3.org/2000/svg">
<path d="M5.37233 24H0.396506V7.97643H5.37233V24ZM2.88174 5.79066C1.29063 5.79066 6.86646e-05 4.47278 6.86646e-05 2.88167C6.86759e-05 2.1174 0.303672 1.38444 0.844091 0.844022C1.38451 0.303604 2.11747 0 2.88174 0C3.64601 0 4.37897 0.303604 4.91939 0.844022C5.45981 1.38444 5.76341 2.1174 5.76341 2.88167C5.76341 4.47278 4.47231 5.79066 2.88174 5.79066ZM23.9952 24H19.0301V16.1998C19.0301 14.3409 18.9926 11.9569 16.4431 11.9569C13.8561 11.9569 13.4597 13.9766 13.4597 16.0659V24H8.48919V7.97643H13.2614V10.1622H13.3311C13.9954 8.90323 15.6181 7.57463 18.039 7.57463C23.0749 7.57463 24.0006 10.8908 24.0006 15.198V24H23.9952Z" fill="#565656"/>
</svg>
