<svg width="180" height="50" viewBox="0 0 180 50" fill="none" xmlns="http://www.w3.org/2000/svg">
<rect width="180" height="50" rx="4" fill="#FF9900"/>
<path d="M52.3074 23.32C52.1047 22.9467 51.8114 22.664 51.4274 22.472C51.054 22.2693 50.6114 22.168 50.0994 22.168C49.214 22.168 48.5047 22.4613 47.9714 23.048C47.438 23.624 47.1714 24.3973 47.1714 25.368C47.1714 26.4027 47.4487 27.2133 48.0034 27.8C48.5687 28.376 49.342 28.664 50.3234 28.664C50.9954 28.664 51.5607 28.4933 52.0194 28.152C52.4887 27.8107 52.83 27.32 53.0434 26.68H49.5714V24.664H55.5234V27.208C55.3207 27.8907 54.974 28.5253 54.4834 29.112C54.0034 29.6987 53.39 30.1733 52.6434 30.536C51.8967 30.8987 51.054 31.08 50.1154 31.08C49.006 31.08 48.014 30.84 47.1394 30.36C46.2754 29.8693 45.598 29.192 45.1074 28.328C44.6274 27.464 44.3874 26.4773 44.3874 25.368C44.3874 24.2587 44.6274 23.272 45.1074 22.408C45.598 21.5333 46.2754 20.856 47.1394 20.376C48.0034 19.8853 48.99 19.64 50.0994 19.64C51.4434 19.64 52.574 19.9653 53.4914 20.616C54.4194 21.2667 55.0327 22.168 55.3314 23.32H52.3074ZM65.4549 26.392C65.4549 26.648 65.4389 26.9147 65.4069 27.192H59.2149C59.2575 27.7467 59.4335 28.1733 59.7429 28.472C60.0629 28.76 60.4522 28.904 60.9109 28.904C61.5935 28.904 62.0682 28.616 62.3349 28.04H65.2469C65.0975 28.6267 64.8255 29.1547 64.4309 29.624C64.0469 30.0933 63.5615 30.4613 62.9749 30.728C62.3882 30.9947 61.7322 31.128 61.0069 31.128C60.1322 31.128 59.3535 30.9413 58.6709 30.568C57.9882 30.1947 57.4549 29.6613 57.0709 28.968C56.6869 28.2747 56.4949 27.464 56.4949 26.536C56.4949 25.608 56.6815 24.7973 57.0549 24.104C57.4389 23.4107 57.9722 22.8773 58.6549 22.504C59.3375 22.1307 60.1215 21.944 61.0069 21.944C61.8709 21.944 62.6389 22.1253 63.3109 22.488C63.9829 22.8507 64.5055 23.368 64.8789 24.04C65.2629 24.712 65.4549 25.496 65.4549 26.392ZM62.6549 25.672C62.6549 25.2027 62.4949 24.8293 62.1749 24.552C61.8549 24.2747 61.4549 24.136 60.9749 24.136C60.5162 24.136 60.1269 24.2693 59.8069 24.536C59.4975 24.8027 59.3055 25.1813 59.2309 25.672H62.6549ZM71.8743 28.68V31H70.4823C69.4903 31 68.7169 30.76 68.1623 30.28C67.6076 29.7893 67.3303 28.9947 67.3303 27.896V24.344H66.2423V22.072H67.3303V19.896H70.0663V22.072H71.8583V24.344H70.0663V27.928C70.0663 28.1947 70.1303 28.3867 70.2583 28.504C70.3863 28.6213 70.5996 28.68 70.8983 28.68H71.8743ZM80.4209 31.128C79.6422 31.128 78.9489 30.9947 78.3409 30.728C77.7329 30.4613 77.2529 30.0987 76.9009 29.64C76.5489 29.1707 76.3515 28.648 76.3089 28.072H79.0129C79.0449 28.3813 79.1889 28.632 79.4449 28.824C79.7009 29.016 80.0155 29.112 80.3889 29.112C80.7302 29.112 80.9915 29.048 81.1729 28.92C81.3649 28.7813 81.4609 28.6053 81.4609 28.392C81.4609 28.136 81.3275 27.9493 81.0609 27.832C80.7942 27.704 80.3622 27.5653 79.7649 27.416C79.1249 27.2667 78.5915 27.112 78.1649 26.952C77.7382 26.7813 77.3702 26.52 77.0609 26.168C76.7515 25.8053 76.5969 25.32 76.5969 24.712C76.5969 24.2 76.7355 23.736 77.0129 23.32C77.3009 22.8933 77.7169 22.5573 78.2609 22.312C78.8155 22.0667 79.4715 21.944 80.2289 21.944C81.3489 21.944 82.2289 22.2213 82.8689 22.776C83.5195 23.3307 83.8929 24.0667 83.9889 24.984H81.4609C81.4182 24.6747 81.2795 24.4293 81.0449 24.248C80.8209 24.0667 80.5222 23.976 80.1489 23.976C79.8289 23.976 79.5835 24.04 79.4129 24.168C79.2422 24.2853 79.1569 24.4507 79.1569 24.664C79.1569 24.92 79.2902 25.112 79.5569 25.24C79.8342 25.368 80.2609 25.496 80.8369 25.624C81.4982 25.7947 82.0369 25.9653 82.4529 26.136C82.8689 26.296 83.2315 26.5627 83.5409 26.936C83.8609 27.2987 84.0262 27.7893 84.0369 28.408C84.0369 28.9307 83.8875 29.4 83.5889 29.816C83.3009 30.2213 82.8795 30.5413 82.3249 30.776C81.7809 31.0107 81.1462 31.128 80.4209 31.128ZM90.6868 28.68V31H89.2948C88.3028 31 87.5294 30.76 86.9748 30.28C86.4201 29.7893 86.1428 28.9947 86.1428 27.896V24.344H85.0548V22.072H86.1428V19.896H88.8788V22.072H90.6708V24.344H88.8788V27.928C88.8788 28.1947 88.9428 28.3867 89.0708 28.504C89.1988 28.6213 89.4121 28.68 89.7108 28.68H90.6868ZM91.6668 26.52C91.6668 25.6027 91.8374 24.7973 92.1788 24.104C92.5308 23.4107 93.0054 22.8773 93.6028 22.504C94.2001 22.1307 94.8668 21.944 95.6028 21.944C96.2321 21.944 96.7814 22.072 97.2508 22.328C97.7308 22.584 98.0988 22.92 98.3548 23.336V22.072H101.091V31H98.3548V29.736C98.0881 30.152 97.7148 30.488 97.2348 30.744C96.7654 31 96.2161 31.128 95.5868 31.128C94.8614 31.128 94.2001 30.9413 93.6028 30.568C93.0054 30.184 92.5308 29.6453 92.1788 28.952C91.8374 28.248 91.6668 27.4373 91.6668 26.52ZM98.3548 26.536C98.3548 25.8533 98.1628 25.3147 97.7788 24.92C97.4054 24.5253 96.9468 24.328 96.4028 24.328C95.8588 24.328 95.3948 24.5253 95.0108 24.92C94.6374 25.304 94.4508 25.8373 94.4508 26.52C94.4508 27.2027 94.6374 27.7467 95.0108 28.152C95.3948 28.5467 95.8588 28.744 96.4028 28.744C96.9468 28.744 97.4054 28.5467 97.7788 28.152C98.1628 27.7573 98.3548 27.2187 98.3548 26.536ZM105.806 23.56C106.126 23.0693 106.526 22.6853 107.006 22.408C107.486 22.12 108.019 21.976 108.606 21.976V24.872H107.854C107.171 24.872 106.659 25.0213 106.318 25.32C105.977 25.608 105.806 26.12 105.806 26.856V31H103.07V22.072H105.806V23.56ZM114.89 28.68V31H113.498C112.506 31 111.733 30.76 111.178 30.28C110.623 29.7893 110.346 28.9947 110.346 27.896V24.344H109.258V22.072H110.346V19.896H113.082V22.072H114.874V24.344H113.082V27.928C113.082 28.1947 113.146 28.3867 113.274 28.504C113.402 28.6213 113.615 28.68 113.914 28.68H114.89ZM124.83 26.392C124.83 26.648 124.814 26.9147 124.782 27.192H118.59C118.633 27.7467 118.809 28.1733 119.118 28.472C119.438 28.76 119.827 28.904 120.286 28.904C120.969 28.904 121.443 28.616 121.71 28.04H124.622C124.473 28.6267 124.201 29.1547 123.806 29.624C123.422 30.0933 122.937 30.4613 122.35 30.728C121.763 30.9947 121.107 31.128 120.382 31.128C119.507 31.128 118.729 30.9413 118.046 30.568C117.363 30.1947 116.83 29.6613 116.446 28.968C116.062 28.2747 115.87 27.464 115.87 26.536C115.87 25.608 116.057 24.7973 116.43 24.104C116.814 23.4107 117.347 22.8773 118.03 22.504C118.713 22.1307 119.497 21.944 120.382 21.944C121.246 21.944 122.014 22.1253 122.686 22.488C123.358 22.8507 123.881 23.368 124.254 24.04C124.638 24.712 124.83 25.496 124.83 26.392ZM122.03 25.672C122.03 25.2027 121.87 24.8293 121.55 24.552C121.23 24.2747 120.83 24.136 120.35 24.136C119.891 24.136 119.502 24.2693 119.182 24.536C118.873 24.8027 118.681 25.1813 118.606 25.672H122.03ZM125.729 26.52C125.729 25.6027 125.9 24.7973 126.241 24.104C126.593 23.4107 127.068 22.8773 127.665 22.504C128.263 22.1307 128.929 21.944 129.665 21.944C130.252 21.944 130.785 22.0667 131.265 22.312C131.756 22.5573 132.14 22.888 132.417 23.304V19.16H135.153V31H132.417V29.72C132.161 30.1467 131.793 30.488 131.313 30.744C130.844 31 130.295 31.128 129.665 31.128C128.929 31.128 128.263 30.9413 127.665 30.568C127.068 30.184 126.593 29.6453 126.241 28.952C125.9 28.248 125.729 27.4373 125.729 26.52ZM132.417 26.536C132.417 25.8533 132.225 25.3147 131.841 24.92C131.468 24.5253 131.009 24.328 130.465 24.328C129.921 24.328 129.457 24.5253 129.073 24.92C128.7 25.304 128.513 25.8373 128.513 26.52C128.513 27.2027 128.7 27.7467 129.073 28.152C129.457 28.5467 129.921 28.744 130.465 28.744C131.009 28.744 131.468 28.5467 131.841 28.152C132.225 27.7573 132.417 27.2187 132.417 26.536Z" fill="white"/>
</svg>
