<svg width="570" height="520" viewBox="0 0 570 520" fill="none" xmlns="http://www.w3.org/2000/svg">
<mask id="mask0_0_273" style="mask-type:alpha" maskUnits="userSpaceOnUse" x="0" y="54" width="570" height="466">
<path fill-rule="evenodd" clip-rule="evenodd" d="M0 54.3582H570V520H0V54.3582Z" fill="white"/>
</mask>
<g mask="url(#mask0_0_273)">
<path fill-rule="evenodd" clip-rule="evenodd" d="M534.787 308.365C533.021 311.012 531.26 313.615 529.382 316.207C512.955 339.24 492.568 361.364 469.992 381.699C468.97 382.643 467.9 383.597 466.835 384.541C463.619 387.389 460.302 390.241 456.984 392.983C451.264 397.884 445.373 402.624 439.38 407.17C436.223 409.667 432.964 412.12 429.748 414.513C392.404 442.091 352.486 466.218 313.151 484.396C300.956 490.095 288.756 495.185 276.717 499.581C213.891 522.814 155.411 528.259 115.065 505.226C102.218 497.933 91.2482 487.742 82.5262 474.31C81.1349 472.157 79.7437 470.009 78.3524 467.867C65.4621 447.731 53.1496 427.505 42.3407 407.17C39.7722 402.424 37.3697 397.734 35.0153 392.983C-4.20706 314.309 -19.1415 234.685 36.4547 156.36C58.0724 125.895 93.5544 102.167 136.142 85.3784C148.294 80.5381 160.971 76.3371 174.139 72.6906C180.614 70.7924 187.137 69.144 193.826 67.6504C202.232 65.6524 210.788 63.904 219.456 62.4005C226.097 61.2066 232.727 60.1576 239.415 59.2535C242.198 58.9088 244.98 58.5592 247.763 58.2045C267.508 55.8617 287.52 54.558 307.431 54.4131C310.048 54.3582 312.67 54.3582 315.243 54.3582C327.283 54.4131 339.21 54.8577 350.982 55.7618C354.139 55.9616 357.296 56.2114 360.453 56.5561C420.544 62.0058 475.659 78.0854 513.116 104.765C521.302 110.609 528.639 116.898 535.001 123.747C536.183 124.995 537.307 126.244 538.372 127.538C538.746 127.938 539.073 128.337 539.442 128.742C547.201 137.828 553.408 147.224 558.069 156.815C581.88 205.218 567.963 258.612 534.787 308.365Z" fill="#FDE6D6"/>
</g>
<path fill-rule="evenodd" clip-rule="evenodd" d="M413.751 454.587C399.263 468.801 388.948 489.127 404.531 501.169C421.935 514.614 457.832 511.493 476.39 486.126C488.252 469.922 494.529 444.303 481.389 429.934C470.14 417.63 431.525 437.146 413.751 454.587Z" fill="#E8E5EA"/>
<path fill-rule="evenodd" clip-rule="evenodd" d="M203.582 450.803C200.095 450.948 196.555 451.053 193.12 451.053C192.756 451.053 192.495 451.348 192.495 451.702C192.495 451.997 192.756 452.302 193.12 452.302C196.607 452.302 200.095 452.197 203.634 452.052C203.999 452.052 204.259 451.747 204.259 451.403C204.207 451.103 203.895 450.803 203.582 450.803ZM182.246 450.182C178.706 450.082 175.167 449.882 171.836 449.682C171.367 449.632 171.159 449.882 171.107 450.227C171.107 450.582 171.367 450.881 171.732 450.931C175.115 451.131 178.654 451.331 182.194 451.431C182.558 451.431 182.871 451.181 182.871 450.826C182.871 450.482 182.61 450.182 182.246 450.182ZM224.919 449.483C221.431 449.828 217.944 450.132 214.508 450.382C214.144 450.382 213.884 450.677 213.884 451.032C213.936 451.382 214.196 451.631 214.56 451.631H214.612C218.048 451.382 221.535 451.077 225.023 450.732C225.387 450.677 225.647 450.382 225.647 450.028C225.595 449.683 225.283 449.428 224.919 449.483ZM160.898 449.635C157.436 449.28 153.922 448.785 150.512 448.231C150.145 448.186 149.83 448.386 149.725 448.735C149.673 449.08 149.935 449.385 150.302 449.435C153.712 450.034 157.227 450.484 160.741 450.884H160.846C161.161 450.884 161.423 450.684 161.476 450.329C161.528 449.984 161.266 449.68 160.898 449.635ZM246.295 446.211C242.728 446.705 239.265 447.21 235.856 447.659C235.489 447.704 235.226 448.009 235.279 448.354C235.331 448.659 235.646 448.908 235.961 448.908H236.013C239.423 448.459 242.937 447.954 246.504 447.41C246.819 447.36 247.081 447.06 247.029 446.705C246.976 446.36 246.662 446.161 246.295 446.211ZM139.604 446.197C136.069 445.448 132.588 444.598 129.215 443.699C128.84 443.599 128.465 443.749 128.358 444.099C128.251 444.443 128.465 444.798 128.84 444.893C132.106 445.742 135.427 446.597 138.8 447.346C138.961 447.391 139.122 447.391 139.282 447.446H139.443C139.55 447.446 139.657 447.391 139.764 447.346L139.818 447.296C139.978 447.246 140.032 447.096 140.086 446.941C140.139 446.647 139.925 446.297 139.604 446.197ZM267.622 442.973C264.183 443.667 260.637 444.372 257.303 444.971H257.198C256.827 445.021 256.616 445.316 256.668 445.671C256.721 445.966 257.039 446.165 257.356 446.165H257.462C259.843 445.766 262.278 445.316 264.712 444.822C265.77 444.622 266.828 444.422 267.887 444.172C268.257 444.122 268.469 443.772 268.416 443.423C268.31 443.123 267.993 442.873 267.622 442.973ZM287.878 437.691C284.504 438.541 281.023 439.39 277.489 440.19C277.114 440.294 276.9 440.594 277.007 440.944C277.06 441.239 277.328 441.439 277.65 441.439C277.703 441.439 277.757 441.439 277.81 441.394C281.345 440.594 284.879 439.745 288.253 438.94C288.574 438.846 288.788 438.496 288.735 438.141C288.628 437.846 288.253 437.646 287.878 437.691ZM119.294 439.882C118.067 439.491 116.895 439.1 115.667 438.66C113.379 437.878 111.202 437.002 109.026 436.122C108.691 435.975 108.244 436.122 108.077 436.411C107.909 436.709 108.077 437.1 108.412 437.242C110.756 438.225 113.211 439.1 115.667 439.985C116.671 440.376 117.732 440.714 118.792 441.061H119.071C119.35 441.061 119.629 440.909 119.741 440.67C119.853 440.376 119.685 440.034 119.294 439.882ZM309.236 432.504C308.531 432.704 307.827 432.954 307.068 433.154C304.412 433.908 301.648 434.708 298.883 435.452C298.504 435.557 298.287 435.852 298.396 436.206C298.504 436.506 298.775 436.651 299.046 436.651H299.263C301.973 435.907 304.737 435.157 307.339 434.403C308.152 434.153 308.911 433.953 309.669 433.708C309.995 433.608 310.211 433.259 310.103 432.904C309.995 432.609 309.615 432.409 309.236 432.504ZM100.151 431.853L99.7671 431.588C96.6952 429.892 93.7329 428.09 90.8804 426.183C90.6061 425.971 90.1673 426.077 89.9479 426.395C89.7284 426.654 89.8381 427.083 90.1124 427.295C92.9649 429.145 95.982 431.005 99.054 432.754L99.4928 433.019C99.6026 433.067 99.7123 433.067 99.822 433.067C100.096 433.067 100.316 432.966 100.425 432.754C100.645 432.431 100.48 432.007 100.151 431.853ZM329.538 426.325C326.079 427.479 322.564 428.578 319.159 429.672C318.775 429.777 318.61 430.127 318.72 430.427C318.83 430.721 319.05 430.871 319.379 430.871C319.434 430.871 319.489 430.871 319.599 430.826C323.058 429.777 326.518 428.623 329.978 427.479C330.362 427.374 330.527 427.029 330.417 426.68C330.252 426.325 329.813 426.18 329.538 426.325ZM350.705 418.483C350.538 418.138 350.149 417.985 349.816 418.138C346.428 419.372 342.928 420.651 339.429 421.84C339.095 421.988 338.929 422.329 339.04 422.68C339.151 422.921 339.429 423.075 339.706 423.075C339.762 423.075 339.873 423.025 339.984 423.025C343.484 421.791 346.983 420.507 350.316 419.273C350.705 419.125 350.871 418.775 350.705 418.483ZM82.1012 420.905C80.8449 419.998 79.5887 419.035 78.4417 418.118C76.8578 416.851 75.3831 415.538 73.9084 414.271C73.6353 414.018 73.1983 414.018 72.9253 414.271C72.6522 414.52 72.6522 414.93 72.9253 415.179C74.673 416.704 76.4755 418.224 78.3871 419.694C79.3156 420.449 80.2441 421.214 81.2273 421.918C81.3365 422.025 81.5004 422.075 81.6642 422.075C81.8827 422.075 82.0465 421.974 82.2104 421.822C82.4289 421.569 82.3742 421.163 82.1012 420.905ZM368.889 410.418C368.735 410.103 368.324 410.007 368.016 410.148C365.039 411.377 362.011 412.66 358.624 413.985C358.316 414.076 358.162 414.441 358.316 414.715C358.418 414.944 358.675 415.081 358.88 415.081C358.983 415.081 359.085 415.035 359.137 414.985C362.524 413.66 365.604 412.432 368.581 411.148C368.889 411.016 369.043 410.696 368.889 410.418ZM66.1537 406.051C63.95 403.585 61.8465 400.976 59.9433 398.362C59.743 398.061 59.3423 398.016 59.0418 398.214C58.7914 398.411 58.7413 398.805 58.9416 399.052C60.6946 401.518 62.6478 403.935 64.6512 406.248C64.8515 406.451 65.0018 406.692 65.2021 406.89C65.3023 406.993 65.5026 407.087 65.6528 407.087C65.8031 407.087 65.9533 407.042 66.1036 406.944C66.3039 406.746 66.354 406.495 66.2538 406.248C66.2538 406.155 66.2038 406.1 66.1537 406.051ZM388.126 401.417C387.968 401.111 387.547 401.009 387.231 401.162C384.23 402.74 381.019 404.329 377.86 405.861C377.544 406.014 377.439 406.321 377.544 406.571C377.491 406.622 377.544 406.678 377.544 406.729C377.649 406.934 377.913 407.087 378.123 407.087C378.229 407.087 378.334 407.031 378.439 406.985C378.702 406.826 379.018 406.729 379.282 406.571C382.23 405.197 385.073 403.716 387.863 402.286C388.179 402.127 388.284 401.719 388.126 401.417ZM407.334 391.407C407.173 391.115 406.743 391.024 406.421 391.163C405.831 391.455 405.294 391.789 404.703 392.076C402.234 393.416 399.711 394.703 397.081 395.999C396.759 396.138 396.651 396.52 396.866 396.812C396.973 397.004 397.188 397.095 397.456 397.095C397.564 397.095 397.671 397.095 397.778 397.051C400.946 395.425 404.113 393.799 407.119 392.22C407.173 392.172 407.226 392.12 407.28 392.076C407.495 391.885 407.495 391.646 407.334 391.407ZM54.4651 390.16C52.6093 387.361 50.9172 384.406 49.4435 381.46C49.2797 381.165 48.843 381.017 48.5155 381.165C48.188 381.307 48.0243 381.656 48.188 382.001C49.7164 384.952 51.4084 387.952 53.2643 390.804C53.3734 391.001 53.5918 391.099 53.8647 391.099C53.9738 391.099 54.083 391.05 54.1922 391.001C54.5197 390.853 54.6288 390.46 54.4651 390.16ZM425.585 381.558C425.585 381.506 425.53 381.449 425.53 381.402C425.308 381.09 424.864 381.033 424.587 381.194C424.365 381.298 424.199 381.449 423.977 381.558C422.424 382.539 420.761 383.583 419.153 384.513C417.878 385.344 416.547 386.128 415.272 386.907C414.939 387.058 414.828 387.478 415.05 387.79C415.161 387.998 415.382 388.101 415.604 388.101C415.715 388.101 415.881 388.049 415.992 387.998C417.933 386.85 419.818 385.712 421.704 384.513C422.923 383.791 424.143 383.064 425.363 382.285C425.585 382.124 425.696 381.817 425.585 381.558ZM442.575 369.383C442.37 369.09 441.959 369.036 441.703 369.231C438.984 371.188 436.162 373.139 433.392 375.042C433.084 375.237 433.032 375.579 433.238 375.872C433.392 376.018 433.545 376.111 433.751 376.111C433.905 376.111 434.007 376.111 434.161 376.018C436.932 374.11 439.753 372.164 442.472 370.207C442.78 370.012 442.832 369.622 442.575 369.383ZM42.406 362.602C42.2991 362.249 41.9248 362.046 41.5505 362.147C41.2296 362.249 41.0158 362.602 41.0692 362.9C42.0317 366.241 43.1011 369.525 44.2775 372.658C44.3844 372.961 44.5983 373.113 44.9191 373.113C44.9726 373.113 45.0261 373.113 45.133 373.057C45.4538 372.961 45.6677 372.603 45.5073 372.254C44.3309 369.121 43.315 365.882 42.406 362.602ZM459.7 357.323C459.432 357.068 459.002 357.068 458.734 357.276C456.103 359.459 453.364 361.689 450.465 363.981C450.197 364.189 450.143 364.605 450.358 364.864C450.519 365.02 450.68 365.119 450.895 365.119C451.056 365.119 451.163 365.072 451.324 364.963C454.224 362.733 457.016 360.446 459.593 358.263C459.915 357.998 459.915 357.64 459.7 357.323ZM38.9263 342.678C38.9263 342.388 38.6055 342.089 38.2312 342.143C37.8569 342.192 37.5896 342.482 37.643 342.83C38.0173 346.161 38.4986 349.449 39.0868 352.643C39.1402 352.932 39.4611 353.128 39.7819 353.128H39.8888C40.2631 353.084 40.477 352.79 40.4235 352.446C39.8354 349.252 39.3006 346.019 38.9263 342.678ZM475.679 343.323C475.396 343.074 474.943 343.074 474.66 343.323C472.056 345.567 469.283 347.861 466.509 350.105C466.226 350.3 466.169 350.691 466.452 350.935C466.566 351.081 466.792 351.13 466.962 351.13C467.132 351.13 467.302 351.081 467.471 350.979C470.245 348.734 473.019 346.446 475.679 344.152C475.962 343.908 475.962 343.518 475.679 343.323ZM490.621 328.315C490.35 328.06 489.916 328.111 489.645 328.371C487.421 330.92 484.981 333.521 482.486 336.07C482.215 336.325 482.269 336.733 482.54 336.983C482.649 337.09 482.811 337.141 482.974 337.141C483.191 337.141 483.354 337.034 483.462 336.937C486.011 334.336 488.451 331.731 490.729 329.181C490.946 328.927 490.892 328.519 490.621 328.315ZM37.5098 327.116C37.5098 325.706 37.5098 324.247 37.5633 322.784C37.5633 322.449 37.296 322.152 36.9217 322.152C36.5474 322.152 36.2265 322.4 36.2265 322.736C36.1731 324.194 36.1731 325.657 36.1731 327.116C36.1731 328.963 36.2265 330.762 36.28 332.56C36.28 332.852 36.6008 333.144 36.9217 333.144H36.9751C37.3494 333.09 37.6168 332.852 37.6168 332.507C37.5633 330.713 37.5098 328.914 37.5098 327.116ZM503.412 312.275C503.096 312.083 502.728 312.131 502.518 312.414C500.571 315.006 498.467 317.645 496.362 320.188C496.099 320.481 496.205 320.865 496.468 321.057C496.573 321.105 496.731 321.153 496.889 321.153C497.046 321.153 497.257 321.105 497.415 320.913C499.519 318.37 501.623 315.73 503.57 313.091C503.78 312.798 503.728 312.414 503.412 312.275ZM38.6293 302.187C38.2015 302.094 37.9342 302.339 37.8807 302.682C37.3995 306.011 37.0252 309.291 36.7044 312.523C36.7044 312.865 36.9717 313.159 37.346 313.159H37.3995C37.7203 313.159 38.0411 312.914 38.0411 312.616C38.362 309.389 38.7363 306.109 39.2175 302.878C39.271 302.535 39.0036 302.187 38.6293 302.187ZM514.017 295.21C513.704 295.11 513.34 295.21 513.132 295.511C511.622 298.364 509.904 301.316 508.082 304.219C507.874 304.515 507.978 304.92 508.29 305.12C508.394 305.165 508.499 305.165 508.603 305.165C508.863 305.165 509.071 305.07 509.175 304.87C511.049 301.917 512.767 298.964 514.329 296.061C514.485 295.756 514.329 295.356 514.017 295.21ZM42.375 283.188C42.0008 283.144 41.6799 283.342 41.573 283.688C40.8244 286.952 40.0758 290.212 39.4341 293.432C39.3807 293.778 39.648 294.075 39.9689 294.174H40.1293C40.4501 294.174 40.7175 293.976 40.7709 293.679C41.4126 290.464 42.1077 287.2 42.9098 283.935C42.9632 283.584 42.7493 283.292 42.375 283.188ZM522.468 277.219C522.094 277.115 521.719 277.265 521.612 277.632C520.49 280.786 519.153 284.043 517.709 287.248C517.549 287.604 517.709 287.972 518.083 288.127C518.137 288.127 518.244 288.178 518.351 288.178C518.565 288.178 518.832 288.023 518.939 287.765C520.383 284.508 521.719 281.251 522.842 278.046C523.003 277.731 522.789 277.374 522.468 277.219ZM48.1676 263.223C47.8468 263.123 47.4725 263.324 47.3655 263.671C46.2961 266.897 45.2802 270.163 44.3712 273.389C44.3177 273.736 44.5316 274.093 44.8524 274.139C44.9059 274.189 44.9594 274.189 45.0663 274.189C45.3336 274.189 45.601 273.993 45.7079 273.736C46.5635 270.52 47.5794 267.244 48.6488 264.029C48.7558 263.671 48.5419 263.324 48.1676 263.223ZM528.133 257.224C527.759 257.125 527.438 257.374 527.331 257.668C526.583 260.864 525.674 264.1 524.711 267.396C524.658 267.695 524.818 268.039 525.192 268.144C525.246 268.144 525.299 268.194 525.353 268.194C525.674 268.194 525.941 267.994 525.994 267.695C526.957 264.454 527.866 261.163 528.668 257.972C528.721 257.623 528.508 257.269 528.133 257.224ZM55.0056 244.246C54.6313 244.138 54.257 244.293 54.1501 244.607C52.8668 247.847 51.6369 251.14 50.5141 254.375C50.3536 254.689 50.5675 255.044 50.8884 255.204H51.1022C51.4231 255.204 51.6369 255.044 51.7439 254.792C52.9202 251.551 54.1501 248.259 55.3799 245.07C55.4869 244.756 55.3264 244.344 55.0056 244.246ZM531.906 237.224C531.585 237.175 531.211 237.42 531.157 237.763C530.676 241 530.088 244.232 529.446 247.469C529.393 247.817 529.607 248.106 529.981 248.209H530.088C530.409 248.209 530.676 248.013 530.783 247.714C531.425 244.428 532.013 241.142 532.494 237.959C532.494 237.616 532.28 237.268 531.906 237.224ZM63.7447 226.281C63.4356 226.139 63.0749 226.281 62.9203 226.609C61.5291 229.514 60.1379 232.462 58.8498 235.41C58.7467 235.691 58.9013 236.076 59.2105 236.171C59.3135 236.218 59.3651 236.218 59.4681 236.218C59.7257 236.218 59.9318 236.076 60.0349 235.838C61.323 232.933 62.7142 229.985 64.1054 227.089C64.26 226.757 64.1054 226.419 63.7447 226.281ZM533.48 217.233C533.159 217.277 532.838 217.471 532.785 217.817C532.624 221.077 532.41 224.337 532.09 227.548C532.036 227.889 532.303 228.181 532.678 228.224H532.731C533.052 228.224 533.373 227.986 533.373 227.641C533.747 224.434 533.961 221.174 534.121 217.861C534.175 217.573 533.854 217.277 533.48 217.233ZM73.3836 208.308C73.044 208.162 72.5911 208.254 72.4213 208.551C70.7231 211.47 69.0249 214.438 67.44 217.352C67.2702 217.697 67.44 218.038 67.7796 218.179C67.8928 218.232 67.9494 218.232 68.0626 218.232C68.3457 218.232 68.5721 218.135 68.6853 217.892C70.3269 214.968 72.0251 212.005 73.7232 209.135C73.8931 208.794 73.7232 208.449 73.3836 208.308ZM534.709 197.827C534.709 197.491 534.388 197.248 534.014 197.248C533.64 197.248 533.372 197.54 533.372 197.881C533.533 201.09 533.64 204.349 533.64 207.608C533.64 207.948 533.961 208.24 534.281 208.24C534.656 208.24 534.977 207.948 534.977 207.608C534.977 204.349 534.87 201.042 534.709 197.827ZM83.0785 190.322C82.7623 190.173 82.3407 190.272 82.1826 190.57C80.3908 193.493 78.7044 196.475 77.0707 199.353C76.9126 199.651 77.018 199.998 77.3342 200.147C77.4396 200.196 77.545 200.246 77.6504 200.246C77.8612 200.246 78.1247 200.147 78.2301 199.899C79.8638 197.07 81.5502 194.093 83.342 191.166C83.5001 190.868 83.3947 190.521 83.0785 190.322ZM532.036 177.775C531.983 177.432 531.662 177.187 531.288 177.285C530.913 177.334 530.7 177.628 530.753 177.966C531.234 181.203 531.662 184.484 531.983 187.716C532.036 188.059 532.304 188.255 532.678 188.255H532.731C533.106 188.255 533.373 187.961 533.32 187.619C532.999 184.337 532.571 181.056 532.036 177.775ZM93.8067 173.372C93.5583 173.169 93.1609 173.271 92.9622 173.575C91.2235 176.46 89.4847 179.355 87.7957 182.296C87.597 182.6 87.6963 182.955 87.9944 183.158C88.0938 183.208 88.1931 183.259 88.2925 183.259C88.5409 183.259 88.7396 183.158 88.8389 182.955C90.528 180.014 92.2667 177.124 94.0054 174.234C94.2041 173.925 94.1048 173.575 93.8067 173.372ZM530.573 168.178H530.52C529.931 165.052 529.129 161.926 528.327 158.745C528.274 158.403 527.9 158.205 527.525 158.304C527.204 158.353 526.937 158.701 527.044 159.048C527.846 162.075 528.541 165.102 529.183 168.129C529.236 168.327 529.29 168.57 529.343 168.774C529.397 169.071 529.664 169.27 529.985 169.27H530.092C530.466 169.171 530.68 168.873 530.627 168.525C530.627 168.426 530.573 168.277 530.573 168.178ZM105.573 155.401C105.308 155.2 104.883 155.25 104.671 155.551L104.405 155.902C102.442 158.658 100.425 161.464 98.5139 164.266C98.3016 164.571 98.3547 164.972 98.6731 165.173C98.7793 165.223 98.9385 165.273 99.0447 165.273C99.257 165.273 99.4693 165.173 99.5754 164.972C101.539 162.166 103.503 159.355 105.52 156.604L105.785 156.253C105.945 156.002 105.892 155.596 105.573 155.401ZM525.007 146.19C524.204 143.653 523.349 141.166 522.493 138.73C522.386 138.375 521.959 138.223 521.638 138.324C521.264 138.477 521.103 138.832 521.21 139.136C522.226 141.927 523.189 144.769 524.098 147.661C524.204 148.067 524.365 148.423 524.472 148.828C524.579 149.133 524.846 149.285 525.113 149.285H525.327C525.648 149.184 525.862 148.828 525.755 148.473C525.541 147.712 525.274 146.946 525.007 146.19ZM118.434 139.407C118.116 139.216 117.692 139.264 117.48 139.551C115.466 142.128 113.399 144.706 111.332 147.379C111.12 147.618 111.226 148 111.491 148.19C111.65 148.286 111.756 148.286 111.915 148.286C112.074 148.286 112.286 148.238 112.445 148.042C114.459 145.422 116.526 142.797 118.593 140.219C118.805 139.932 118.699 139.598 118.434 139.407ZM130.238 123.424C129.927 123.231 129.565 123.279 129.306 123.521C127.235 126.072 125.164 128.681 123.093 131.334C122.886 131.575 122.99 131.961 123.249 132.154C123.352 132.25 123.507 132.298 123.611 132.298C123.818 132.298 124.025 132.197 124.18 132.009C126.2 129.405 128.27 126.8 130.341 124.244C130.548 124.003 130.497 123.617 130.238 123.424ZM518.609 129.488C518.305 128.771 517.949 128.007 517.594 127.243C517.442 126.86 517.239 126.43 517.036 126C516.274 124.233 515.411 122.418 514.548 120.65C514.396 120.364 514.04 120.22 513.685 120.364C513.38 120.507 513.228 120.841 513.38 121.128C513.99 122.365 514.599 123.612 515.157 124.854C515.563 125.666 515.919 126.478 516.223 127.243C516.629 128.055 516.985 128.819 517.289 129.631C517.34 129.727 517.391 129.822 517.442 129.918C517.543 130.156 517.746 130.3 518 130.3C518.102 130.3 518.152 130.3 518.254 130.252C518.508 130.156 518.711 129.918 518.66 129.631C518.66 129.583 518.66 129.531 518.609 129.488ZM144.148 107.434C143.848 107.243 143.498 107.292 143.248 107.537C141.197 109.988 139.246 112.537 137.246 115.036C137.196 115.134 137.096 115.183 137.046 115.281C136.796 115.575 136.846 115.967 137.146 116.163C137.246 116.262 137.396 116.311 137.496 116.311C137.646 116.311 137.796 116.262 137.896 116.163C137.946 116.114 137.946 116.114 137.996 116.065C140.097 113.419 142.147 110.87 144.248 108.322C144.448 108.077 144.398 107.684 144.148 107.434ZM508.981 111.416C508.299 110.219 507.669 109.072 506.987 107.925C505.99 106.13 504.94 104.385 503.838 102.639C503.681 102.34 503.261 102.24 502.946 102.39C502.631 102.589 502.526 102.939 502.736 103.238C503.838 105.033 504.888 106.878 505.99 108.773C506.567 109.82 507.197 110.912 507.774 112.014C507.932 112.214 508.142 112.314 508.352 112.314C508.457 112.314 508.561 112.314 508.666 112.259C508.981 112.114 509.139 111.715 508.981 111.416ZM158.059 91.4541C157.727 91.2526 157.34 91.3029 157.063 91.5549C154.685 94.0744 152.251 96.6443 149.873 99.2646C149.652 99.567 149.652 99.9701 149.983 100.172C150.094 100.272 150.26 100.323 150.426 100.323C150.592 100.323 150.813 100.222 150.924 100.071C153.302 97.4506 155.736 94.8807 158.114 92.3611C158.336 92.1092 158.336 91.7061 158.059 91.4541ZM498.219 94.3295C496.274 91.3906 494.22 88.5042 492.113 85.6178C491.897 85.3029 491.464 85.2504 491.14 85.4603C490.87 85.6702 490.762 86.0901 490.978 86.405C493.086 89.2389 495.193 92.1254 497.139 95.0643C497.247 95.2217 497.463 95.3267 497.679 95.3267C497.787 95.3267 497.949 95.3267 498.057 95.2217C498.381 95.0643 498.435 94.6444 498.219 94.3295ZM171.948 76.4914C171.682 76.2833 171.255 76.2833 171.042 76.5434C168.591 79.0402 166.194 81.6411 163.796 84.242C163.53 84.5541 163.583 84.9182 163.849 85.1783C163.956 85.2823 164.116 85.3344 164.276 85.3344C164.436 85.3344 164.649 85.2823 164.755 85.1263C167.153 82.5254 169.604 79.9245 172.001 77.4277C172.268 77.1676 172.214 76.7514 171.948 76.4914ZM486.448 78.3335C484.117 75.6691 481.674 73.0549 479.231 70.5412C479.009 70.2899 478.565 70.2899 478.287 70.4909C477.954 70.7423 477.954 71.1445 478.232 71.3959C480.619 73.8592 483.062 76.4734 485.338 79.0876C485.505 79.2384 485.671 79.339 485.893 79.339C486.06 79.339 486.171 79.2887 486.337 79.1881C486.615 78.9871 486.67 78.5849 486.448 78.3335ZM186.957 62.5318C186.701 62.2921 186.344 62.2921 186.088 62.5318C183.688 64.6891 181.236 66.9902 178.784 69.3344C178.529 69.5789 178.529 69.9624 178.784 70.1541C178.887 70.298 179.04 70.3459 179.244 70.3459C179.397 70.3459 179.551 70.298 179.704 70.1541C182.104 67.8531 184.556 65.552 186.957 63.3947C187.212 63.155 187.212 62.7715 186.957 62.5318ZM471.466 62.3385C469.07 60.0235 466.622 57.7085 464.123 55.5383C463.868 55.2971 463.46 55.2971 463.205 55.5383C463.001 55.7794 463.001 56.1652 463.256 56.4064C465.755 58.5767 468.203 60.8916 470.548 63.1584C470.65 63.2548 470.803 63.3513 471.007 63.3513C471.16 63.3513 471.313 63.303 471.415 63.1584C471.67 62.9172 471.67 62.5314 471.466 62.3385ZM203.054 49.5785C202.78 49.326 202.34 49.2755 202.066 49.528C200.09 51.0936 198.114 52.6592 196.193 54.2752C195.699 54.6288 195.26 55.0328 194.821 55.4368C194.491 55.6893 194.107 55.9418 193.778 56.2448C193.504 56.4923 193.504 56.9014 193.723 57.1539C193.888 57.2549 194.052 57.3559 194.272 57.3559C194.437 57.3559 194.601 57.3054 194.711 57.2044C195.315 56.6994 195.919 56.1943 196.522 55.6893L198.498 54.0227C199.98 52.8056 201.462 51.6491 202.944 50.4876C203.219 50.2351 203.274 49.8311 203.054 49.5785ZM456.413 49.2002C453.698 46.8781 450.876 44.6615 448.107 42.4977C447.787 42.2866 447.361 42.3393 447.148 42.6032C446.935 42.9199 446.989 43.3421 447.255 43.5479C450.077 45.6642 452.846 47.9336 455.561 50.2029C455.668 50.3085 455.828 50.3613 455.987 50.3613C456.147 50.3613 456.36 50.2557 456.467 50.0974C456.733 49.8335 456.68 49.4113 456.413 49.2002ZM220.171 36.6036C219.962 36.3671 219.543 36.2725 219.281 36.509C216.508 38.3062 213.735 40.2925 210.909 42.2789C210.648 42.5153 210.595 42.8464 210.805 43.1302C210.962 43.2721 211.118 43.3666 211.328 43.3666C211.485 43.3666 211.589 43.3193 211.746 43.2248C214.52 41.1911 217.293 39.2521 220.066 37.4549C220.328 37.261 220.38 36.8873 220.171 36.6036ZM439.231 37.236C436.175 35.2248 433.064 33.3168 429.897 31.4603C429.619 31.3056 429.175 31.3572 428.952 31.6666C428.73 31.976 428.841 32.3886 429.175 32.5433C432.286 34.3997 435.397 36.3078 438.453 38.2673C438.564 38.3705 438.731 38.3705 438.842 38.3705C439.064 38.3705 439.286 38.3189 439.398 38.1126C439.62 37.8032 439.564 37.4423 439.231 37.236ZM238.39 25.6641C238.17 25.402 237.729 25.2971 237.453 25.4544C234.312 27.2894 231.17 29.1769 228.084 31.1692C227.753 31.3789 227.698 31.7984 227.918 32.1129C228.029 32.2702 228.249 32.3751 228.47 32.3751C228.635 32.3751 228.745 32.3227 228.855 32.2702C231.942 30.2727 235.028 28.3904 238.17 26.6078C238.5 26.3981 238.555 25.9787 238.39 25.6641ZM421.029 26.232C417.91 24.5865 414.737 22.9409 411.618 21.44C411.3 21.2954 410.877 21.44 410.719 21.7442C410.56 22.0434 410.719 22.3924 411.036 22.5869C414.156 24.0878 417.275 25.6337 420.342 27.2792C420.448 27.3789 420.553 27.3789 420.659 27.3789C420.924 27.3789 421.135 27.2792 421.241 27.0798C421.452 26.7806 421.346 26.3816 421.029 26.232ZM256.599 15.7669C256.441 15.4062 256.073 15.3031 255.705 15.4577C252.606 16.9005 249.401 18.4928 246.301 20.1469C245.986 20.353 245.881 20.7137 246.039 21.0229C246.144 21.2805 246.406 21.3836 246.617 21.3836C246.722 21.3836 246.827 21.332 246.932 21.2805C250.031 19.6316 253.184 18.0857 256.283 16.5914C256.599 16.4368 256.756 16.0761 256.599 15.7669ZM401.645 17.2286C398.233 15.9268 394.765 14.6249 391.297 13.4195C390.962 13.323 390.514 13.4677 390.402 13.757C390.235 14.0897 390.402 14.432 390.794 14.5767C394.262 15.7339 397.73 17.0358 401.086 18.3376C401.197 18.3859 401.253 18.3859 401.365 18.3859C401.645 18.3859 401.925 18.2412 402.036 18.0483C402.204 17.706 402.036 17.3733 401.645 17.2286ZM276.095 8.55862C272.619 9.60782 269.087 10.8069 265.666 12.0559C265.28 12.2058 265.114 12.5555 265.28 12.8503C265.39 13.1051 265.666 13.255 265.887 13.255C265.997 13.255 266.107 13.255 266.163 13.205C269.584 11.956 273.06 10.7569 276.537 9.70774C276.868 9.60782 277.089 9.25808 276.923 8.95831C276.813 8.60858 276.426 8.4587 276.095 8.55862ZM381.316 9.80533C377.848 8.70617 374.381 7.70694 370.913 6.80763C370.534 6.70771 370.155 6.90756 370.047 7.25729C369.938 7.55706 370.155 7.90679 370.534 8.00671C373.948 8.90602 377.469 9.90525 380.882 11.0044H381.099C381.37 11.0044 381.641 10.8545 381.749 10.6047C381.858 10.25 381.695 9.90525 381.316 9.80533ZM296.492 3.15078C292.973 3.79528 289.454 4.5497 286.042 5.44901C285.669 5.49897 285.455 5.8487 285.562 6.19843C285.615 6.44824 285.882 6.64809 286.202 6.64809H286.362C289.774 5.79874 293.293 5.04432 296.758 4.39982C297.078 4.34986 297.345 4.00012 297.291 3.65039C297.185 3.35062 296.865 3.10082 296.492 3.15078ZM360.929 4.19997C357.451 3.50051 353.921 2.85101 350.497 2.35139C350.128 2.30143 349.759 2.55124 349.707 2.85101C349.654 3.20074 349.917 3.55047 350.286 3.60043C353.711 4.10005 357.188 4.69959 360.665 5.39905C360.718 5.44901 360.771 5.44901 360.771 5.44901C361.087 5.44901 361.35 5.24917 361.455 4.9494C361.508 4.59967 361.297 4.2999 360.929 4.19997ZM318.054 0.824368H318.002C314.503 1.02421 310.951 1.32398 307.504 1.72368C307.139 1.77364 306.878 2.07341 306.93 2.42314C306.982 2.72291 307.243 2.97272 307.609 2.97272H307.661C311.108 2.57302 314.607 2.27325 318.106 2.07341C318.42 2.07341 318.733 1.77364 318.681 1.41891C318.681 1.12414 318.368 0.824368 318.054 0.824368ZM339.45 0.549577C336.015 0.249808 332.476 0.0499616 328.988 0C328.624 0 328.311 0.249808 328.311 0.599539C328.311 0.94927 328.572 1.24904 328.936 1.24904C332.423 1.299 335.911 1.49885 339.346 1.79862H339.398C339.763 1.79862 340.023 1.54881 340.075 1.19908C340.075 0.84435 339.815 0.549577 339.45 0.549577Z" fill="#D8D5DB"/>
<path fill-rule="evenodd" clip-rule="evenodd" d="M531.401 134.658L524.465 145.974L523.558 147.426L513.522 163.699L511.34 167.304L446.994 271.853L436.323 289.177L425.652 271.853L387.503 209.865L381.634 200.351L368.557 179.071L337.936 129.3H534.709L531.401 134.658ZM333.659 127.302L368.935 184.357L378.985 200.63L384.87 210.114L423.087 271.911L436.831 294.174L450.623 271.911L514.392 168.733L516.637 165.139L534.069 136.986L538.88 129.149L539.308 128.5L540.056 127.302H333.659Z" fill="white"/>
<path fill-rule="evenodd" clip-rule="evenodd" d="M366.765 382.093C366.925 382.643 366.658 383.448 366.069 384.443C364.731 386.792 361.526 390.142 358.154 392.891C357.453 393.446 356.757 393.991 356.062 394.441C354.028 395.99 352.048 397.195 350.496 397.64C345.038 399.34 321.438 396.44 315.712 393.541C315.343 393.341 315.07 393.141 314.802 392.891C312.453 393.041 308.969 393.091 304.742 392.891C302.815 392.796 300.728 392.641 298.48 392.341C293.182 391.791 287.135 390.642 280.607 388.692C277.396 387.797 274.024 386.642 270.599 385.243C267.389 383.893 264.071 382.343 260.753 380.544C259.95 380.144 259.361 379.644 258.666 379.249C259.308 383.848 259.95 388.392 260.646 392.891C260.86 394.141 261.074 395.391 261.234 396.59C261.823 400.14 262.412 403.644 263.054 407.088C265.569 420.635 268.459 433.383 271.937 444.781C272.258 445.98 272.633 447.185 273.008 448.33C271.884 448.48 270.76 448.635 269.69 448.78C269.957 449.929 270.171 451.134 270.385 452.329C273.061 465.826 275.095 482.473 276.593 499.569C213.767 522.815 155.276 528.263 114.926 505.218C102.083 497.92 91.1124 487.722 82.3896 474.274C80.9982 472.125 79.6068 469.975 78.2155 467.826C78.483 460.777 78.8041 454.828 79.0717 450.779C78.0549 450.679 77.5198 450.679 77.5198 450.679C77.5198 442.531 77.8944 431.833 78.483 419.486C78.5365 418.986 78.5365 418.486 78.5365 417.936C78.7506 414.437 78.9647 410.837 79.2322 407.088C79.4463 402.489 79.7674 397.795 80.0885 392.891C80.5701 385.793 81.1052 378.394 81.6939 370.896C68.6364 367.646 57.7195 364.147 51.5653 360.648C43.5382 356.099 40.4879 349.75 40.7019 343.501C40.5949 342.252 40.5949 340.902 40.916 339.502C43.9663 330.054 54.4551 301.91 66.3353 273.965L53.1708 269.766C53.1708 269.766 91.6475 205.729 114.231 191.632C114.338 191.582 114.391 191.532 114.498 191.482C122.472 184.584 133.977 180.135 151.209 178.335C151.316 164.988 150.192 142.442 149.015 125.196C143.396 123.996 139.596 119.647 137.456 116.048C137.188 115.648 136.921 115.248 136.76 114.898C135.904 113.348 135.422 112.049 135.208 111.399C134.031 107 135.155 103.35 137.456 101.001C136.974 97.3516 136.278 91.3528 136.011 85.0541C135.476 73.4564 136.171 60.759 141.79 59.6093C141.737 59.4593 141.63 59.3593 141.576 59.2593C140.132 55.1102 142.754 50.5111 142.861 50.3612L145.215 51.5109C145.215 51.5609 143.075 55.3601 144.092 58.4595C148.587 53.8105 163.731 52.3108 179.625 53.1606C180.535 53.1606 181.498 53.2606 182.408 53.3106C185.672 53.5605 188.937 53.8604 192.147 54.3104C193.218 54.4103 194.234 54.5603 195.251 54.7603C195.786 54.8103 196.375 54.9102 196.91 55.0102C200.389 55.5601 203.707 56.26 206.757 57.0598C212.001 58.4095 216.389 60.1092 219.333 62.0588C220.296 62.6586 221.045 63.3085 221.687 63.9584C224.363 66.8578 224.791 68.9074 223.614 70.2571C222.918 71.0069 221.794 71.5568 220.296 71.9567C220.938 76.1559 221.206 79.8051 221.313 83.1545C221.634 83.9543 221.955 84.8041 222.276 85.6539C222.544 86.4038 222.811 87.2036 223.079 88.0035C223.132 88.0535 223.186 88.0535 223.239 88.1034C223.56 88.3534 223.881 88.5534 224.202 88.8033C225.38 89.8031 226.45 91.0528 227.253 92.7025L224.845 93.7523C224.791 93.6523 224.738 93.6023 224.684 93.5023C225.326 96.0518 225.915 98.7013 226.343 101.501C226.985 105.65 227.681 109.799 228.377 113.848C228.591 115.398 228.805 116.948 229.019 118.447C229.5 121.547 229.929 124.596 230.196 127.495C230.303 128.395 230.41 129.245 230.41 130.095C231.534 143.292 230.196 154.24 221.741 159.739C220.135 160.839 218.209 161.738 216.015 162.338C213.232 163.188 209.914 163.638 206.061 163.688C206.168 167.187 206.382 170.587 206.703 173.786C206.864 175.036 207.024 176.285 207.238 177.435C207.399 178.635 207.613 179.835 207.881 180.934C222.169 184.134 232.925 189.533 239.722 196.881C240.043 197.181 240.417 197.481 240.738 197.831C244.538 201.28 248.23 206.584 251.709 212.928C256.097 220.876 260.218 230.529 263.857 240.172C264.124 240.922 264.392 241.722 264.713 242.472C264.98 243.322 265.301 244.122 265.569 244.971C267.067 249.121 268.459 253.27 269.743 257.224C270.706 260.168 271.563 263.023 272.419 265.717C276.54 279.269 278.948 289.267 278.948 289.267L272.419 290.712L269.743 291.312L267.817 291.767C268.459 294.161 269.101 296.511 269.743 298.91C269.797 299.16 269.904 299.46 269.957 299.715C270.813 302.815 271.616 305.964 272.419 309.008C276.54 324.655 280.018 339.152 281.57 348.75C286.172 352.299 289.543 357.848 294.52 363.002C299.551 368.196 306.347 372.895 317.853 374.745C317.906 374.745 317.906 374.795 317.96 374.795C322.46 371.495 330.803 367.601 335.887 366.152C336.583 365.997 337.177 365.847 337.706 365.747C338.134 365.647 338.514 365.597 338.83 365.597C340.976 365.197 341.292 365.347 342.576 366.097C343.058 366.447 343.7 366.896 344.717 367.446C348.891 369.746 353.279 371.895 357.079 373.995C361.788 376.549 365.48 378.994 366.551 381.593C366.658 381.748 366.711 381.943 366.765 382.093Z" fill="#D1CDD3"/>
<path fill-rule="evenodd" clip-rule="evenodd" d="M382.232 368.303C378.422 366.164 379.534 365.893 375.227 366.635C370.578 367.441 360.576 371.939 355.516 375.686C355.462 375.681 355.425 375.656 355.371 375.646C332.46 371.964 328.431 356.772 319.166 349.579C314.031 318.043 288.159 232.221 288.159 232.221L249.174 245.81C254.854 281.969 277.713 350.741 283.644 366.259C284.616 368.137 285.872 369.63 287.277 370.842C289.222 374.694 292.717 378.41 298.364 381.471C321.736 394.138 343.857 394.314 352.32 393.808C352.593 394.063 352.903 394.284 353.256 394.469C358.989 397.404 382.51 400.279 388.003 398.591C393.586 396.873 405.021 386.024 404.198 383.019C402.862 378.11 391.78 373.662 382.232 368.303Z" fill="#FFAD69"/>
<path fill-rule="evenodd" clip-rule="evenodd" d="M253.717 208.536C242.62 231.716 246.698 305.165 246.698 305.165L317.617 289.455C317.617 289.455 282.979 147.388 253.717 208.536Z" fill="#377ADB"/>
<path fill-rule="evenodd" clip-rule="evenodd" d="M313.34 484.338C301.16 490.048 288.97 495.147 276.946 499.55C214.205 522.817 155.798 528.271 115.497 505.204C116.085 483.538 116.887 460.971 117.528 450.713C117.635 449.512 117.742 448.462 117.795 447.611L139.386 447.211H140.348L140.401 447.161L257.225 445.014H257.338L264.814 444.859L272.296 444.709L306.82 444.058C307.199 445.559 307.568 447.161 307.888 448.767C310.133 458.974 311.897 471.229 313.34 484.338Z" fill="#232323"/>
<path fill-rule="evenodd" clip-rule="evenodd" d="M201.808 177.386C159.727 178.678 145.502 191.9 138.247 214.767C130.006 240.733 115.497 397.561 115.497 449.965C115.497 449.965 241.435 458.274 311.201 447.626C289.324 378.843 286.962 255.171 286.522 218.324C286.195 190.683 255.151 175.745 201.808 177.386Z" fill="#4D8DFF"/>
<mask id="mask1_0_273" style="mask-type:alpha" maskUnits="userSpaceOnUse" x="0" y="0" width="570" height="520">
<path fill-rule="evenodd" clip-rule="evenodd" d="M0 520H570V0.399597H0V520Z" fill="white"/>
</mask>
<g mask="url(#mask1_0_273)">
<path fill-rule="evenodd" clip-rule="evenodd" d="M207.467 313.159H268.424V244.212H207.467V313.159ZM205.328 316.157H271.632V242.214H205.328V316.157Z" fill="white"/>
<path fill-rule="evenodd" clip-rule="evenodd" d="M239.139 113.576C243.295 110.674 264.994 113.307 258.747 72.4188C256.467 57.5006 241.333 67.4577 230.618 69.4481C219.897 71.4385 226.714 114.312 226.714 114.312L239.139 113.576Z" fill="#232323"/>
<path fill-rule="evenodd" clip-rule="evenodd" d="M185.009 103.32C186.814 114.24 190.424 173.316 188.921 187.038C187.418 200.76 258.734 204.676 249.401 189.56C240.075 174.439 246.697 124.318 246.697 124.318L185.009 103.32Z" fill="#FFAD69"/>
<path fill-rule="evenodd" clip-rule="evenodd" d="M189.31 105.319L245.966 124.615C245.966 124.615 242.141 153.749 244.449 174.266C201.248 171.158 190.16 120.406 189.434 110.633C189.31 108.792 189.251 107.015 189.31 105.319Z" fill="#D88344"/>
<path fill-rule="evenodd" clip-rule="evenodd" d="M263.961 101.949C269.196 135.624 278.084 169.204 234.349 163.672C190.609 158.146 183.818 105.809 183.942 95.9422C184.623 43.2649 253.669 35.731 263.961 101.949Z" fill="#FFAD69"/>
<path fill-rule="evenodd" clip-rule="evenodd" d="M259.444 63.8806C249.131 52.8098 191.148 48.6327 181.55 58.4371C180.497 55.3577 182.646 51.573 182.668 51.5383L180.303 50.3612C180.19 50.5499 177.573 55.1143 178.997 59.2168C179.046 59.346 179.164 59.4354 179.212 59.5645C168.603 61.725 175.375 104.32 175.375 104.32L187.795 103.585C191.949 100.694 206.368 80.3403 209.544 68.0576C232.251 71.6088 272.552 77.9513 259.444 63.8806Z" fill="#232323"/>
<path fill-rule="evenodd" clip-rule="evenodd" d="M254.358 369.082C249.93 369.313 232.748 372.1 226.717 370.794C206.447 366.375 154.211 344.505 126.093 332.281C143.392 297.23 168.857 235.195 168.857 235.195L128.816 224.227C110.235 256.356 84.5725 324.21 79.4046 339.956C79.1151 341.367 79.0937 342.693 79.1848 343.964C79.0025 350.194 82.0583 356.553 90.0835 361.117C112.342 373.771 196.31 386.05 219.566 388.446C219.994 389.257 220.563 389.993 221.485 390.478C227.173 393.46 253.055 395.692 258.379 396.572C265.053 397.673 285.312 399.274 284.438 396.742C283.007 392.594 275.496 367.977 254.358 369.082Z" fill="#FFAD69"/>
<path fill-rule="evenodd" clip-rule="evenodd" d="M152.117 191.61C129.503 205.629 90.9005 269.396 90.9005 269.396L159.642 291.176C159.642 291.176 211.771 154.631 152.117 191.61Z" fill="#4D8DFF"/>
<path fill-rule="evenodd" clip-rule="evenodd" d="M227.013 100.144C226.874 101.798 227.82 103.214 229.13 103.315C230.446 103.411 231.622 102.156 231.767 100.502C231.911 98.8529 230.959 97.431 229.644 97.3302C228.334 97.2344 227.152 98.4899 227.013 100.144Z" fill="#232323"/>
<path fill-rule="evenodd" clip-rule="evenodd" d="M254.818 101.143C254.679 102.797 255.626 104.214 256.936 104.315C258.251 104.41 259.428 103.155 259.572 101.501C259.711 99.8522 258.759 98.4302 257.449 98.3294C256.139 98.2336 254.957 99.4891 254.818 101.143Z" fill="#232323"/>
<path fill-rule="evenodd" clip-rule="evenodd" d="M220.372 91.3296L218.161 89.9048C222.826 82.8379 230.657 84.4768 230.994 84.5498L230.419 87.0968C230.166 87.0446 224.019 85.8025 220.372 91.3296Z" fill="#232323"/>
<path fill-rule="evenodd" clip-rule="evenodd" d="M262.845 94.3273C260.083 88.5203 253.88 88.8382 253.635 88.8634L253.452 86.3458C253.786 86.3257 261.691 85.8564 265.216 93.2729L262.845 94.3273Z" fill="#232323"/>
<path fill-rule="evenodd" clip-rule="evenodd" d="M236.63 131.299C232.144 131.299 223.518 130.087 218.161 121.611L220.433 120.307C226.926 130.582 238.573 128.708 239.067 128.622L239.55 131.102C239.507 131.112 238.387 131.299 236.63 131.299Z" fill="#232323"/>
<path fill-rule="evenodd" clip-rule="evenodd" d="M256.66 120.307L243.827 120.14L243.864 117.606L253.119 117.727L247.406 99.039L249.937 98.3243L256.66 120.307Z" fill="#D88344"/>
<path fill-rule="evenodd" clip-rule="evenodd" d="M194.609 108.105C198.478 116.525 203.33 124.67 191.171 126.182C179.012 127.698 173.355 114.526 172.666 111.945C168.987 98.1744 186.991 91.5505 194.609 108.105Z" fill="#FFAD69"/>
<path fill-rule="evenodd" clip-rule="evenodd" d="M530.319 407.087H18.2926C14.1135 407.087 10.6942 403.939 10.6942 400.092C10.6942 396.245 14.1135 393.098 18.2926 393.098H530.319C534.498 393.098 537.917 396.245 537.917 400.092C537.917 403.939 534.498 407.087 530.319 407.087Z" fill="white"/>
<path fill-rule="evenodd" clip-rule="evenodd" d="M208.422 407.087H15.0862C10.9061 407.087 7.48593 403.939 7.48593 400.092C7.48593 396.245 10.9061 393.098 15.0862 393.098H208.422C212.602 393.098 216.023 396.245 216.023 400.092C216.023 403.939 212.602 407.087 208.422 407.087Z" fill="#D8D5DB"/>
<path fill-rule="evenodd" clip-rule="evenodd" d="M504.313 382.106H346.003C339.96 382.106 335.949 377.49 337.048 371.801L354.313 282.495C355.417 276.801 361.209 272.191 367.263 272.191H525.568C531.616 272.191 535.627 276.801 534.528 282.495L517.263 371.801C516.159 377.49 510.367 382.106 504.313 382.106Z" fill="#2B2B2B"/>
<path fill-rule="evenodd" clip-rule="evenodd" d="M508.591 382.106H350.281C344.238 382.106 340.227 377.49 341.326 371.801L358.59 282.495C359.689 276.801 365.487 272.191 371.535 272.191H529.84C535.894 272.191 539.904 276.801 538.806 282.495L521.536 371.801C520.437 377.49 514.639 382.106 508.591 382.106Z" fill="#232323"/>
<path fill-rule="evenodd" clip-rule="evenodd" d="M456.131 345.134H418.143L425.06 309.162H463.058L456.131 345.134ZM422.819 306.164L414.934 347.133H458.328L466.266 306.164H422.819Z" fill="white"/>
<path fill-rule="evenodd" clip-rule="evenodd" d="M318.687 384.104C318.687 388.5 322.742 392.098 327.701 392.098H493.612C498.571 392.098 502.627 388.5 502.627 384.104H318.687Z" fill="#232323"/>
<path fill-rule="evenodd" clip-rule="evenodd" d="M270.563 384.104C270.563 388.5 274.62 392.098 279.588 392.098H344.947C349.915 392.098 353.977 388.5 353.977 384.104H270.563Z" fill="#2B2B2B"/>
<path fill-rule="evenodd" clip-rule="evenodd" d="M452.896 108.317C447.287 108.317 442.739 112.793 442.739 118.309H463.058C463.058 112.793 458.511 108.317 452.896 108.317Z" fill="#377ADB"/>
<path fill-rule="evenodd" clip-rule="evenodd" d="M453.433 108.317V200.748C453.433 206.013 448.852 210.238 443.203 210.238H368.949V117.857C368.949 112.587 373.525 108.317 379.137 108.317H453.433Z" fill="#4D8DFF"/>
<path fill-rule="evenodd" clip-rule="evenodd" d="M432.556 201.256L358.255 201.245C358.255 206.764 362.832 211.237 368.476 211.237L442.739 211.222C437.095 211.222 432.556 206.785 432.556 201.256Z" fill="#6EA9FF"/>
<path fill-rule="evenodd" clip-rule="evenodd" d="M379.643 124.054H441.67V121.556H379.643V124.054Z" fill="white"/>
<path fill-rule="evenodd" clip-rule="evenodd" d="M379.643 133.048H441.67V130.549H379.643V133.048Z" fill="white"/>
<path fill-rule="evenodd" clip-rule="evenodd" d="M379.643 143.04H441.67V140.542H379.643V143.04Z" fill="white"/>
<path fill-rule="evenodd" clip-rule="evenodd" d="M379.643 152.033H441.67V149.535H379.643V152.033Z" fill="white"/>
<path fill-rule="evenodd" clip-rule="evenodd" d="M379.643 162.025H441.67V159.527H379.643V162.025Z" fill="white"/>
<path fill-rule="evenodd" clip-rule="evenodd" d="M379.643 171.018H441.67V168.52H379.643V171.018Z" fill="white"/>
<path fill-rule="evenodd" clip-rule="evenodd" d="M379.643 181.011H441.67V178.513H379.643V181.011Z" fill="white"/>
<path fill-rule="evenodd" clip-rule="evenodd" d="M379.643 190.004H441.67V187.506H379.643V190.004Z" fill="white"/>
<path fill-rule="evenodd" clip-rule="evenodd" d="M556.144 158.322C541.947 171.587 518.921 171.587 504.719 158.322C490.522 145.053 490.522 123.544 504.719 110.275C518.921 97.0054 541.947 97.0054 556.144 110.275C570.341 123.544 570.341 145.053 556.144 158.322Z" fill="#FFC84D"/>
<path fill-rule="evenodd" clip-rule="evenodd" d="M530.451 134.297L559.306 161.198C543.479 175.957 517.418 175.957 501.591 161.198C494.812 154.873 490.634 146.522 489.794 137.614L530.451 134.297Z" fill="#232323"/>
<path fill-rule="evenodd" clip-rule="evenodd" d="M530.431 134.822L490.068 139.293C489.535 134.964 489.78 130.579 490.792 126.321C491.799 122.068 493.557 118.008 495.998 114.312L530.431 134.822Z" fill="white"/>
<path fill-rule="evenodd" clip-rule="evenodd" d="M353.218 85.3343H322.654C318.71 85.3343 315.478 82.3192 315.478 78.6286V50.0722C315.478 46.3866 318.71 43.3665 322.654 43.3665H353.218C357.162 43.3665 360.394 46.3866 360.394 50.0722V78.6286C360.394 82.3192 357.162 85.3343 353.218 85.3343Z" fill="#232323"/>
<path fill-rule="evenodd" clip-rule="evenodd" d="M343.593 93.3281H313.029C309.085 93.3281 305.854 90.313 305.854 86.6224V58.0661C305.854 54.3804 309.085 51.3604 313.029 51.3604H343.593C347.537 51.3604 350.769 54.3804 350.769 58.0661V86.6224C350.769 90.313 347.537 93.3281 343.593 93.3281Z" fill="#FF4E4A"/>
</g>
</svg>
