<svg width="562" height="573" viewBox="0 0 562 573" fill="none" xmlns="http://www.w3.org/2000/svg">
<mask id="mask0_0_402" style="mask-type:alpha" maskUnits="userSpaceOnUse" x="0" y="62" width="562" height="511">
<path fill-rule="evenodd" clip-rule="evenodd" d="M0 62H562V573H0V62Z" fill="white"/>
</mask>
<g mask="url(#mask0_0_402)">
<path fill-rule="evenodd" clip-rule="evenodd" d="M493.52 549.87C478.978 557.97 462.057 563.82 443.406 567.62C431.026 570.119 417.835 571.769 404.104 572.469C353.611 575.319 295.55 566.57 239.597 549.07C227.055 545.17 214.621 540.82 202.403 536.02C111.419 500.621 32.3281 442.822 10.1632 375.823C-30.3283 253.525 56.6014 165.577 157.262 84.8782C198.078 52.1288 251.274 56.8287 306.308 84.4782C319.174 90.9281 332.095 98.628 345.015 107.378C393.508 140.327 441.514 188.276 482.059 241.575C561.637 346.224 607.697 486.421 493.52 549.87Z" fill="#FDE6D6"/>
</g>
<path fill-rule="evenodd" clip-rule="evenodd" d="M450.596 156.249C441.216 138.693 437.781 116.475 456.59 109.321C477.597 101.335 511.067 114.249 520.809 143.551C527.036 162.275 524.897 188.414 507.692 198.46C492.971 207.063 462.104 177.781 450.596 156.249Z" fill="#E8E5EA"/>
<path fill-rule="evenodd" clip-rule="evenodd" d="M153.332 66.3125C153.316 66.3125 153.3 66.3125 153.285 66.3125C149.718 66.0825 146.142 65.9575 142.666 65.9375C142.293 65.9375 142 65.6575 142 65.3125C142.005 64.9675 142.298 64.6875 142.666 64.6875H142.672C146.179 64.7075 149.782 64.8325 153.38 65.0625C153.748 65.0875 154.02 65.3875 153.999 65.7325C153.972 66.0625 153.679 66.3125 153.332 66.3125ZM120.671 67.6494C120.344 67.6494 120.055 67.4244 120.007 67.1144C119.954 66.7744 120.205 66.4544 120.575 66.4044C124.033 65.9344 127.641 65.5844 131.286 65.3594C131.704 65.2944 131.977 65.5994 131.998 65.9444C132.025 66.2844 131.747 66.5844 131.377 66.6044C127.764 66.8294 124.193 67.1794 120.767 67.6394C120.735 67.6444 120.703 67.6494 120.671 67.6494ZM174.328 68.8763C174.285 68.8763 174.247 68.8713 174.21 68.8663C170.676 68.2763 167.104 67.7763 163.592 67.3663C163.221 67.3213 162.957 67.0113 163.006 66.6663C163.054 66.3263 163.361 66.0963 163.759 66.1263C167.298 66.5363 170.891 67.0463 174.446 67.6363C174.807 67.6963 175.054 68.0213 174.99 68.3613C174.931 68.6613 174.645 68.8763 174.328 68.8763ZM99.6873 72.446C99.3956 72.446 99.1259 72.276 99.0324 72.006C98.9168 71.676 99.1204 71.326 99.4837 71.226C102.968 70.226 106.556 69.336 110.156 68.571C110.519 68.491 110.899 68.701 110.981 69.036C111.069 69.371 110.838 69.706 110.469 69.786C106.903 70.546 103.342 71.431 99.8965 72.416C99.8249 72.436 99.7589 72.446 99.6873 72.446ZM195.318 73.3284C195.258 73.3284 195.198 73.3234 195.138 73.3084C191.584 72.4284 188.019 71.6234 184.536 70.9084C184.164 70.8334 183.935 70.4984 184.017 70.1584C184.099 69.8234 184.443 69.6084 184.831 69.6884C188.336 70.4084 191.923 71.2184 195.498 72.0984C195.859 72.1934 196.078 72.5334 195.974 72.8684C195.892 73.1434 195.619 73.3284 195.318 73.3284ZM216.302 79.7007C216.224 79.7007 216.146 79.6907 216.068 79.6657C212.578 78.5607 209.014 77.5057 205.49 76.5207C205.122 76.4157 204.916 76.0657 205.033 75.7407C205.144 75.4107 205.54 75.2207 205.903 75.3307C209.444 76.3157 213.024 77.3807 216.531 78.4857C216.894 78.6007 217.089 78.9607 216.96 79.2857C216.86 79.5407 216.592 79.7007 216.302 79.7007ZM79.6617 79C79.4225 79 79.1887 78.8844 79.0718 78.6809C78.907 78.3987 79.0346 78.0518 79.3641 77.9038C82.4945 76.5163 85.7683 75.2166 89.0901 74.0464C89.4196 73.9169 89.8129 74.0695 89.9511 74.3656C90.0892 74.6616 89.9245 74.9992 89.5843 75.1195C86.2998 76.2758 83.0631 77.5616 79.9647 78.9352C79.869 78.9769 79.7627 79 79.6617 79ZM236.345 87C236.261 87 236.178 86.9851 236.089 86.9502C232.894 85.655 229.641 84.3896 226.415 83.199C226.081 83.0745 225.914 82.7108 226.044 82.392C226.18 82.0732 226.556 81.9237 226.89 82.0383C230.127 83.2339 233.395 84.5042 236.601 85.8044C236.935 85.9389 237.086 86.3026 236.95 86.6214C236.841 86.8555 236.601 87 236.345 87ZM61.6609 90C61.4598 90 61.2694 89.9196 61.1371 89.7589C60.9149 89.4827 60.9678 89.086 61.2588 88.875C64.0363 86.8461 66.9724 84.8975 69.9827 83.0946C70.2948 82.9138 70.7022 82.9992 70.8979 83.2905C71.0937 83.5868 70.9985 83.9735 70.6916 84.1543C67.7131 85.9421 64.814 87.8656 62.0629 89.8744C61.9465 89.9598 61.8037 90 61.6609 90ZM256.329 95C256.232 95 256.131 94.9784 256.035 94.9299C252.819 93.328 249.576 91.7693 246.387 90.2915C246.056 90.1351 245.906 89.7306 246.061 89.3962C246.216 89.0564 246.611 88.9054 246.948 89.0618C250.143 90.545 253.401 92.1145 256.628 93.7164C256.959 93.8836 257.093 94.2881 256.932 94.6225C256.815 94.8598 256.574 95 256.329 95ZM45.683 104C45.519 104 45.3605 103.952 45.2292 103.848C44.9449 103.634 44.9231 103.258 45.1746 103.011C47.5966 100.638 50.1772 98.3316 52.8507 96.1632C53.1241 95.9349 53.556 95.9492 53.813 96.1869C54.0754 96.4295 54.059 96.8051 53.7802 97.0286C51.1449 99.1781 48.5917 101.456 46.1915 103.8C46.0603 103.933 45.8744 104 45.683 104ZM275.316 104C275.201 104 275.092 103.975 274.983 103.92C271.805 102.304 268.567 100.707 265.367 99.1749C265.034 99.0157 264.903 98.6377 265.078 98.3342C265.258 98.0308 265.674 97.9114 266.002 98.0706C269.218 99.6126 272.461 101.214 275.65 102.836C275.978 103.005 276.098 103.383 275.912 103.682C275.787 103.886 275.557 104 275.316 104ZM294.298 114C294.174 114 294.045 113.972 293.928 113.912C290.732 112.257 287.509 110.636 284.347 109.083C284.011 108.921 283.899 108.563 284.1 108.289C284.291 108.005 284.723 107.917 285.059 108.084C288.226 109.636 291.467 111.268 294.673 112.927C294.998 113.098 295.099 113.456 294.892 113.73C294.763 113.902 294.533 114 294.298 114ZM32.641 120C32.5233 120 32.4108 119.969 32.3033 119.901C32.0065 119.712 31.9093 119.309 32.0935 119C33.8947 116 35.8341 113.057 37.8451 110.262C38.06 109.974 38.4591 109.916 38.7406 110.125C39.0271 110.34 39.0834 110.749 38.8736 111.037C36.8831 113.806 34.9693 116.712 33.1834 119.686C33.0657 119.89 32.8559 120 32.641 120ZM311.346 126C311.216 126 311.085 125.959 310.975 125.888C308.079 123.93 305.156 122.009 302.296 120.169C301.993 119.974 301.909 119.581 302.108 119.284C302.306 118.998 302.709 118.911 303.012 119.101C305.883 120.945 308.811 122.872 311.712 124.83C312.016 125.034 312.089 125.433 311.885 125.719C311.754 125.898 311.55 126 311.346 126ZM329.326 137C329.186 137 329.047 136.961 328.923 136.879C326.037 134.912 323.131 132.964 320.278 131.099C319.976 130.9 319.911 130.521 320.127 130.254C320.348 129.977 320.767 129.919 321.069 130.118C323.927 131.983 326.845 133.935 329.736 135.912C330.032 136.111 330.085 136.495 329.865 136.762C329.73 136.917 329.531 137 329.326 137ZM22.6861 138C22.5982 138 22.5103 137.985 22.4224 137.956C22.0709 137.826 21.9062 137.468 22.0545 137.163C23.4934 134.142 25.0588 131.17 26.701 128.334C26.8712 128.034 27.2831 127.913 27.6237 128.068C27.9642 128.218 28.096 128.585 27.9257 128.881C26.2945 131.698 24.7457 134.641 23.3177 137.632C23.2078 137.864 22.9552 138 22.6861 138ZM346.306 150C346.151 150 345.996 149.952 345.863 149.852C343.075 147.636 340.182 145.389 337.261 143.174C336.962 142.946 336.913 142.534 337.15 142.248C337.394 141.963 337.825 141.92 338.118 142.137C341.05 144.358 343.955 146.611 346.748 148.831C347.042 149.064 347.086 149.482 346.842 149.762C346.704 149.921 346.505 150 346.306 150ZM16.0179 157C15.9579 157 15.9029 156.995 15.8479 156.98C15.5179 156.883 15.3179 156.532 15.4129 156.192C16.3229 152.881 17.3229 149.597 18.3929 146.434C18.5079 146.104 18.8679 145.915 19.1879 146.037C19.5129 146.154 19.6879 146.515 19.5779 146.846C18.5129 149.988 17.5179 153.247 16.6179 156.537C16.5429 156.817 16.2879 157 16.0179 157ZM362.359 163C362.199 163 362.051 162.944 361.927 162.834C359.396 160.573 356.802 158.308 354.219 156.103C353.952 155.881 353.926 155.477 354.157 155.215C354.389 154.947 354.794 154.932 355.061 155.154C357.655 157.364 360.248 159.635 362.79 161.9C363.052 162.137 363.072 162.536 362.831 162.793C362.703 162.929 362.533 163 362.359 163ZM10.5523 176C10.5173 176 10.4823 175.995 10.4473 175.99C10.1073 175.935 9.87725 175.613 9.93725 175.275C10.4923 171.975 11.1323 168.684 11.8373 165.488C11.9123 165.156 12.2423 164.947 12.5823 165.012C12.9173 165.086 13.1323 165.419 13.0573 165.751C12.3573 168.928 11.7223 172.203 11.1673 175.479C11.1173 175.782 10.8523 176 10.5523 176ZM378.334 177C378.163 177 377.992 176.942 377.864 176.82C375.338 174.535 372.759 172.254 370.207 170.045C369.94 169.813 369.929 169.429 370.186 169.186C370.437 168.949 370.864 168.934 371.125 169.167C373.688 171.385 376.273 173.671 378.804 175.961C379.065 176.199 379.065 176.583 378.804 176.82C378.676 176.942 378.505 177 378.334 177ZM393.3 192C393.111 192 392.927 191.927 392.788 191.785C390.288 189.199 387.733 186.613 385.189 184.106C384.928 183.849 384.939 183.429 385.212 183.182C385.496 182.936 385.93 182.936 386.197 183.203C388.752 185.716 391.313 188.307 393.818 190.904C394.079 191.171 394.057 191.586 393.767 191.827C393.639 191.942 393.472 192 393.3 192ZM8.00613 196C7.99113 196 7.97613 196 7.95613 196C7.61113 195.971 7.35613 195.676 7.38113 195.343C7.64613 192.036 7.98113 188.735 8.37613 185.537C8.41613 185.203 8.69613 184.977 9.07113 185.002C9.41613 185.041 9.65613 185.345 9.61613 185.684C9.22613 188.867 8.89113 192.149 8.62613 195.436C8.60613 195.755 8.33113 196 8.00613 196ZM407.349 207C407.162 207 406.975 206.919 406.845 206.768C404.685 204.205 402.436 201.606 400.156 199.043C399.923 198.78 399.954 198.382 400.229 198.155C400.499 197.922 400.909 197.958 401.143 198.22C403.428 200.789 405.687 203.397 407.853 205.971C408.081 206.238 408.039 206.637 407.759 206.859C407.64 206.955 407.494 207 407.349 207ZM7.38966 216C7.04466 215.995 6.76466 215.722 6.76466 215.385C6.77966 212.109 6.85466 208.814 6.98466 205.587C6.99966 205.255 7.26466 204.977 7.63466 205.001C7.97966 205.016 8.24966 205.299 8.23466 205.636C8.10466 208.848 8.02966 212.129 8.01466 215.39C8.01466 215.727 7.73466 216 7.38966 216ZM421.314 222C421.099 222 420.89 221.917 420.757 221.752C418.593 219.135 416.368 216.517 414.143 213.982C413.911 213.715 413.966 213.336 414.269 213.127C414.567 212.923 414.996 212.967 415.233 213.239C417.469 215.784 419.7 218.411 421.87 221.038C422.09 221.31 422.024 221.689 421.721 221.883C421.595 221.966 421.451 222 421.314 222ZM7.71957 236C7.38957 236 7.11457 235.746 7.09457 235.424C6.89457 232.114 6.74457 228.813 6.65457 225.63C6.64457 225.293 6.91457 225.01 7.25957 225H7.27957C7.61457 225 7.89457 225.264 7.90457 225.596C7.99457 228.769 8.14457 232.05 8.34457 235.351C8.36457 235.688 8.09957 235.976 7.75457 236H7.71957ZM432.354 239C432.142 239 431.93 238.896 431.805 238.699C429.981 235.813 428.064 232.892 426.11 230.017C425.913 229.721 425.986 229.316 426.281 229.113C426.571 228.91 426.981 228.988 427.183 229.284C429.142 232.17 431.069 235.107 432.899 238.002C433.09 238.309 433.002 238.709 432.702 238.901C432.593 238.969 432.474 239 432.354 239ZM444.288 256C444.038 256 443.794 255.88 443.663 255.67C441.888 252.766 440.017 249.833 438.094 246.944C437.901 246.649 438.015 246.269 438.35 246.088C438.68 245.908 439.124 246.013 439.323 246.314C441.251 249.212 443.134 252.161 444.914 255.079C445.102 255.379 444.971 255.765 444.624 255.925C444.522 255.975 444.402 256 444.288 256ZM10.0115 256C9.69652 256 9.42652 255.77 9.39152 255.456C8.99652 252.156 8.65652 248.857 8.36652 245.67C8.33652 245.332 8.59152 245.033 8.93152 245.003C9.33652 244.969 9.58152 245.224 9.61152 245.557C9.89652 248.739 10.2415 252.024 10.6315 255.319C10.6715 255.652 10.4265 255.956 10.0815 255.995C10.0565 256 10.0365 256 10.0115 256ZM453.309 274C453.044 274 452.79 273.865 452.674 273.638C451.216 270.696 449.665 267.744 448.069 264.87C447.903 264.571 448.047 264.208 448.389 264.063C448.726 263.914 449.14 264.039 449.311 264.339C450.918 267.237 452.475 270.198 453.944 273.155C454.093 273.464 453.933 273.816 453.585 273.952C453.497 273.981 453.403 274 453.309 274ZM13.266 276C12.966 276 12.701 275.783 12.651 275.482C12.086 272.183 11.571 268.894 11.116 265.703C11.066 265.368 11.306 265.052 11.646 265.008C11.966 264.953 12.301 265.19 12.351 265.53C12.806 268.711 13.321 271.991 13.881 275.28C13.941 275.615 13.711 275.931 13.371 275.99C13.336 275.995 13.301 276 13.266 276ZM461.15 293C460.885 293 460.64 292.83 460.555 292.558C459.56 289.362 458.455 286.109 457.265 282.877C457.145 282.543 457.305 282.173 457.63 282.05C457.95 281.906 458.31 282.086 458.435 282.42C459.635 285.673 460.745 288.951 461.745 292.162C461.85 292.502 461.67 292.866 461.34 292.974C461.275 292.995 461.21 293 461.15 293ZM17.4989 296C17.2089 296 16.9539 295.801 16.8889 295.508C16.1889 292.29 15.5139 289.002 14.8889 285.744C14.8189 285.406 15.0439 285.083 15.3839 285.019C15.7139 284.929 16.0489 285.173 16.1139 285.51C16.7389 288.759 17.4089 292.037 18.1089 295.25C18.1839 295.583 17.9689 295.916 17.6289 295.985C17.5889 295.995 17.5439 296 17.4989 296ZM466.604 312C466.314 312 466.049 311.79 465.994 311.49C465.374 308.308 464.634 305.041 463.789 301.779C463.704 301.444 463.904 301.104 464.239 301.02C464.564 300.935 464.909 301.134 464.999 301.469C465.849 304.751 466.599 308.043 467.219 311.256C467.284 311.59 467.064 311.92 466.724 311.985C466.684 311.995 466.644 312 466.604 312ZM21.7162 315C21.4362 315 21.1862 314.809 21.1112 314.529C20.2662 311.289 19.4512 308.034 18.6762 304.775C18.5962 304.434 18.8012 304.098 19.1362 304.017C19.4662 303.937 19.8112 304.143 19.8912 304.479C20.6712 307.733 21.4762 310.978 22.3212 314.213C22.4062 314.549 22.2112 314.89 21.8762 314.98C21.8212 314.99 21.7662 315 21.7162 315ZM468.945 332C468.615 332 468.34 331.745 468.32 331.416C468.15 328.213 467.855 324.937 467.435 321.684C467.39 321.351 467.635 321.042 467.975 321.003C468.35 320.973 468.63 321.199 468.675 321.532C469.095 324.814 469.4 328.12 469.57 331.353C469.59 331.691 469.325 331.98 468.98 332H468.945ZM27.9925 335C27.7275 335 27.4825 334.835 27.3975 334.573L27.2475 334.102C26.2725 331.018 25.3125 327.877 24.4075 324.769C24.3125 324.449 24.5025 324.114 24.8375 324.022C25.1825 323.934 25.5175 324.119 25.6075 324.439C26.5175 327.537 27.4725 330.674 28.4475 333.752L28.5875 334.213C28.6925 334.534 28.5075 334.869 28.1775 334.971C28.1175 334.99 28.0525 335 27.9925 335ZM468.263 352C468.248 352 468.238 352 468.223 352C467.878 351.976 467.618 351.682 467.643 351.344C467.873 348.144 468.033 344.866 468.108 341.597C468.113 341.259 468.358 341.015 468.748 341C469.088 341.005 469.363 341.284 469.358 341.626C469.283 344.915 469.123 348.213 468.888 351.432C468.868 351.755 468.588 352 468.263 352ZM35.0835 354C34.8285 354 34.5835 353.836 34.4935 353.57C33.4135 350.338 32.3535 347.092 31.3185 343.835C31.2135 343.502 31.3935 343.138 31.7235 343.031C32.0535 342.923 32.4035 343.107 32.5085 343.44C33.5435 346.687 34.5985 349.929 35.6785 353.155C35.7885 353.488 35.6135 353.852 35.2885 353.969C35.2185 353.99 35.1535 354 35.0835 354ZM465.753 372C465.718 372 465.683 371.995 465.643 371.99C465.303 371.926 465.078 371.605 465.138 371.275C465.713 368.097 466.213 364.825 466.628 361.543C466.668 361.203 466.998 360.961 467.323 361.005C467.668 361.05 467.908 361.356 467.868 361.696C467.453 365.002 466.948 368.294 466.368 371.487C466.313 371.788 466.053 372 465.753 372ZM42.2318 373C41.9818 373 41.7418 372.84 41.6518 372.581C40.4718 369.357 39.3168 366.118 38.1818 362.868C38.0618 362.532 38.2318 362.159 38.5568 362.035C38.8868 361.921 39.2368 362.092 39.3568 362.428C40.4868 365.673 41.6418 368.907 42.8168 372.12C42.9368 372.457 42.7768 372.829 42.4568 372.953C42.3818 372.984 42.3068 373 42.2318 373ZM50.3784 392C50.1347 392 49.9058 391.849 49.8063 391.598C48.5277 388.385 47.2789 385.152 46.045 381.892C45.9157 381.558 46.0749 381.176 46.3933 381.046C46.7018 380.915 47.0699 381.072 47.1993 381.406C48.4282 384.661 49.6819 387.889 50.9506 391.096C51.0849 391.431 50.9357 391.812 50.6173 391.948C50.5377 391.984 50.458 392 50.3784 392ZM461.195 392C461.14 392 461.08 391.995 461.015 391.975C460.685 391.874 460.5 391.521 460.6 391.188C461.55 388.001 462.425 384.733 463.19 381.485C463.275 381.147 463.595 380.94 463.945 381.016C464.28 381.101 464.49 381.439 464.41 381.777C463.635 385.05 462.755 388.339 461.795 391.551C461.715 391.823 461.465 392 461.195 392ZM59.2954 410C59.0315 410 58.7788 409.87 58.6609 409.649C57.1056 406.739 55.5671 403.799 54.0566 400.841C53.905 400.538 54.0679 400.182 54.4216 400.047C54.7754 399.922 55.1909 400.052 55.3481 400.36C56.8529 403.314 58.3802 406.243 59.9355 409.149C60.0984 409.452 59.9411 409.808 59.593 409.947C59.4976 409.986 59.3965 410 59.2954 410ZM453.631 411C453.546 411 453.461 410.984 453.376 410.943C453.061 410.801 452.921 410.415 453.056 410.086C454.386 406.931 455.636 403.681 456.786 400.427C456.906 400.093 457.261 399.915 457.591 400.04C457.911 400.166 458.076 400.542 457.956 400.881C456.801 404.162 455.536 407.432 454.201 410.608C454.096 410.854 453.871 411 453.631 411ZM68.3423 428C68.0993 428 67.8669 427.878 67.7507 427.668C66.1714 424.766 64.608 421.835 63.0657 418.875C62.9072 418.572 63.0446 418.205 63.3773 418.059C63.7154 417.917 64.1009 418.039 64.2594 418.342C65.7964 421.293 67.3493 424.219 68.9286 427.116C69.0923 427.419 68.9656 427.785 68.6381 427.936C68.543 427.98 68.4427 428 68.3423 428ZM443.721 428C443.594 428 443.468 427.975 443.353 427.915C443.008 427.736 442.899 427.357 443.1 427.062C445.047 424.205 446.913 421.272 448.642 418.34C448.826 418.031 449.251 417.911 449.607 418.071C449.963 418.23 450.1 418.604 449.922 418.908C448.177 421.861 446.299 424.818 444.335 427.696C444.203 427.89 443.962 428 443.721 428ZM431.707 445C431.56 445 431.407 444.962 431.276 444.88C430.971 444.684 430.908 444.305 431.141 444.041C433.412 441.5 435.62 438.888 437.705 436.266C437.925 435.992 438.362 435.916 438.69 436.103C439.013 436.29 439.098 436.664 438.877 436.937C436.781 439.578 434.561 442.21 432.273 444.765C432.132 444.919 431.922 445 431.707 445ZM79.2747 446C79.0194 446 78.7758 445.886 78.6423 445.682C76.7918 442.835 74.9238 439.884 73.0849 436.908C72.8992 436.605 73.0269 436.227 73.3807 436.067C73.7404 435.918 74.1755 436.023 74.3611 436.326C76.2001 439.292 78.0622 442.238 79.907 445.074C80.1042 445.373 79.9766 445.756 79.6285 445.92C79.5183 445.975 79.3965 446 79.2747 446ZM417.709 460C417.538 460 417.362 459.943 417.225 459.825C416.94 459.588 416.923 459.176 417.191 458.918C419.789 456.398 422.331 453.806 424.742 451.225C424.999 450.962 425.449 450.921 425.745 451.148C426.047 451.379 426.087 451.787 425.831 452.06C423.403 454.657 420.85 457.259 418.234 459.799C418.091 459.933 417.903 460 417.709 460ZM89.3164 463C89.0931 463 88.8698 462.893 88.7391 462.7C86.8492 459.846 84.9485 456.906 83.0913 453.961C82.9062 453.656 83.0096 453.264 83.3364 453.086C83.6577 452.908 84.0771 453.015 84.2677 453.315C86.1194 456.255 88.0093 459.185 89.8991 462.028C90.0952 462.329 89.9972 462.72 89.6758 462.903C89.5669 462.969 89.4417 463 89.3164 463ZM402.66 474C402.476 474 402.297 473.931 402.166 473.792C401.924 473.54 401.951 473.149 402.219 472.921C404.856 470.695 407.431 468.429 409.885 466.173C410.143 465.936 410.563 465.946 410.81 466.183C411.068 466.431 411.062 466.821 410.8 467.059C408.335 469.325 405.744 471.605 403.096 473.842C402.97 473.946 402.812 474 402.66 474ZM101.363 480C101.159 480 100.96 479.901 100.838 479.717C98.9088 476.876 96.98 473.945 95.1074 471.009C94.9084 470.711 94.9951 470.303 95.2911 470.104C95.5819 469.91 95.9748 469.994 96.1738 470.298C98.0413 473.223 99.965 476.138 101.884 478.969C102.088 479.267 102.016 479.676 101.725 479.88C101.613 479.958 101.491 480 101.363 480ZM385.688 487C385.478 487 385.275 486.921 385.143 486.771C384.911 486.514 384.967 486.149 385.269 485.953C388.192 484.045 391.093 482.091 393.878 480.137C394.169 479.927 394.599 479.964 394.841 480.212C395.083 480.464 395.045 480.829 394.753 481.035C391.951 483.003 389.045 484.966 386.106 486.878C385.979 486.963 385.831 487 385.688 487ZM114.318 496C114.123 496 113.921 495.922 113.785 495.77C111.586 493.271 109.348 490.649 107.133 487.973C106.91 487.704 106.975 487.318 107.274 487.117C107.579 486.922 108.004 486.975 108.232 487.244C110.432 489.91 112.658 492.522 114.852 495.007C115.086 495.271 115.037 495.658 114.743 495.868C114.618 495.956 114.471 496 114.318 496ZM367.658 499C367.448 499 367.242 498.899 367.11 498.718C366.91 498.431 366.989 498.039 367.295 497.847C370.225 495.97 373.139 494.042 375.959 492.119C376.249 491.913 376.665 491.983 376.876 492.265C377.087 492.547 377.023 492.945 376.728 493.146C373.898 495.074 370.973 497.007 368.027 498.894C367.917 498.965 367.785 499 367.658 499ZM349.705 509C349.463 509 349.233 508.898 349.098 508.718C348.902 508.445 349.008 508.088 349.345 507.922C352.614 506.316 355.839 504.691 358.922 503.085C359.254 502.923 359.686 502.997 359.894 503.266C360.096 503.539 360.001 503.895 359.675 504.066C356.574 505.672 353.345 507.306 350.064 508.917C349.952 508.972 349.828 509 349.705 509ZM129.286 512C129.098 512 128.904 511.928 128.768 511.794C126.233 509.317 123.675 506.711 121.169 504.059C120.919 503.792 120.947 503.38 121.249 503.153C121.551 502.926 122.001 502.952 122.251 503.225C124.746 505.867 127.292 508.452 129.81 510.919C130.078 511.181 130.061 511.588 129.77 511.83C129.633 511.943 129.463 512 129.286 512ZM330.687 519C330.44 519 330.204 518.882 330.083 518.68C329.902 518.379 330.028 518.005 330.357 517.843C333.596 516.276 336.803 514.691 339.976 513.08C340.305 512.913 340.722 513.016 340.914 513.312C341.096 513.607 340.98 513.981 340.651 514.154C337.472 515.764 334.255 517.355 331.011 518.926C330.906 518.975 330.797 519 330.687 519ZM143.341 525C143.182 525 143.024 524.946 142.903 524.842C140.314 522.676 137.719 520.392 135.198 518.053C134.935 517.812 134.935 517.423 135.193 517.182C135.446 516.94 135.863 516.94 136.121 517.177C138.631 519.505 141.21 521.77 143.784 523.927C144.053 524.153 144.074 524.542 143.831 524.798C143.699 524.931 143.52 525 143.341 525ZM311.675 529C311.427 529 311.184 528.87 311.071 528.641C310.904 528.319 311.044 527.923 311.373 527.767C314.612 526.217 317.829 524.657 321.019 523.07C321.343 522.909 321.748 523.034 321.926 523.351C322.093 523.669 321.969 524.064 321.634 524.23C318.439 525.817 315.222 527.382 311.972 528.932C311.875 528.979 311.773 529 311.675 529ZM292.664 538C292.414 538 292.174 537.853 292.062 537.602C291.907 537.264 292.051 536.855 292.387 536.702C295.622 535.17 298.847 533.622 302.044 532.062C302.37 531.91 302.78 532.046 302.935 532.384C303.094 532.722 302.951 533.131 302.62 533.294C299.412 534.859 296.187 536.402 292.941 537.935C292.856 537.978 292.76 538 292.664 538ZM160.32 538C160.191 538 160.056 537.961 159.937 537.889C157.046 536.078 154.124 534.123 151.255 532.071C150.963 531.863 150.915 531.483 151.147 531.223C151.39 530.968 151.811 530.924 152.098 531.131C154.945 533.164 157.841 535.11 160.709 536.902C161.017 537.094 161.093 537.47 160.877 537.745C160.747 537.908 160.536 538 160.32 538ZM272.662 545C272.408 545 272.164 544.868 272.053 544.646C271.911 544.348 272.064 543.999 272.397 543.867C275.635 542.606 278.863 541.336 282.069 540.051C282.403 539.919 282.794 540.051 282.942 540.349C283.091 540.646 282.942 540.996 282.614 541.128C279.397 542.412 276.17 543.687 272.926 544.948C272.842 544.981 272.752 545 272.662 545ZM179.317 548C179.213 548 179.109 547.98 179.01 547.935C175.793 546.5 172.538 544.896 169.332 543.152C169.008 542.978 168.904 542.596 169.096 542.303C169.288 542.01 169.71 541.91 170.039 542.089C173.212 543.808 176.434 545.402 179.618 546.823C179.958 546.977 180.095 547.344 179.931 547.652C179.81 547.876 179.563 548 179.317 548ZM252.652 553C252.385 553 252.134 552.841 252.04 552.588C251.915 552.266 252.093 551.908 252.432 551.794C253.949 551.273 255.502 550.698 257.049 550.077C258.728 549.403 260.411 548.728 262.09 548.048C262.419 547.919 262.806 548.058 262.947 548.371C263.088 548.688 262.937 549.055 262.607 549.184C260.924 549.869 259.24 550.549 257.556 551.224C255.988 551.849 254.414 552.434 252.877 552.96C252.804 552.985 252.725 553 252.652 553ZM199.301 555.659C199.246 555.659 199.184 555.649 199.129 555.639C195.589 554.799 191.999 553.759 188.454 552.549C188.091 552.429 187.907 552.064 188.047 551.744C188.186 551.419 188.587 551.259 188.944 551.384C192.45 552.574 195.996 553.604 199.48 554.429C199.853 554.519 200.076 554.859 199.976 555.189C199.892 555.474 199.614 555.659 199.301 555.659ZM231.678 557.967C231.333 557.967 231.041 557.727 231.003 557.407C230.966 557.062 231.236 556.757 231.603 556.717C235.127 556.372 238.684 555.812 242.17 555.052C242.548 554.967 242.899 555.187 242.98 555.517C243.071 555.852 242.845 556.192 242.483 556.267C238.937 557.042 235.327 557.607 231.748 557.962C231.721 557.967 231.7 557.967 231.678 557.967ZM220.33 557.535H220.319C216.765 557.47 213.151 557.19 209.57 556.71C209.206 556.66 208.954 556.345 209.007 556.005C209.055 555.66 209.361 555.415 209.763 555.475C213.285 555.95 216.845 556.22 220.346 556.285C220.71 556.295 221.01 556.58 221 556.925C220.994 557.265 220.694 557.535 220.33 557.535Z" fill="#D8D5DB"/>
<mask id="mask1_0_402" style="mask-type:alpha" maskUnits="userSpaceOnUse" x="50" y="82" width="393" height="491">
<path fill-rule="evenodd" clip-rule="evenodd" d="M50 82H443V573H50V82Z" fill="white"/>
</mask>
<g mask="url(#mask1_0_402)">
<path fill-rule="evenodd" clip-rule="evenodd" d="M416 494.974C412.948 495.725 409.896 497.178 407.444 499.734C406.027 501.237 404.174 504.044 402.54 507C402.158 496.878 401.777 488.259 401.395 482.947C402.431 482.847 403.03 482.847 403.03 482.847C403.03 481.644 403.03 480.442 402.975 479.139C402.703 454.736 399.815 412.293 396 370C397.362 372.606 398.67 375.011 399.924 377.166C399.978 377.917 399.978 378.669 400.142 379.471C402.158 389.593 412.24 445.616 415.183 479.39C415.728 485.453 416 490.764 416 494.974ZM440.149 371.244V371.144C437.015 361.697 426.479 333.557 414.485 305.618L427.776 301.419C427.776 301.419 388.875 237.393 366.128 223.298C366.074 223.248 366.02 223.248 365.966 223.198C357.97 216.301 346.299 211.802 328.848 209.953C328.74 196.608 329.82 174.116 331.063 156.872C340.032 154.973 344.354 145.227 344.948 143.078C346.191 138.679 345.056 135.03 342.733 132.681C343.436 127.233 344.624 116.637 344.3 107.541C344.03 99.1937 342.571 92.1463 338.357 91.2966C338.411 91.1466 338.519 91.0467 338.573 90.9467C339.978 86.7982 337.33 82.1999 337.222 82L334.845 83.1996C335.493 84.2492 336.844 87.548 335.979 90.147C331.981 86.0485 319.554 84.3991 305.615 84.649C286.11 84.9489 263.742 89.0974 257.69 95.595C253.476 100.093 254.719 102.542 259.095 103.642C258.447 107.84 258.177 111.489 258.069 114.838C257.42 116.387 256.826 117.987 256.232 119.686C254.665 120.686 253.152 122.135 252.017 124.384L254.503 125.434C254.557 125.334 254.611 125.284 254.665 125.184C254.016 127.733 253.422 130.332 252.99 133.181C248.127 164.17 240.185 195.008 273.413 195.358C273.359 198.857 273.143 202.256 272.765 205.455C272.495 208.004 272.116 210.403 271.63 212.552C258.987 215.401 249.1 219.899 242.238 225.947C217.816 244.59 186.965 304.468 186.965 304.468L197.339 309.216C189.667 323.011 182.103 337.106 176.43 348.552C150.171 331.758 104.03 300.62 90.4143 286.975C90.4143 286.925 90.3602 286.925 90.3062 286.875C90.8465 281.627 89.8199 273.13 88.3071 268.331C88.3071 268.232 88.3071 268.132 88.2531 267.982C88.145 267.732 88.0369 267.582 87.9829 267.382C87.8749 267.082 87.7668 266.732 87.6587 266.482C87.3886 265.832 87.1725 265.383 86.9564 264.983C83.3364 257.585 77.6092 254.686 74.2053 244.84C72.4223 239.592 68.0459 241.741 66.371 245.24L53.5119 218.65L50 220.099L66.5331 254.437C62.643 252.837 59.2391 251.888 56.9158 252.637C53.7281 253.637 50.2161 268.481 51.729 273.779C53.2418 279.028 68.7483 295.921 74.5295 298.82C74.9617 299.02 75.448 299.17 75.8803 299.22C85.2274 311.316 147.2 379.391 172.107 391.186C187.56 398.434 199.176 392.186 203.012 382.889C207.983 375.492 217.114 361.047 227.056 344.354C223.814 390.836 217.6 443.217 205.876 479.954C206.956 480.104 208.091 480.254 209.226 480.403C205.93 495.648 203.499 515.691 201.77 536.033C213.98 540.831 226.407 545.18 238.942 549.078C294.863 566.572 352.891 575.319 403.355 572.47C404.165 570.17 404.543 567.771 404.489 565.222C404.219 555.226 403.895 542.98 403.571 530.885C406.272 537.383 409.784 542.731 412.594 544.08C415.565 545.48 429.613 537.532 432.693 532.784C435.718 528.186 438.042 506.094 436.259 500.196C436.151 499.796 435.827 499.496 435.61 499.147C436.259 495.848 437.231 488.65 438.312 479.254C441.77 447.566 445.876 390.637 440.149 371.244Z" fill="#D1CDD3"/>
</g>
<path fill-rule="evenodd" clip-rule="evenodd" d="M303 275.742L267.706 254.43C267.706 254.43 232.628 314.164 215.33 349.113C189.034 332.264 142.799 301.068 129.15 287.36C129.112 287.325 129.074 287.305 129.036 287.27C129.572 282 128.543 273.508 127.044 268.693C127.011 268.568 127.006 268.468 126.957 268.333C126.881 268.107 126.778 267.927 126.697 267.711C126.589 267.431 126.492 267.075 126.383 266.835C126.096 266.188 125.874 265.717 125.674 265.312C122.047 257.942 116.297 254.996 112.908 245.157C110.547 238.288 103.742 244.049 104.413 249.004C104.413 249.004 105.425 252.221 106.568 255.317C102.069 253.333 98.1815 252.13 95.5611 252.947C92.3885 253.934 88.8423 268.834 90.3636 274.159C91.8579 279.4 107.418 296.343 113.243 299.259C113.666 299.469 114.11 299.585 114.564 299.65C123.958 311.789 186.057 380.029 211.021 391.813C226.483 399.112 238.096 392.825 241.978 383.526C253.781 365.796 289.497 308.091 303 275.742Z" fill="#FFAD69"/>
<path fill-rule="evenodd" clip-rule="evenodd" d="M308.143 239.351C313.506 264.223 291.947 335 291.947 335L226 305.159C226 305.159 293.998 173.739 308.143 239.351Z" fill="#EA3939"/>
<path fill-rule="evenodd" clip-rule="evenodd" d="M443 565.242C443 566.04 443 566.837 442.892 567.635C430.507 570.128 417.311 571.773 403.574 572.471C353.06 575.313 294.976 566.588 239 549.138C240.947 522.515 243.976 494.746 248.627 476L403.411 478.842L415.526 479.091L438.565 479.49L439.917 479.54C440.999 490.907 442.297 536.924 443 565.242Z" fill="#232323"/>
<path fill-rule="evenodd" clip-rule="evenodd" d="M355.12 209.122C397.482 210.415 411.801 223.647 419.104 246.533C427.394 272.518 442 429.468 442 481.913C442 481.913 315.23 490.224 245 479.572C267.017 410.741 269.4 286.968 269.843 250.097C270.172 222.429 301.417 207.48 355.12 209.122Z" fill="#FF4E4A"/>
<path fill-rule="evenodd" clip-rule="evenodd" d="M317.561 145.263C313.433 142.365 291.913 144.994 298.114 104.075C300.37 89.145 315.385 99.1096 326.012 101.102C336.639 103.094 329.883 146 329.883 146L317.561 145.263Z" fill="#232323"/>
<path fill-rule="evenodd" clip-rule="evenodd" d="M371 135C369.202 145.928 365.605 205.053 367.103 218.78C368.6 232.513 297.546 236.436 306.838 221.304C316.136 206.172 309.539 156.013 309.539 156.013L371 135Z" fill="#FFAD69"/>
<path fill-rule="evenodd" clip-rule="evenodd" d="M366.977 137L310 156.311C310 156.311 313.847 185.472 311.526 206C354.971 202.89 366.122 152.099 366.858 142.318C366.977 140.476 367.036 138.698 366.977 137Z" fill="#D88344"/>
<path fill-rule="evenodd" clip-rule="evenodd" d="M291.49 133.63C286.223 167.33 277.281 200.93 321.283 195.399C365.291 189.868 372.128 137.492 371.998 127.613C371.313 74.8959 301.846 67.3614 291.49 133.63Z" fill="#FFAD69"/>
<path fill-rule="evenodd" clip-rule="evenodd" d="M377.015 91.2104C377.069 91.0812 377.188 90.9917 377.236 90.8625C378.664 86.7618 376.035 82.1939 375.921 82L373.55 83.178C373.572 83.2178 375.727 87.0004 374.671 90.0771C365.047 80.2703 306.909 84.4505 296.568 95.5298C283.431 109.606 323.835 103.259 346.602 99.7051C349.792 112.002 364.244 132.367 368.41 135.259L380.863 136C380.863 136 387.658 93.3676 377.015 91.2104Z" fill="#232323"/>
<path fill-rule="evenodd" clip-rule="evenodd" d="M474.595 499.843C477.393 485.443 486.608 396.989 479.149 371.842C479.138 371.802 479.143 371.762 479.132 371.717C473.925 355.977 448.067 288.126 429.345 256L389 266.967C389 266.967 422.766 348.592 439.138 377.461C439.187 378.237 439.187 378.997 439.349 379.798C441.758 391.706 455.219 467.261 455.068 495.09C452.086 495.86 449.05 497.311 446.636 499.863C443.562 503.115 438.204 512.457 438.582 516.599C439.657 528.422 446.749 542.507 451.605 544.833C454.576 546.254 468.577 538.264 471.651 533.556C474.676 528.923 477.009 506.823 475.227 500.929C475.108 500.524 474.816 500.198 474.595 499.843Z" fill="#FFAD69"/>
<path fill-rule="evenodd" clip-rule="evenodd" d="M404.669 223.357C427.325 237.387 466 301.203 466 301.203L397.13 323C397.13 323 344.903 186.35 404.669 223.357Z" fill="#FF4E4A"/>
<path fill-rule="evenodd" clip-rule="evenodd" d="M328.723 131.818C328.853 133.475 327.968 134.894 326.738 134.995C325.508 135.091 324.408 133.833 324.278 132.177C324.143 130.526 325.033 129.102 326.263 129.006C327.488 128.905 328.588 130.162 328.723 131.818Z" fill="#232323"/>
<path fill-rule="evenodd" clip-rule="evenodd" d="M300.723 132.818C300.853 134.475 299.968 135.894 298.738 135.995C297.513 136.091 296.408 134.833 296.278 133.182C296.143 131.526 297.033 130.102 298.263 130.006C299.488 129.905 300.593 131.162 300.723 132.818Z" fill="#232323"/>
<path fill-rule="evenodd" clip-rule="evenodd" d="M335.76 123C332.045 117.425 325.652 118.752 325.588 118.763L325 116.213C325.337 116.145 333.28 114.499 338 121.574L335.76 123Z" fill="#232323"/>
<path fill-rule="evenodd" clip-rule="evenodd" d="M293.418 126L291 124.949C294.59 117.516 302.659 117.996 303 118.011L302.814 120.533C302.563 120.517 296.23 120.199 293.418 126Z" fill="#232323"/>
<path fill-rule="evenodd" clip-rule="evenodd" d="M320.003 163C318.19 163 317.044 162.813 317 162.803L317.497 160.321C317.999 160.407 329.985 162.287 336.663 152L339 153.304C333.49 161.787 324.617 163 320.003 163Z" fill="#232323"/>
<path fill-rule="evenodd" clip-rule="evenodd" d="M299 152L305.811 130L308.375 130.71L302.587 149.417L311.963 149.301L312 151.838L299 152Z" fill="#D88344"/>
<path fill-rule="evenodd" clip-rule="evenodd" d="M124 284.547L120.491 286L89 220.453L92.5032 219L124 284.547Z" fill="#232323"/>
<path fill-rule="evenodd" clip-rule="evenodd" d="M361.347 139.788C357.435 148.214 352.54 156.366 364.819 157.879C377.099 159.396 382.811 146.214 383.506 143.63C387.217 129.854 369.035 123.219 361.347 139.788Z" fill="#FFAD69"/>
<path fill-rule="evenodd" clip-rule="evenodd" d="M173.992 0H47.0134C42.5885 0 39 3.32092 39 7.42205V49.3287C39 53.4298 42.5885 56.7557 47.0134 56.7557H54.7462L63.4665 67.5537C65.4037 69.9544 69.4671 69.2392 70.3251 66.3484L73.1527 56.7557H173.992C178.417 56.7557 182 53.4298 182 49.3287V7.42205C182 3.32092 178.417 0 173.992 0Z" fill="#4D8DFF"/>
<mask id="mask2_0_402" style="mask-type:alpha" maskUnits="userSpaceOnUse" x="0" y="0" width="562" height="573">
<path fill-rule="evenodd" clip-rule="evenodd" d="M0 573H562V0H0V573Z" fill="white"/>
</mask>
<g mask="url(#mask2_0_402)">
<path fill-rule="evenodd" clip-rule="evenodd" d="M51 13.75H163V11.25H51V13.75Z" fill="white"/>
<path fill-rule="evenodd" clip-rule="evenodd" d="M51 25.75H125V23.25H51V25.75Z" fill="white"/>
<path fill-rule="evenodd" clip-rule="evenodd" d="M51 36.75H144V34.25H51V36.75Z" fill="white"/>
<path fill-rule="evenodd" clip-rule="evenodd" d="M144.002 140H46.9979C42.5786 140 39 143.326 39 147.422V189.329C39 193.43 42.5786 196.756 46.9979 196.756H54.7209L63.4302 207.554C65.3651 209.954 69.4287 209.239 70.2802 206.348L73.1043 196.756H144.002C148.421 196.756 152 193.43 152 189.329V147.422C152 143.326 148.421 140 144.002 140Z" fill="#FF4E4A"/>
<path fill-rule="evenodd" clip-rule="evenodd" d="M51 153.75H103V151.25H51V153.75Z" fill="white"/>
<path fill-rule="evenodd" clip-rule="evenodd" d="M114 153.75H132V151.25H114V153.75Z" fill="white"/>
<path fill-rule="evenodd" clip-rule="evenodd" d="M51 165.75H88V163.25H51V165.75Z" fill="white"/>
<path fill-rule="evenodd" clip-rule="evenodd" d="M51 177.75H122V175.25H51V177.75Z" fill="white"/>
<path fill-rule="evenodd" clip-rule="evenodd" d="M111.992 70H230.013C234.424 70 238 73.3259 238 77.4219V119.333C238 123.429 234.424 126.755 230.013 126.755H222.29L213.587 137.558C211.653 139.953 207.593 139.238 206.747 136.347L203.92 126.755H111.992C107.576 126.755 104 123.429 104 119.333V77.4219C104 73.3259 107.576 70 111.992 70Z" fill="#FFC84D"/>
<path fill-rule="evenodd" clip-rule="evenodd" d="M178 83.75H225V81.25H178V83.75Z" fill="white"/>
<path fill-rule="evenodd" clip-rule="evenodd" d="M122 95.75H225V93.25H122V95.75Z" fill="white"/>
<path fill-rule="evenodd" clip-rule="evenodd" d="M175 106.75H226V104.25H175V106.75Z" fill="white"/>
<path fill-rule="evenodd" clip-rule="evenodd" d="M143 106.75H166V104.25H143V106.75Z" fill="white"/>
<path fill-rule="evenodd" clip-rule="evenodd" d="M317.497 276C296.823 276 280 291.478 280 310.498C280 329.522 296.823 345 317.497 345C338.177 345 355 329.522 355 310.498C355 291.478 338.177 276 317.497 276ZM316.997 348C294.943 348 277 331.402 277 310.998C277 290.598 294.943 274 316.997 274C339.057 274 357 290.598 357 310.998C357 331.402 339.057 348 316.997 348Z" fill="white"/>
</g>
</svg>
