<svg width="644" height="495" viewBox="0 0 644 495" fill="none" xmlns="http://www.w3.org/2000/svg">
<path fill-rule="evenodd" clip-rule="evenodd" d="M351.763 465.954C220.322 453.421 111.529 363.113 63.8591 248C16.1889 132.887 195.668 34.8284 324.939 29.2104C454.21 23.5924 554 131.297 554 253.974C554 376.651 483.204 478.487 351.763 465.954Z" fill="#FFE5D2"/>
<path fill-rule="evenodd" clip-rule="evenodd" d="M513.948 344.003C514.052 343.944 514.696 344.779 515.649 346.424C516.607 348.062 517.798 350.552 518.905 353.764C521.174 360.166 522.599 369.616 521.754 379.923C520.917 390.228 518.489 399.274 516.615 405.713C514.699 412.155 513.288 416.065 513.045 415.999C512.777 415.926 513.729 411.881 515.301 405.376C516.834 398.872 519.02 389.874 519.839 379.78C520.662 369.689 519.491 360.504 517.608 354.154C515.779 347.773 513.646 344.157 513.948 344.003Z" fill="white"/>
<path fill-rule="evenodd" clip-rule="evenodd" d="M520.018 292.001C520.144 291.949 520.967 293.346 522.339 295.922C523.709 298.497 525.635 302.251 527.914 306.934C532.433 316.301 538.517 329.413 542.929 344.636C545.098 352.251 546.576 359.654 547.325 366.452C548.079 373.249 548.156 379.425 547.779 384.579C547.413 389.735 546.712 393.873 546.037 396.687C545.369 399.506 544.84 401.024 544.721 401C544.347 400.933 545.999 394.727 546.349 384.517C546.786 374.328 545.344 360.172 540.972 345.12C536.61 330.063 530.775 316.944 526.599 307.461C524.496 302.716 522.795 298.875 521.618 296.22C520.468 293.554 519.889 292.055 520.018 292.001Z" fill="white"/>
<path fill-rule="evenodd" clip-rule="evenodd" d="M270.984 353.01C271.211 353.244 268.988 355.279 266.102 359.058C265.386 360.007 264.608 361.045 263.881 362.231C263.084 363.374 262.392 364.684 261.622 366.038C260.189 368.796 258.829 371.931 257.781 375.344C256.777 378.77 256.192 382.118 255.877 385.186C255.781 386.725 255.642 388.189 255.682 389.561C255.642 390.938 255.724 392.215 255.804 393.385C256.154 398.057 256.91 400.915 256.588 400.999C256.392 401.063 255.148 398.302 254.426 393.521C254.253 392.326 254.088 391.014 254.056 389.594C253.945 388.175 254.025 386.657 254.075 385.059C254.3 381.873 254.854 378.379 255.897 374.824C256.984 371.279 258.45 368.039 260.027 365.225C260.868 363.845 261.64 362.519 262.522 361.375C263.334 360.188 264.203 359.161 265.011 358.237C268.271 354.557 270.856 352.856 270.984 353.01Z" fill="white"/>
<path fill-rule="evenodd" clip-rule="evenodd" d="M276.985 369.037C277.158 369.285 275.849 370.176 274.138 371.882C273.272 372.724 272.359 373.816 271.461 375.081C270.601 376.367 269.778 377.843 269.13 379.471C268.512 381.106 268.139 382.721 267.926 384.207C267.756 385.695 267.718 387.054 267.818 388.194C267.984 390.475 268.399 391.897 268.089 391.996C267.868 392.079 266.935 390.778 266.365 388.368C266.068 387.166 265.946 385.694 266.022 384.064C266.143 382.439 266.493 380.656 267.171 378.869C267.875 377.09 268.835 375.496 269.865 374.149C270.932 372.822 272.048 371.731 273.113 370.948C275.231 369.361 276.867 368.848 276.985 369.037Z" fill="white"/>
<path fill-rule="evenodd" clip-rule="evenodd" d="M203.016 216.006C203.118 215.921 204 216.746 205.515 218.32C206.284 219.098 207.193 220.079 208.155 221.288C209.126 222.487 210.295 223.817 211.392 225.417C211.957 226.206 212.551 227.032 213.169 227.894C213.78 228.761 214.334 229.71 214.952 230.669C216.215 232.572 217.347 234.721 218.579 236.963C220.904 241.51 223.128 246.671 224.899 252.265C226.613 257.876 227.701 263.357 228.352 268.373C228.6 270.892 228.878 273.28 228.907 275.529C228.937 276.652 229.015 277.735 228.998 278.779C228.973 279.821 228.947 280.82 228.924 281.775C228.919 283.686 228.699 285.404 228.57 286.914C228.453 288.425 228.253 289.716 228.052 290.766C227.681 292.869 227.413 294.018 227.278 294C226.93 293.956 227.585 289.294 227.53 281.761C227.512 280.819 227.495 279.835 227.476 278.807C227.453 277.78 227.338 276.714 227.274 275.611C227.176 273.4 226.84 271.056 226.549 268.587C225.809 263.669 224.69 258.304 223.007 252.797C221.268 247.306 219.139 242.223 216.944 237.713C215.777 235.49 214.716 233.349 213.535 231.443C212.956 230.483 212.442 229.53 211.875 228.656C211.303 227.785 210.754 226.948 210.23 226.149C205.966 219.796 202.747 216.223 203.016 216.006Z" fill="white"/>
<path fill-rule="evenodd" clip-rule="evenodd" d="M225.021 225.007C225.186 224.866 227.414 226.865 230.248 230.716C231.674 232.633 233.177 235.05 234.639 237.836C236.06 240.642 237.415 243.827 238.497 247.28C239.546 250.742 240.212 254.124 240.611 257.219C240.961 260.321 241.07 263.131 240.958 265.484C240.762 270.193 240.023 273.032 239.806 273C239.494 272.963 239.744 270.089 239.586 265.483C239.522 263.181 239.275 260.448 238.839 257.442C238.354 254.442 237.654 251.171 236.637 247.808C235.585 244.454 234.319 241.343 233.026 238.573C231.688 235.82 230.347 233.398 229.096 231.431C226.618 227.483 224.781 225.201 225.021 225.007Z" fill="white"/>
<path fill-rule="evenodd" clip-rule="evenodd" d="M145.925 378.341L144.194 375L96 409.805L117.026 442L165 403.768L145.925 378.341Z" fill="#FF7B5B"/>
<path fill-rule="evenodd" clip-rule="evenodd" d="M98 410L116.798 440L118 439.505L101.26 411.455L98 410Z" fill="#D7D4D4"/>
<path fill-rule="evenodd" clip-rule="evenodd" d="M145.341 377L98 409.537C98 409.537 98.1985 410.236 99.3733 410.667C100.55 411.097 101.23 410.988 101.23 410.988L151 379.377C151 379.377 148.131 378.758 147.09 378.037C146.048 377.314 145.341 377 145.341 377Z" fill="#F5F3F3"/>
<path fill-rule="evenodd" clip-rule="evenodd" d="M152.556 379L101 411.208L117.745 440.89L120.442 445L172 409.311C172 409.311 166.57 401.73 163.309 397.153C160.049 392.576 153.648 381.782 153.3 381.09C152.951 380.399 152.556 379 152.556 379Z" fill="#FF7B5B"/>
<path fill-rule="evenodd" clip-rule="evenodd" d="M578.034 154.793L579.488 152L620 181.091L602.326 208L562 176.044L578.034 154.793Z" fill="#775298"/>
<path fill-rule="evenodd" clip-rule="evenodd" d="M619 182L603.023 207L602 206.589L616.23 183.213L619 182Z" fill="#D7D4D4"/>
<path fill-rule="evenodd" clip-rule="evenodd" d="M578.699 155L618 182.753C618 182.753 617.834 183.348 616.86 183.716C615.883 184.083 615.318 183.989 615.318 183.989L574 157.028C574 157.028 576.382 156.501 577.246 155.885C578.11 155.268 578.699 155 578.699 155Z" fill="#F5F3F3"/>
<path fill-rule="evenodd" clip-rule="evenodd" d="M573.432 156L617 183.328L602.851 208.513L600.571 212L557 181.717C557 181.717 561.59 175.284 564.345 171.401C567.102 167.518 572.509 158.359 572.803 157.772C573.098 157.187 573.432 156 573.432 156Z" fill="#775298"/>
<path fill-rule="evenodd" clip-rule="evenodd" d="M88.9877 103C88.9877 103 85.8825 104.974 87.4344 108.266C88.9877 111.557 95.7951 121.322 104.991 120.992C105.368 120.98 93.4063 103 93.4063 103H88.9877Z" fill="#FF7B5B"/>
<path fill-rule="evenodd" clip-rule="evenodd" d="M75 284.112C75 284.112 63.6161 274.482 59.9715 276.207C55.5187 278.315 30.0324 301.963 31.0284 313.103C31.4376 317.666 37.0465 313.757 47.0412 303.939C57.0389 294.122 69.627 298.329 69.627 298.329L75 284.112Z" fill="#775298"/>
<path fill-rule="evenodd" clip-rule="evenodd" d="M102 300.788L88.378 293C88.378 293 53.0687 324.548 58.5851 328.755C62.7692 331.944 65.2286 329.083 75.137 319.289C85.0439 309.498 97.5964 315.128 97.5964 315.128L102 300.788Z" fill="#775298"/>
<path fill-rule="evenodd" clip-rule="evenodd" d="M185.432 198L188 232L131 218.154L185.432 198Z" fill="#F3A683"/>
<path fill-rule="evenodd" clip-rule="evenodd" d="M131.39 219C131.39 219 181.572 221.955 188.254 219.872C188.254 219.872 198.06 309.893 180.611 319.605C163.16 329.32 124 315.096 124 315.096L134.573 295.669L157.37 294.281V259.591L155.735 259.937L131.39 219Z" fill="#112129"/>
<path fill-rule="evenodd" clip-rule="evenodd" d="M69.2703 280.148C69.2703 280.148 56.7577 284.985 60.8065 296.732C60.8065 296.732 103.519 328.168 124.303 320.913C135.947 316.849 148.456 285.84 157.206 259.347L188 219.868C188 219.868 173.477 220.55 168.632 220.533C159.372 220.5 131.629 219 131.629 219C131.629 219 117.138 290.168 111.975 291.894C106.811 293.62 69.2703 280.148 69.2703 280.148Z" fill="#22343D"/>
<path fill-rule="evenodd" clip-rule="evenodd" d="M143 129.376C143 129.376 172.989 103.072 178.171 96.1485C183.353 89.2267 194.463 66.0383 208.157 56.3477L201.494 43.1956C201.494 43.1956 205.568 41.1198 208.157 46.6558C208.157 46.6558 217.782 28.6605 220.004 29.0049C222.227 29.3506 215.563 42.8499 215.563 42.8499C215.563 42.8499 224.82 30.3892 227.411 30.7364C230 31.0821 220.746 44.7433 220.746 44.7433C220.746 44.7433 231.111 33.5051 232.593 34.8894C234.074 36.2738 224.448 44.7433 224.448 44.7433C224.448 44.7433 234.813 39.18 235.924 41.0136C237.035 42.8499 225.559 47.6945 225.559 47.6945C225.559 47.6945 224.448 55.6549 217.415 59.1151C217.415 59.1151 203.488 94.2918 190.9 105.712L150.464 145L143 129.376Z" fill="#FFC6B2"/>
<path fill-rule="evenodd" clip-rule="evenodd" d="M107.59 143C107.59 143 79.304 170.751 71.8856 175.524C64.4657 180.296 39.6725 190.452 29.2276 203.149L15.2851 196.805C15.2851 196.805 13.0369 200.587 18.9087 203.057C18.9087 203.057 -0.344627 211.875 0.00469661 213.954C0.351121 216.031 14.7864 209.936 14.7864 209.936C14.7864 209.936 1.43243 218.462 1.7774 220.883C2.12238 223.304 16.7534 214.791 16.7534 214.791C16.7534 214.791 4.69085 224.363 6.15192 225.758C7.61009 227.154 16.72 218.248 16.72 218.248C16.72 218.248 10.6989 227.873 12.6441 228.927C14.5864 229.98 19.8524 219.312 19.8524 219.312C19.8524 219.312 28.3376 218.352 32.0903 211.816C32.0903 211.816 67.5691 198.576 79.849 186.931L124 157.591L107.59 143Z" fill="#FFC6B2"/>
<path fill-rule="evenodd" clip-rule="evenodd" d="M118.415 131.969L104 145.133L107.656 159.972C107.656 159.972 121.857 191.778 124.004 199.537C127.342 211.603 121.944 230 121.944 230C121.944 230 146.02 228.135 167.927 227.443C189.833 226.749 197 220.166 197 220.166C197 220.166 178.006 161.154 164.892 144.657C151.777 128.164 147.007 123 147.007 123L127.698 126.937L118.415 131.969Z" fill="white"/>
<path fill-rule="evenodd" clip-rule="evenodd" d="M159.948 143L174.907 134.005C174.907 134.005 177.192 124.368 159.153 113L138 125.475L159.948 143Z" fill="white"/>
<path fill-rule="evenodd" clip-rule="evenodd" d="M106.75 144.277C98.5851 145.342 83.664 164.584 82 164.548C82 164.548 92.5011 180.483 100.82 181C100.82 181 137.427 140.276 106.75 144.277Z" fill="white"/>
<path fill-rule="evenodd" clip-rule="evenodd" d="M136 132.031C136 132.031 123.989 123.624 124.405 120.272C124.511 119.428 126.176 118.057 126.608 116.841C128.937 110.295 117.709 93.4289 110.81 89.8739C105.383 87.0782 107.762 86.8311 96.3398 93.19C84.9181 99.5489 91.4255 110.545 96.5259 116.232C101.348 121.608 106.87 123.911 111.839 124.299L118.903 139L136 132.031Z" fill="#FFC6B2"/>
<path fill-rule="evenodd" clip-rule="evenodd" d="M114.597 143.011C112.363 137.804 116.593 131.245 124.047 128.357C131.504 125.467 139.355 127.346 141.594 132.55C143.826 137.756 136.325 145.582 132.138 147.205C127.95 148.828 116.83 148.216 114.597 143.011Z" fill="#FFC6B2"/>
<path fill-rule="evenodd" clip-rule="evenodd" d="M96.3579 116.004C96.3579 116.004 92.4515 115.809 92.0179 118.157C91.5829 120.506 99.1782 120.506 102 118.744L96.3579 116.004Z" fill="#FFC6B2"/>
<path fill-rule="evenodd" clip-rule="evenodd" d="M98.9006 118C98.1625 113.626 93.177 110.373 93.4255 106.111C95.8152 106.129 97.3499 103.362 96.2625 100.996C95.8342 100.067 95.1093 99.2717 94.6459 98.3548C94.1841 97.4392 94.0613 96.2394 94.7702 95.7215C95.1063 95.4769 95.5609 95.4345 95.9964 95.3935C99.5394 95.0533 105.609 96.0467 108.87 94.9166C111.975 93.8412 115.301 91.749 114.978 88.1933C114.696 85.0968 111.771 82.5865 109.085 80.6897C107.546 79.602 103.148 76.7582 101.489 77.0165C98.9562 77.4101 98.3423 80.5695 98.1596 83.2137C96.3882 81.6367 93.7748 81.8895 92.2343 83.1727C90.6938 84.4559 89.9644 86.4947 89.2936 88.4625C88.6212 90.4317 87.9094 92.476 86.3894 93.7838C84.9731 95.0027 82.7325 95.9251 83.0262 97.9981C83.3756 100.469 86.8278 101.348 88.4239 103.455C88.0307 102.938 87.6975 106.237 87.924 106.796C88.6052 108.481 90.305 109.596 91.5342 110.884C94.1519 113.631 95.4323 116.397 98.9006 118Z" fill="#FF7B5B"/>
<path fill-rule="evenodd" clip-rule="evenodd" d="M119.8 108L111 111.941C111 111.941 121.57 118.586 119.8 108Z" fill="white"/>
<path fill-rule="evenodd" clip-rule="evenodd" d="M107.856 109.766C108.317 110.636 107.635 111.893 106.333 112.574C105.032 113.255 103.604 113.103 103.143 112.234C102.684 111.364 103.365 110.108 104.666 109.426C105.969 108.745 107.395 108.897 107.856 109.766Z" fill="#FFB2A0"/>
<path fill-rule="evenodd" clip-rule="evenodd" d="M120.856 101.766C121.317 102.636 120.635 103.893 119.333 104.574C118.032 105.255 116.604 105.103 116.143 104.234C115.684 103.364 116.365 102.107 117.666 101.426C118.969 100.745 120.395 100.897 120.856 101.766Z" fill="#FFB2A0"/>
<path fill-rule="evenodd" clip-rule="evenodd" d="M113.791 107.985C113.751 107.936 113.914 107.731 114.293 107.47C114.655 107.203 115.284 106.916 115.751 106.435C116.214 105.97 116.38 104.999 115.672 104.862C114.936 104.624 114.099 105.43 113.141 106.196C112.903 106.384 112.669 106.571 112.436 106.754C112.219 106.945 111.762 107.224 111.288 107.167C110.384 107.028 109.999 106.452 109.652 106.067C108.958 105.216 108.529 104.325 108.292 103.555C107.822 101.997 108.033 100.992 108.146 101C108.304 100.993 108.356 101.96 108.953 103.33C109.254 104.01 109.704 104.784 110.359 105.514C110.679 105.884 111.081 106.23 111.367 106.241C111.487 106.246 111.581 106.207 111.807 106.027C112.037 105.843 112.268 105.656 112.503 105.469C112.986 105.096 113.404 104.719 113.956 104.368C114.493 104.023 115.258 103.805 115.944 104.027C116.675 104.211 117.105 105.025 116.978 105.592C116.895 106.169 116.594 106.594 116.253 106.905C115.531 107.481 114.886 107.62 114.48 107.794C114.063 107.945 113.835 108.039 113.791 107.985Z" fill="#FF7B5B"/>
<path fill-rule="evenodd" clip-rule="evenodd" d="M112 123.851C112 123.851 117.834 123.883 121 122C121 122 118.322 125.177 112.964 126L112 123.851Z" fill="#FFA192"/>
<path fill-rule="evenodd" clip-rule="evenodd" d="M113.997 100.444C113.952 100.743 113.263 100.835 112.535 101.229C111.797 101.595 111.264 102.137 111.059 101.968C110.848 101.832 111.197 100.754 112.194 100.239C113.189 99.722 114.062 100.163 113.997 100.444Z" fill="#22343D"/>
<path fill-rule="evenodd" clip-rule="evenodd" d="M103.063 106.973C102.849 106.819 103.184 105.931 103.998 105.042C104.822 104.135 105.875 103.832 105.986 104.086C106.103 104.333 105.462 104.908 104.74 105.706C104.007 106.501 103.294 107.141 103.063 106.973Z" fill="#22343D"/>
<path fill-rule="evenodd" clip-rule="evenodd" d="M98.3506 105.88C97.9225 105.566 97.5888 104.222 99.2273 102.412C100.881 100.561 102.729 100.887 102.95 101.401C103.188 101.906 102.573 102.624 101.122 104.252C99.6485 105.874 98.8142 106.224 98.3506 105.88Z" fill="#FF7B5B"/>
<path fill-rule="evenodd" clip-rule="evenodd" d="M108.074 98.6921C107.829 98.2953 108.099 97.1403 110.301 96.3356C112.533 95.504 114.021 96.4214 114 96.8978C113.996 97.3718 113.155 97.7037 111.194 98.4361C109.218 99.155 108.338 99.1244 108.074 98.6921Z" fill="#FF7B5B"/>
<path fill-rule="evenodd" clip-rule="evenodd" d="M590.994 111.019C591.143 111.155 588.692 113.688 583.605 116.448C578.582 119.205 570.678 121.937 561.587 121.999C552.495 122.061 544.548 119.435 539.48 116.747C534.352 114.058 531.86 111.556 532.006 111.418C532.218 111.172 535.005 113.282 540.141 115.592C545.227 117.911 552.893 120.213 561.571 120.155C570.252 120.094 577.878 117.689 582.928 115.302C588.024 112.922 590.779 110.775 590.994 111.019Z" fill="#775298"/>
<path fill-rule="evenodd" clip-rule="evenodd" d="M535.997 107.952C535.859 108.241 533.164 107.173 528.624 106.206C526.362 105.696 523.616 105.302 520.558 104.939C517.489 104.615 514.097 104.357 510.514 104.114C506.93 103.874 503.5 103.598 500.384 103.23C497.269 102.835 494.469 102.365 492.163 101.769C487.533 100.615 484.911 99.2486 485.002 99.056C485.123 98.765 487.88 99.6643 492.465 100.453C494.752 100.87 497.512 101.193 500.586 101.485C503.667 101.754 507.069 101.974 510.658 102.215C514.249 102.459 517.685 102.774 520.798 103.2C523.909 103.667 526.7 104.211 528.983 104.903C533.567 106.24 536.1 107.77 535.997 107.952Z" fill="#775298"/>
<mask id="mask0_0_574" style="mask-type:alpha" maskUnits="userSpaceOnUse" x="463" y="35" width="181" height="83">
<path fill-rule="evenodd" clip-rule="evenodd" d="M463 35H644V118H463V35Z" fill="white"/>
</mask>
<g mask="url(#mask0_0_574)">
<path fill-rule="evenodd" clip-rule="evenodd" d="M481.206 51.8116C489.821 50.1009 498.746 51.5738 507.432 52.9285C516.119 54.2833 525.137 55.5048 533.63 53.3226C548.963 49.3835 560.604 34.8838 576.505 35.0007C583.052 35.0483 589.223 37.6653 595.602 39.0499C603.523 40.7701 611.775 40.5853 619.799 41.8123C627.824 43.0393 636.113 46.0599 640.649 52.3769C646.029 59.8733 644.554 70.4474 638.908 77.7713C633.262 85.0965 624.221 89.556 614.957 92.0834C608.495 93.8457 601.611 94.8648 596.019 98.3718C590.363 101.92 586.67 107.629 581.4 111.663C568.176 121.785 547.596 118.884 533.936 109.283C530.504 106.871 527.324 104.072 523.468 102.307C507.785 95.1216 485.229 104.633 471.722 91.5602C458.005 78.2835 459.96 56.0293 481.206 51.8116Z" fill="#775298"/>
</g>
<path fill-rule="evenodd" clip-rule="evenodd" d="M477 309.509C477 309.509 491.259 338.745 492.927 333.331C494.591 327.916 494.041 314.913 493.147 313.057C492.25 311.201 486.421 303 486.421 303L477 309.509Z" fill="#FFB2A0"/>
<path fill-rule="evenodd" clip-rule="evenodd" d="M581 75.8514C582.316 77.4217 581.437 75.735 582.927 78C589.122 77.7992 593.28 72.9171 593.28 72.9171C593.28 72.9171 603.113 73.1594 602.999 71.5235C602.887 69.885 593.573 70.4968 593.573 70.4968C593.573 70.4968 603.426 67.6146 602.885 66.1756C602.348 64.7378 590.973 69.3241 590.973 69.3241C590.973 69.3241 602.451 62.6883 600.755 61.6241C599.061 60.5625 588.017 66.3549 588.017 66.3549C588.017 66.3549 597.615 59.0124 596.176 58.0659C594.74 57.1195 581.427 66.6762 581.427 66.6762C581.621 61.9748 578 62.1395 578 62.1395L578.149 73.6185C578.149 73.6185 580.393 75.1286 581 75.8514Z" fill="#FFC6B2"/>
<path fill-rule="evenodd" clip-rule="evenodd" d="M433.761 23.5301C431.618 23.9022 433.28 23.2007 430.498 24C425.928 19.8989 426.535 13.4538 426.535 13.4538C426.535 13.4538 418.871 7.38211 420.142 6.19561C421.42 5.00636 428.069 11.406 428.069 11.406C428.069 11.406 422.659 2.91448 424.114 2.15104C425.568 1.3876 430.905 12.1584 430.905 12.1584C430.905 12.1584 426.978 -0.25641 429.043 0.00404144C431.104 0.264493 435.312 11.7519 435.312 11.7519C435.312 11.7519 433.332 -0.008361 435.111 0.177676C436.893 0.362334 440.098 16.1947 440.098 16.1947C443.363 12.452 446 14.8842 446 14.8842L437.723 23.4515C437.723 23.4515 434.747 23.3606 433.761 23.5301Z" fill="#FFC6B2"/>
<path fill-rule="evenodd" clip-rule="evenodd" d="M484.982 72.03C482.207 71.602 475.496 75.7884 472.138 82.6116C470.259 86.4306 468.965 90.3101 471.122 96.5209C472.138 99.4426 474.264 99.8087 474.739 101.117C475.339 102.774 473.352 107.997 473.352 107.997L481.274 111C481.789 107.412 482.372 103.802 486.268 102.245C487.725 101.661 489.285 101.292 490.661 100.552C494.372 98.555 496.354 94.1869 497.879 90.6101C499.017 87.9389 491.941 73.1007 484.982 72.03Z" fill="#FFC6B2"/>
<path fill-rule="evenodd" clip-rule="evenodd" d="M476.335 172.94L463.104 168C463.104 168 423.837 235.76 424.001 254.561C424.163 273.36 477.932 311 477.932 311L487 303.707C487 303.707 470.399 276.771 461.525 267.274C452.65 257.775 476.335 172.94 476.335 172.94Z" fill="#FFB2A0"/>
<path fill-rule="evenodd" clip-rule="evenodd" d="M541.149 249C541.149 249 570.033 236.489 564.229 235.384C558.425 234.284 544.851 235.8 542.982 236.762C541.11 237.726 533 243.693 533 243.693L541.149 249Z" fill="#FFC6B2"/>
<path fill-rule="evenodd" clip-rule="evenodd" d="M489.123 172L469.113 178.785C469.113 178.785 449.098 260.835 456.739 273.716C464.378 286.603 485.837 278.076 516.4 262.53L542 249.506L533.455 244.205C533.455 244.205 503.666 249.645 495.3 255.07C495.3 255.07 499.666 243.541 505.487 227.267C511.307 210.992 515.322 194.378 489.123 172Z" fill="#FFC6B2"/>
<path fill-rule="evenodd" clip-rule="evenodd" d="M464 115.537C464 110.002 465.912 106 471.851 106C477.79 106 486 107.94 486 113.475C486 119.012 481.32 128 475.378 128C469.439 128 464 121.073 464 115.537Z" fill="#FFC6B2"/>
<path fill-rule="evenodd" clip-rule="evenodd" d="M469 106.07C469 106.07 450.819 87.5872 447.182 69.4811C443.544 51.3778 437.365 22 437.365 22L430.455 23.869C430.455 23.869 427.181 64.0177 430.455 70.1653C433.727 76.3142 449.718 117.25 454.587 128L469 106.07Z" fill="#FFC6B2"/>
<path fill-rule="evenodd" clip-rule="evenodd" d="M488 119.777C488 119.777 489.397 114.018 512.368 106.192C535.339 98.3661 578.676 73 578.676 73L583 77.6582C583 77.6582 559.453 103.271 545.754 107.763C532.054 112.257 502.958 129.971 499.964 131.388C495.437 133.533 495.492 136.231 488 119.777Z" fill="#FFC6B2"/>
<path fill-rule="evenodd" clip-rule="evenodd" d="M468.471 106C468.471 106 450 111.585 450 137.805C450 137.805 450.012 173.715 454.365 180.248C454.365 180.248 461.442 181.94 470.265 180.248C479.516 178.474 488.471 172.106 488.471 172.106L503 131.413L501.262 112.347L481.507 108.788C481.507 108.788 487.174 133.495 466.67 122.873C462.686 120.809 472.533 106.792 472.533 106.792L468.471 106Z" fill="#22343D"/>
<path fill-rule="evenodd" clip-rule="evenodd" d="M453.165 127L444 109.456C444 109.456 445.314 98.8135 462.139 95C462.139 95 463.841 100.365 465.706 102.414C467.57 104.462 473 106.643 473 106.643L453.165 127Z" fill="#22343D"/>
<path fill-rule="evenodd" clip-rule="evenodd" d="M487.016 134L515.947 128.431C515.947 128.431 520.977 118.643 509.05 107C509.05 107 486.483 108.28 483.562 108.508C480.687 108.732 482.661 110.812 482.661 110.812L487.016 134Z" fill="#22343D"/>
<path fill-rule="evenodd" clip-rule="evenodd" d="M454.744 171.723C454.744 171.723 427.501 219.032 423 227.485C423 227.485 503.373 262.163 536 220.422C536 220.422 517.441 183.527 488.749 169.481L476.372 166L455.228 171.496" fill="#22343D"/>
<path fill-rule="evenodd" clip-rule="evenodd" d="M496.858 89.7101C496.858 89.7101 499.879 86.6114 501.737 88.7563C503.595 90.9013 495 94 495 94L496.858 89.7101Z" fill="#FFC6B2"/>
<path fill-rule="evenodd" clip-rule="evenodd" d="M553.999 50.4695C554.03 50.5702 552.825 51.0574 550.525 51.5676C548.231 52.0834 544.827 52.5515 540.599 52.6317C536.373 52.7107 531.348 52.3596 525.848 51.6629C520.343 50.9812 514.364 49.9797 508.073 49.3388C501.792 48.7115 495.753 48.5972 490.404 49.4041C485.054 50.1974 480.424 51.8343 476.884 53.7462C473.344 55.673 470.881 57.8107 469.369 59.4286C467.849 61.0478 467.164 62.082 467.01 61.9949C466.925 61.9541 467.383 60.7893 468.761 58.9741C470.13 57.1643 472.546 54.7762 476.15 52.6168C479.751 50.4709 484.537 48.6271 490.098 47.7045C495.667 46.7684 501.895 46.8405 508.285 47.48C514.681 48.1318 520.668 49.1905 526.108 49.9579C531.547 50.7403 536.463 51.2193 540.603 51.3091C548.901 51.5255 553.924 50.1498 553.999 50.4695Z" fill="#775298"/>
<path fill-rule="evenodd" clip-rule="evenodd" d="M480.985 87.9129C480.976 88.0217 480.072 88.0982 478.691 87.6979C478.349 87.5929 477.946 87.4556 477.571 87.155C477.385 87.0048 477.213 86.8053 477.108 86.5656C476.957 86.2301 476.968 85.8492 477.118 85.559C477.163 85.5007 477.16 85.3621 477.247 85.3595L477.516 85.3517C477.688 85.331 477.891 85.3802 478.09 85.4126C478.455 85.4735 478.572 85.4644 478.832 85.48C479.287 85.489 479.759 85.4476 480.23 85.3569C482.159 85.0019 483.449 83.7764 484.028 82.7685C484.634 81.7541 484.688 80.9911 484.849 81.0002C484.964 80.9872 485.189 81.7982 484.688 83.0224C484.433 83.6222 483.989 84.3101 483.273 84.9138C482.561 85.5162 481.574 86.0111 480.454 86.2249C479.895 86.3337 479.333 86.3752 478.791 86.3505C478.556 86.3402 478.185 86.2987 478.076 86.278C477.977 86.2637 477.989 86.2443 477.97 86.2547C477.958 86.265 477.952 86.2819 477.953 86.3065C477.993 86.4231 478.066 86.5345 478.168 86.6343C478.375 86.8376 478.674 86.9892 478.966 87.1162C480.161 87.6279 481.008 87.7795 480.985 87.9129Z" fill="#FF7B5B"/>
<path fill-rule="evenodd" clip-rule="evenodd" d="M474 89L485 93.1046C485 93.1046 475.333 99.418 474 89Z" fill="white"/>
<path fill-rule="evenodd" clip-rule="evenodd" d="M489.885 90.4252C489.517 91.0778 488.375 91.1914 487.334 90.6801C486.293 90.1702 485.747 89.2269 486.114 88.5757C486.483 87.923 487.626 87.8081 488.667 88.3194C489.708 88.8306 490.253 89.7726 489.885 90.4252Z" fill="#FFB2A0"/>
<path fill-rule="evenodd" clip-rule="evenodd" d="M477.92 84.312C477.611 85.0083 476.502 85.2096 475.442 84.7608C474.382 84.312 473.771 83.3844 474.08 82.688C474.388 81.9917 475.498 81.7904 476.558 82.2392C477.618 82.688 478.229 83.6156 477.92 84.312Z" fill="#FFB2A0"/>
<path fill-rule="evenodd" clip-rule="evenodd" d="M474 100C474 100 477.915 102.637 482 101.788C482 101.788 480.592 103.486 475.17 102.863C475.17 102.863 475.62 100.991 474 100Z" fill="#FFA192"/>
<path fill-rule="evenodd" clip-rule="evenodd" d="M489 85C489 85.5517 488.552 86 488 86C487.448 86 487 85.5517 487 85C487 84.4483 487.448 84 488 84C488.552 84 489 84.4483 489 85Z" fill="#22343D"/>
<path fill-rule="evenodd" clip-rule="evenodd" d="M482 82C482 82.5517 481.551 83 480.999 83C480.447 83 480 82.5517 480 82C480 81.4483 480.447 81 480.999 81C481.551 81 482 81.4483 482 82Z" fill="#22343D"/>
<path fill-rule="evenodd" clip-rule="evenodd" d="M490.902 81.9885C490.652 82.0849 490.17 81.5536 489.439 81.1237C488.724 80.6748 487.999 80.4732 488 80.2272C487.977 79.9913 488.989 79.7998 489.972 80.3996C490.956 80.9956 491.151 81.9175 490.902 81.9885Z" fill="#775298"/>
<path fill-rule="evenodd" clip-rule="evenodd" d="M479 78.5302C478.983 78.3492 479.86 78.1212 481.034 78.1432C482.229 78.1612 483.111 78.5732 482.989 78.7452C482.876 78.9192 482.044 78.8442 480.996 78.8302C479.942 78.8082 479.017 78.7272 479 78.5302Z" fill="#775298"/>
<path fill-rule="evenodd" clip-rule="evenodd" d="M483 322.211C483 322.211 487.282 337.152 491.704 335.929C496.125 334.707 492.801 313.854 492.801 313.854L488.389 307C488.389 307 492.534 341.905 483 322.211Z" fill="#22343D"/>
<path fill-rule="evenodd" clip-rule="evenodd" d="M539 239.789C539 239.789 542.191 236.639 546.059 236.115C549.929 235.59 563.757 234.103 565.788 235.765C567.82 237.427 554.58 243 554.58 243C554.58 243 559.193 240.341 557.278 239.352C553.892 237.602 539 239.789 539 239.789Z" fill="#22343D"/>
<path fill-rule="evenodd" clip-rule="evenodd" d="M533 244.065L537.529 252L540 250.816L533.96 243L533 244.065Z" fill="#22343D"/>
<path fill-rule="evenodd" clip-rule="evenodd" d="M484.566 300L474 309.419L477.131 312L486 302.452L484.566 300Z" fill="#22343D"/>
<path fill-rule="evenodd" clip-rule="evenodd" d="M260.123 209.46C257.08 202.387 255.911 194.512 251.37 188.182C244.836 179.074 232.285 174.555 226.983 164.768C224.73 160.612 224.024 155.857 224 151.197C223.957 141.976 226.904 132.173 234.508 126.314C243.245 119.58 256.355 119.674 266.588 124.197C276.818 128.721 284.635 136.932 291.282 145.508C297.929 154.084 303.748 163.287 311.488 171.015C317.228 176.746 324.035 181.688 328.358 188.42C340.209 206.877 328.015 230.229 307.093 236.891C288.709 242.742 266.483 224.249 260.123 209.46Z" fill="#22343D"/>
<path fill-rule="evenodd" clip-rule="evenodd" d="M234.502 340.809C236.334 342.235 234.335 341.247 237 342.891C236.405 349.195 230.247 353.166 230.247 353.166C230.247 353.166 229.987 363.203 228.009 362.997C226.026 362.794 227.296 353.332 227.296 353.332C227.296 353.332 223.241 363.218 221.526 362.589C219.812 361.962 226.019 350.618 226.019 350.618C226.019 350.618 217.319 361.955 216.124 360.168C214.93 358.382 222.585 347.442 222.585 347.442C222.585 347.442 213.133 356.824 212.065 355.305C210.999 353.79 223.345 340.742 223.345 340.742C217.631 340.683 218.035 337 218.035 337L231.953 337.782C231.953 337.782 233.659 340.15 234.502 340.809Z" fill="#FFC6B2"/>
<path fill-rule="evenodd" clip-rule="evenodd" d="M366.657 153.511C369.048 153.898 367.193 153.167 370.295 154C375.39 149.728 374.714 143.015 374.714 143.015C374.714 143.015 383.258 136.69 381.841 135.455C380.416 134.216 373.004 140.88 373.004 140.88C373.004 140.88 379.034 132.036 377.412 131.24C375.793 130.446 369.843 141.665 369.843 141.665C369.843 141.665 374.221 128.733 371.918 129.004C369.622 129.276 364.93 141.242 364.93 141.242C364.93 141.242 367.136 128.992 365.151 129.186C363.165 129.378 359.954 145.426 359.954 145.426C355.275 141.912 352 144.161 352 144.161L362.24 153.429C362.24 153.429 365.559 153.335 366.657 153.511Z" fill="#FFC6B2"/>
<path fill-rule="evenodd" clip-rule="evenodd" d="M308.517 208.035C312.819 207.406 325.937 215.368 322.599 231.538C322.32 232.895 320.427 235.884 319.955 237.12C319.36 238.685 324 244.415 324 244.415L312.021 248C311.51 244.611 312.369 239.657 308.498 238.185C307.05 237.634 305.5 237.285 304.134 236.587C300.445 234.7 298.476 230.573 296.961 227.194C295.83 224.669 294.969 221.954 295.001 219.214C295.08 212.315 301.603 209.046 308.517 208.035Z" fill="#FFC6B2"/>
<path fill-rule="evenodd" clip-rule="evenodd" d="M333 251.986C333 246.206 330.998 244 324.372 244C317.746 244 309 246.206 309 251.986C309 257.766 313.679 265 320.307 265C326.932 265 333 257.766 333 251.986Z" fill="#FFC6B2"/>
<path fill-rule="evenodd" clip-rule="evenodd" d="M327 241.785C327 241.785 346.999 222.266 350.999 203.145C355.001 184.025 361.799 153 361.799 153L369.399 154.973C369.399 154.973 373.001 197.374 369.399 203.867C365.8 210.362 345.398 255.457 345.799 267L327 241.785Z" fill="#FFC6B2"/>
<path fill-rule="evenodd" clip-rule="evenodd" d="M290.761 251C290.761 251 283.943 252.082 273.514 274.452C263.086 296.821 231 338.466 231 338.466L236.215 343C236.215 343 267.498 320.993 273.514 307.645C279.529 294.296 287.15 277.7 290.761 278.42C294.369 279.143 309.611 259.297 290.761 251Z" fill="#FFC6B2"/>
<path fill-rule="evenodd" clip-rule="evenodd" d="M345.45 270L355 245.567C355 245.567 353.527 234.108 334.678 230L324 244.26L345.45 270Z" fill="#FF7B5B"/>
<path fill-rule="evenodd" clip-rule="evenodd" d="M294.09 249C294.09 249 282.994 249.886 274 268.616C274 268.616 283.891 281.563 291.127 282C291.127 282 318.002 260.22 294.09 249Z" fill="#FF7B5B"/>
<path fill-rule="evenodd" clip-rule="evenodd" d="M325 468.928C325 468.928 309.063 500.05 307.2 494.288C305.34 488.524 305.954 474.682 306.953 472.706C307.955 470.729 314.47 462 314.47 462L325 468.928Z" fill="#FFC6B2"/>
<path fill-rule="evenodd" clip-rule="evenodd" d="M325.85 322.252L340.551 317C340.551 317 384.18 389.026 383.999 409.009C383.819 428.99 324.077 469 324.077 469L314 461.246C314 461.246 342.317 422.346 352.176 412.251C357.107 407.203 321.809 382.462 316.463 358.657C311.117 334.852 325.85 322.252 325.85 322.252Z" fill="#654287"/>
<path fill-rule="evenodd" clip-rule="evenodd" d="M238 452.271C238 452.271 207.781 472.724 209.038 466.984C210.299 461.239 217.907 449.513 219.814 448.209C221.725 446.907 232.042 442 232.042 442L238 452.271Z" fill="#FFC6B2"/>
<path fill-rule="evenodd" clip-rule="evenodd" d="M286.364 348.479L329.893 325C329.893 325 331.621 406.559 321.171 424.193C310.722 441.828 236.972 453 236.972 453L232 442.035C232 442.035 277.5 416.804 291.47 411.866C305.44 406.926 286.364 348.479 286.364 348.479Z" fill="#775298"/>
<path fill-rule="evenodd" clip-rule="evenodd" d="M311.726 309C311.726 309 279.646 319.569 285.779 348.567C291.911 377.564 302.132 383 302.132 383L320.529 354.91L339 318.125L320.529 315.945L311.726 309Z" fill="#775298"/>
<path fill-rule="evenodd" clip-rule="evenodd" d="M327.502 241C327.502 241 351 253.377 351 281.346C351 281.346 348.015 313.231 343.177 320.198C343.177 320.198 335.313 322.003 325.507 320.198C315.226 318.306 305.277 311.514 305.277 311.514L297.247 272.477L291 249.683L294.387 248.633L312.059 246.809C312.059 246.809 309.52 271.621 329.253 259.3C333.409 256.704 324.079 243.766 324.079 243.766L327.502 241Z" fill="#FF7B5B"/>
<path fill-rule="evenodd" clip-rule="evenodd" d="M342 136.105L391.28 163L419 114.013L372.8 90L342 136.105Z" fill="white"/>
<path fill-rule="evenodd" clip-rule="evenodd" d="M409.948 371L445 350.577L416.041 303L384 322.556L409.948 371Z" fill="white"/>
<path fill-rule="evenodd" clip-rule="evenodd" d="M237.01 168.005C237.102 167.926 238.184 168.857 239.895 170.756C241.599 172.658 243.923 175.55 246.256 179.452C248.598 183.337 250.915 188.268 252.57 193.991C254.283 199.671 255.431 206.056 258.063 212.207C259.43 215.245 261.086 218.074 263.058 220.575C265.047 223.059 267.252 225.239 269.523 227.141C274.163 230.843 279.025 233.389 283.357 234.86C287.684 236.352 291.391 237.021 293.969 237.261C296.543 237.531 297.999 237.571 298 237.731C298.007 237.831 296.556 238.041 293.912 237.993C291.27 237.974 287.424 237.495 282.894 236.119C278.361 234.761 273.239 232.249 268.342 228.467C265.939 226.522 263.605 224.271 261.502 221.684C259.416 219.082 257.654 216.106 256.224 212.921C253.481 206.492 252.398 200.051 250.803 194.446C249.279 188.822 247.162 183.982 245.021 180.088C242.894 176.183 240.782 173.223 239.285 171.205C237.779 169.191 236.897 168.099 237.01 168.005Z" fill="#22343D"/>
<path fill-rule="evenodd" clip-rule="evenodd" d="M297.101 136C297.463 135.949 297.814 140.497 300.521 147.224C301.873 150.574 303.884 154.43 306.773 158.294C308.217 160.23 309.878 162.136 311.758 164.036C313.626 165.943 315.66 167.881 317.582 170.055C321.437 174.442 324.089 179.184 326.586 183.369C329.066 187.595 331.041 191.615 332.045 195.211C333.092 198.797 333.153 201.883 332.821 203.93C332.474 205.986 331.93 207.028 331.84 206.999C331.667 206.957 331.949 205.857 332.047 203.864C332.133 201.875 331.863 198.975 330.692 195.587C329.561 192.184 327.525 188.349 324.985 184.213C322.405 180.078 319.729 175.432 316.047 171.251C314.199 169.159 312.194 167.228 310.315 165.273C308.426 163.327 306.708 161.3 305.258 159.272C302.351 155.212 300.409 151.166 299.194 147.668C297.95 144.172 297.421 141.221 297.17 139.187C296.921 137.15 296.988 136.01 297.101 136Z" fill="#22343D"/>
<path fill-rule="evenodd" clip-rule="evenodd" d="M312.159 225.908C312.14 225.776 312.978 225.655 313.77 224.814C313.952 224.62 314.136 224.336 314.133 224.171C314.128 223.994 313.991 223.686 313.756 223.509C313.511 223.31 313.24 223.214 312.881 223.247C312.51 223.272 312.059 223.438 311.47 223.518C310.179 223.674 309.172 223.013 308.509 222.479C307.829 221.916 307.309 221.345 306.922 220.834C306.15 219.804 305.91 219.06 306.029 219.005C306.165 218.939 306.63 219.555 307.501 220.419C307.935 220.848 308.483 221.34 309.131 221.814C309.769 222.275 310.549 222.694 311.329 222.583C311.742 222.535 312.223 222.36 312.81 222.324C313.407 222.271 314.07 222.52 314.435 222.891C314.822 223.271 315.04 223.718 314.994 224.247C314.879 224.789 314.561 225.042 314.298 225.278C313.164 226.178 312.123 226.031 312.159 225.908Z" fill="#FF7B5B"/>
<path fill-rule="evenodd" clip-rule="evenodd" d="M318 226L309 228.993C309 228.993 316.636 235.104 318 226Z" fill="white"/>
<path fill-rule="evenodd" clip-rule="evenodd" d="M307.885 225.575C308.253 226.227 307.708 227.17 306.667 227.68C305.625 228.191 304.483 228.078 304.115 227.425C303.747 226.774 304.292 225.831 305.333 225.32C306.375 224.809 307.517 224.922 307.885 225.575Z" fill="#FFB2A0"/>
<path fill-rule="evenodd" clip-rule="evenodd" d="M318.927 220.714C319.222 221.42 318.598 222.343 317.535 222.777C316.47 223.212 315.369 222.992 315.073 222.285C314.778 221.579 315.402 220.657 316.466 220.223C317.53 219.789 318.631 220.008 318.927 220.714Z" fill="#FFB2A0"/>
<path fill-rule="evenodd" clip-rule="evenodd" d="M309 238.305C309 238.305 312.077 238.846 316 238C316 238 314.066 239.623 310.907 240C310.907 240 310.199 238.869 309 238.305Z" fill="#FFA192"/>
<path fill-rule="evenodd" clip-rule="evenodd" d="M312.647 218.237C313.068 218.595 313.12 219.226 312.763 219.647C312.405 220.068 311.776 220.12 311.353 219.763C310.932 219.407 310.88 218.776 311.237 218.353C311.595 217.932 312.226 217.88 312.647 218.237Z" fill="#22343D"/>
<path fill-rule="evenodd" clip-rule="evenodd" d="M305.647 222.237C306.068 222.595 306.12 223.226 305.763 223.647C305.407 224.068 304.776 224.12 304.353 223.763C303.932 223.405 303.88 222.776 304.237 222.353C304.595 221.932 305.226 221.88 305.647 222.237Z" fill="#22343D"/>
<path fill-rule="evenodd" clip-rule="evenodd" d="M312.991 215.344C312.896 215.514 312.008 215.507 311.031 215.672C310.046 215.82 309.299 216.087 309.057 215.972C308.807 215.875 309.386 215.281 310.722 215.07C312.055 214.856 313.11 215.187 312.991 215.344Z" fill="#22343D"/>
<path fill-rule="evenodd" clip-rule="evenodd" d="M301.063 220.973C300.849 220.818 301.184 219.931 301.999 219.043C302.822 218.136 303.876 217.833 303.986 218.086C304.104 218.333 303.462 218.908 302.74 219.705C302.007 220.5 301.294 221.142 301.063 220.973Z" fill="#22343D"/>
<path fill-rule="evenodd" clip-rule="evenodd" d="M297.854 228.078C297.854 228.078 294.699 225.805 293.184 227.861C291.67 229.917 300 231 300 231L297.854 228.078Z" fill="#FFC6B2"/>
<path fill-rule="evenodd" clip-rule="evenodd" d="M225 446C225 446 220.599 447.753 219.451 448.805C218.303 449.857 207.778 466.509 209.118 468.612C210.458 470.716 221.012 463.575 221.012 463.575C221.012 463.575 212.18 465.107 225 446Z" fill="#775298"/>
<path fill-rule="evenodd" clip-rule="evenodd" d="M309.225 468C309.225 468 306.066 471.146 305.578 472.591C305.091 474.034 304.218 493.577 306.497 494.889C308.774 496.203 315 485.419 315 485.419C315 485.419 307.557 490.791 309.225 468.045" fill="#775298"/>
</svg>
