<svg width="540" height="610" viewBox="0 0 540 610" fill="none" xmlns="http://www.w3.org/2000/svg">
<path d="M537.461 396.29C530.252 437.01 509.52 474.085 478.637 501.482C467.975 510.914 456.437 519.301 444.182 526.528C400.989 552.726 347.459 568.605 291.731 581.629L282.194 583.783C273.911 585.67 265.414 586.445 256.927 586.087C168.293 582.38 107.921 450.589 89.146 311.886C72.7674 188.41 100.182 48.5539 222.921 42.2424C269.011 39.9381 322.791 62.9803 372.726 100.048C376.321 102.703 379.916 105.458 383.462 108.263L385.659 110.016C478.887 184.553 555.038 305.424 537.461 396.29Z" fill="#FDE6D6"/>
<path d="M103.194 511.821C110.114 525.823 112.653 543.563 98.764 549.243C83.2327 555.621 58.4422 545.356 51.2739 521.986C46.6443 507.038 48.2373 486.209 61.2299 478.186C71.833 471.31 94.931 494.68 103.194 511.821Z" fill="#F5F9FD"/>
<path d="M484.298 196.278C478.051 190.804 473.054 182.668 478.351 177.194C483.648 171.719 497.94 171.267 506.336 181.262C511.683 187.64 515.381 198.086 511.333 204.464C507.735 209.888 492.094 202.958 484.298 196.278Z" fill="#FFAD69"/>
<path fill-rule="evenodd" clip-rule="evenodd" d="M189.11 116.746C185.928 116.395 182.698 116.145 179.468 115.994C179.212 116.07 178.938 115.97 178.784 115.745C178.631 115.519 178.631 115.217 178.784 114.992C178.938 114.766 179.212 114.666 179.468 114.742C182.358 114.742 185.328 115.073 188.233 115.396C188.526 115.429 188.818 115.461 189.11 115.493C189.273 115.505 189.424 115.588 189.525 115.722C189.626 115.855 189.668 116.027 189.64 116.195C189.601 116.48 189.385 116.705 189.11 116.746ZM140.351 119.5C140.087 119.479 139.858 119.303 139.765 119.049C139.671 118.704 139.867 118.345 140.204 118.248C143.283 117.396 146.508 116.645 149.978 115.993C150.133 115.948 150.301 115.971 150.439 116.056C150.578 116.142 150.676 116.282 150.711 116.444C150.771 116.789 150.555 117.12 150.222 117.196C146.997 117.847 143.821 118.598 140.742 119.45L140.351 119.5ZM219.046 122.011C222.21 122.863 225.373 123.765 228.537 124.767H228.982C229.309 124.767 229.575 124.498 229.575 124.166C229.575 123.834 229.309 123.564 228.982 123.564C225.769 122.512 222.556 121.611 219.442 120.759C219.264 120.697 219.07 120.718 218.908 120.814C218.747 120.91 218.635 121.073 218.601 121.26C218.558 121.585 218.743 121.897 219.046 122.011ZM121.355 126.252C121.137 126.234 120.941 126.104 120.832 125.905C120.694 125.59 120.82 125.217 121.117 125.061C123.971 123.722 126.92 122.431 129.964 121.29C130.109 121.226 130.273 121.227 130.417 121.292C130.561 121.358 130.673 121.483 130.726 121.637C130.827 121.952 130.683 122.295 130.393 122.431C127.396 123.573 124.447 124.863 121.641 126.203L121.355 126.252ZM237.994 127.567C241.138 128.669 244.332 129.872 247.475 131.074L247.931 131.124C248.267 131.124 248.54 130.855 248.54 130.523C248.54 130.191 248.267 129.922 247.931 129.922C244.788 128.719 241.594 127.517 238.4 126.415C238.08 126.33 237.743 126.476 237.589 126.765C237.487 127.097 237.665 127.449 237.994 127.567ZM103.52 137.273C103.311 137.288 103.109 137.186 102.995 137.007C102.876 136.887 102.81 136.724 102.81 136.555C102.81 136.385 102.876 136.222 102.995 136.102C105.885 134.027 108.827 132.058 111.875 130.302C112.184 130.188 112.529 130.314 112.696 130.6C112.863 130.887 112.805 131.253 112.558 131.473C109.563 133.229 106.568 135.145 103.783 137.167C103.72 137.215 103.649 137.251 103.573 137.273H103.52ZM264.636 139.278H264.925H264.973C265.173 139.272 265.355 139.165 265.455 138.995C265.52 138.858 265.526 138.7 265.472 138.558C265.417 138.416 265.307 138.302 265.166 138.24C262.277 136.87 259.339 135.596 256.354 134.321C256.213 134.257 256.053 134.251 255.908 134.305C255.763 134.358 255.646 134.466 255.583 134.604C255.444 134.904 255.571 135.259 255.872 135.407C258.809 136.634 261.795 137.956 264.636 139.278ZM88.4117 150.246C88.2845 150.282 88.1482 150.279 88.0226 150.236C87.904 150.124 87.8373 149.972 87.8373 149.813C87.8373 149.654 87.904 149.502 88.0226 149.39C90.4895 146.948 93.2714 144.408 95.6859 142.465C95.9499 142.224 96.3667 142.224 96.6307 142.465C96.884 142.715 96.884 143.111 96.6307 143.362C94.0588 145.504 91.3819 147.795 89.0723 150.187C88.8773 150.314 88.6274 150.336 88.4117 150.246ZM300.901 158.317H300.593C297.717 156.604 294.739 154.94 291.761 153.423C291.568 153.309 291.454 153.106 291.461 152.89C291.468 152.675 291.595 152.479 291.794 152.376C291.994 152.274 292.236 152.281 292.428 152.395C293.984 153.239 295.54 154.109 297.081 154.971L297.083 154.972L297.084 154.973C298.492 155.761 299.888 156.541 301.261 157.289C301.377 157.399 301.442 157.549 301.442 157.705C301.442 157.861 301.377 158.011 301.261 158.121C301.171 158.227 301.043 158.297 300.901 158.317ZM76.0312 165.284H76.3719C76.5683 165.372 76.7984 165.333 76.9558 165.186C78.5418 162.602 80.2411 160.436 81.9539 158.252L81.9539 158.252L81.954 158.252L81.954 158.252L81.954 158.252L81.954 158.252L81.954 158.252L81.9541 158.252L81.9541 158.252L81.9541 158.252L81.9541 158.252L81.9542 158.252L81.9543 158.252C82.1856 157.957 82.4173 157.662 82.6489 157.365C82.7746 157.254 82.8466 157.093 82.8466 156.925C82.8466 156.757 82.7746 156.596 82.6489 156.485C82.5393 156.375 82.3905 156.313 82.2353 156.313C82.0801 156.313 81.9312 156.375 81.8217 156.485C79.8266 159.027 77.8803 161.666 76.0312 164.453C75.9213 164.563 75.8595 164.712 75.8595 164.868C75.8595 165.024 75.9213 165.174 76.0312 165.284ZM317.824 169.297C317.708 169.352 317.572 169.352 317.456 169.297L308.736 163.506C308.432 163.32 308.337 162.927 308.526 162.627C308.715 162.327 309.114 162.235 309.419 162.42C312.396 164.282 315.337 166.195 318.244 168.159C318.466 168.412 318.466 168.786 318.244 169.038C318.157 169.188 317.999 169.285 317.824 169.297ZM66.2596 182.311C66.0972 182.249 65.9709 182.123 65.9126 181.965C65.8544 181.808 65.8701 181.634 65.9555 181.489C67.3743 178.538 68.9452 175.636 70.5667 172.83C70.63 172.572 70.8567 172.379 71.1331 172.349C71.4095 172.318 71.676 172.457 71.799 172.695C71.922 172.934 71.875 173.22 71.6815 173.411C70.06 176.168 68.5398 179.07 67.0703 182.021C67.004 182.163 66.8809 182.273 66.7285 182.328C66.5761 182.382 66.4072 182.376 66.2596 182.311ZM349.37 193.351C349.499 193.399 349.643 193.399 349.772 193.351C349.913 193.358 350.053 193.325 350.174 193.256C350.287 193.148 350.351 193.003 350.351 192.851C350.351 192.699 350.287 192.554 350.174 192.446C348.365 191.131 346.702 189.835 345.064 188.559L345.064 188.559C344.154 187.85 343.251 187.146 342.335 186.449C342.057 186.304 341.709 186.37 341.511 186.605C341.313 186.84 341.321 187.176 341.531 187.401C343.474 188.716 345.225 190.098 346.984 191.486L346.984 191.487L346.985 191.488L346.986 191.488C347.773 192.11 348.562 192.733 349.37 193.351ZM59.525 202.38C59.217 202.24 59.0492 201.894 59.1257 201.556C60.1738 198.207 61.2717 194.91 62.4695 191.768C62.6215 191.47 62.953 191.32 63.268 191.407C63.4234 191.465 63.5489 191.585 63.6151 191.741C63.6812 191.897 63.682 192.075 63.6174 192.231C62.4695 195.322 61.3716 198.619 60.3235 201.916C60.2266 202.272 59.8695 202.479 59.525 202.38ZM365.437 206.323C365.368 206.323 365.299 206.312 365.233 206.29C362.725 203.978 360.116 201.717 357.506 199.508C357.282 199.24 357.282 198.85 357.506 198.583C357.763 198.335 358.17 198.335 358.427 198.583L366.154 205.365C366.377 205.633 366.377 206.023 366.154 206.29C365.94 206.442 365.66 206.453 365.437 206.323ZM53.7347 220.182C53.8302 220.323 53.9828 220.416 54.1536 220.439C54.3431 220.454 54.5298 220.386 54.6643 220.254C54.7988 220.122 54.8675 219.939 54.8523 219.752C55.551 216.565 56.2996 213.329 57.148 210.192C57.2137 209.869 57.0192 209.551 56.6988 209.456C56.5334 209.395 56.3491 209.409 56.1951 209.494C56.0411 209.579 55.9332 209.727 55.9003 209.897C55.7387 210.582 55.5772 211.26 55.4169 211.934L55.4167 211.934C54.7847 214.588 54.172 217.161 53.6545 219.703C53.6099 219.867 53.6391 220.041 53.7347 220.182ZM393.653 234.409C393.513 234.471 393.352 234.471 393.212 234.409C391.011 232.064 388.712 229.624 386.462 227.471C386.226 227.23 386.226 226.85 386.462 226.61C386.716 226.401 387.088 226.401 387.342 226.61C388.312 227.599 389.291 228.625 390.267 229.648L390.27 229.651L390.27 229.651L390.271 229.651L390.271 229.651L390.271 229.652L390.271 229.652C391.559 231.001 392.842 232.344 394.093 233.596C394.329 233.836 394.329 234.216 394.093 234.457C393.944 234.483 393.792 234.466 393.653 234.409ZM50.098 239.789C50.0677 240.126 50.3081 240.427 50.6469 240.477C50.9724 240.511 51.2719 240.3 51.3456 239.986C51.7449 236.595 52.1941 233.302 52.6931 230.156C52.739 229.998 52.7091 229.828 52.6119 229.694C52.5148 229.56 52.361 229.477 52.1941 229.468C52.0349 229.44 51.8709 229.476 51.7393 229.569C51.6077 229.661 51.5197 229.802 51.4954 229.96C50.9464 233.204 50.4972 236.496 50.098 239.789ZM406.652 249.447C406.488 249.516 406.304 249.516 406.14 249.447L399.441 241.572C399.326 241.455 399.261 241.297 399.261 241.132C399.261 240.966 399.326 240.808 399.441 240.691C399.558 240.558 399.725 240.481 399.901 240.481C400.077 240.481 400.245 240.558 400.362 240.691C401.987 242.529 403.64 244.48 405.3 246.44L405.301 246.442L405.303 246.443C405.888 247.134 406.474 247.826 407.061 248.515C407.307 248.775 407.307 249.186 407.061 249.447C406.929 249.499 406.783 249.499 406.652 249.447ZM48.643 260.332C48.7568 260.453 48.9172 260.521 49.0851 260.521C49.4078 260.525 49.6843 260.295 49.7339 259.982C49.7943 258.659 49.9034 257.327 50.0121 256.001C50.1729 254.038 50.3328 252.086 50.3328 250.187C50.3364 249.843 50.0804 249.55 49.7339 249.501C49.5666 249.487 49.4011 249.543 49.2778 249.655C49.1544 249.766 49.0845 249.924 49.0851 250.089C49.0314 250.784 48.9732 251.481 48.9147 252.18L48.9147 252.181C48.7015 254.733 48.4862 257.308 48.4862 259.884C48.4722 260.048 48.5291 260.211 48.643 260.332ZM419.674 265.476C419.524 265.549 419.352 265.549 419.202 265.476C417.268 262.773 415.335 260.12 413.401 257.567C413.295 257.455 413.235 257.301 413.235 257.142C413.235 256.982 413.295 256.829 413.401 256.716C413.509 256.587 413.663 256.513 413.826 256.513C413.988 256.513 414.143 256.587 414.25 256.716C414.824 257.493 415.407 258.261 415.995 259.035L415.996 259.037C417.339 260.805 418.706 262.606 420.051 264.625C420.279 264.877 420.279 265.275 420.051 265.526L419.674 265.476ZM48.7836 279.973C48.7836 280.298 49.0517 280.561 49.3825 280.561H49.4324C49.6003 280.562 49.7607 280.493 49.8745 280.372C49.9884 280.251 50.0453 280.088 50.0313 279.924V273.067V270.129C50.0319 269.964 49.962 269.807 49.8386 269.695C49.7153 269.583 49.5498 269.527 49.3825 269.541C49.0517 269.541 48.7836 269.804 48.7836 270.129V273.067V279.973ZM430.639 281.516C430.46 281.579 430.264 281.579 430.085 281.516C428.271 278.906 426.357 276.248 424.392 273.541C424.278 273.433 424.214 273.285 424.214 273.131C424.214 272.976 424.278 272.829 424.392 272.72C424.646 272.487 425.046 272.487 425.299 272.72C427.314 275.378 429.228 278.084 431.042 280.694C431.255 280.93 431.255 281.28 431.042 281.516C430.914 281.57 430.768 281.57 430.639 281.516ZM441.188 298.294C441.28 298.483 441.468 298.601 441.672 298.597L442.01 298.294C442.12 298.18 442.181 298.025 442.181 297.864C442.181 297.702 442.12 297.548 442.01 297.434C440.608 294.552 438.914 291.67 437.173 288.737C436.937 288.524 436.587 288.524 436.351 288.737C436.139 289 436.139 289.384 436.351 289.647C437.279 291.375 438.259 293.103 439.24 294.832L439.241 294.835C439.895 295.988 440.549 297.141 441.188 298.294ZM50.705 300.552C50.3928 300.553 50.1322 300.319 50.1061 300.013C50.1061 298.013 49.926 296.012 49.7498 294.054C49.6326 292.752 49.5171 291.469 49.4573 290.218C49.4563 289.884 49.7175 289.607 50.0562 289.581C50.2235 289.567 50.389 289.623 50.5124 289.735C50.6357 289.847 50.7056 290.004 50.705 290.169C50.705 292.452 50.9104 294.786 51.1186 297.152C51.2007 298.085 51.2833 299.022 51.3538 299.964C51.3678 300.128 51.311 300.291 51.1971 300.412C51.0832 300.533 50.9228 300.602 50.7549 300.601L50.705 300.552ZM451.15 315.286C451.288 315.491 451.525 315.62 451.784 315.631V315.582C452.114 315.427 452.254 315.058 452.101 314.744C450.568 311.837 448.93 308.881 447.239 305.925C447.056 305.636 446.663 305.528 446.341 305.679C446.118 305.919 446.118 306.276 446.341 306.516C448.032 309.472 449.67 312.429 451.15 315.286ZM52.0037 320.641C51.681 320.645 51.4045 320.415 51.3549 320.102C50.9556 316.87 50.5564 313.589 50.207 310.307C50.1784 310.143 50.2217 309.975 50.3264 309.845C50.431 309.714 50.5871 309.633 50.756 309.622C51.0973 309.592 51.4033 309.828 51.4547 310.16C51.804 313.393 52.2033 316.674 52.6026 319.955C52.6312 320.119 52.5878 320.287 52.4832 320.418C52.3786 320.549 52.2225 320.63 52.0536 320.641H52.0037ZM457.967 334.25C458.066 334.504 458.3 334.669 458.559 334.669L458.757 334.617C458.91 334.558 459.035 334.435 459.1 334.276C459.165 334.118 459.166 333.937 459.102 333.778C457.967 330.526 456.683 327.275 455.349 324.023C455.195 323.696 454.824 323.557 454.51 323.708C454.365 323.777 454.252 323.905 454.197 324.062C454.141 324.22 454.147 324.395 454.214 324.548C455.547 327.799 456.781 331.051 457.967 334.25ZM55.2219 340.632C54.9265 340.636 54.6722 340.429 54.623 340.145C54.0241 336.927 53.4751 333.66 52.9761 330.393C52.9475 330.225 52.9896 330.052 53.0929 329.914C53.1962 329.777 53.352 329.686 53.5251 329.662C53.8664 329.632 54.1724 329.867 54.2238 330.198C54.6001 332.625 55.0048 335.051 55.4165 337.52L55.4166 337.52L55.4166 337.52L55.4167 337.521C55.5509 338.326 55.6859 339.135 55.8208 339.95C55.8826 340.285 55.6622 340.608 55.3217 340.681L55.2219 340.632ZM465.523 353.199C465.572 353.496 465.826 353.711 466.122 353.707L466.271 353.656C466.433 353.621 466.573 353.518 466.658 353.374C466.743 353.23 466.766 353.056 466.72 352.894C465.822 349.692 464.824 346.388 463.776 343.135C463.731 342.967 463.618 342.827 463.466 342.75C463.313 342.672 463.136 342.664 462.977 342.728C462.813 342.774 462.675 342.889 462.599 343.044C462.523 343.199 462.515 343.38 462.578 343.541C463.626 346.744 464.624 350.047 465.523 353.199ZM59.4138 360.721C59.1184 360.725 58.8641 360.517 58.8149 360.232C58.0663 357.001 57.3676 353.771 56.7687 350.443C56.7241 350.28 56.7533 350.106 56.8489 349.965C56.9444 349.824 57.0971 349.731 57.2678 349.709C57.4269 349.68 57.5909 349.716 57.7225 349.809C57.8541 349.901 57.9421 350.041 57.9665 350.198C58.2353 351.496 58.5127 352.811 58.7952 354.15L58.7956 354.152C59.1946 356.043 59.6037 357.981 60.0127 359.987C60.0578 360.143 60.0351 360.31 59.9501 360.449C59.865 360.588 59.7251 360.687 59.5635 360.721H59.4138ZM468.908 372.256C468.979 372.549 469.25 372.753 469.557 372.745L469.657 372.696C469.817 372.672 469.96 372.586 470.054 372.457C470.148 372.328 470.185 372.167 470.156 372.011C469.657 368.683 469.058 365.453 468.309 362.223C468.234 361.889 467.904 361.673 467.561 361.733C467.24 361.828 467.046 362.146 467.112 362.468C467.81 365.893 468.409 369.123 468.908 372.256ZM64.6205 380.761C64.3404 380.77 64.0916 380.578 64.0216 380.299V379.785C63.1732 376.447 62.3248 373.109 61.5262 369.514C61.4884 369.167 61.6991 368.842 62.0253 368.744C62.3492 368.699 62.6602 368.891 62.7739 369.206L62.7742 369.207L62.7743 369.208C63.5727 372.545 64.3711 375.883 65.2194 379.169V379.683C65.3153 380.037 65.1144 380.405 64.7702 380.504L64.6205 380.761ZM471.257 392.2C471.257 392.523 471.525 392.785 471.855 392.785L471.905 392.737C472.244 392.711 472.505 392.435 472.504 392.103C472.481 390.59 472.369 389.056 472.257 387.52C472.131 385.789 472.005 384.056 472.005 382.351C471.992 382.182 471.912 382.026 471.78 381.916C471.649 381.806 471.479 381.752 471.306 381.765C471.138 381.777 470.981 381.858 470.877 381.988C470.772 382.118 470.729 382.285 470.758 382.448C471.007 385.715 471.257 388.982 471.257 392.2ZM69.768 399.799C69.5061 399.799 69.2699 399.639 69.1691 399.392C68.2209 396.134 67.2727 392.826 66.3743 389.568C66.3292 389.405 66.3519 389.231 66.437 389.087C66.522 388.942 66.6619 388.84 66.8235 388.804C66.9757 388.757 67.1402 388.773 67.2807 388.849C67.4212 388.926 67.526 389.056 67.5721 389.211C68.4704 392.52 69.4187 395.778 70.3669 398.985C70.4672 399.322 70.2918 399.679 69.9677 399.799H69.768ZM469.706 412.635C469.812 412.758 469.969 412.828 470.134 412.825L470.334 412.776C470.598 412.717 470.798 412.502 470.833 412.238C470.908 411.554 470.99 410.866 471.072 410.174C471.373 407.643 471.681 405.058 471.681 402.442C471.661 402.117 471.41 401.851 471.082 401.805C470.915 401.792 470.749 401.848 470.626 401.959C470.503 402.071 470.433 402.228 470.433 402.393C470.234 405.724 469.934 409.005 469.585 412.189C469.555 412.348 469.599 412.511 469.706 412.635ZM75.8896 418.837C75.6199 418.816 75.3865 418.634 75.2907 418.372L75.2903 418.371L75.2902 418.37C74.2423 415.113 73.1944 411.856 72.1965 408.547C72.1698 408.237 72.3523 407.949 72.6375 407.85C72.9227 407.752 73.2359 407.869 73.3942 408.134C74.3924 411.443 75.4405 414.701 76.4885 417.958C76.5513 418.123 76.5437 418.307 76.4674 418.465C76.3912 418.623 76.2537 418.739 76.0893 418.786L75.8896 418.837ZM466.087 432.635C466.025 432.988 466.246 433.328 466.586 433.405L466.886 433.868C467.092 433.814 467.264 433.666 467.351 433.466C467.439 433.266 467.433 433.036 467.335 432.841C468.034 429.298 468.682 425.91 469.182 422.573C469.21 422.409 469.174 422.24 469.08 422.105C468.986 421.97 468.842 421.879 468.682 421.854C468.339 421.791 468.009 422.017 467.934 422.368C467.435 425.859 466.786 429.247 466.087 432.635ZM82.0552 437.876C81.7933 437.876 81.5571 437.712 81.4563 437.461C80.3084 434.251 79.1606 430.988 78.0626 427.726C77.9386 427.397 78.095 427.026 78.412 426.898C78.7289 426.769 79.0864 426.931 79.2105 427.26C79.5931 428.348 79.9702 429.435 80.3473 430.522C81.1014 432.697 81.8556 434.872 82.6541 437.047C82.7544 437.389 82.579 437.753 82.2548 437.876H82.0552ZM461.575 452.087C461.475 452.425 461.65 452.785 461.974 452.906H462.174C462.436 452.906 462.672 452.744 462.773 452.496C463.821 449.272 464.819 445.946 465.717 442.67C465.8 442.331 465.599 441.987 465.268 441.903C464.937 441.818 464.602 442.024 464.52 442.363C463.621 445.587 462.673 448.863 461.575 452.087ZM89.1986 456.912C88.9591 456.929 88.7369 456.781 88.6502 456.546C87.3539 453.301 86.1076 450.056 84.911 446.811C84.8291 446.646 84.8206 446.452 84.8879 446.281C84.9553 446.109 85.0915 445.977 85.26 445.921C85.5897 445.816 85.9401 446 86.0577 446.34C87.2542 449.585 88.5006 452.83 89.7968 456.023C89.9083 456.369 89.7594 456.749 89.4478 456.912H89.1986ZM454.214 470.063C454.078 470.371 454.202 470.734 454.494 470.885C454.791 471.025 455.141 470.897 455.288 470.595C456.642 467.743 457.904 464.746 459.118 461.749C459.217 461.442 459.076 461.108 458.791 460.975C458.655 460.91 458.499 460.904 458.359 460.959C458.218 461.013 458.105 461.124 458.044 461.265C456.829 464.263 455.568 467.211 454.214 470.063ZM97.2474 474.95C97.0255 474.951 96.8233 474.82 96.7308 474.613C95.416 471.68 94.1481 468.746 92.8802 465.765C92.8169 465.625 92.811 465.464 92.864 465.32C92.9169 465.175 93.0243 465.058 93.162 464.995C93.3096 464.916 93.4837 464.908 93.6378 464.973C93.7918 465.038 93.9098 465.169 93.9603 465.332C94.9186 467.634 95.9348 469.937 96.9407 472.216L96.9408 472.216L96.9409 472.217L96.9415 472.218L96.9422 472.22C97.2174 472.843 97.4917 473.465 97.7639 474.084C97.8997 474.39 97.7753 474.751 97.4822 474.902L97.2474 474.95ZM444.341 487.909H444.619L444.712 487.959C444.955 488.017 445.207 487.92 445.361 487.708C446.069 486.365 446.808 485 447.554 483.623L447.554 483.621L447.555 483.619C448.372 482.11 449.197 480.587 449.997 479.064C450.174 478.865 450.217 478.568 450.104 478.32C449.992 478.073 449.748 477.929 449.495 477.96C449.242 477.991 449.035 478.192 448.977 478.46C447.586 481.375 446.01 484.24 444.341 487.055C444.236 487.168 444.177 487.322 444.177 487.482C444.177 487.642 444.236 487.796 444.341 487.909ZM106.149 492.986C105.9 492.987 105.673 492.854 105.569 492.645C103.933 489.728 102.35 486.761 100.872 483.892C100.801 483.751 100.794 483.589 100.854 483.442C100.913 483.296 101.034 483.178 101.189 483.114C101.429 482.916 101.792 482.916 102.033 483.114L106.73 491.867C106.891 492.164 106.775 492.525 106.466 492.694L106.149 492.986ZM432.373 504.989H432.755H432.851C432.944 505.017 433.044 505.017 433.138 504.989C435.193 502.383 437.153 499.677 439.018 497.021C439.126 496.908 439.187 496.755 439.187 496.595C439.187 496.435 439.126 496.282 439.018 496.169C438.91 496.055 438.764 495.992 438.612 495.992C438.459 495.992 438.313 496.055 438.205 496.169C436.68 498.546 435.092 500.588 433.465 502.678C433.103 503.144 432.738 503.612 432.373 504.087C432.142 504.339 432.142 504.737 432.373 504.989ZM115.11 511.022C114.897 511.023 114.699 510.908 114.585 510.718L114.224 510.037C112.81 507.364 111.352 504.608 109.813 501.81C109.75 501.521 109.875 501.224 110.12 501.082C110.365 500.94 110.669 500.99 110.863 501.202C112.39 504.239 113.964 507.226 115.635 510.06C115.836 510.307 115.836 510.674 115.635 510.921L115.11 511.022ZM418.423 518.938C418.546 518.999 418.692 518.999 418.816 518.938C418.931 519.015 419.07 519.049 419.208 519.035C421.372 517.047 423.494 514.776 425.498 512.63L426.033 512.058C426.27 511.816 426.27 511.434 426.033 511.192C425.922 511.083 425.772 511.022 425.616 511.022C425.459 511.022 425.309 511.083 425.198 511.192C424.02 512.347 422.797 513.616 421.555 514.906L421.55 514.912L421.549 514.913L421.549 514.913L421.548 514.913C420.516 515.986 419.469 517.073 418.423 518.12C418.298 518.221 418.225 518.371 418.225 518.529C418.225 518.688 418.298 518.838 418.423 518.938ZM125.386 528.056C125.18 528.048 124.99 527.935 124.873 527.75C123.239 524.946 121.559 521.989 119.926 519.083C119.729 518.834 119.729 518.465 119.926 518.216C120.031 518.101 120.174 518.036 120.323 518.036C120.471 518.036 120.614 518.101 120.719 518.216C122.055 520.662 123.457 523.109 124.842 525.525L124.844 525.529L125.324 526.366L125.619 526.883C125.816 527.132 125.816 527.501 125.619 527.75L125.386 528.056ZM403.434 532.81C403.562 532.963 403.748 533.055 403.947 533.066L404.101 533.015C404.121 533 404.141 532.984 404.159 532.968C404.172 532.956 404.185 532.944 404.197 532.931C404.218 532.909 404.237 532.886 404.255 532.861L412.051 526.152C412.298 525.895 412.298 525.488 412.051 525.231C411.935 525.115 411.779 525.05 411.615 525.05C411.451 525.05 411.294 525.115 411.179 525.231C410.161 526.107 409.159 526.984 408.161 527.857L408.16 527.858L408.16 527.858L408.159 527.859C406.591 529.23 405.032 530.594 403.434 531.939C403.318 532.055 403.253 532.211 403.253 532.375C403.253 532.538 403.318 532.695 403.434 532.81ZM137.219 545.09C137.011 545.083 136.822 544.964 136.719 544.775C134.77 542.041 132.821 539.15 130.922 536.206C130.703 535.933 130.703 535.534 130.922 535.26C131.173 535.007 131.57 535.007 131.821 535.26C133.72 538.151 135.669 541.042 137.569 543.828C137.681 543.947 137.745 544.108 137.745 544.275C137.745 544.443 137.681 544.604 137.569 544.722C137.531 544.845 137.462 544.954 137.369 545.037L137.219 545.09ZM387.454 545.035C387.608 545.108 387.785 545.108 387.94 545.035L388.085 544.986C388.131 545.01 388.18 545.027 388.231 545.035C390.949 543.09 393.571 541.095 396.095 539.1C396.204 538.988 396.266 538.835 396.266 538.676C396.266 538.517 396.204 538.364 396.095 538.252C395.986 538.139 395.837 538.076 395.682 538.076C395.527 538.076 395.379 538.139 395.27 538.252C393.002 540.044 390.656 541.796 388.267 543.581L388.261 543.585L388.259 543.586L388.258 543.587L388.257 543.588L388.256 543.589L387.454 544.188C387.344 544.3 387.283 544.452 387.283 544.612C387.283 544.771 387.344 544.923 387.454 545.035ZM372.012 556.112C371.794 556.116 371.594 555.995 371.495 555.799C371.378 555.682 371.312 555.522 371.312 555.356C371.312 555.19 371.378 555.03 371.495 554.913C374.494 553.036 377.441 551.159 380.232 549.282C380.349 549.164 380.507 549.098 380.672 549.098C380.837 549.098 380.995 549.164 381.111 549.282C381.228 549.399 381.294 549.559 381.294 549.725C381.294 549.891 381.228 550.051 381.111 550.168C378.319 552.045 375.372 553.922 372.374 555.799L372.012 556.112ZM149.534 560.018C149.703 560.081 149.89 560.081 150.059 560.018L150.531 560.12C150.784 559.863 150.784 559.458 150.531 559.201C149.36 557.735 148.174 556.37 146.989 555.007L146.988 555.007L146.988 555.006L146.988 555.006L146.988 555.006L146.987 555.005L146.987 555.005L146.987 555.005L146.987 555.005L146.986 555.004L146.986 555.004L146.986 555.004L146.986 555.004L146.986 555.003L146.985 555.003L146.985 555.003L146.985 555.002L146.985 555.002L146.984 555.002L146.984 555.002L146.984 555.001L146.984 555.001L146.983 555.001L146.983 555.001L146.983 555L146.983 555L146.983 555L146.982 554.999L146.981 554.998C145.94 553.8 144.899 552.602 143.869 551.337C143.652 551.069 143.252 551.023 142.977 551.235C142.702 551.447 142.655 551.835 142.872 552.103C145.075 554.912 147.279 557.516 149.534 560.018ZM354.959 566.132C354.73 566.114 354.526 565.99 354.412 565.801C354.26 565.513 354.369 565.162 354.661 564.997C357.592 563.485 360.523 561.924 363.305 560.27C363.548 560.07 363.907 560.07 364.15 560.27C364.262 560.376 364.325 560.521 364.325 560.672C364.325 560.822 364.262 560.967 364.15 561.073L355.455 565.801L354.959 566.132ZM162.686 575.114C162.81 575.162 162.947 575.162 163.071 575.114V575.065C163.207 575.134 163.367 575.134 163.504 575.065C163.626 574.964 163.697 574.813 163.697 574.653C163.697 574.493 163.626 574.342 163.504 574.241C161.291 572.157 159.031 569.733 156.771 567.31L156.771 567.309C156.529 567.076 156.147 567.076 155.905 567.309C155.783 567.411 155.712 567.562 155.712 567.721C155.712 567.881 155.783 568.032 155.905 568.133C158.181 570.557 160.442 572.884 162.686 575.114ZM336.98 575.15C336.752 575.152 336.545 575.012 336.451 574.792C336.37 574.638 336.355 574.455 336.41 574.289C336.465 574.122 336.585 573.989 336.739 573.924L345.299 569.325C345.488 569.13 345.773 569.082 346.01 569.206C346.247 569.331 346.385 569.599 346.354 569.878C346.324 570.157 346.133 570.385 345.876 570.449C342.99 572.033 340.153 573.566 337.22 575.048L336.98 575.15ZM318.468 583.734C318.555 583.988 318.783 584.161 319.043 584.168L319.304 584.114L328.808 579.559C329.091 579.516 329.319 579.294 329.376 579.003C329.434 578.712 329.309 578.414 329.065 578.259C328.821 578.104 328.509 578.125 328.286 578.312C326.06 579.429 323.808 580.491 321.548 581.557L321.546 581.558L321.54 581.561C320.621 581.994 319.702 582.428 318.782 582.867C318.628 582.938 318.509 583.069 318.45 583.232C318.391 583.396 318.398 583.576 318.468 583.734ZM179.064 587.147C178.95 587.183 178.827 587.183 178.713 587.147C177.168 586.033 175.694 584.886 174.165 583.696L174.163 583.695C173.116 582.881 172.044 582.046 170.905 581.189C170.643 580.981 170.609 580.614 170.83 580.368C171.051 580.121 171.443 580.09 171.706 580.297L172.266 580.751C174.62 582.657 176.913 584.513 179.464 586.209C179.593 586.316 179.667 586.47 179.667 586.631C179.667 586.793 179.593 586.947 179.464 587.053C179.312 587.137 179.13 587.154 178.963 587.1L179.064 587.147ZM299.501 591.841C299.584 592.06 299.797 592.199 300.026 592.183L300.264 592.134C303.221 590.912 306.131 589.641 309.088 588.322C309.228 588.258 309.337 588.139 309.391 587.992C309.444 587.845 309.438 587.682 309.374 587.539C309.229 587.257 308.912 587.115 308.611 587.197C305.702 588.517 302.744 589.788 299.787 591.01C299.49 591.163 299.363 591.53 299.501 591.841ZM196.011 599.179H195.703C192.997 597.779 190.292 596.215 187.625 594.674L187.624 594.673L187.622 594.672L186.817 594.207C186.6 593.964 186.6 593.604 186.817 593.362C186.932 593.249 187.09 593.186 187.253 593.186C187.417 593.186 187.574 593.249 187.69 593.362C190.566 595.201 193.546 596.892 196.473 598.334C196.69 598.576 196.69 598.936 196.473 599.179C196.318 599.216 196.154 599.199 196.011 599.129V599.179ZM281.55 598.764C281.636 598.999 281.864 599.159 282.122 599.165L282.382 599.115L292.059 595.408C292.376 595.27 292.534 594.924 292.423 594.606C292.281 594.3 291.921 594.149 291.591 594.255L281.914 597.963C281.741 598.004 281.598 598.12 281.527 598.277C281.455 598.434 281.464 598.614 281.55 598.764ZM263.156 606.061C262.869 606.07 262.614 605.882 262.543 605.61C262.44 605.279 262.62 604.926 262.951 604.808C264.433 604.357 265.965 603.806 267.498 603.255L272.606 601.401C272.762 601.336 272.937 601.337 273.092 601.404C273.247 601.47 273.367 601.596 273.423 601.752C273.508 601.902 273.516 602.082 273.446 602.239C273.376 602.397 273.236 602.513 273.066 602.554L267.958 604.457C266.425 605.009 264.841 605.56 263.309 606.011L263.156 606.061ZM204.018 603.575C207.198 604.896 210.448 606.05 213.754 607.032V606.982C214.079 607.067 214.421 606.921 214.578 606.632C214.677 606.286 214.47 605.927 214.114 605.83C210.86 604.864 207.661 603.727 204.534 602.423C204.193 602.311 203.819 602.461 203.658 602.774C203.548 603.091 203.704 603.438 204.018 603.575ZM243.142 610C242.82 610 242.56 609.731 242.56 609.399C242.531 609.236 242.574 609.069 242.677 608.942C242.78 608.816 242.933 608.745 243.093 608.747C246.35 608.52 249.589 608.085 252.794 607.445C253.127 607.383 253.448 607.604 253.521 607.946C253.549 608.106 253.513 608.27 253.422 608.402C253.331 608.534 253.192 608.623 253.036 608.647C249.832 609.298 246.592 609.749 243.336 610H243.142ZM232.79 609.941C229.537 609.74 226.299 609.338 223.092 608.738C222.927 608.715 222.778 608.62 222.686 608.476C222.593 608.332 222.564 608.154 222.608 607.987C222.631 607.826 222.717 607.682 222.845 607.588C222.972 607.494 223.132 607.457 223.286 607.486C226.493 608.086 229.731 608.488 232.984 608.688C233.147 608.687 233.303 608.758 233.413 608.881C233.524 609.005 233.579 609.171 233.565 609.339C233.556 609.533 233.464 609.712 233.314 609.828C233.164 609.944 232.972 609.985 232.79 609.941ZM380.152 220.303C380.242 220.345 380.342 220.362 380.439 220.354C380.641 220.469 380.897 220.471 381.103 220.352C381.358 220.104 381.358 219.712 381.103 219.464C379.223 217.629 377.113 215.794 375.058 214.008C374.516 213.536 373.977 213.068 373.447 212.603C373.182 212.365 372.762 212.365 372.497 212.603C372.378 212.715 372.311 212.865 372.311 213.023C372.311 213.18 372.378 213.331 372.497 213.442C374.065 214.909 375.772 216.418 377.495 217.942C378.382 218.726 379.273 219.515 380.152 220.303ZM333.476 181.363H333.818C333.961 181.363 334.1 181.31 334.208 181.212C334.319 181.099 334.381 180.946 334.381 180.785C334.381 180.625 334.319 180.472 334.208 180.359C331.571 178.352 328.934 176.344 326.247 174.387C325.973 174.286 325.666 174.39 325.504 174.639C325.342 174.889 325.367 175.22 325.564 175.441C328.201 177.348 330.887 179.355 333.476 181.363ZM283.949 148.297H283.651C280.732 146.69 277.797 145.133 274.845 143.627C274.668 143.536 274.543 143.369 274.504 143.173C274.465 142.978 274.518 142.775 274.646 142.623C274.719 142.471 274.853 142.357 275.014 142.309C275.175 142.261 275.348 142.284 275.491 142.372C278.377 143.828 281.362 145.435 284.298 147.041C284.41 147.154 284.473 147.308 284.473 147.468C284.473 147.628 284.41 147.782 284.298 147.895C284.268 148.069 284.157 148.219 283.999 148.297H283.949ZM199.132 117.434C202.459 117.935 205.688 118.586 208.917 119.288C209.226 119.35 209.529 119.151 209.602 118.837C209.662 118.492 209.446 118.16 209.112 118.085C205.737 117.334 202.458 116.732 199.327 116.181C199.171 116.152 199.01 116.189 198.881 116.284C198.752 116.378 198.666 116.522 198.642 116.682C198.582 117.027 198.798 117.359 199.132 117.434ZM158.891 116.54C159.003 116.645 159.154 116.696 159.305 116.682H159.256C162.502 116.331 165.798 116.031 169.093 116.031C169.259 116.031 169.417 115.961 169.529 115.837C169.641 115.714 169.697 115.547 169.684 115.38C169.66 115.058 169.409 114.802 169.093 114.778C165.749 114.879 162.453 115.129 159.256 115.48C159.094 115.477 158.939 115.549 158.834 115.675C158.729 115.801 158.686 115.969 158.715 116.131C158.714 116.286 158.778 116.435 158.891 116.54Z" fill="#D8D5DB"/>
<path d="M468.765 396.507C468.765 397.108 468.765 397.609 468.765 398.161C467.519 412.146 455.556 441.972 443.843 468.339C444.242 477.863 444.541 486.384 444.591 493.402C444.591 494.705 444.591 495.909 444.591 497.112H443.145C443.494 503.327 443.943 514.105 444.292 526.486C401.178 552.702 347.746 568.593 292.122 581.626L282.602 583.781C274.333 585.67 265.852 586.445 257.381 586.087C256.871 583.989 256.687 581.825 256.833 579.671C258.011 551.41 260.941 523.251 265.605 495.357L262.515 494.906C273.829 456.509 279.511 401.118 282.452 353.047C282.801 347.382 283.1 341.868 283.349 336.404C276.122 343.823 271.138 348.435 271.138 348.435L255.836 323.121C236.945 336.856 219.102 348.986 210.379 354.6C203.152 361.418 190.841 362.42 181.171 349.588C165.521 328.986 143.44 242.516 140.848 227.829C140.47 227.685 140.117 227.482 139.802 227.228C136.213 222.215 123.653 194.896 124.849 189.582C126.045 184.269 131.927 172.79 138.755 171.236C137.958 168.78 137.06 166.223 135.764 162.664C132.874 154.744 129.434 146.724 134.618 147.626C139.802 148.528 151.664 177.702 153.708 182.715C154.007 180.359 154.306 178.454 154.306 178.454C155.901 173.742 164.275 171.236 163.029 178.454C161.583 188.48 165.072 193.492 164.923 201.763C164.923 202.214 164.923 202.716 164.923 203.417C164.943 203.718 164.943 204.019 164.923 204.32C164.949 204.536 164.949 204.755 164.923 204.971C164.923 204.971 164.923 205.222 164.923 205.322C163.709 211.482 161.557 217.417 158.543 222.917C163.976 240.762 188.897 287.43 203.401 313.145C212.273 305.727 223.338 296.904 234.802 288.082L233.805 286.428C233.805 286.428 292.919 230.837 323.523 226.626C323.971 224.471 324.27 222.115 324.569 219.659C324.868 217.202 325.068 213.042 325.167 209.633C302.688 209.382 300.595 192.74 302.838 171.587L299.299 170.684L304.532 157.05V156.047C303.958 155.375 303.624 154.527 303.585 153.641C303.585 151.987 304.034 150.584 304.931 150.533C305.059 150.483 305.202 150.483 305.33 150.533C305.33 149.33 305.729 148.127 305.878 146.924C306.277 144.268 306.775 141.912 307.274 139.455C305.941 139.192 304.57 139.192 303.236 139.455L302.838 136.999C304.486 136.704 306.174 136.704 307.822 136.999C309.476 130.278 312.149 123.854 315.747 117.951C308.57 117.45 305.18 115.094 310.165 109.279C317.89 100.256 354.475 95.7446 372.917 99.5542C379.396 100.908 383.633 103.264 383.683 106.772C383.683 107.174 383.683 107.424 383.683 107.775C385.569 106.972 387.193 105.652 388.368 103.965L390.462 105.369C389.259 107.081 387.692 108.502 385.876 109.529L385.128 109.93C404.866 122.863 376.954 192.139 376.854 192.139C376.306 204.019 375.957 215.749 376.007 224.02C393.751 226.075 404.966 231.288 412.392 239.459C432.329 255.549 462.933 321.567 462.933 321.567L450.422 324.875C459.344 353.648 466.92 382.521 469.114 392.196C469.179 393.642 469.062 395.09 468.765 396.507Z" fill="#D1CDD3"/>
<rect opacity="0.3" x="376.303" y="285.571" width="334.381" height="261.523" rx="34" transform="rotate(180 376.303 285.571)" fill="#4D8DFF"/>
<path opacity="0.3" fill-rule="evenodd" clip-rule="evenodd" d="M39.9665 308.617H354.303C364.929 308.617 375.117 304.379 382.617 296.84C390.116 289.301 394.309 279.081 394.27 268.439V40.0282C394.27 17.9212 376.376 0 354.303 0H39.9665C17.8936 0 0 17.9212 0 40.0282V268.589C0 290.696 17.8936 308.617 39.9665 308.617ZM0.998152 39.9736C1.02569 18.4616 18.4201 1.02961 39.8856 1.00201H354.384C375.85 1.02961 393.244 18.4616 393.272 39.9736V268.644C393.244 290.156 375.85 307.588 354.384 307.615H39.8856C18.4201 307.588 1.02569 290.156 0.998152 268.644V39.9736Z" fill="#4D8DFF"/>
<g opacity="0.3">
<rect x="125.767" y="101.202" width="55.8965" height="44.0882" rx="6" transform="rotate(180 125.767 101.202)" fill="#4D8DFF"/>
<rect x="199.63" y="101.202" width="55.8965" height="44.0882" rx="6" transform="rotate(180 199.63 101.202)" fill="#4D8DFF"/>
<rect x="274.492" y="101.202" width="55.8965" height="44.0882" rx="6" transform="rotate(180 274.492 101.202)" fill="#4D8DFF"/>
<rect x="348.355" y="101.202" width="55.8965" height="44.0882" rx="6" transform="rotate(180 348.355 101.202)" fill="#4D8DFF"/>
</g>
<g opacity="0.3">
<rect x="125.767" y="176.353" width="55.8965" height="44.0882" rx="6" transform="rotate(180 125.767 176.353)" fill="#4D8DFF"/>
<rect x="199.63" y="176.353" width="55.8965" height="44.0882" rx="6" transform="rotate(180 199.63 176.353)" fill="#4D8DFF"/>
<rect x="274.492" y="176.353" width="55.8965" height="44.0882" rx="6" transform="rotate(180 274.492 176.353)" fill="#4D8DFF"/>
<rect x="348.355" y="176.353" width="55.8965" height="44.0882" rx="6" transform="rotate(180 348.355 176.353)" fill="#4D8DFF"/>
</g>
<g opacity="0.3">
<rect x="125.767" y="251.503" width="55.8965" height="44.0882" rx="6" transform="rotate(180 125.767 251.503)" fill="#4D8DFF"/>
<rect x="199.63" y="251.503" width="55.8965" height="44.0882" rx="6" transform="rotate(180 199.63 251.503)" fill="#4D8DFF"/>
<rect x="274.492" y="251.503" width="55.8965" height="44.0882" rx="6" transform="rotate(180 274.492 251.503)" fill="#4D8DFF"/>
<rect x="348.355" y="251.503" width="55.8965" height="44.0882" rx="6" transform="rotate(180 348.355 251.503)" fill="#4D8DFF"/>
</g>
<rect x="281.479" y="94.1884" width="55.8965" height="44.0882" rx="6" transform="rotate(180 281.479 94.1884)" fill="#4D8DFF"/>
<rect x="281.479" y="244.489" width="55.8965" height="44.0882" rx="6" transform="rotate(180 281.479 244.489)" fill="#FF4E4A"/>
<rect x="132.754" y="169.339" width="55.8965" height="44.0882" rx="6" transform="rotate(180 132.754 169.339)" fill="#FFC84D"/>
<path d="M415.231 149.299C413.523 160.263 410.208 219.714 411.564 233.294C412.921 246.874 346.27 250.999 355.16 235.859C364.05 220.72 357.722 170.474 357.722 170.474L415.231 149.299Z" fill="#FFAD69"/>
<path d="M411.238 150.301L358.336 169.617C360.317 186.147 360.788 202.823 359.743 219.439C381.547 210.458 376.724 192.195 376.724 182.361C376.724 173.43 411.289 152.006 411.238 150.301Z" fill="#D88344"/>
<path d="M341.567 153.307L333.383 171.208L343.364 175.351L341.567 153.307Z" fill="#D88344"/>
<path d="M341.599 146.908C336.597 180.696 328.394 214.383 369.21 208.811C410.026 203.238 416.328 150.824 416.228 140.883C415.578 88.0671 351.203 80.5364 341.599 146.908Z" fill="#FFAD69"/>
<path d="M421.32 110.043C423.429 108.948 425.261 107.382 426.675 105.466L424.573 104.057C423.296 105.779 421.562 107.104 419.569 107.88C419.596 107.529 419.596 107.175 419.569 106.824C419.569 93.1421 356.219 97.0656 345.76 109.289C339.555 116.532 346.161 118.443 356.869 118.091C356.074 118.706 355.481 119.547 355.168 120.506C348.112 155.263 381.439 189.467 385.192 192.385H412.413C412.413 192.385 440.936 122.819 421.32 110.043Z" fill="#232323"/>
<path d="M503.951 392.752C500.378 376.647 481.766 306.96 466.975 273.547L429.205 281.675C429.205 281.675 453.575 364.054 466.529 394.809C463.501 411.365 448.214 488.376 438.784 509.899C434.615 519.934 450.398 523.797 454.22 518.98C458.041 514.164 501.42 426.065 503.852 398.571C503.852 397.969 503.852 397.468 503.852 396.916C504.1 395.542 504.133 394.137 503.951 392.752Z" fill="#FFAD69"/>
<path d="M447.109 239.064C467.116 254.78 498.078 321.606 498.078 321.606L432.554 338.677C432.554 338.677 394.439 197.693 447.109 239.064Z" fill="#E5AA33"/>
<path d="M479.113 501.739C468.467 511.203 456.947 519.619 444.711 526.872C401.584 553.161 348.137 569.095 292.496 582.164C292.446 581.512 292.446 580.856 292.496 580.204C294.291 549.089 297.482 513.551 302.467 490.982L445.11 493.847L478.814 494.551C478.814 496.26 479.113 498.672 479.113 501.739Z" fill="#232323"/>
<path d="M399.556 223.57C438.808 224.87 452.109 238.124 458.86 261.081C466.56 287.088 480.111 444.382 480.111 496.897C480.111 496.897 362.553 505.25 297.449 494.546C317.851 425.577 320.051 301.592 320.501 264.482C320.801 236.924 349.753 221.92 399.556 223.57Z" fill="#FFC84D"/>
<path fill-rule="evenodd" clip-rule="evenodd" d="M404.648 250.981C405.356 251.947 406.478 252.513 407.668 252.505L408.272 252.302C409.623 252.129 410.777 251.237 411.293 249.965L417.031 235.54C417.414 234.381 417.23 233.107 416.536 232.106C415.841 231.105 414.718 230.495 413.507 230.461H397.047C395.617 230.461 394.31 231.276 393.67 232.567C393.031 233.857 393.169 235.402 394.027 236.556L404.648 250.981ZM395.46 234.181C395.676 233.735 396.127 233.456 396.617 233.467H413.007C413.43 233.462 413.826 233.673 414.063 234.028C414.29 234.403 414.29 234.876 414.063 235.251L408.331 249.677C408.179 250.122 407.788 250.44 407.326 250.492C406.878 250.545 406.437 250.351 406.169 249.983L395.46 235.506C395.204 235.103 395.204 234.584 395.46 234.181Z" fill="white"/>
<path d="M320.353 273.796C320.054 292.051 319.356 321.169 317.412 353.707C334.012 333.591 350.312 309.804 351.259 291.951C352.605 267.409 338.797 265.9 320.353 273.796Z" fill="#E5AA33"/>
<path d="M342.366 281.924L322.452 248.564C322.452 248.564 267.689 288.345 238.266 312.975C223.729 287.191 198.886 240.488 193.46 222.679C196.461 217.194 198.594 211.27 199.782 205.122C199.812 205.007 199.812 204.886 199.782 204.771C199.782 204.771 199.782 204.319 199.782 204.118C199.804 203.818 199.804 203.516 199.782 203.216C199.782 202.513 199.782 201.961 199.782 201.51C199.782 193.433 196.447 188.467 197.891 178.234C198.886 171.06 190.771 173.518 189.178 178.234L188.531 182.447C186.49 177.431 174.193 147.984 169.513 147.332C164.833 146.68 167.771 154.606 170.658 162.382C171.903 165.843 172.849 168.552 173.645 170.96C166.775 172.565 160.701 184.404 159.755 189.37C158.809 194.336 171.256 222.027 174.691 227.044C174.957 227.379 175.277 227.667 175.637 227.896C178.176 242.645 200.529 329.128 215.863 349.796C225.521 362.588 237.868 361.585 245.086 354.813C262.81 343.425 317.274 305.702 342.366 281.924Z" fill="#FFAD69"/>
<path d="M376.213 248.803C374.217 285.593 306.336 348.697 306.336 348.697L268.503 286.546C268.503 286.546 379.907 181.89 376.213 248.803Z" fill="#FFC84D"/>
<path d="M355.82 157.243C354.279 166.132 352.019 174.971 360.495 174.314C368.972 173.658 371.13 159.819 371.284 157.192C372.003 143.05 358.851 139.666 355.82 157.243Z" fill="#FFAD69"/>
</svg>
