<svg width="110" height="46" viewBox="0 0 110 46" fill="none" xmlns="http://www.w3.org/2000/svg">
<rect width="110" height="46" rx="4" fill="#FF9900"/>
<path d="M27.476 29.16C26.6013 29.16 25.764 29.0373 24.964 28.792C24.164 28.536 23.5293 28.2107 23.06 27.816L23.78 26.2C24.228 26.552 24.7827 26.8453 25.444 27.08C26.1053 27.3147 26.7827 27.432 27.476 27.432C28.0627 27.432 28.5373 27.368 28.9 27.24C29.2627 27.112 29.5293 26.9413 29.7 26.728C29.8707 26.504 29.956 26.2533 29.956 25.976C29.956 25.6347 29.8333 25.3627 29.588 25.16C29.3427 24.9467 29.0227 24.7813 28.628 24.664C28.244 24.536 27.812 24.4187 27.332 24.312C26.8627 24.2053 26.388 24.0827 25.908 23.944C25.4387 23.7947 25.0067 23.608 24.612 23.384C24.228 23.1493 23.9133 22.84 23.668 22.456C23.4227 22.072 23.3 21.5813 23.3 20.984C23.3 20.376 23.46 19.8213 23.78 19.32C24.1107 18.808 24.6067 18.4027 25.268 18.104C25.94 17.7947 26.788 17.64 27.812 17.64C28.484 17.64 29.1507 17.7253 29.812 17.896C30.4733 18.0667 31.0493 18.312 31.54 18.632L30.884 20.248C30.3827 19.9493 29.8653 19.7307 29.332 19.592C28.7987 19.4427 28.2867 19.368 27.796 19.368C27.22 19.368 26.7507 19.4373 26.388 19.576C26.036 19.7147 25.7747 19.896 25.604 20.12C25.444 20.344 25.364 20.6 25.364 20.888C25.364 21.2293 25.4813 21.5067 25.716 21.72C25.9613 21.9227 26.276 22.0827 26.66 22.2C27.0547 22.3173 27.492 22.4347 27.972 22.552C28.452 22.6587 28.9267 22.7813 29.396 22.92C29.876 23.0587 30.308 23.24 30.692 23.464C31.0867 23.688 31.4013 23.992 31.636 24.376C31.8813 24.76 32.004 25.2453 32.004 25.832C32.004 26.4293 31.8387 26.984 31.508 27.496C31.188 27.9973 30.692 28.4027 30.02 28.712C29.348 29.0107 28.5 29.16 27.476 29.16ZM33.8745 29V20.456H35.8745V29H33.8745ZM34.8825 19.048C34.5092 19.048 34.1998 18.9307 33.9545 18.696C33.7198 18.4613 33.6025 18.1787 33.6025 17.848C33.6025 17.5067 33.7198 17.224 33.9545 17C34.1998 16.7653 34.5092 16.648 34.8825 16.648C35.2558 16.648 35.5598 16.76 35.7945 16.984C36.0398 17.1973 36.1625 17.4693 36.1625 17.8C36.1625 18.152 36.0452 18.4507 35.8105 18.696C35.5758 18.9307 35.2665 19.048 34.8825 19.048ZM42.3715 32.216C41.5822 32.216 40.8088 32.1093 40.0515 31.896C39.3048 31.6933 38.6915 31.3947 38.2115 31L39.1075 29.496C39.4808 29.8053 39.9502 30.0507 40.5155 30.232C41.0915 30.424 41.6728 30.52 42.2595 30.52C43.1982 30.52 43.8862 30.3013 44.3235 29.864C44.7608 29.4373 44.9795 28.792 44.9795 27.928V26.408L45.1395 24.472L45.0755 22.536V20.456H46.9795V27.704C46.9795 29.2507 46.5848 30.3867 45.7955 31.112C45.0062 31.848 43.8648 32.216 42.3715 32.216ZM42.1155 28.616C41.3048 28.616 40.5688 28.4453 39.9075 28.104C39.2568 27.752 38.7395 27.2667 38.3555 26.648C37.9822 26.0293 37.7955 25.304 37.7955 24.472C37.7955 23.6507 37.9822 22.9307 38.3555 22.312C38.7395 21.6933 39.2568 21.2133 39.9075 20.872C40.5688 20.5307 41.3048 20.36 42.1155 20.36C42.8408 20.36 43.4915 20.504 44.0675 20.792C44.6435 21.08 45.1022 21.528 45.4435 22.136C45.7955 22.744 45.9715 23.5227 45.9715 24.472C45.9715 25.4213 45.7955 26.2053 45.4435 26.824C45.1022 27.432 44.6435 27.8853 44.0675 28.184C43.4915 28.472 42.8408 28.616 42.1155 28.616ZM42.4195 26.92C42.9208 26.92 43.3688 26.8187 43.7635 26.616C44.1582 26.4027 44.4622 26.1147 44.6755 25.752C44.8995 25.3787 45.0115 24.952 45.0115 24.472C45.0115 23.992 44.8995 23.5707 44.6755 23.208C44.4622 22.8347 44.1582 22.552 43.7635 22.36C43.3688 22.1573 42.9208 22.056 42.4195 22.056C41.9182 22.056 41.4648 22.1573 41.0595 22.36C40.6648 22.552 40.3555 22.8347 40.1315 23.208C39.9182 23.5707 39.8115 23.992 39.8115 24.472C39.8115 24.952 39.9182 25.3787 40.1315 25.752C40.3555 26.1147 40.6648 26.4027 41.0595 26.616C41.4648 26.8187 41.9182 26.92 42.4195 26.92ZM54.4569 20.36C55.1395 20.36 55.7475 20.4933 56.2809 20.76C56.8249 21.0267 57.2515 21.4373 57.5609 21.992C57.8702 22.536 58.0249 23.24 58.0249 24.104V29H56.0249V24.36C56.0249 23.6027 55.8435 23.0373 55.4809 22.664C55.1289 22.2907 54.6329 22.104 53.9929 22.104C53.5235 22.104 53.1075 22.2 52.7449 22.392C52.3822 22.584 52.0995 22.872 51.8969 23.256C51.7049 23.6293 51.6089 24.104 51.6089 24.68V29H49.6089V20.456H51.5129V22.76L51.1769 22.056C51.4755 21.512 51.9075 21.096 52.4729 20.808C53.0489 20.5093 53.7102 20.36 54.4569 20.36ZM69.9919 29.16C68.4559 29.16 67.2505 28.728 66.3759 27.864C65.5119 27 65.0799 25.752 65.0799 24.12V17.8H67.1599V24.04C67.1599 25.192 67.4052 26.0293 67.8959 26.552C68.3972 27.0747 69.1012 27.336 70.0079 27.336C70.9145 27.336 71.6132 27.0747 72.1039 26.552C72.5945 26.0293 72.8399 25.192 72.8399 24.04V17.8H74.8879V24.12C74.8879 25.752 74.4505 27 73.5759 27.864C72.7119 28.728 71.5172 29.16 69.9919 29.16ZM82.3449 29.112C81.6515 29.112 81.0169 28.952 80.4409 28.632C79.8755 28.312 79.4222 27.832 79.0809 27.192C78.7502 26.5413 78.5849 25.72 78.5849 24.728C78.5849 23.7253 78.7449 22.904 79.0649 22.264C79.3955 21.624 79.8435 21.1493 80.4089 20.84C80.9742 20.52 81.6195 20.36 82.3449 20.36C83.1875 20.36 83.9289 20.5413 84.5689 20.904C85.2195 21.2667 85.7315 21.7733 86.1049 22.424C86.4889 23.0747 86.6809 23.8427 86.6809 24.728C86.6809 25.6133 86.4889 26.3867 86.1049 27.048C85.7315 27.6987 85.2195 28.2053 84.5689 28.568C83.9289 28.9307 83.1875 29.112 82.3449 29.112ZM77.6089 32.104V20.456H79.5129V22.472L79.4489 24.744L79.6089 27.016V32.104H77.6089ZM82.1209 27.4C82.6009 27.4 83.0275 27.2933 83.4009 27.08C83.7849 26.8667 84.0889 26.5573 84.3129 26.152C84.5369 25.7467 84.6489 25.272 84.6489 24.728C84.6489 24.1733 84.5369 23.6987 84.3129 23.304C84.0889 22.8987 83.7849 22.5893 83.4009 22.376C83.0275 22.1627 82.6009 22.056 82.1209 22.056C81.6409 22.056 81.2089 22.1627 80.8249 22.376C80.4409 22.5893 80.1369 22.8987 79.9129 23.304C79.6889 23.6987 79.5769 24.1733 79.5769 24.728C79.5769 25.272 79.6889 25.7467 79.9129 26.152C80.1369 26.5573 80.4409 26.8667 80.8249 27.08C81.2089 27.2933 81.6409 27.4 82.1209 27.4Z" fill="white"/>
</svg>
